<?xml version="1.0" encoding="UTF-8" standalone="no"?>
<svg
   xmlns:dc="http://purl.org/dc/elements/1.1/"
   xmlns:cc="http://creativecommons.org/ns#"
   xmlns:rdf="http://www.w3.org/1999/02/22-rdf-syntax-ns#"
   xmlns:svg="http://www.w3.org/2000/svg"
   xmlns="http://www.w3.org/2000/svg"
   xmlns:xlink="http://www.w3.org/1999/xlink"
   xmlns:sodipodi="http://sodipodi.sourceforge.net/DTD/sodipodi-0.dtd"
   xmlns:inkscape="http://www.inkscape.org/namespaces/inkscape"
   width="258mm"
   height="120mm"
   viewBox="0 0 258 120"
   version="1.1"
   id="svg8"
   inkscape:version="1.0 (4035a4fb49, 2020-05-01)"
   sodipodi:docname="goblin-crafty-poly.svg">
  <defs
     id="defs2">
    <linearGradient
       id="linearGradient1692"
       inkscape:collect="always">
      <stop
         id="stop1688"
         offset="0"
         style="stop-color:#ffffff;stop-opacity:1;" />
      <stop
         id="stop1690"
         offset="1"
         style="stop-color:#929292;stop-opacity:1" />
    </linearGradient>
    <linearGradient
       id="linearGradient1678"
       inkscape:collect="always">
      <stop
         id="stop1674"
         offset="0"
         style="stop-color:#3b7624;stop-opacity:1" />
      <stop
         id="stop1676"
         offset="1"
         style="stop-color:#14280c;stop-opacity:1" />
    </linearGradient>
    <linearGradient
       id="linearGradient1670"
       inkscape:collect="always">
      <stop
         id="stop1666"
         offset="0"
         style="stop-color:#213616;stop-opacity:1" />
      <stop
         id="stop1668"
         offset="1"
         style="stop-color:#44752f;stop-opacity:1" />
    </linearGradient>
    <linearGradient
       id="linearGradient1586"
       inkscape:collect="always">
      <stop
         id="stop1582"
         offset="0"
         style="stop-color:#000100;stop-opacity:1" />
      <stop
         id="stop1584"
         offset="1"
         style="stop-color:#284f18;stop-opacity:1" />
    </linearGradient>
    <linearGradient
       id="linearGradient1203"
       inkscape:collect="always">
      <stop
         id="stop1199"
         offset="0"
         style="stop-color:#bababa;stop-opacity:1" />
      <stop
         id="stop1201"
         offset="1"
         style="stop-color:#545454;stop-opacity:1" />
    </linearGradient>
    <linearGradient
       inkscape:collect="always"
       id="linearGradient1093">
      <stop
         style="stop-color:#8dc52e;stop-opacity:1"
         offset="0"
         id="stop1089" />
      <stop
         style="stop-color:#2c5e18;stop-opacity:1"
         offset="1"
         id="stop1091" />
    </linearGradient>
    <linearGradient
       inkscape:collect="always"
       id="linearGradient1069">
      <stop
         style="stop-color:#676767;stop-opacity:1"
         offset="0"
         id="stop1065" />
      <stop
         style="stop-color:#0d0d0d;stop-opacity:1"
         offset="1"
         id="stop1067" />
    </linearGradient>
    <radialGradient
       gradientUnits="userSpaceOnUse"
       gradientTransform="matrix(0.52804109,0.25183023,-0.21733671,0.45571463,72.154554,19.684736)"
       r="48.297222"
       fy="101.77766"
       fx="124.69931"
       cy="101.77766"
       cx="124.69931"
       id="radialGradient1095-4"
       xlink:href="#linearGradient1093"
       inkscape:collect="always" />
    <radialGradient
       gradientUnits="userSpaceOnUse"
       gradientTransform="matrix(0.98822585,0,0,0.49128064,-3.7840671,35.744364)"
       r="41.903694"
       fy="129.09323"
       fx="119.99999"
       cy="129.09323"
       cx="119.99999"
       id="radialGradient1071-7"
       xlink:href="#linearGradient1069"
       inkscape:collect="always" />
    <linearGradient
       y2="107.96781"
       x2="128.57864"
       y1="106.05507"
       x1="128.18785"
       gradientTransform="matrix(0.72212805,0.00680425,-0.00680425,0.72212805,15.276073,5.2025387)"
       gradientUnits="userSpaceOnUse"
       id="linearGradient1207-5"
       xlink:href="#linearGradient1203"
       inkscape:collect="always" />
    <linearGradient
       y2="107.96781"
       x2="128.57864"
       y1="106.05507"
       x1="128.18785"
       gradientTransform="matrix(0.71611786,0.09322248,-0.09322248,0.71611786,24.075489,-10.858842)"
       gradientUnits="userSpaceOnUse"
       id="linearGradient1198"
       xlink:href="#linearGradient1203"
       inkscape:collect="always" />
    <linearGradient
       y2="107.96781"
       x2="128.57864"
       y1="106.05507"
       x1="128.18785"
       gradientTransform="matrix(0.71611786,0.09322248,-0.09322248,0.71611786,22.996182,-16.110278)"
       gradientUnits="userSpaceOnUse"
       id="linearGradient1202"
       xlink:href="#linearGradient1203"
       inkscape:collect="always" />
    <linearGradient
       y2="107.96781"
       x2="128.57864"
       y1="106.05507"
       x1="128.18785"
       gradientTransform="matrix(0.71611786,0.09322248,-0.09322248,0.71611786,21.832659,-21.852228)"
       gradientUnits="userSpaceOnUse"
       id="linearGradient1206"
       xlink:href="#linearGradient1203"
       inkscape:collect="always" />
    <linearGradient
       y2="107.96781"
       x2="128.57864"
       y1="106.05507"
       x1="128.18785"
       gradientTransform="matrix(0.66162684,-0.28942209,0.28942209,0.66162684,-5.5301006,54.422973)"
       gradientUnits="userSpaceOnUse"
       id="linearGradient1210"
       xlink:href="#linearGradient1203"
       inkscape:collect="always" />
    <linearGradient
       y2="107.96781"
       x2="128.57864"
       y1="106.05507"
       x1="128.18785"
       gradientTransform="matrix(0.57399671,-0.43822711,0.43822711,0.57399671,-5.7810003,85.722431)"
       gradientUnits="userSpaceOnUse"
       id="linearGradient1214"
       xlink:href="#linearGradient1203"
       inkscape:collect="always" />
    <linearGradient
       y2="107.96781"
       x2="128.57864"
       y1="106.05507"
       x1="128.18785"
       gradientTransform="matrix(0.57399671,-0.43822711,0.43822711,0.57399671,-1.3639023,88.519925)"
       gradientUnits="userSpaceOnUse"
       id="linearGradient1218"
       xlink:href="#linearGradient1203"
       inkscape:collect="always" />
    <linearGradient
       y2="107.96781"
       x2="128.57864"
       y1="106.05507"
       x1="128.18785"
       gradientTransform="matrix(0.46726442,-0.5506171,0.5506171,0.46726442,5.4549479,116.71132)"
       gradientUnits="userSpaceOnUse"
       id="linearGradient1222"
       xlink:href="#linearGradient1203"
       inkscape:collect="always" />
    <linearGradient
       y2="107.96781"
       x2="128.57864"
       y1="106.05507"
       x1="128.18785"
       gradientTransform="matrix(-0.7212279,-0.03668177,-0.03668177,0.7212279,247.11596,10.321722)"
       gradientUnits="userSpaceOnUse"
       id="linearGradient1275-4"
       xlink:href="#linearGradient1203"
       inkscape:collect="always" />
    <linearGradient
       y2="107.96781"
       x2="128.57864"
       y1="106.05507"
       x1="128.18785"
       gradientTransform="matrix(-0.71647912,0.09040407,0.09040407,0.71647912,234.1849,-11.16336)"
       gradientUnits="userSpaceOnUse"
       id="linearGradient1250"
       xlink:href="#linearGradient1203"
       inkscape:collect="always" />
    <linearGradient
       y2="107.96781"
       x2="128.57864"
       y1="106.05507"
       x1="128.18785"
       gradientTransform="matrix(-0.71647912,0.09040407,0.09040407,0.71647912,235.26449,-16.609828)"
       gradientUnits="userSpaceOnUse"
       id="linearGradient1254"
       xlink:href="#linearGradient1203"
       inkscape:collect="always" />
    <linearGradient
       y2="107.96781"
       x2="128.57864"
       y1="106.05507"
       x1="128.18785"
       gradientTransform="matrix(-0.71647912,0.09040407,0.09040407,0.71647912,236.34437,-21.616583)"
       gradientUnits="userSpaceOnUse"
       id="linearGradient1258"
       xlink:href="#linearGradient1203"
       inkscape:collect="always" />
    <linearGradient
       y2="107.96781"
       x2="128.57864"
       y1="106.05507"
       x1="128.18785"
       gradientTransform="matrix(-0.62314883,-0.36496679,-0.36496679,0.62314883,265.88686,68.149616)"
       gradientUnits="userSpaceOnUse"
       id="linearGradient1262"
       xlink:href="#linearGradient1203"
       inkscape:collect="always" />
    <linearGradient
       y2="107.96781"
       x2="128.57864"
       y1="106.05507"
       x1="128.18785"
       gradientTransform="matrix(-0.55545749,-0.46149996,-0.46149996,0.55545749,262.63112,90.77705)"
       gradientUnits="userSpaceOnUse"
       id="linearGradient1266"
       xlink:href="#linearGradient1203"
       inkscape:collect="always" />
    <linearGradient
       y2="107.96781"
       x2="128.57864"
       y1="106.05507"
       x1="128.18785"
       gradientTransform="matrix(-0.55545749,-0.46149996,-0.46149996,0.55545749,258.06679,93.476386)"
       gradientUnits="userSpaceOnUse"
       id="linearGradient1270"
       xlink:href="#linearGradient1203"
       inkscape:collect="always" />
    <linearGradient
       y2="107.96781"
       x2="128.57864"
       y1="106.05507"
       x1="128.18785"
       gradientTransform="matrix(-0.36533724,-0.62293172,-0.62293172,0.36533724,245.46059,137.10081)"
       gradientUnits="userSpaceOnUse"
       id="linearGradient1274"
       xlink:href="#linearGradient1203"
       inkscape:collect="always" />
    <linearGradient
       gradientTransform="matrix(0.72216011,0,0,0.72216011,28.143827,13.519715)"
       gradientUnits="userSpaceOnUse"
       y2="39.401188"
       x2="95.596893"
       y1="42.909958"
       x1="182.47035"
       id="linearGradient1309"
       xlink:href="#linearGradient1307"
       inkscape:collect="always" />
    <linearGradient
       id="linearGradient1307"
       inkscape:collect="always">
      <stop
         id="stop1303"
         offset="0"
         style="stop-color:#4d9e08;stop-opacity:1" />
      <stop
         id="stop1305"
         offset="1"
         style="stop-color:#d7d41b;stop-opacity:1" />
    </linearGradient>
    <radialGradient
       gradientUnits="userSpaceOnUse"
       gradientTransform="matrix(0.72189059,0.0197279,-0.03789727,1.3867504,32.36998,-61.785336)"
       r="14.115251"
       fy="110.53477"
       fx="137.98137"
       cy="110.53477"
       cx="137.98137"
       id="radialGradient1063"
       xlink:href="#linearGradient1061"
       inkscape:collect="always" />
    <linearGradient
       id="linearGradient1061"
       inkscape:collect="always">
      <stop
         id="stop1057"
         offset="0"
         style="stop-color:#497537;stop-opacity:1" />
      <stop
         id="stop1059"
         offset="1"
         style="stop-color:#a6d045;stop-opacity:1" />
    </linearGradient>
    <linearGradient
       gradientTransform="matrix(-0.84557105,-0.5338629,-0.5338629,0.84557105,276.11506,57.834475)"
       y2="60.877193"
       x2="97.368423"
       y1="45.626831"
       x1="10.153612"
       gradientUnits="userSpaceOnUse"
       id="linearGradient1081"
       xlink:href="#linearGradient913"
       inkscape:collect="always" />
    <linearGradient
       id="linearGradient913"
       inkscape:collect="always">
      <stop
         id="stop909"
         offset="0"
         style="stop-color:#275813;stop-opacity:1" />
      <stop
         id="stop911"
         offset="1"
         style="stop-color:#599a3e;stop-opacity:1" />
    </linearGradient>
    <linearGradient
       gradientTransform="matrix(-0.84557105,-0.5338629,-0.5338629,0.84557105,276.11506,57.834475)"
       y2="69.484375"
       x2="69.11837"
       y1="57.543858"
       x1="72.631577"
       gradientUnits="userSpaceOnUse"
       id="linearGradient1083"
       xlink:href="#linearGradient905"
       inkscape:collect="always" />
    <linearGradient
       id="linearGradient905"
       inkscape:collect="always">
      <stop
         id="stop901"
         offset="0"
         style="stop-color:#000000;stop-opacity:1" />
      <stop
         id="stop903"
         offset="1"
         style="stop-color:#6f6f6f;stop-opacity:1" />
    </linearGradient>
    <linearGradient
       gradientTransform="matrix(-0.84557105,-0.5338629,-0.5338629,0.84557105,276.11506,57.834475)"
       y2="53.708996"
       x2="98.61319"
       y1="53.708996"
       x1="2.9686601"
       gradientUnits="userSpaceOnUse"
       id="linearGradient1085"
       xlink:href="#linearGradient929"
       inkscape:collect="always" />
    <linearGradient
       id="linearGradient929"
       inkscape:collect="always">
      <stop
         id="stop925"
         offset="0"
         style="stop-color:#599a3e;stop-opacity:1" />
      <stop
         id="stop927"
         offset="1"
         style="stop-color:#f6f264;stop-opacity:1" />
    </linearGradient>
    <linearGradient
       gradientTransform="matrix(-0.84557105,-0.5338629,-0.5338629,0.84557105,276.11506,57.834475)"
       y2="57.473843"
       x2="62.962799"
       y1="77.122971"
       x1="57.530064"
       gradientUnits="userSpaceOnUse"
       id="linearGradient1087"
       xlink:href="#linearGradient921"
       inkscape:collect="always" />
    <linearGradient
       id="linearGradient921"
       inkscape:collect="always">
      <stop
         id="stop917"
         offset="0"
         style="stop-color:#c4f450;stop-opacity:1" />
      <stop
         id="stop919"
         offset="1"
         style="stop-color:#497d33;stop-opacity:1" />
    </linearGradient>
    <linearGradient
       gradientTransform="rotate(-32.43573,91.31079,61.340235)"
       gradientUnits="userSpaceOnUse"
       y2="60.877193"
       x2="97.368423"
       y1="45.626831"
       x1="10.153612"
       id="linearGradient915"
       xlink:href="#linearGradient913"
       inkscape:collect="always" />
    <linearGradient
       gradientTransform="matrix(0.72216011,0,0,0.72216011,28.143827,13.519715)"
       gradientUnits="userSpaceOnUse"
       y2="132.58379"
       x2="138.0719"
       y1="126.16529"
       x1="138.12155"
       id="linearGradient1111"
       xlink:href="#linearGradient1109"
       inkscape:collect="always" />
    <linearGradient
       id="linearGradient1109"
       inkscape:collect="always">
      <stop
         id="stop1105"
         offset="0"
         style="stop-color:#000000;stop-opacity:1" />
      <stop
         id="stop1107"
         offset="1"
         style="stop-color:#000000;stop-opacity:0" />
    </linearGradient>
    <linearGradient
       gradientTransform="rotate(-32.43573,91.31079,61.340235)"
       gradientUnits="userSpaceOnUse"
       y2="69.484375"
       x2="69.11837"
       y1="57.543858"
       x1="72.631577"
       id="linearGradient907"
       xlink:href="#linearGradient905"
       inkscape:collect="always" />
    <linearGradient
       gradientTransform="rotate(-32.43573,91.31079,61.340235)"
       gradientUnits="userSpaceOnUse"
       y2="53.708996"
       x2="98.61319"
       y1="53.708996"
       x1="2.9686601"
       id="linearGradient931"
       xlink:href="#linearGradient929"
       inkscape:collect="always" />
    <linearGradient
       gradientTransform="rotate(-32.43573,91.31079,61.340235)"
       gradientUnits="userSpaceOnUse"
       y2="57.473843"
       x2="62.962799"
       y1="77.122971"
       x1="57.530064"
       id="linearGradient923"
       xlink:href="#linearGradient921"
       inkscape:collect="always" />
    <linearGradient
       gradientTransform="matrix(0.72216011,0,0,0.72216011,28.143827,13.519715)"
       gradientUnits="userSpaceOnUse"
       y2="131.53384"
       x2="148.09085"
       y1="131.53384"
       x1="127.2487"
       id="linearGradient1103"
       xlink:href="#linearGradient1101"
       inkscape:collect="always" />
    <linearGradient
       id="linearGradient1101"
       inkscape:collect="always">
      <stop
         id="stop1097"
         offset="0"
         style="stop-color:#599a3e;stop-opacity:1" />
      <stop
         id="stop1099"
         offset="1"
         style="stop-color:#1e4a0c;stop-opacity:1" />
    </linearGradient>
    <linearGradient
       id="linearGradient1053"
       inkscape:collect="always">
      <stop
         id="stop1049"
         offset="0"
         style="stop-color:#306219;stop-opacity:1" />
      <stop
         id="stop1051"
         offset="1"
         style="stop-color:#6eab0d;stop-opacity:1" />
    </linearGradient>
    <radialGradient
       gradientUnits="userSpaceOnUse"
       gradientTransform="matrix(0.75999408,-0.02434345,0.00721832,0.22535331,21.881025,62.641263)"
       r="33.250607"
       fy="65.753632"
       fx="139.20648"
       cy="65.753632"
       cx="139.20648"
       id="radialGradient1588"
       xlink:href="#linearGradient1586"
       inkscape:collect="always" />
    <linearGradient
       y2="107.96781"
       x2="128.57864"
       y1="106.05507"
       x1="128.18785"
       gradientTransform="matrix(-0.6482692,0.31821734,0.31821734,0.6482692,149.95723,-40.103812)"
       gradientUnits="userSpaceOnUse"
       id="linearGradient1606"
       xlink:href="#linearGradient1203"
       inkscape:collect="always" />
    <linearGradient
       y2="107.96781"
       x2="128.57864"
       y1="106.05507"
       x1="128.18785"
       gradientTransform="matrix(-0.6482692,0.31821734,0.31821734,0.6482692,150.5934,-34.329327)"
       gradientUnits="userSpaceOnUse"
       id="linearGradient1610"
       xlink:href="#linearGradient1203"
       inkscape:collect="always" />
    <linearGradient
       y2="107.96781"
       x2="128.57864"
       y1="106.05507"
       x1="128.18785"
       gradientTransform="matrix(-0.64826927,0.31821718,0.31821718,0.64826927,151.2296,-28.70164)"
       gradientUnits="userSpaceOnUse"
       id="linearGradient1614"
       xlink:href="#linearGradient1203"
       inkscape:collect="always" />
    <linearGradient
       y2="107.96781"
       x2="128.57864"
       y1="106.05507"
       x1="128.18785"
       gradientTransform="matrix(-0.41542754,0.59070736,0.59070736,0.41542754,94.524835,-31.919922)"
       gradientUnits="userSpaceOnUse"
       id="linearGradient1618"
       xlink:href="#linearGradient1203"
       inkscape:collect="always" />
    <linearGradient
       y2="107.96781"
       x2="128.57864"
       y1="106.05507"
       x1="128.18785"
       gradientTransform="matrix(-0.22252486,0.68702104,0.68702104,0.22252486,64.962672,-18.536293)"
       gradientUnits="userSpaceOnUse"
       id="linearGradient1622"
       xlink:href="#linearGradient1203"
       inkscape:collect="always" />
    <linearGradient
       y2="107.96781"
       x2="128.57864"
       y1="106.05507"
       x1="128.18785"
       gradientTransform="matrix(-0.22252486,0.68702104,0.68702104,0.22252486,69.073322,-15.453306)"
       gradientUnits="userSpaceOnUse"
       id="linearGradient1626"
       xlink:href="#linearGradient1203"
       inkscape:collect="always" />
    <linearGradient
       y2="107.96781"
       x2="128.57864"
       y1="106.05507"
       x1="128.18785"
       gradientTransform="matrix(-0.10375553,0.71466776,0.71466776,0.10375553,55.760816,-2.6228193)"
       gradientUnits="userSpaceOnUse"
       id="linearGradient1630"
       xlink:href="#linearGradient1203"
       inkscape:collect="always" />
    <linearGradient
       y2="107.96781"
       x2="128.57864"
       y1="106.05507"
       x1="128.18785"
       gradientTransform="matrix(0.65119481,0.31218672,-0.31218672,0.65119481,107.4138,-39.602386)"
       gradientUnits="userSpaceOnUse"
       id="linearGradient1634"
       xlink:href="#linearGradient1203"
       inkscape:collect="always" />
    <linearGradient
       y2="107.96781"
       x2="128.57864"
       y1="106.05507"
       x1="128.18785"
       gradientTransform="matrix(0.65119481,0.31218672,-0.31218672,0.65119481,106.67975,-34.317265)"
       gradientUnits="userSpaceOnUse"
       id="linearGradient1638"
       xlink:href="#linearGradient1203"
       inkscape:collect="always" />
    <linearGradient
       y2="107.96781"
       x2="128.57864"
       y1="106.05507"
       x1="128.18785"
       gradientTransform="matrix(0.65119481,0.31218672,-0.31218672,0.65119481,105.84784,-29.276824)"
       gradientUnits="userSpaceOnUse"
       id="linearGradient1642"
       xlink:href="#linearGradient1203"
       inkscape:collect="always" />
    <linearGradient
       y2="107.96781"
       x2="128.57864"
       y1="106.05507"
       x1="128.18785"
       gradientTransform="matrix(0.40938577,0.59491051,-0.59491051,0.40938577,164.59779,-31.13982)"
       gradientUnits="userSpaceOnUse"
       id="linearGradient1646"
       xlink:href="#linearGradient1203"
       inkscape:collect="always" />
    <linearGradient
       y2="107.96781"
       x2="128.57864"
       y1="106.05507"
       x1="128.18785"
       gradientTransform="matrix(0.1742281,0.70082794,-0.70082794,0.1742281,199.29962,-14.579471)"
       gradientUnits="userSpaceOnUse"
       id="linearGradient1650"
       xlink:href="#linearGradient1203"
       inkscape:collect="always" />
    <linearGradient
       y2="107.96781"
       x2="128.57864"
       y1="106.05507"
       x1="128.18785"
       gradientTransform="matrix(0.1742281,0.70082794,-0.70082794,0.1742281,194.89535,-11.790101)"
       gradientUnits="userSpaceOnUse"
       id="linearGradient1654"
       xlink:href="#linearGradient1203"
       inkscape:collect="always" />
    <linearGradient
       y2="107.96781"
       x2="128.57864"
       y1="106.05507"
       x1="128.18785"
       gradientTransform="matrix(0.09446248,0.71595535,-0.71595535,0.09446248,201.29763,-2.0532633)"
       gradientUnits="userSpaceOnUse"
       id="linearGradient1658"
       xlink:href="#linearGradient1203"
       inkscape:collect="always" />
    <linearGradient
       gradientTransform="matrix(0.72216011,0,0,0.72216011,27.510353,36.831548)"
       gradientUnits="userSpaceOnUse"
       y2="52.934528"
       x2="147.86859"
       y1="85.366806"
       x1="141.42038"
       id="linearGradient1672"
       xlink:href="#linearGradient1670"
       inkscape:collect="always" />
    <radialGradient
       gradientUnits="userSpaceOnUse"
       gradientTransform="matrix(0.51165029,-0.11789451,0.16143171,0.70059727,43.467769,53.460105)"
       r="4.964026"
       fy="68.900772"
       fx="128.64096"
       cy="68.900772"
       cx="128.64096"
       id="radialGradient1680"
       xlink:href="#linearGradient1678"
       inkscape:collect="always" />
    <radialGradient
       r="4.964026"
       fy="68.900772"
       fx="128.64096"
       cy="68.900772"
       cx="128.64096"
       gradientTransform="matrix(-0.51165029,-0.11789451,-0.16143171,0.70059727,211.58985,53.973936)"
       gradientUnits="userSpaceOnUse"
       id="radialGradient1684"
       xlink:href="#linearGradient1678"
       inkscape:collect="always" />
    <linearGradient
       gradientTransform="matrix(0.72216011,0,0,0.72216011,27.510353,36.831548)"
       gradientUnits="userSpaceOnUse"
       y2="44.10313"
       x2="124.42564"
       y1="50.722984"
       x1="124.61337"
       id="linearGradient1694"
       xlink:href="#linearGradient1692"
       inkscape:collect="always" />
    <linearGradient
       gradientTransform="matrix(-0.72216011,0,0,0.72216011,228.32155,36.451463)"
       y2="44.10313"
       x2="124.42564"
       y1="50.722984"
       x1="124.61337"
       gradientUnits="userSpaceOnUse"
       id="linearGradient1702"
       xlink:href="#linearGradient1692"
       inkscape:collect="always" />
    <radialGradient
       gradientUnits="userSpaceOnUse"
       gradientTransform="matrix(0.747953,-0.21987521,0.14026116,0.47712861,20.328125,71.887874)"
       r="43.579365"
       fy="65.185158"
       fx="149.16153"
       cy="65.185158"
       cx="149.16153"
       id="radialGradient1706"
       xlink:href="#linearGradient1053"
       inkscape:collect="always" />
  </defs>
  <sodipodi:namedview
     id="base"
     pagecolor="#ffffff"
     bordercolor="#666666"
     borderopacity="1.0"
     inkscape:pageopacity="0.0"
     inkscape:pageshadow="2"
     inkscape:zoom="2.1638404"
     inkscape:cx="487.55906"
     inkscape:cy="226.77165"
     inkscape:document-units="mm"
     inkscape:current-layer="layer1"
     inkscape:document-rotation="0"
     showgrid="false"
     inkscape:window-width="2730"
     inkscape:window-height="1429"
     inkscape:window-x="182"
     inkscape:window-y="182"
     inkscape:window-maximized="0"
     inkscape:snap-global="false"
     inkscape:object-paths="true" />
  <metadata
     id="metadata5">
    <rdf:RDF>
      <cc:Work
         rdf:about="">
        <dc:format>image/svg+xml</dc:format>
        <dc:type
           rdf:resource="http://purl.org/dc/dcmitype/StillImage" />
        <dc:title />
      </cc:Work>
    </rdf:RDF>
  </metadata>
  <g
     sodipodi:insensitive="true"
     style="display:inline"
     inkscape:label="Smiley"
     id="layer2"
     inkscape:groupmode="layer">
    <path
       sodipodi:nodetypes="ccccccccccc"
       id="path843"
       d="m 92.449865,54.455312 36.796385,-15.089868 35.7524,14.707575 -6.61261,5.816975 -5.57457,3.040674 -14.82329,13.429646 -9.6288,-3.674149 -10.51566,4.054232 -12.92287,-13.809729 -5.701267,-2.660588 z"
       style="display:inline;fill:url(#radialGradient1706);fill-opacity:1;stroke:#000000;stroke-width:0.291;stroke-linecap:butt;stroke-linejoin:miter;stroke-miterlimit:4;stroke-dasharray:none;stroke-opacity:1" />
    <path
       sodipodi:nodetypes="ccccccccccccccccc"
       id="path837-4"
       d="m 104.92085,62.930667 -5.701266,-2.660589 -3.927536,1.773726 -0.760168,7.47499 2.860596,21.972809 20.197854,16.922487 10.38897,-5.57457 8.99532,5.32117 23.59352,-15.463888 3.51916,-23.684785 -0.82351,-6.588128 -4.87775,-2.533896 -5.57457,3.040674 -14.82329,13.429646 -9.6288,-3.674148 -10.51566,4.054232 z"
       style="fill:url(#radialGradient1095-4);fill-opacity:1;stroke:#000000;stroke-width:0.291;stroke-linecap:butt;stroke-linejoin:miter;stroke-miterlimit:4;stroke-dasharray:none;stroke-opacity:1" />
    <path
       sodipodi:nodetypes="cccccccccccccccc"
       id="path833-0"
       d="m 124.43184,94.731052 h 7.22161 l 16.64129,-9.732863 4.51673,-22.067522 5.14996,-0.576399 1.98259,4.561011 -3.02494,23.168905 -21.71818,13.135416 -7.09491,-5.194488 -7.98177,5.447878 -19.08613,-13.979967 -2.578674,-22.508123 1.140252,-4.180927 5.321182,0.126695 4.57946,22.447605 z"
       style="fill:url(#radialGradient1071-7);fill-opacity:1;stroke:#000000;stroke-width:0.291;stroke-linecap:butt;stroke-linejoin:miter;stroke-miterlimit:4;stroke-dasharray:none;stroke-opacity:1" />
    <path
       sodipodi:nodetypes="cccc"
       id="path1205-2"
       d="m 109.31748,84.482067 -0.83604,-4.098074 -5.21521,4.010842 z"
       style="fill:url(#linearGradient1207-5);fill-opacity:1;stroke:#000000;stroke-width:0.191071px;stroke-linecap:butt;stroke-linejoin:miter;stroke-opacity:1" />
    <path
       style="fill:url(#linearGradient1198);fill-opacity:1;stroke:#000000;stroke-width:0.191071px;stroke-linecap:butt;stroke-linejoin:miter;stroke-opacity:1"
       d="m 108.24318,79.216084 -0.86866,-4.258002 -5.42437,3.341502 z"
       id="path1196"
       sodipodi:nodetypes="cccc" />
    <path
       sodipodi:nodetypes="cccc"
       id="path1200"
       d="m 107.12001,73.710543 -0.80019,-3.922408 -5.44898,3.260013 z"
       style="fill:url(#linearGradient1202);fill-opacity:1;stroke:#000000;stroke-width:0.191071px;stroke-linecap:butt;stroke-linejoin:miter;stroke-opacity:1" />
    <path
       style="fill:url(#linearGradient1206);fill-opacity:1;stroke:#000000;stroke-width:0.191071px;stroke-linecap:butt;stroke-linejoin:miter;stroke-opacity:1"
       d="m 105.91767,67.816921 -0.76361,-3.743083 -4.37404,2.81712 z"
       id="path1204"
       sodipodi:nodetypes="cccc" />
    <path
       sodipodi:nodetypes="cccc"
       id="path1208"
       d="m 113.10607,87.63684 -3.28045,-2.054798 -2.65664,5.070819 z"
       style="fill:url(#linearGradient1210);fill-opacity:1;stroke:#000000;stroke-width:0.191071px;stroke-linecap:butt;stroke-linejoin:miter;stroke-opacity:1" />
    <path
       style="fill:url(#linearGradient1214);fill-opacity:1;stroke:#000000;stroke-width:0.191071px;stroke-linecap:butt;stroke-linejoin:miter;stroke-opacity:1"
       d="m 117.1151,90.148008 -3.23115,-2.023926 -1.5866,6.03592 z"
       id="path1212"
       sodipodi:nodetypes="cccc" />
    <path
       sodipodi:nodetypes="cccc"
       id="path1216"
       d="m 121.60187,92.958416 -3.31036,-2.073534 -1.57707,6.072614 z"
       style="fill:url(#linearGradient1218);fill-opacity:1;stroke:#000000;stroke-width:0.191071px;stroke-linecap:butt;stroke-linejoin:miter;stroke-opacity:1" />
    <path
       sodipodi:nodetypes="cccc"
       id="path1273-6"
       d="m 148.47754,84.105084 0.82366,-4.024203 5.71605,3.94285 z"
       style="display:inline;fill:url(#linearGradient1275-4);fill-opacity:1;stroke:#000000;stroke-width:0.191071px;stroke-linecap:butt;stroke-linejoin:miter;stroke-opacity:1" />
    <path
       style="display:inline;fill:url(#linearGradient1250);fill-opacity:1;stroke:#000000;stroke-width:0.191071px;stroke-linecap:butt;stroke-linejoin:miter;stroke-opacity:1"
       d="m 149.6024,78.609333 0.8237,-4.024404 4.74804,2.9468 z"
       id="path1248"
       sodipodi:nodetypes="cccc" />
    <path
       sodipodi:nodetypes="cccc"
       id="path1252"
       d="m 150.72726,73.113549 0.76662,-3.745503 3.60064,2.890231 z"
       style="display:inline;fill:url(#linearGradient1254);fill-opacity:1;stroke:#000000;stroke-width:0.191071px;stroke-linecap:butt;stroke-linejoin:miter;stroke-opacity:1" />
    <path
       style="display:inline;fill:url(#linearGradient1258);fill-opacity:1;stroke:#000000;stroke-width:0.191071px;stroke-linecap:butt;stroke-linejoin:miter;stroke-opacity:1"
       d="m 151.8393,67.680433 0.70382,-3.550334 4.79048,2.948407 z"
       id="path1256"
       sodipodi:nodetypes="cccc" />
    <path
       sodipodi:nodetypes="cccc"
       id="path1260"
       d="m 144.15598,87.41879 3.60924,-2.110906 1.42535,5.011417 z"
       style="display:inline;fill:url(#linearGradient1262);fill-opacity:1;stroke:#000000;stroke-width:0.191071px;stroke-linecap:butt;stroke-linejoin:miter;stroke-opacity:1" />
    <path
       style="display:inline;fill:url(#linearGradient1266);fill-opacity:1;stroke:#000000;stroke-width:0.191071px;stroke-linecap:butt;stroke-linejoin:miter;stroke-opacity:1"
       d="m 139.41106,90.197738 3.34343,-1.959268 1.12819,5.424281 z"
       id="path1264"
       sodipodi:nodetypes="cccc" />
    <path
       sodipodi:nodetypes="cccc"
       id="path1268"
       d="m 134.84673,92.897074 3.27667,-1.950055 0.36447,4.619195 z"
       style="display:inline;fill:url(#linearGradient1270);fill-opacity:1;stroke:#000000;stroke-width:0.191071px;stroke-linecap:butt;stroke-linejoin:miter;stroke-opacity:1" />
    <path
       sodipodi:nodetypes="ccccccc"
       id="path857"
       d="m 127.9793,102.83952 -7.82991,4.25352 1.88001,7.07736 5.64528,-1.47818 5.19602,1.25421 2.1053,-6.89818 z"
       style="display:inline;fill:url(#linearGradient1103);fill-opacity:1;stroke:#000000;stroke-width:0.291;stroke-linecap:butt;stroke-linejoin:miter;stroke-miterlimit:4;stroke-dasharray:none;stroke-opacity:1" />
    <path
       inkscape:transform-center-y="14.080979"
       inkscape:transform-center-x="46.273342"
       sodipodi:nodetypes="cccccccccc"
       id="path863"
       d="m 92.449865,54.455312 -5.48957,-0.460884 -18.624758,3.729109 -61.4596757,35.1078 3.3487847,2.652812 38.918404,-8.103051 38.940434,-0.218099 0.542552,-6.996539 10.50755,-19.773121 z"
       style="display:inline;fill:url(#linearGradient923);fill-opacity:1;stroke:#000000;stroke-width:0.264583px;stroke-linecap:butt;stroke-linejoin:miter;stroke-opacity:1" />
    <path
       inkscape:transform-center-y="14.080979"
       inkscape:transform-center-x="46.273342"
       sodipodi:nodetypes="cccccccc"
       id="path865"
       d="m 6.8758613,92.831337 3.3487847,2.652812 63.284811,-27.329376 25.624129,-7.761434 -6.683721,-5.938027 -5.48957,-0.460884 -18.624758,3.729109 z"
       style="display:inline;fill:url(#linearGradient931);fill-opacity:1;stroke:#000000;stroke-width:0.265;stroke-linecap:butt;stroke-linejoin:miter;stroke-miterlimit:4;stroke-dasharray:none;stroke-opacity:1" />
    <path
       inkscape:transform-center-y="14.350286"
       inkscape:transform-center-x="39.497488"
       id="path869"
       d="m 73.509457,68.154773 -43.72868,18.851043 22.46071,-5.543233 28.553569,-1.516258 8.985321,-16.934949 z"
       style="display:inline;fill:url(#linearGradient907);fill-opacity:1;stroke:#000000;stroke-width:0.264583px;stroke-linecap:butt;stroke-linejoin:miter;stroke-opacity:1" />
    <path
       id="path899"
       d="m 127.9793,102.83952 -7.82991,4.25352 0.67191,2.19488 7.12214,-1.97091 6.31586,1.83653 0.7167,-2.10529 z"
       style="display:inline;fill:url(#linearGradient1111);fill-opacity:1;stroke:none;stroke-width:0.191071px;stroke-linecap:butt;stroke-linejoin:miter;stroke-opacity:1" />
    <path
       inkscape:transform-center-y="15.933966"
       inkscape:transform-center-x="46.273342"
       id="path867"
       d="M 10.224646,95.484149 6.8758613,92.831337 71.937502,64.372798 96.17504,57.700401 l 2.958546,2.692938 -25.624129,7.761434 z"
       style="display:inline;fill:url(#linearGradient915);fill-opacity:1;stroke:#000000;stroke-width:0.264583px;stroke-linecap:butt;stroke-linejoin:miter;stroke-opacity:1" />
    <path
       inkscape:transform-center-y="14.516309"
       inkscape:transform-center-x="-46.458434"
       style="display:inline;fill:url(#linearGradient1087);fill-opacity:1;stroke:#000000;stroke-width:0.264583px;stroke-linecap:butt;stroke-linejoin:miter;stroke-opacity:1"
       d="m 164.99865,54.073019 5.48819,-0.477062 18.63567,3.674186 61.5629,34.926476 -3.34095,2.662671 -38.94212,-7.988289 -38.94091,-0.103308 -0.56318,-6.994912 -10.56579,-19.742059 z"
       id="path1073"
       sodipodi:nodetypes="cccccccccc" />
    <path
       inkscape:transform-center-y="14.516309"
       inkscape:transform-center-x="-46.458434"
       style="display:inline;fill:url(#linearGradient1085);fill-opacity:1;stroke:#000000;stroke-width:0.264583px;stroke-linecap:butt;stroke-linejoin:miter;stroke-opacity:1"
       d="m 250.68541,92.196619 -3.34095,2.662671 -63.3651,-27.142705 -25.6469,-7.685863 6.66619,-5.957703 5.48819,-0.477062 18.63567,3.674186 z"
       id="path1075"
       sodipodi:nodetypes="cccccccc" />
    <path
       inkscape:transform-center-y="14.818594"
       inkscape:transform-center-x="-39.677884"
       style="display:inline;fill:url(#linearGradient1083);fill-opacity:1;stroke:#000000;stroke-width:0.264583px;stroke-linecap:butt;stroke-linejoin:miter;stroke-opacity:1"
       d="m 183.97936,67.716585 43.78406,18.722058 -22.47695,-5.476999 -28.55792,-1.43208 -9.0352,-16.908389 z"
       id="path1077" />
    <path
       inkscape:transform-center-y="16.382868"
       inkscape:transform-center-x="-46.458434"
       style="display:inline;fill:url(#linearGradient1081);fill-opacity:1;stroke:#000000;stroke-width:0.264583px;stroke-linecap:butt;stroke-linejoin:miter;stroke-opacity:1"
       d="m 247.34446,94.85929 3.34095,-2.662671 -65.14525,-28.266624 -24.2571,-6.60092 -2.9506,2.701647 25.6469,7.685863 z"
       id="path1079" />
    <path
       sodipodi:nodetypes="ccccccccccc"
       id="path1301"
       d="m 129.24625,39.365444 -23.53426,3.824882 -13.262125,11.264986 2.633331,2.339533 16.734194,-9.374632 17.30216,-3.43041 15.90506,3.021777 17.50428,9.268711 2.46976,-2.207272 -14.03179,-10.974863 z"
       style="display:inline;fill:url(#linearGradient1309);fill-opacity:1;stroke:#000000;stroke-width:0.291;stroke-linecap:butt;stroke-linejoin:miter;stroke-miterlimit:4;stroke-dasharray:none;stroke-opacity:1" />
    <path
       sodipodi:nodetypes="ccccccccccc"
       id="path1580"
       d="m 127.9793,69.518796 -3.43943,2.450591 -12.36653,-5.668169 -3.11609,1.049722 8.78647,9.389455 10.51566,-4.05423 9.6288,3.674147 9.8319,-8.907531 -2.95447,-1.264368 -13.87427,5.389249 z"
       style="fill:url(#radialGradient1588);fill-opacity:1;stroke:#000000;stroke-width:0.291;stroke-linecap:butt;stroke-linejoin:miter;stroke-miterlimit:4;stroke-dasharray:none;stroke-opacity:1" />
    <path
       style="display:inline;fill:url(#linearGradient1274);fill-opacity:1;stroke:#000000;stroke-width:0.191071px;stroke-linecap:butt;stroke-linejoin:miter;stroke-opacity:1"
       d="m 129.7864,94.639053 3.78328,-1.028735 -0.75708,5.80825 z"
       id="path1272"
       sodipodi:nodetypes="cccc" />
    <path
       style="fill:url(#linearGradient1222);fill-opacity:1;stroke:#000000;stroke-width:0.191071px;stroke-linecap:butt;stroke-linejoin:miter;stroke-opacity:1"
       d="m 126.46128,94.755115 -3.64822,-1.038033 -0.19891,6.041107 z"
       id="path1220"
       sodipodi:nodetypes="cccc" />
    <path
       inkscape:transform-center-y="9.5307253"
       inkscape:transform-center-x="-2.0445638"
       sodipodi:nodetypes="cccc"
       id="path1604"
       d="m 99.048325,72.109394 -0.441827,-3.840718 5.432262,1.176659 z"
       style="display:inline;fill:url(#linearGradient1606);fill-opacity:1;stroke:#000000;stroke-width:0.191071px;stroke-linecap:butt;stroke-linejoin:miter;stroke-opacity:1" />
    <path
       inkscape:transform-center-y="15.346199"
       inkscape:transform-center-x="-2.2396338"
       style="display:inline;fill:url(#linearGradient1610);fill-opacity:1;stroke:#000000;stroke-width:0.191071px;stroke-linecap:butt;stroke-linejoin:miter;stroke-opacity:1"
       d="m 99.684491,77.883875 -0.407043,-3.758733 4.480502,1.336901 z"
       id="path1608"
       sodipodi:nodetypes="cccc" />
    <path
       sodipodi:nodetypes="cccc"
       id="path1612"
       d="m 100.38678,83.808017 -0.465152,-4.06008 5.389472,1.09956 z"
       style="display:inline;fill:url(#linearGradient1614);fill-opacity:1;stroke:#000000;stroke-width:0.191071px;stroke-linecap:butt;stroke-linejoin:miter;stroke-opacity:1" />
    <path
       style="display:inline;fill:url(#linearGradient1618);fill-opacity:1;stroke:#000000;stroke-width:0.191071px;stroke-linecap:butt;stroke-linejoin:miter;stroke-opacity:1"
       d="m 103.49393,91.291844 -2.45584,-1.798821 -0.17726,-1.547161 6.07166,-1.732082 z"
       id="path1616"
       sodipodi:nodetypes="ccccc" />
    <path
       sodipodi:nodetypes="cccc"
       id="path1620"
       d="m 110.11202,96.139377 -3.17721,-2.327203 4.3078,-2.295153 z"
       style="display:inline;fill:url(#linearGradient1622);fill-opacity:1;stroke:#000000;stroke-width:0.191071px;stroke-linecap:butt;stroke-linejoin:miter;stroke-opacity:1" />
    <path
       style="display:inline;fill:url(#linearGradient1626);fill-opacity:1;stroke:#000000;stroke-width:0.191071px;stroke-linecap:butt;stroke-linejoin:miter;stroke-opacity:1"
       d="m 114.44924,99.31625 -3.35032,-2.479783 4.21973,-2.080744 z"
       id="path1624"
       sodipodi:nodetypes="cccc" />
    <path
       inkscape:transform-center-y="-3.3244599"
       inkscape:transform-center-x="6.2289542"
       sodipodi:nodetypes="cccc"
       id="path1628"
       d="m 119.55835,103.0585 -3.30755,-2.42268 3.94827,-3.472707 z"
       style="display:inline;fill:url(#linearGradient1630);fill-opacity:1;stroke:#000000;stroke-width:0.191071px;stroke-linecap:butt;stroke-linejoin:miter;stroke-opacity:1" />
    <path
       sodipodi:nodetypes="cccc"
       id="path1632"
       d="m 159.27902,72.008681 0.52506,-4.021591 -6.25201,1.428636 z"
       style="fill:url(#linearGradient1634);fill-opacity:1;stroke:#000000;stroke-width:0.191071px;stroke-linecap:butt;stroke-linejoin:miter;stroke-opacity:1" />
    <path
       style="fill:url(#linearGradient1638);fill-opacity:1;stroke:#000000;stroke-width:0.191071px;stroke-linecap:butt;stroke-linejoin:miter;stroke-opacity:1"
       d="m 158.6338,77.151944 0.4912,-3.963581 -6.30698,1.512485 z"
       id="path1636"
       sodipodi:nodetypes="cccc" />
    <path
       sodipodi:nodetypes="cccc"
       id="path1640"
       d="m 157.93683,82.288964 0.52061,-3.987568 -5.31213,1.232273 z"
       style="fill:url(#linearGradient1642);fill-opacity:1;stroke:#000000;stroke-width:0.191071px;stroke-linecap:butt;stroke-linejoin:miter;stroke-opacity:1" />
    <path
       style="fill:url(#linearGradient1646);fill-opacity:1;stroke:#000000;stroke-width:0.191071px;stroke-linecap:butt;stroke-linejoin:miter;stroke-opacity:1"
       d="m 154.12543,91.773821 2.79365,-1.689637 0.2562,-1.962267 -6.82812,-1.743192 z"
       id="path1644"
       sodipodi:nodetypes="ccccc" />
    <path
       sodipodi:nodetypes="cccc"
       id="path1648"
       d="m 146.47794,96.481221 3.32205,-2.091324 -5.13785,-3.953016 z"
       style="fill:url(#linearGradient1650);fill-opacity:1;stroke:#000000;stroke-width:0.191071px;stroke-linecap:butt;stroke-linejoin:miter;stroke-opacity:1" />
    <path
       style="fill:url(#linearGradient1654);fill-opacity:1;stroke:#000000;stroke-width:0.191071px;stroke-linecap:butt;stroke-linejoin:miter;stroke-opacity:1"
       d="m 141.6697,99.307196 3.58357,-2.187207 -4.99539,-3.893739 z"
       id="path1652"
       sodipodi:nodetypes="cccc" />
    <path
       sodipodi:nodetypes="cccc"
       id="path1656"
       d="m 136.342,102.52945 3.33225,-2.01539 -4.4564,-4.347415 z"
       style="fill:url(#linearGradient1658);fill-opacity:1;stroke:#000000;stroke-width:0.191071px;stroke-linecap:butt;stroke-linejoin:miter;stroke-opacity:1" />
    <path
       id="path1660"
       d="m 115.4765,81.713996 5.54902,0.489361 1.42958,6.37396 z"
       style="fill:url(#radialGradient1680);fill-opacity:1;stroke:#000000;stroke-width:0.291;stroke-linecap:round;stroke-linejoin:round;stroke-miterlimit:4;stroke-dasharray:none;stroke-opacity:1" />
    <path
       sodipodi:nodetypes="cccc"
       style="fill:url(#radialGradient1684);fill-opacity:1;stroke:#000000;stroke-width:0.291;stroke-linecap:round;stroke-linejoin:round;stroke-miterlimit:4;stroke-dasharray:none;stroke-opacity:1"
       d="m 140.11943,81.567187 -6.08733,1.150002 -1.24405,6.518818 z"
       id="path1682" />
    <path
       sodipodi:nodetypes="ccccc"
       id="path1686"
       d="m 124.53987,71.969387 -6.69615,4.77101 -3.69933,-3.953204 1.53583,-4.878607 z"
       style="fill:url(#linearGradient1694);fill-opacity:1;stroke:#000000;stroke-width:0.291;stroke-linecap:butt;stroke-linejoin:miter;stroke-miterlimit:4;stroke-dasharray:none;stroke-opacity:1" />
    <path
       style="fill:url(#linearGradient1702);fill-opacity:1;stroke:#000000;stroke-width:0.291;stroke-linecap:butt;stroke-linejoin:miter;stroke-miterlimit:4;stroke-dasharray:none;stroke-opacity:1"
       d="m 130.99134,71.577662 6.99684,4.78265 3.96907,-3.595903 -1.59712,-4.825909 z"
       id="path1696"
       sodipodi:nodetypes="ccccc" />
    <path
       style="fill:#000000;fill-opacity:0.52322;stroke:none;stroke-width:0.291;stroke-linecap:butt;stroke-linejoin:miter;stroke-miterlimit:4;stroke-dasharray:none;stroke-opacity:1"
       d="m 122.81306,93.717082 5.05678,1.500435 5.69984,-1.607199 14.72506,-8.61213 4.51673,-22.067522 5.14996,-0.576399 1.98259,4.561011 -3.02494,23.168905 -21.71818,13.135417 -7.09491,-5.194489 -7.98177,5.447869 -19.08613,-13.979958 -2.578674,-22.508123 1.140252,-4.180926 5.321182,0.126694 4.57946,22.447605 z"
       id="path1704"
       sodipodi:nodetypes="ccccccccccccccccc" />
    <path
       sodipodi:nodetypes="ccccccccccc"
       id="path835"
       d="m 117.84372,76.740397 10.13558,-7.221601 10.00888,6.841518 2.13125,5.206873 -6.08733,1.150003 -2.60324,13.640997 -3.58196,4.245223 -3.70431,-4.502139 -3.11707,-13.897912 -5.54902,-0.489363 z"
       style="display:inline;fill:url(#radialGradient1063);fill-opacity:1;stroke:#000000;stroke-width:0.291;stroke-linecap:round;stroke-linejoin:round;stroke-miterlimit:4;stroke-dasharray:none;stroke-opacity:1" />
    <path
       sodipodi:nodetypes="ccccccc"
       id="path1664"
       d="m 127.8469,100.60341 0.1324,-31.084614 10.00888,6.841518 2.13125,5.206873 -6.08733,1.150002 -2.60324,13.640998 z"
       style="fill:url(#linearGradient1672);fill-opacity:1;stroke:#000000;stroke-width:0.291;stroke-linecap:round;stroke-linejoin:round;stroke-miterlimit:4;stroke-dasharray:none;stroke-opacity:1" />
    <path
       style="fill:#000000;fill-opacity:1;stroke-width:0.191071;stroke-linecap:round;stroke-linejoin:round"
       id="path1637"
       sodipodi:type="arc"
       sodipodi:cx="119.48565"
       sodipodi:cy="71.002205"
       sodipodi:rx="3.0277796"
       sodipodi:ry="3.0277796"
       sodipodi:start="0"
       sodipodi:end="3.9881999"
       sodipodi:arc-type="chord"
       d="m 122.51343,71.002205 a 3.0277796,3.0277796 0 0 1 -2.30396,2.939989 3.0277796,3.0277796 0 0 1 -3.40553,-1.534329 3.0277796,3.0277796 0 0 1 0.67572,-3.673579 z"
       sodipodi:open="true" />
    <path
       id="circle1639"
       style="fill:#000000;fill-opacity:1;stroke-width:0.191071;stroke-linecap:round;stroke-linejoin:round"
       sodipodi:type="arc"
       sodipodi:cx="136.76994"
       sodipodi:cy="71.002205"
       sodipodi:rx="3.0277796"
       sodipodi:ry="3.0277796"
       sodipodi:start="5.3798039"
       sodipodi:end="3.3032042"
       sodipodi:arc-type="arc"
       d="m 138.64401,68.624113 a 3.0277796,3.0277796 0 0 1 0.78478,3.826534 3.0277796,3.0277796 0 0 1 -3.64059,1.415757 3.0277796,3.0277796 0 0 1 -2.00658,-3.351396"
       sodipodi:open="true" />
    <circle
       style="fill:#ffffff;fill-opacity:1;stroke-width:0.0498976;stroke-linecap:round;stroke-linejoin:round"
       id="path1642"
       cx="117.56516"
       cy="71.175224"
       r="0.70936555" />
    <circle
       r="0.70936555"
       cy="71.175224"
       cx="134.90137"
       id="circle1644"
       style="fill:#ffffff;fill-opacity:1;stroke-width:0.0498976;stroke-linecap:round;stroke-linejoin:round" />
  </g>
  <g
     style="display:inline"
     inkscape:groupmode="layer"
     id="layer1"
     inkscape:label="balloon">
    <path
       sodipodi:nodetypes="cccccccccccccc"
       id="path1153"
       d="m 152.60213,53.697963 -15.23524,-18.48209 1.62343,-18.60697 11.61374,-12.2381415 47.45402,-2.1229429 30.3456,6.7434656 10.11519,21.2294298 -12.11326,25.100674 -27.84801,4.495644 -10.36496,36.339791 -24.72604,-4.370769 20.48016,-0.499514 3.12197,-31.719264 z"
       style="display:inline;fill:#ffffff;stroke:#000000;stroke-width:0.264583px;stroke-linecap:butt;stroke-linejoin:miter;stroke-opacity:1" />
    <path
       id="path2320"
       d="m 206.96782,29.11622 c 0,-0.04128 0.0979,-0.278535 0.21748,-0.527231 0.28622,-0.595077 0.40345,-1.540191 0.4277,-3.448009 0.0219,-1.723391 -0.0136,-1.862112 -0.42783,-1.673362 -0.20228,0.09216 -0.22716,0.08622 -0.2013,-0.04805 0.0386,-0.200651 0.57445,-0.558452 0.83628,-0.558452 0.37727,0 0.42058,0.25088 0.35915,2.080717 -0.085,2.530961 -0.2698,3.336736 -0.90704,3.954371 -0.16744,0.162292 -0.30444,0.261301 -0.30444,0.22002 z m -8.9554,-0.229029 c 0,-0.04817 0.22943,-0.232 0.50984,-0.408521 0.96924,-0.610146 1.26351,-0.996357 1.26351,-1.658275 0,-0.339526 -0.0431,-0.432025 -0.31034,-0.666699 -0.17068,-0.149864 -0.31033,-0.289638 -0.31033,-0.310611 0,-0.02097 0.13965,-0.245653 0.31033,-0.499289 0.54899,-0.815801 0.38918,-1.689929 -0.36671,-2.005759 -0.53603,-0.22397 -1.25793,-0.07879 -1.39589,0.280719 -0.0957,0.249408 -0.0543,0.698875 0.0807,0.877481 0.18814,0.248743 0.16034,0.469044 -0.079,0.625858 -0.26548,0.17395 -0.45508,0.101259 -0.59086,-0.226529 -0.24825,-0.599339 0.26406,-1.554319 1.05399,-1.964696 0.86808,-0.450969 1.70033,-0.265162 2.07837,0.464013 0.20943,0.403944 0.14359,0.935619 -0.19277,1.556637 l -0.25448,0.469859 0.25337,0.242741 c 0.68231,0.653696 0.241,1.834962 -1.02232,2.736442 -0.5991,0.42751 -1.02746,0.630391 -1.02746,0.486629 z m -34.85306,-0.344552 c -0.53191,-0.531902 -0.21541,-1.525777 0.75178,-2.36079 l 0.48341,-0.41734 -0.25901,-0.733824 c -0.55098,-1.561043 -0.71831,-1.819385 -1.05996,-1.636539 -0.31865,0.170541 -0.32661,6.79e-4 -0.0131,-0.279449 0.41368,-0.369622 0.78609,-0.328882 1.03311,0.113018 l 0.18014,0.322269 0.30972,-0.265059 c 0.90261,-0.772462 1.8614,-0.572093 1.8614,0.388998 0,0.733359 -0.44742,1.34256 -1.5019,2.044964 -1.13253,0.754395 -1.51279,1.19563 -1.51279,1.755341 0,0.594379 0.83493,1.030385 1.25139,0.653488 0.25648,-0.232109 0.38119,-0.10564 0.16582,0.16816 -0.44665,0.567825 -1.25146,0.685336 -1.69003,0.246763 z m 2.29673,-3.493447 c 0.59366,-0.604898 0.59578,-1.311635 0.005,-1.617218 -0.23361,-0.120806 -0.3429,-0.129382 -0.61396,-0.04817 -0.54217,0.162439 -0.55608,0.231325 -0.24024,1.190168 0.15553,0.472171 0.32563,0.858493 0.37799,0.858493 0.0524,0 0.26448,-0.172472 0.47136,-0.383271 z m 43.7705,3.520162 c -0.33199,-0.358224 -0.36367,-0.738519 -0.10806,-1.296855 0.21358,-0.466519 0.70303,-1.048917 1.11731,-1.329494 l 0.20901,-0.14155 -0.15545,-0.472664 c -0.57571,-1.750471 -0.81487,-2.138344 -1.19357,-1.935675 -0.2886,0.154458 -0.22246,-0.133126 0.0802,-0.348632 0.45543,-0.324292 0.85379,-0.195658 1.05181,0.339637 l 0.0773,0.209028 0.30418,-0.265056 c 0.67745,-0.590312 1.15075,-0.689859 1.57653,-0.331584 0.32465,0.273169 0.41759,0.641082 0.27371,1.083471 -0.19896,0.611791 -0.61711,1.070684 -1.56107,1.713232 -1.06879,0.727512 -1.37807,1.082996 -1.39161,1.599492 -0.0173,0.658184 0.73917,1.099607 1.25963,0.735067 0.36596,-0.256326 0.33141,-0.02918 -0.0496,0.326238 -0.33254,0.310179 -0.42167,0.347811 -0.82388,0.347811 -0.37276,0 -0.48838,-0.04033 -0.66645,-0.232466 z m 2.14141,-3.373069 c 0.38809,-0.296021 0.56519,-0.632527 0.56519,-1.073972 0,-0.66116 -0.75226,-1.003064 -1.34326,-0.610519 l -0.23492,0.156032 0.30053,0.860152 c 0.16528,0.473083 0.30092,0.870127 0.30142,0.882318 0.003,0.06567 0.13407,-0.0028 0.41104,-0.214011 z m -56.86321,3.049761 c -1.3425,-0.519416 -1.83422,-1.809838 -1.18903,-3.120397 0.15146,-0.307664 0.53824,-0.843296 0.85951,-1.190295 l 0.58412,-0.630905 h -0.65456 c -0.46707,0 -0.74882,0.04805 -0.98364,0.167776 -0.41359,0.21086 -0.45259,0.04058 -0.0653,-0.285276 0.4351,-0.366108 0.80847,-0.44148 1.89806,-0.383161 3.31111,0.177223 3.19643,0.176642 3.50369,0.01775 0.41782,-0.216062 0.46143,-0.08424 0.086,0.259853 -0.47504,0.435346 -1.03689,0.52788 -2.38527,0.392848 l -1.07338,-0.107493 -0.52948,0.523021 c -0.72918,0.720291 -0.99672,1.285438 -0.95069,2.008277 0.046,0.722926 0.39111,1.249368 1.06285,1.621444 0.42189,0.233685 0.55733,0.26254 1.22787,0.261593 0.88942,-0.0013 1.30324,-0.175638 1.80339,-0.759947 0.38532,-0.450164 0.47879,-0.800177 0.28685,-1.074205 -0.1929,-0.275402 -0.1746,-0.479873 0.0575,-0.64244 0.24544,-0.171911 0.28851,-0.171789 0.46161,0.0013 0.51151,0.511511 -0.42747,2.047066 -1.65151,2.700794 -0.48886,0.261086 -0.65321,0.301603 -1.31251,0.323572 -0.4468,0.01489 -0.86863,-0.01936 -1.036,-0.08412 z m 18.20117,-0.02706 c -1.28693,-0.471519 -1.78721,-1.808649 -1.15545,-3.088196 0.14212,-0.287838 0.53219,-0.816516 0.86682,-1.174841 l 0.60843,-0.651501 h -0.65501 c -0.4783,0 -0.74815,0.04748 -1.00022,0.175994 -0.48683,0.248197 -0.51276,0.131823 -0.0604,-0.27112 0.4739,-0.422149 0.7311,-0.474252 1.99294,-0.40374 3.12111,0.174408 3.11366,0.174374 3.42001,0.01595 0.42559,-0.220083 0.46097,-0.07719 0.0658,0.265862 -0.48347,0.419741 -1.05977,0.525305 -2.19408,0.401905 -0.4863,-0.0529 -0.97918,-0.09619 -1.09529,-0.09619 -0.27405,0 -1.20516,0.922895 -1.45795,1.445089 -0.24992,0.516271 -0.25023,1.292284 -7.5e-4,1.807714 0.77984,1.610943 3.51871,1.551433 4.20393,-0.09134 0.12881,-0.308808 0.12924,-0.360679 0.005,-0.551051 -0.18446,-0.281518 -0.17351,-0.511166 0.0333,-0.698313 0.37184,-0.336518 0.70878,0.06265 0.58951,0.698405 -0.077,0.410451 -0.74955,1.304543 -1.26858,1.686453 -0.85864,0.63181 -2.03211,0.846013 -2.89756,0.528916 z m 19.43256,0.005 c -1.29162,-0.474374 -1.80043,-1.819182 -1.17032,-3.093193 0.14236,-0.287837 0.53263,-0.816515 0.86727,-1.174841 l 0.60843,-0.651505 h -0.65502 c -0.47829,0 -0.74814,0.04748 -1.00021,0.175994 -0.48683,0.248198 -0.51276,0.131824 -0.0604,-0.271119 0.4739,-0.422149 0.7311,-0.474252 1.99294,-0.40374 3.1211,0.174408 3.11366,0.174374 3.42,0.01596 0.4256,-0.220083 0.46098,-0.07719 0.0658,0.265862 -0.49989,0.433995 -1.02943,0.520604 -2.36515,0.38684 l -1.07338,-0.107494 -0.53281,0.523022 c -0.69343,0.680688 -0.96199,1.201735 -0.96199,1.866422 0,0.931468 0.55531,1.670844 1.45693,1.939835 1.24295,0.370824 2.53899,-0.143485 2.9673,-1.177516 0.10304,-0.248752 0.0998,-0.316186 -0.0247,-0.506066 -0.1901,-0.290125 -0.18124,-0.518378 0.0274,-0.707231 0.37184,-0.336518 0.70878,0.06265 0.58951,0.698405 -0.077,0.410451 -0.74955,1.304543 -1.26858,1.686453 -0.8531,0.627735 -2.03283,0.846202 -2.88313,0.533913 z m 11.78086,-2.34736 c -0.55788,-0.175508 -0.98842,-0.801143 -0.91712,-1.332702 0.0688,-0.512722 0.29979,-0.917482 1.23424,-2.162489 0.8846,-1.178596 1.08397,-1.611351 0.86428,-1.876059 -0.0954,-0.114917 -0.0767,-0.174178 0.11525,-0.366141 0.28849,-0.288498 0.51044,-0.223019 0.51044,0.150589 0,0.434643 -0.18615,0.772041 -1.08537,1.967212 -1.24019,1.648358 -1.3598,2.132766 -0.68601,2.7783 0.21469,0.205684 0.36187,0.259886 0.78978,0.290838 0.47293,0.03421 0.54886,0.01509 0.75376,-0.189807 0.261,-0.261004 0.306,-0.719355 0.0977,-0.994801 -0.25885,-0.342222 -0.11601,-0.748452 0.26318,-0.748452 0.29381,0 0.399,0.177354 0.399,0.672718 0,0.371848 -0.0552,0.541988 -0.28817,0.888522 -0.48527,0.721759 -1.39209,1.129544 -2.05093,0.922272 z m -57.13449,-0.148218 c -0.16255,-0.06559 -0.13509,-0.335172 0.0513,-0.503872 0.18183,-0.164557 0.42004,-0.192069 0.50285,-0.05808 0.0301,0.04877 0.0886,0.08867 0.12984,0.08867 0.11144,0 0.9785,-1.197204 0.9785,-1.351064 0,-0.403747 -0.61034,-0.751812 -0.86746,-0.494693 -0.0577,0.05771 -0.13538,0.07447 -0.1726,0.03724 -0.11249,-0.112495 0.57178,-0.674171 0.82133,-0.674171 0.315,0 0.5345,0.271443 1.14149,1.411594 0.6267,1.177191 0.68072,1.233357 0.99084,1.03016 0.36716,-0.240573 0.37771,-0.06187 0.0159,0.269686 -0.36086,0.330702 -0.68047,0.386948 -0.90769,0.159734 -0.0789,-0.07893 -0.28178,-0.418085 -0.45078,-0.753672 -0.169,-0.335587 -0.33766,-0.610159 -0.3748,-0.610159 -0.0371,0 -0.2457,0.244659 -0.46346,0.543685 -0.58862,0.8083 -0.98986,1.068533 -1.3953,0.904937 z m 13.31503,-0.02718 c -0.28436,-0.115036 -0.6442,-0.593907 -0.71005,-0.944932 -0.12494,-0.665996 0.37293,-1.471122 1.13263,-1.831623 1.15748,-0.549262 2.35736,0.613871 1.79121,1.736355 -0.44005,0.87248 -1.45247,1.348187 -2.21379,1.0402 z m 1.60728,-0.663736 c 0.65981,-0.659816 -0.29097,-1.875157 -1.30786,-1.671779 -0.36569,0.07314 -0.55675,0.514154 -0.42873,0.989594 0.21167,0.786089 1.2319,1.186868 1.73659,0.682185 z m 5.89234,0.678707 c 0,-0.03901 0.0467,-0.117655 0.10383,-0.174759 0.0651,-0.06511 0.10644,-0.450177 0.11083,-1.032587 0.008,-1.052834 -0.0605,-1.214461 -0.44065,-1.041234 -0.20228,0.09216 -0.22715,0.08622 -0.20129,-0.04805 0.0386,-0.200651 0.57444,-0.558452 0.83628,-0.558452 0.30368,0 0.38901,0.252176 0.38901,1.149693 0,0.854051 -0.11368,1.269331 -0.43557,1.591221 -0.18804,0.188045 -0.36244,0.242981 -0.36244,0.114172 z m 10.01941,0 c 0,-0.03901 0.0491,-0.120013 0.10906,-0.179999 0.0762,-0.07625 0.12637,-0.715234 0.16656,-2.123582 0.0658,-2.305291 0.14862,-2.702205 0.69095,-3.311037 0.19016,-0.213486 0.37026,-0.364299 0.40022,-0.33514 0.03,0.02916 -0.0449,0.23085 -0.1664,0.448201 -0.27018,0.483395 -0.3983,1.31211 -0.40063,2.591263 l -0.002,0.964466 0.40436,-0.372723 c 0.4399,-0.405493 0.87637,-0.625202 1.242,-0.625202 0.26148,0 0.83632,0.511938 0.83632,0.744805 0,0.206554 0.0616,0.180773 0.50903,-0.213076 0.76613,-0.674375 1.49882,-0.663241 1.82672,0.02776 0.53965,1.13723 -0.68229,2.811926 -1.75216,2.401378 -0.21882,-0.08397 -0.17011,-0.45453 0.0814,-0.619338 0.2059,-0.134915 0.23802,-0.134526 0.45169,0.0055 0.33424,0.219006 0.6201,0.11607 0.74721,-0.26906 0.1926,-0.583604 -0.0557,-1.259213 -0.53601,-1.458145 -0.22071,-0.09142 -0.30947,-0.08171 -0.59418,0.06497 -0.27217,0.140224 -0.40098,0.306909 -0.68938,0.892088 -0.5346,1.084733 -0.99904,1.484521 -1.652,1.422066 -0.24948,-0.02386 -0.30322,-0.06782 -0.32621,-0.266852 -0.0203,-0.175734 0.0321,-0.27733 0.19951,-0.387033 0.20958,-0.137326 0.2438,-0.137752 0.44557,-0.0056 0.29601,0.193952 0.45487,0.180123 0.61876,-0.05387 0.32715,-0.467075 0.0572,-1.476568 -0.44606,-1.667897 -0.38509,-0.146409 -0.97708,0.172967 -1.18993,0.641959 -0.095,0.209364 -0.17364,0.471719 -0.17471,0.583011 -0.003,0.282515 -0.21741,0.766782 -0.43752,0.986887 -0.18804,0.188046 -0.36244,0.242982 -0.36244,0.114173 z m 6.87827,-0.261568 c 0.16145,-0.452415 0.16351,-1.710925 0.003,-1.930224 -0.10699,-0.146316 -0.15476,-0.154264 -0.36139,-0.06012 -0.21034,0.09584 -0.23467,0.09062 -0.2086,-0.04472 0.0386,-0.200651 0.57444,-0.558452 0.83628,-0.558452 0.24333,0 0.389,0.234498 0.389,0.626205 v 0.283195 l 0.28817,-0.233114 c 1.11166,-0.899275 1.85205,-0.97521 2.34703,-0.240712 0.59498,0.882897 -0.30662,2.488416 -1.39829,2.489992 -0.53422,7.79e-4 -0.72026,-0.401207 -0.31006,-0.669977 0.2008,-0.131567 0.23739,-0.130768 0.47638,0.0104 0.35972,0.212496 0.68033,0.117126 0.8046,-0.23934 0.14822,-0.425203 0.11811,-0.728506 -0.10529,-1.060366 -0.3972,-0.59005 -0.95441,-0.633709 -1.61894,-0.126847 -0.2918,0.22256 -0.34694,0.34359 -0.5711,1.253358 -0.0865,0.351258 -0.43775,0.833224 -0.60715,0.833224 -0.0454,0 -0.0291,-0.149626 0.0362,-0.332502 z m 29.17154,0 c 0.16145,-0.452415 0.16351,-1.710925 0.003,-1.930224 -0.10698,-0.146316 -0.15476,-0.154264 -0.36139,-0.06012 -0.21034,0.09584 -0.23466,0.09062 -0.2086,-0.04472 0.0386,-0.200651 0.57444,-0.558452 0.83627,-0.558452 0.24465,0 0.38902,0.234847 0.38902,0.632837 v 0.289825 l 0.3325,-0.319615 c 0.41606,-0.39993 0.96158,-0.691714 1.29323,-0.691714 0.28172,0 0.85695,0.499954 0.85695,0.744805 0,0.206554 0.0616,0.180773 0.50903,-0.213076 0.69844,-0.6148 1.34783,-0.682389 1.7072,-0.177691 0.3798,0.533377 0.3447,1.225581 -0.0959,1.890731 -0.3245,0.489889 -0.74637,0.769918 -1.15992,0.769918 -0.52748,0 -0.70511,-0.404728 -0.29544,-0.673158 0.20428,-0.133847 0.23882,-0.134007 0.44022,-0.002 0.35482,0.232487 0.57199,0.182724 0.71699,-0.164289 0.0707,-0.169118 0.12847,-0.412465 0.12847,-0.540771 0,-0.379219 -0.27005,-0.841221 -0.57739,-0.987778 -0.25836,-0.123206 -0.31266,-0.121361 -0.61223,0.02079 -0.27313,0.129613 -0.39448,0.286941 -0.7177,0.9305 -0.57721,1.149313 -1.20591,1.611542 -1.85379,1.362929 -0.21882,-0.08397 -0.17011,-0.45453 0.0814,-0.619338 0.20427,-0.133846 0.23881,-0.134007 0.44022,-0.002 0.1202,0.07876 0.27754,0.143198 0.34964,0.143198 0.41024,0 0.56602,-1.104113 0.21817,-1.546341 -0.29542,-0.375571 -0.5579,-0.435256 -1.01837,-0.231568 -0.30729,0.135934 -0.4319,0.257945 -0.56667,0.554908 -0.095,0.209364 -0.17452,0.480412 -0.17666,0.60233 -0.006,0.323293 -0.31118,0.945826 -0.51864,1.056854 -0.2623,0.140376 -0.26982,0.127631 -0.13981,-0.236681 z m 6.73668,0.02502 c 0.17034,-0.407686 0.17383,-1.724599 0.005,-1.955239 -0.10582,-0.144736 -0.15604,-0.153681 -0.35466,-0.06318 -0.3695,0.168353 -0.29673,-0.10598 0.0995,-0.375248 0.57704,-0.392103 0.91043,-0.242706 0.91043,0.407973 v 0.289818 l 0.3325,-0.319615 c 0.41605,-0.39993 0.96158,-0.691714 1.29323,-0.691714 0.28172,0 0.85695,0.499954 0.85695,0.744805 0,0.206554 0.0616,0.180773 0.50903,-0.213076 0.44382,-0.390667 0.94946,-0.58547 1.29473,-0.498812 0.32192,0.08079 0.61147,0.537589 0.65984,1.040922 0.0848,0.882964 -0.72394,1.940848 -1.48383,1.940848 -0.54529,0 -0.73218,-0.39966 -0.31476,-0.673158 0.20427,-0.133847 0.23881,-0.134007 0.44022,-0.002 0.35482,0.232487 0.57199,0.182724 0.71698,-0.164289 0.0707,-0.169118 0.12848,-0.412465 0.12848,-0.540771 0,-0.379219 -0.27006,-0.841221 -0.57739,-0.987778 -0.25745,-0.122765 -0.31277,-0.121311 -0.60176,0.01582 -0.25873,0.122777 -0.39399,0.297681 -0.72331,0.935303 -0.48931,0.947392 -0.97481,1.416916 -1.46513,1.416916 -0.54285,0 -0.72847,-0.400349 -0.31211,-0.673158 0.20428,-0.133847 0.23882,-0.134007 0.44022,-0.002 0.1202,0.07876 0.27888,0.143199 0.35262,0.143199 0.22456,0 0.42724,-0.414108 0.4184,-0.854851 -0.009,-0.447229 -0.16524,-0.750395 -0.49976,-0.969582 -0.43671,-0.286141 -1.19773,0.179796 -1.3698,0.838665 -0.0524,0.200803 -0.13832,0.529574 -0.19082,0.730602 -0.0925,0.354103 -0.42552,0.78717 -0.60531,0.78717 -0.0507,0 -0.0336,-0.130664 0.0403,-0.307488 z m -53.0719,-3.527569 c 0,-0.175799 1.42337,-1.852857 1.53971,-1.814127 0.26648,0.08872 0.1208,0.3744 -0.53514,1.049471 -0.74115,0.762765 -1.00457,0.963272 -1.00457,0.764656 z m 39.9553,0.03966 c -0.0262,-0.04244 0.20017,-0.25914 0.50311,-0.481569 0.71316,-0.523642 0.88132,-0.716411 0.84551,-0.969262 -0.0339,-0.239364 -0.44081,-0.336067 -0.65747,-0.156251 -0.0714,0.05924 -0.15861,0.07888 -0.19384,0.04365 -0.10213,-0.102132 0.57686,-0.670552 0.80098,-0.670552 0.59191,0 0.79499,0.638216 0.36549,1.148635 -0.35226,0.418639 -1.5806,1.219932 -1.66378,1.085347 z m 8.5457,-0.01112 c 0,-0.102069 1.53078,-1.448648 1.82707,-1.607219 0.23257,-0.124467 0.46391,-0.0096 0.35043,0.174038 -0.0797,0.128905 -2.0005,1.515665 -2.09938,1.515665 -0.043,0 -0.0781,-0.03712 -0.0781,-0.08248 z m -68.21573,-0.345667 c -0.20066,-0.221723 -0.18405,-0.422336 0.0484,-0.58518 0.18,-0.126074 0.21105,-0.121813 0.399,0.05476 0.26051,0.244729 0.25711,0.371252 -0.0147,0.549369 -0.26977,0.17676 -0.25501,0.177406 -0.43271,-0.01895 z m 1.1888,-0.05363 -0.20271,-0.215778 0.23965,-0.23965 0.23965,-0.239651 0.23134,0.231338 0.23133,0.231339 -0.21052,0.224089 c -0.25892,0.275605 -0.27736,0.275895 -0.52874,0.0083 z m 10.8096,-0.0083 -0.21052,-0.22409 0.2394,-0.239398 0.2394,-0.239399 0.23939,0.239399 0.2394,0.239398 -0.21052,0.22409 c -0.11578,0.123249 -0.23651,0.224089 -0.26827,0.224089 -0.0318,0 -0.15249,-0.10084 -0.26828,-0.224089 z m 1.24134,0 -0.21052,-0.22409 0.2394,-0.239398 0.2394,-0.239399 0.2394,0.239399 0.2394,0.239398 -0.21053,0.22409 c -0.11578,0.123249 -0.23651,0.224089 -0.26827,0.224089 -0.0318,0 -0.15249,-0.10084 -0.26828,-0.224089 z m 3.55926,0.01337 -0.19796,-0.210716 0.22179,-0.254788 0.22179,-0.254786 0.24445,0.241414 0.24444,0.241413 -0.21052,0.22409 c -0.25832,0.274964 -0.27777,0.275461 -0.52399,0.01337 z m 9.8295,-0.01337 -0.21052,-0.22409 0.2394,-0.239398 0.2394,-0.239399 0.2394,0.239399 0.2394,0.239398 -0.21052,0.22409 c -0.11579,0.123249 -0.23652,0.224089 -0.26828,0.224089 -0.0318,0 -0.15249,-0.10084 -0.26828,-0.224089 z m 1.24134,0 -0.21052,-0.22409 0.2394,-0.239398 0.2394,-0.239399 0.2394,0.239399 0.2394,0.239398 -0.21052,0.22409 c -0.11579,0.123249 -0.23651,0.224089 -0.26828,0.224089 -0.0318,0 -0.15249,-0.10084 -0.26828,-0.224089 z m 4.22772,0.06194 c -0.19783,-0.218601 -0.18473,-0.354782 0.0528,-0.548463 0.19441,-0.158553 0.20458,-0.157957 0.399,0.02341 0.25137,0.2345 0.25199,0.374377 0.003,0.549173 -0.249,0.174406 -0.27582,0.172982 -0.4542,-0.02412 z m 1.1888,-0.05363 -0.20271,-0.215777 0.23965,-0.23965 0.23965,-0.239651 0.23134,0.231338 0.23133,0.231338 -0.21052,0.22409 c -0.25891,0.275605 -0.27736,0.275895 -0.52874,0.0083 z m 12.76809,0 -0.20271,-0.215777 0.23965,-0.23965 0.23965,-0.239651 0.23134,0.231338 0.23133,0.231338 -0.21052,0.22409 c -0.25891,0.275605 -0.27736,0.275895 -0.52874,0.0083 z m 1.23353,-0.0083 -0.21052,-0.224089 0.2394,-0.239399 0.2394,-0.239398 0.2394,0.239398 0.23939,0.239399 -0.21052,0.224089 c -0.11578,0.12325 -0.23651,0.22409 -0.26827,0.22409 -0.0318,0 -0.15249,-0.10084 -0.26828,-0.224089 z m 3.51838,0.06194 c -0.20118,-0.222296 -0.18393,-0.422422 0.0506,-0.586668 0.18419,-0.129014 0.2119,-0.123614 0.41673,0.08122 l 0.21942,0.219421 -0.21052,0.224089 c -0.25122,0.267417 -0.28614,0.271959 -0.4762,0.06194 z m 12.08934,-0.05952 -0.20825,-0.221668 0.20355,-0.216665 c 0.19106,-0.203374 0.21648,-0.208187 0.41446,-0.07847 0.25211,0.165189 0.2707,0.390871 0.0488,0.591728 -0.20804,0.188271 -0.21185,0.187648 -0.45852,-0.07493 z m -62.32411,-0.877096 -0.19925,-0.212091 0.24881,-0.230711 0.24882,-0.230712 0.21871,0.218713 0.21871,0.218714 -0.21052,0.224089 c -0.25848,0.275141 -0.27766,0.275579 -0.52528,0.012 z m 12.04304,-0.01701 -0.21495,-0.229106 0.25695,-0.221262 0.25696,-0.221263 0.22628,0.226279 0.22627,0.226279 -0.21052,0.224089 c -0.26041,0.277194 -0.27634,0.277047 -0.54099,-0.005 z m 14.63011,0 -0.21496,-0.229106 0.25696,-0.221262 0.25695,-0.221263 0.22628,0.226279 0.22628,0.226279 -0.21052,0.224089 c -0.26042,0.277194 -0.27635,0.277047 -0.54099,-0.005 z m 5.47349,0.06696 c -0.19511,-0.215593 -0.18547,-0.302563 0.059,-0.53223 l 0.20575,-0.193288 0.19326,0.205713 c 0.24396,0.259691 0.24318,0.370924 -0.004,0.543926 -0.249,0.174406 -0.27582,0.172981 -0.4542,-0.02412 z m 13.95689,-0.05363 -0.20271,-0.215777 0.23965,-0.23965 0.23965,-0.23965 0.23134,0.231337 0.23133,0.231339 -0.21052,0.224089 c -0.25891,0.275605 -0.27736,0.275895 -0.52874,0.0083 z"
       style="fill:#000000;stroke-width:0.0886671" />
    <path
       id="path3483"
       d="m 187.66089,14.429529 c -1.06851,-1.911979 -1.28639,-2.322856 -1.28639,-2.42579 0,-0.07598 0.17028,-0.227681 0.5277,-0.470136 0.29024,-0.19688 0.52771,-0.374889 0.52771,-0.395576 0,-0.04205 -1.45404,-0.888648 -1.48186,-0.862801 -0.0264,0.02463 -0.0998,2.829562 -0.10057,3.848785 l -7.6e-4,0.890348 h -0.1649 -0.16491 V 12.48415 9.953941 l 0.16001,-0.05705 c 0.14578,-0.05197 0.24828,-0.0071 1.15267,0.504346 0.60018,0.33943 1.00883,0.606199 1.03357,0.674716 0.0401,0.110939 -0.12835,0.257506 -0.97321,0.847011 l -0.1771,0.123567 0.33253,0.593564 c 1.05694,1.886652 1.2602,2.250494 1.2853,2.300548 0.0153,0.03043 -0.0437,0.08081 -0.13113,0.111965 -0.15547,0.05543 -0.167,0.0421 -0.53873,-0.623083 z M 164.87111,12.67881 c 3.6e-4,-1.31294 0.0194,-2.509483 0.0423,-2.658985 0.0596,-0.388704 0.21484,-0.407897 0.77393,-0.09573 1.17738,0.657404 1.80333,1.575026 2.65256,3.888578 0.43306,1.179797 0.44313,1.249818 0.18022,1.252505 -0.0903,8.88e-4 -0.10336,-0.02876 -0.57768,-1.315375 -0.73727,-1.999871 -1.31962,-2.884726 -2.2962,-3.489003 l -0.34693,-0.214673 -0.0401,2.18733 c -0.0221,1.203033 -0.0444,2.332498 -0.0495,2.509922 -0.009,0.307735 -0.0169,0.32259 -0.17424,0.32259 h -0.16492 l 6e-4,-2.387163 z m 7.74734,2.271031 c -0.0174,-0.03548 -0.0238,-1.225841 -0.0144,-2.645235 l 0.0172,-2.580716 0.1792,-0.01617 0.1792,-0.01617 0.0187,0.582624 0.0187,0.582624 1.05541,0.638312 c 0.7207,0.435877 1.06049,0.673638 1.07141,0.749707 0.0127,0.08902 -0.20177,0.241006 -1.06797,0.756575 l -1.08398,0.645179 -0.003,0.68389 -0.003,0.68389 h -0.16699 c -0.0918,0 -0.18119,-0.02904 -0.19855,-0.06452 z m 1.26185,-2.183187 c 0.4503,-0.27105 0.81834,-0.50912 0.81787,-0.529047 -4.9e-4,-0.01992 -0.0878,-0.08268 -0.19407,-0.139459 -0.10625,-0.05678 -0.49175,-0.284582 -0.85665,-0.506236 l -0.66346,-0.403007 v 1.035283 c 0,0.569406 0.0175,1.035283 0.0388,1.035283 0.0213,0 0.40721,-0.221767 0.85752,-0.492817 z m 17.63931,-0.353297 c 0,-2.329988 0.0109,-2.604284 0.10491,-2.632499 0.0577,-0.01732 0.1319,-0.01844 0.1649,-0.0025 0.0336,0.01626 0.0603,0.64604 0.0608,1.432466 l 7.5e-4,1.403445 1.31573,1.030611 c 1.24805,0.977592 1.31013,1.035464 1.20667,1.12491 -0.10383,0.08978 -0.16451,0.05095 -1.26768,-0.81125 -0.63725,-0.498053 -1.18061,-0.90555 -1.20744,-0.90555 -0.0268,0 -0.0488,0.441303 -0.0488,0.980672 v 0.980673 h -0.16492 -0.1649 z m 6.40765,2.555663 c -0.0706,-0.03558 0.0744,-0.31418 0.68033,-1.307595 l 0.77007,-1.262385 -0.29447,-0.511746 c -0.16197,-0.28146 -0.49192,-0.846072 -0.73323,-1.254693 -0.24131,-0.408621 -0.4233,-0.774437 -0.40442,-0.812925 0.0189,-0.03849 0.0872,-0.06969 0.15183,-0.06934 0.11402,6.06e-4 0.44409,0.508932 1.19707,1.843601 0.13183,0.233666 0.25676,0.425284 0.27762,0.425818 0.0209,5.42e-4 0.33072,-0.480977 0.68857,-1.070025 0.35784,-0.589049 0.68213,-1.098611 0.72064,-1.132361 0.0538,-0.04713 0.0995,-0.04425 0.19718,0.01241 0.1224,0.071 0.10411,0.111183 -0.4857,1.067843 -0.3371,0.546739 -0.67954,1.110203 -0.76099,1.252142 l -0.1481,0.258072 0.72917,1.22946 c 0.59741,1.007322 0.71192,1.23799 0.6338,1.276665 -0.0525,0.02596 -0.12922,0.04756 -0.17063,0.048 -0.0414,4.1e-4 -0.36764,-0.497633 -0.72497,-1.106818 -0.35734,-0.609183 -0.66999,-1.091133 -0.69477,-1.070997 -0.0248,0.02013 -0.3398,0.524366 -0.70003,1.120512 -0.36023,0.596145 -0.69642,1.089679 -0.7471,1.09674 -0.0506,0.0071 -0.13253,-0.0075 -0.18187,-0.03237 z m 7.11478,-2.554865 c 0,-2.304047 0.0119,-2.607894 0.10396,-2.667714 0.1346,-0.08741 0.22244,-0.0456 1.26478,0.60194 0.60447,0.37552 0.80805,0.531287 0.80805,0.618274 0,0.08913 -0.21176,0.24082 -0.907,0.649695 l -0.90699,0.533413 -0.0175,1.432298 -0.0175,1.432298 h -0.16387 -0.16387 z m 1.12435,-1.060464 c 0.64313,-0.368178 0.66417,-0.386339 0.53843,-0.464529 -0.88776,-0.55207 -1.26414,-0.778165 -1.2954,-0.778165 -0.0207,0 -0.0375,0.373559 -0.0375,0.830131 0,0.501589 0.0248,0.82332 0.0626,0.812925 0.0345,-0.0095 0.3638,-0.189626 0.7319,-0.400362 z m -27.39756,1.092854 c 0.0393,-2.495358 0.0487,-2.590549 0.25705,-2.592829 0.0397,-4.39e-4 0.37634,0.174539 0.74804,0.388831 l 0.67581,0.389622 0.59308,-0.396894 c 0.58583,-0.392044 0.59463,-0.395678 0.72033,-0.297318 0.12571,0.09836 0.11921,0.104916 -0.53194,0.536319 -0.36257,0.240208 -0.70161,0.443856 -0.75344,0.452551 -0.0518,0.0087 -0.35658,-0.136282 -0.67724,-0.322169 -0.32066,-0.185888 -0.60527,-0.338167 -0.63249,-0.338398 -0.0271,-2.34e-4 -0.0489,0.191198 -0.0481,0.425398 l 0.002,0.425818 0.69623,0.405368 c 0.69581,0.405131 0.69631,0.405311 0.83969,0.30662 0.0789,-0.05431 0.34816,-0.242563 0.59834,-0.418337 0.35617,-0.250232 0.47428,-0.307002 0.5442,-0.261589 0.0491,0.0319 0.0893,0.08634 0.0893,0.120977 0,0.09484 -1.22422,0.95667 -1.35895,0.95667 -0.0644,0 -0.38991,-0.162586 -0.72337,-0.361301 -0.33347,-0.198715 -0.62472,-0.361301 -0.64721,-0.361301 -0.0225,0 -0.0409,0.778087 -0.0409,1.729081 v 1.729079 h -0.19467 -0.19466 z M 158.01039,12.330413 V 9.749697 h 0.19788 0.19789 v 0.6315 0.631501 l 0.82176,-0.641465 c 0.81769,-0.63828 0.82246,-0.64098 0.95933,-0.544048 l 0.13758,0.09742 -0.95934,0.751905 -0.95933,0.751906 v 0.488967 0.488966 l 0.85473,-0.667315 c 0.84776,-0.661881 0.85583,-0.666531 0.99096,-0.570845 0.13573,0.09612 0.13255,0.09924 -0.86843,0.851747 l -1.00466,0.755276 -0.005,0.255035 c -0.004,0.14027 -0.0118,0.620852 -0.0193,1.067961 l -0.0136,0.812926 h -0.16492 -0.1649 z m 53.75589,2.542006 c -0.003,-0.0213 -0.005,-1.165194 -0.007,-2.542006 l -0.003,-2.503295 0.1718,-0.01633 c 0.17111,-0.01626 0.17182,-0.01479 0.17492,0.3613 l 0.003,0.377633 0.98283,0.581233 c 1.0302,0.609236 1.20633,0.694594 1.18485,0.574194 -0.007,-0.03934 -0.009,-0.497024 -0.004,-1.017077 l 0.008,-0.945553 0.14842,0.0165 0.14842,0.01649 0.0171,2.567813 0.0171,2.567813 h -0.16444 -0.16445 l -0.0175,-1.376413 -0.0176,-1.376414 -1.02243,-0.608677 c -0.56233,-0.334772 -1.04469,-0.609605 -1.07189,-0.610739 -0.0272,-0.0012 -0.0495,0.892157 -0.0495,1.985092 v 1.987151 H 211.936 c -0.0907,0 -0.1667,-0.01742 -0.16889,-0.03871 z"
       style="fill:#000000;stroke-width:0.0583492" />
    <path
       d="m 165.26926,48.409079 c 0.41284,-0.579779 1.14285,-1.163107 1.90011,-1.518287 0.59214,-0.277736 0.87697,-0.328671 1.83795,-0.328671 0.96099,0 1.24582,0.05094 1.83796,0.328671 0.75724,0.35518 1.48728,0.938508 1.90011,1.518287 l 0.25941,0.364304 h -3.99748 -3.99747 z m 0.41333,-3.26848 c 0.0371,-0.193373 0.25175,-0.229057 1.71088,-0.284306 1.44303,-0.05463 1.65231,-0.08881 1.54837,-0.252716 -0.21149,-0.333494 -0.14266,-1.212872 0.12012,-1.533886 l 0.24412,-0.298301 0.21524,0.505431 c 0.19579,0.459791 0.19798,0.553923 0.0243,1.042451 l -0.19099,0.537021 h 1.67665 c 1.32185,0 1.69104,0.0375 1.74466,0.177183 0.0374,0.09746 0.034,0.211174 -0.008,0.252716 -0.0414,0.04154 -1.6623,0.07554 -3.60175,0.07554 -3.29018,0 -3.52338,-0.01478 -3.48392,-0.221125 z"
       style="fill:#000000;stroke-width:0.126358"
       id="path1209" />
    <path
       d="m 154.61918,49.053037 c -0.0963,-0.155853 0.679,-1.416874 0.87114,-1.416874 0.0947,0 0.27272,0.170583 0.39588,0.379074 0.12314,0.208489 0.25433,0.378713 0.29146,0.378274 0.0371,-4.34e-4 0.1644,-0.171023 0.28278,-0.379074 0.11831,-0.208051 0.27739,-0.378274 0.35336,-0.378274 0.0759,0 0.23497,0.170223 0.35336,0.378274 0.26944,0.473522 0.3498,0.473629 0.59432,7.9e-4 0.25056,-0.484539 0.50913,-0.481509 0.76277,0.0089 0.16084,0.311051 0.23571,0.358915 0.37742,0.241306 0.0972,-0.08069 0.21123,-0.255296 0.25337,-0.388016 0.11312,-0.356583 0.4208,-0.293281 0.66563,0.136973 0.11831,0.208053 0.24564,0.378635 0.28278,0.379075 0.0371,4.34e-4 0.16829,-0.16978 0.29144,-0.378271 0.12313,-0.208491 0.29221,-0.379074 0.37564,-0.379074 0.17476,0 0.84486,1.056411 0.84486,1.331908 0,0.314422 -0.3135,0.203149 -0.5485,-0.194687 -0.27854,-0.471517 -0.34573,-0.471431 -0.61444,7.89e-4 -0.27139,0.476944 -0.43532,0.476944 -0.70671,0 -0.26946,-0.473517 -0.34982,-0.473625 -0.59432,-7.89e-4 -0.2514,0.486156 -0.44814,0.478128 -0.73749,-0.0301 l -0.23209,-0.407568 -0.36908,0.439956 c -0.362,0.431497 -0.37289,0.435098 -0.56632,0.187242 -0.10854,-0.138989 -0.25021,-0.338007 -0.31493,-0.442251 -0.10455,-0.168479 -0.13075,-0.168479 -0.23541,0 -0.0647,0.104247 -0.20647,0.303258 -0.31495,0.442251 -0.19344,0.247856 -0.20433,0.244255 -0.56633,-0.187242 l -0.36909,-0.439951 -0.23206,0.407571 c -0.2233,0.392189 -0.46554,0.518397 -0.59449,0.309746 z m -0.20619,-3.312196 c 0,-0.673908 0.0281,-0.758147 0.25272,-0.758147 0.22208,0 0.25272,-0.08424 0.25272,-0.694967 0,-0.533511 0.0439,-0.694968 0.18954,-0.694968 0.1455,0 0.18954,0.161457 0.18954,0.694968 0,0.65706 0.0172,0.694967 0.31588,0.694967 0.29866,0 0.31589,-0.03791 0.31589,-0.694967 0,-0.533511 0.0441,-0.694968 0.18954,-0.694968 0.14552,0 0.18954,0.161457 0.18954,0.694968 0,0.65706 0.0171,0.694967 0.3159,0.694967 0.29866,0 0.31589,-0.03791 0.31589,-0.694967 0,-0.533511 0.044,-0.694968 0.18953,-0.694968 0.1458,0 0.18953,0.162435 0.18953,0.703755 0,0.657548 0.0186,0.701106 0.28432,0.663379 0.24767,-0.03517 0.28922,-0.125841 0.32248,-0.703755 0.0274,-0.477202 0.0896,-0.663379 0.22115,-0.663379 0.13775,0 0.18293,0.173724 0.18293,0.703755 0,0.657548 0.0186,0.701106 0.2843,0.663379 0.24769,-0.03517 0.28922,-0.125841 0.32251,-0.703755 0.0274,-0.477202 0.0896,-0.663379 0.22111,-0.663379 0.13744,0 0.18294,0.172606 0.18294,0.694968 0,0.61073 0.0307,0.694967 0.25271,0.694967 0.26304,0 0.28812,-0.06621 0.26345,-0.694967 -0.008,-0.20849 0.0366,-0.457436 0.0993,-0.55321 0.20544,-0.312954 0.39528,-0.01328 0.39528,0.623847 0,0.540093 0.0342,0.62433 0.25272,0.62433 0.13895,0 0.25583,-0.04265 0.25962,-0.09476 0.005,-0.05212 0.0216,-0.335358 0.0397,-0.629411 0.018,-0.294054 0.0681,-0.569838 0.11094,-0.612853 0.18878,-0.188779 0.34776,0.137017 0.34776,0.712702 0,0.540093 0.034,0.624329 0.25271,0.624329 0.22463,0 0.2527,0.08423 0.2527,0.758148 v 0.758147 h -3.72755 -3.72755 z"
       style="fill:#000000;stroke-width:0.126358"
       id="path1207" />
    <path
       d="m 209.39121,49.478185 c -1.66873,-0.448752 -2.60775,-2.267968 -2.08458,-4.038623 0.23845,-0.80707 1.26521,-1.767961 2.1042,-1.969235 2.10931,-0.506011 3.95893,0.914758 3.95893,3.040997 0,1.365878 -0.90254,2.567929 -2.22235,2.959875 -0.74477,0.221167 -0.95663,0.22201 -1.75621,0.007 z m 2.00369,-0.5649 c 1.28186,-0.582212 1.90984,-2.22381 1.33486,-3.489468 -0.25146,-0.553495 -0.98993,-1.269398 -1.5158,-1.469455 -0.56107,-0.213443 -1.58877,-0.150511 -2.14075,0.131094 -2.06217,1.05204 -1.9204,4.067561 0.23161,4.926423 0.50714,0.202401 1.53401,0.153964 2.09006,-0.09858 z m -1.56031,-1.852898 c -0.5205,-0.364566 -0.23041,-1.319592 0.40081,-1.319592 0.45418,0 0.70828,0.248364 0.70828,0.692249 0,0.416367 -0.34379,0.824046 -0.69496,0.824046 -0.0733,0 -0.25969,-0.08852 -0.41413,-0.196703 z m 0.78418,-0.254576 c 0.24131,-0.241307 0.24566,-0.320518 0.0336,-0.610613 -0.2635,-0.360359 -0.77335,-0.220055 -0.82437,0.226855 -0.0622,0.544213 0.40412,0.770465 0.79084,0.383758 z"
       style="fill:#000000;stroke-width:0.126358"
       id="path1199" />
    <path
       d="m 198.95515,49.545272 c -0.28901,-0.185623 -0.0315,-0.392815 0.48831,-0.392815 0.73644,0 1.01257,-0.418159 1.01257,-1.533335 v -0.867465 h -0.94767 c -0.54755,0 -0.94768,-0.05335 -0.94768,-0.126362 0,-0.073 0.40013,-0.126363 0.94768,-0.126363 0.75813,0 0.94767,-0.03791 0.94767,-0.189537 0,-0.15163 -0.18954,-0.189537 -0.94767,-0.189537 -1.20921,0 -1.24352,-0.22952 -0.0417,-0.278769 0.58445,-0.02395 0.92452,-0.09319 0.9582,-0.195072 0.0387,-0.117068 -0.19578,-0.157947 -0.90599,-0.157947 -1.21692,0 -1.25988,-0.229283 -0.0522,-0.27877 0.58447,-0.02395 0.92453,-0.09319 0.95822,-0.195072 0.0388,-0.117068 -0.1958,-0.157947 -0.90598,-0.157947 -0.55458,0 -0.95823,-0.05324 -0.95823,-0.126363 0,-0.07227 0.38041,-0.126363 0.88849,-0.126363 0.73589,0 0.9002,-0.03797 0.95679,-0.221126 0.12284,-0.397482 0.25413,-0.583752 0.58637,-0.831796 0.3252,-0.242805 0.32996,-0.242569 0.78592,0.03924 0.30089,0.185958 0.48386,0.40914 0.53174,0.648601 0.0728,0.363255 0.0778,0.365086 1.01237,0.365086 0.59406,0 0.91065,0.04644 0.86126,0.126363 -0.043,0.0695 -0.47278,0.126363 -0.95515,0.126363 -0.69535,0 -0.87705,0.03926 -0.87705,0.189537 0,0.15176 0.19038,0.189536 0.95515,0.189536 0.60457,0 0.92649,0.04637 0.87705,0.126362 -0.043,0.0695 -0.47278,0.126364 -0.95515,0.126364 -0.69535,0 -0.87705,0.03926 -0.87705,0.189537 0,0.15176 0.19038,0.189536 0.95515,0.189536 0.60457,0 0.92649,0.04637 0.87705,0.126363 -0.043,0.0695 -0.47278,0.126363 -0.95515,0.126363 -0.69535,0 -0.87705,0.03926 -0.87705,0.189537 0,0.151761 0.19038,0.189537 0.95515,0.189537 0.60457,0 0.92649,0.04637 0.87705,0.126362 -0.043,0.0695 -0.47278,0.126363 -0.95515,0.126363 h -0.87705 v 0.948921 c 0,1.090503 0.1709,1.343346 0.98135,1.451879 0.30704,0.04111 0.47178,0.129361 0.47178,0.252715 0,0.160523 -0.35784,0.194313 -2.33762,0.220741 -1.2857,0.01717 -2.41598,-0.01912 -2.51177,-0.08063 z m 3.01405,-0.716936 c -0.0677,-0.178266 -0.12326,-0.718446 -0.12326,-1.2004 v -0.876279 h -0.50543 -0.50545 v 0.955991 c 0,0.525795 -0.0588,1.065976 -0.13073,1.2004 -0.12252,0.229038 -0.0831,0.244409 0.62867,0.244409 h 0.75946 z m -0.12326,-2.51893 c 0,-0.136885 -0.14046,-0.189537 -0.50543,-0.189537 -0.36504,0 -0.50545,0.05266 -0.50545,0.189537 0,0.136884 0.14046,0.189536 0.50545,0.189536 0.36502,0 0.50543,-0.05265 0.50543,-0.189536 z m 0,-0.631789 c 0,-0.136885 -0.14046,-0.189537 -0.50543,-0.189537 -0.36504,0 -0.50545,0.05265 -0.50545,0.189537 0,0.136885 0.14046,0.189537 0.50545,0.189537 0.36502,0 0.50543,-0.05265 0.50543,-0.189537 z m 0,-0.631789 c 0,-0.136885 -0.14046,-0.189536 -0.50543,-0.189536 -0.36504,0 -0.50545,0.05265 -0.50545,0.189536 0,0.136885 0.14046,0.189537 0.50545,0.189537 0.36502,0 0.50543,-0.05266 0.50543,-0.189537 z m 0,-0.622764 c 0,-0.178648 -0.32665,-0.577636 -0.47293,-0.577636 -0.15145,0 -0.53795,0.422585 -0.53795,0.588195 0,0.114037 0.16629,0.169952 0.50545,0.169952 0.35378,0 0.50543,-0.05417 0.50543,-0.180511 z"
       style="fill:#000000;stroke-width:0.126358"
       id="path1187" />
    <path
       d="m 181.2009,49.486624 c 0,-0.114291 0.0427,-0.208239 0.0948,-0.208764 0.40099,-0.004 1.89091,-0.31165 2.59033,-0.534805 l 0.85292,-0.272131 V 47.679213 46.8875 l -1.16882,-0.03633 c -0.93854,-0.02918 -1.16879,-0.07367 -1.16879,-0.225868 0,-0.161342 0.39294,-0.194627 2.6415,-0.223751 2.2713,-0.02942 2.66263,-0.06312 2.79229,-0.240429 0.15097,-0.206475 0.44184,-0.139362 0.44184,0.101941 0,0.07056 -0.31793,0.461585 -0.70648,0.868959 -1.13522,1.190148 -3.64016,2.307531 -5.57886,2.488571 -0.67943,0.06344 -0.7907,0.0446 -0.7907,-0.133973 z m 4.86477,-1.694996 c 0.5571,-0.345051 1.07405,-0.785212 1.07405,-0.914521 0,-0.04577 -0.1279,-0.06902 -0.28431,-0.05168 -0.15638,0.01735 -0.63969,0.03627 -1.07404,0.04206 l -0.78974,0.01062 v 0.703482 c 0,0.672011 0.0121,0.699451 0.2843,0.61333 0.15638,-0.04957 0.51176,-0.231025 0.78974,-0.403201 z m -1.95231,-2.197962 c -0.99966,-0.117515 -2.44167,-0.780368 -2.38116,-1.094566 0.022,-0.114424 0.28417,-0.342694 0.58252,-0.507274 1.56189,-0.861581 3.62292,-0.866123 5.36196,-0.01183 0.72372,0.355532 0.76647,0.626868 0.1555,0.987341 -0.93336,0.550701 -2.34277,0.788068 -3.71882,0.626314 z m 2.82626,-0.691998 c 0.34169,-0.129259 0.64257,-0.298949 0.66862,-0.377089 0.0663,-0.198847 -0.83297,-0.533842 -1.80104,-0.670941 -0.98935,-0.140107 -2.09107,-10e-4 -2.91987,0.368653 l -0.61245,0.273156 0.37908,0.204807 c 1.06851,0.577292 3.04627,0.670244 4.28566,0.201414 z"
       style="fill:#000000;stroke-width:0.126358"
       id="path1183" />
    <path
       d="m 219.50799,49.879014 c -0.0302,-0.08687 -0.071,-0.385392 -0.0908,-0.66338 l -0.036,-0.505429 -0.82132,-0.0303 c -0.45173,-0.01665 -1.06662,-0.06333 -1.3664,-0.103728 -0.45438,-0.06119 -0.52014,-0.103462 -0.39518,-0.254008 0.11746,-0.141525 0.11239,-0.182517 -0.0237,-0.189514 -0.0954,-0.005 0.054,-0.111731 0.33201,-0.237386 0.27798,-0.125647 0.83959,-0.523076 1.248,-0.883161 1.10707,-0.976058 1.23202,-1.034945 2.35999,-1.112258 1.20235,-0.08241 1.29223,-0.182394 0.89638,-0.997181 -0.67326,-1.385774 0.0963,-2.364108 1.14575,-1.45632 0.22827,0.197495 0.52879,0.424172 0.66777,0.503731 0.19898,0.113904 0.0579,0.12772 -0.66337,0.06502 -0.85672,-0.07446 -0.91609,-0.06333 -0.91609,0.171576 0,0.138168 0.28429,0.576094 0.63178,0.973182 0.36743,0.419899 0.63178,0.844109 0.63178,1.013864 0,0.414329 -1.16599,1.874512 -1.7003,2.129308 l -0.44604,0.212699 0.21546,0.476301 c 0.33788,0.746892 0.40005,0.792197 1.08714,0.792197 0.4521,0 0.602,0.03956 0.50758,0.134003 -0.0738,0.07369 -0.41099,0.116356 -0.74953,0.09477 -0.61522,-0.03921 -0.61569,-0.0396 -0.96894,-0.777914 -0.26075,-0.54496 -0.40489,-0.718934 -0.54968,-0.663378 -0.10793,0.04142 -0.33372,0.07531 -0.5018,0.07531 -0.27791,0 -0.30555,0.05147 -0.30555,0.568611 v 0.56861 h 0.56862 c 0.31274,0 0.5686,0.05686 0.5686,0.126364 0,0.188742 -1.26028,0.158725 -1.3263,-0.03159 z"
       style="fill:#000000;stroke-width:0.126358"
       id="path1181" />
    <path
       d="m 176.45006,49.860669 c -0.10298,-0.26823 0.16882,-1.137464 0.47882,-1.531565 l 0.27604,-0.350912 -0.27647,-0.480353 c -0.36063,-0.62662 -0.3516,-1.213341 0.0272,-1.760609 l 0.30358,-0.438686 -0.33229,-0.439884 c -0.46463,-0.615049 -0.4568,-1.312049 0.0194,-1.721611 0.39328,-0.338295 0.56558,-0.365889 1.01263,-0.162192 0.63249,0.288173 0.75289,1.075413 0.27259,1.782219 -0.37718,0.555107 -0.3788,0.5802 -0.0631,0.983719 0.33694,0.430728 0.3336,1.300525 -0.008,1.778569 l -0.25952,0.364465 0.31618,0.539545 c 0.17389,0.296751 0.35573,0.786952 0.40407,1.089335 0.0789,0.493768 0.0637,0.545132 -0.1495,0.504071 -0.15888,-0.0306 -0.26183,-0.191431 -0.31143,-0.486609 -0.0857,-0.510178 -0.45318,-1.262219 -0.61668,-1.262219 -0.17125,0 -0.63983,1.047155 -0.63983,1.429831 0,0.363535 -0.332,0.482485 -0.45466,0.162886 z m 1.42779,-2.793117 c 0.19695,-0.413019 0.19695,-0.471485 0,-0.884503 -0.11602,-0.24324 -0.25973,-0.442254 -0.31942,-0.442254 -0.0598,0 -0.2144,0.19665 -0.34383,0.437003 -0.22329,0.414625 -0.22441,0.459916 -0.022,0.884505 0.26818,0.562395 0.41896,0.56355 0.68517,0.0053 z m -0.04,-2.522711 c 0.35481,-0.541528 0.23015,-1.204843 -0.22644,-1.204843 -0.35902,0 -0.58036,0.228189 -0.58036,0.598327 0,0.307233 0.33627,0.917967 0.50543,0.917967 0.0536,0 0.18912,-0.140154 0.30137,-0.311451 z"
       style="fill:#000000;stroke-width:0.126358"
       id="path1171" />
    <path
       d="m 191.71832,46.467353 0.0334,-3.822324 h 0.75815 0.75815 l 0.0359,1.358348 0.0358,1.358344 h 0.37481 0.37478 v 1.705831 1.705831 h 0.63179 0.63179 v 0.758147 0.758148 h -1.83404 -1.83405 z m 3.19238,3.064177 c 0,-0.286932 -0.0548,-0.319411 -0.59659,-0.354259 l -0.59656,-0.03837 -0.0351,-1.666393 -0.0351,-1.666396 -0.37908,-0.06524 -0.37906,-0.06525 -0.036,-1.294173 c -0.0356,-1.281578 -0.0391,-1.294175 -0.34747,-1.294175 h -0.31146 v 3.415936 3.415936 l 1.35836,-0.03586 c 1.35509,-0.03577 1.35834,-0.03663 1.35834,-0.35176 z"
       style="fill:#000000;stroke-width:0.126358"
       id="path4646" />
    <text
       xml:space="preserve"
       style="font-style:normal;font-weight:normal;font-size:5.27397px;line-height:1.25;font-family:sans-serif;fill:#000000;fill-opacity:1;stroke:none;stroke-width:0.131849"
       x="140.90031"
       y="35.875679"
       id="text4665"><tspan
         sodipodi:role="line"
         id="tspan4663"
         x="140.90031"
         y="35.875679"
         style="font-style:normal;font-variant:normal;font-weight:normal;font-stretch:normal;font-family:'Courier New';-inkscape-font-specification:'Courier New';stroke-width:0.131849">quest.goblin.getX('Walhalla');</tspan></text>
  </g>
</svg>
