<?xml version="1.0" encoding="UTF-8" standalone="no"?>
<svg
   xmlns:osb="http://www.openswatchbook.org/uri/2009/osb"
   xmlns:dc="http://purl.org/dc/elements/1.1/"
   xmlns:cc="http://creativecommons.org/ns#"
   xmlns:rdf="http://www.w3.org/1999/02/22-rdf-syntax-ns#"
   xmlns:svg="http://www.w3.org/2000/svg"
   xmlns="http://www.w3.org/2000/svg"
   xmlns:xlink="http://www.w3.org/1999/xlink"
   xmlns:sodipodi="http://sodipodi.sourceforge.net/DTD/sodipodi-0.dtd"
   xmlns:inkscape="http://www.inkscape.org/namespaces/inkscape"
   id="svg8"
   version="1.1"
   viewBox="0 0 105.83332 95.061012"
   height="95.061012mm"
   width="105.83332mm"
   sodipodi:docname="goblins.svg"
   inkscape:version="0.92.4 (5da689c313, 2019-01-14)">
  <sodipodi:namedview
     pagecolor="#ffffff"
     bordercolor="#666666"
     borderopacity="1"
     objecttolerance="10"
     gridtolerance="10"
     guidetolerance="10"
     inkscape:pageopacity="0"
     inkscape:pageshadow="2"
     inkscape:window-width="1920"
     inkscape:window-height="1005"
     id="namedview40"
     showgrid="false"
     inkscape:zoom="1.3137177"
     inkscape:cx="284.24301"
     inkscape:cy="113.57637"
     inkscape:window-x="0"
     inkscape:window-y="0"
     inkscape:window-maximized="1"
     inkscape:current-layer="layer1" />
  <defs
     id="defs2">
    <linearGradient
       id="linearGradient2693">
      <stop
         id="stop2689"
         offset="0"
         style="stop-color:#000000;stop-opacity:1;" />
      <stop
         id="stop2691"
         offset="1"
         style="stop-color:#000000;stop-opacity:0;" />
    </linearGradient>
    <linearGradient
       osb:paint="solid"
       id="linearGradient833">
      <stop
         id="stop831"
         offset="0"
         style="stop-color:#44aa00;stop-opacity:1;" />
    </linearGradient>
    <linearGradient
       gradientUnits="userSpaceOnUse"
       y2="381.09113"
       x2="308.57144"
       y1="321.09113"
       x1="31.428572"
       id="linearGradient2695"
       xlink:href="#linearGradient2693" />
    <linearGradient
       y2="381.09113"
       x2="308.57144"
       y1="321.09113"
       x1="31.428572"
       gradientUnits="userSpaceOnUse"
       id="linearGradient847"
       xlink:href="#linearGradient2693" />
    <linearGradient
       y2="381.09113"
       x2="308.57144"
       y1="321.09113"
       x1="31.428572"
       gradientUnits="userSpaceOnUse"
       id="linearGradient849"
       xlink:href="#linearGradient2693" />
    <linearGradient
       y2="381.09113"
       x2="308.57144"
       y1="321.09113"
       x1="31.428572"
       gradientUnits="userSpaceOnUse"
       id="linearGradient851"
       xlink:href="#linearGradient2693" />
  </defs>
  <metadata
     id="metadata5">
    <rdf:RDF>
      <cc:Work
         rdf:about="">
        <dc:format>image/svg+xml</dc:format>
        <dc:type
           rdf:resource="http://purl.org/dc/dcmitype/StillImage" />
        <dc:title />
      </cc:Work>
    </rdf:RDF>
  </metadata>
  <g
     transform="translate(-56.318451,-104.23214)"
     id="layer1">
    <rect
       y="104.23214"
       x="56.318451"
       height="95.061012"
       width="105.83332"
       id="rect845"
       style="opacity:1;fill:#000000;fill-opacity:1;stroke:none;stroke-width:0.35079092;stroke-miterlimit:4;stroke-dasharray:none" />
    <path
       id="path2337"
       d="m 61.138726,137.36016 c 38.868984,7.09932 -5.926656,-7.34017 62.486204,4.76256 68.41286,12.10273 -10.96722,-21.97116 -14.98188,-14.15443 -7.54895,14.69813 20.09411,24.74559 3.24083,5.69416 -51.110552,-57.776813 -0.51703,12.83878 -7.15318,21.61961 -15.311535,20.26004 -13.605815,22.06844 -8.639405,38.6519 0,0 20.198185,-75.40971 27.732175,-40.46413 0.81154,3.76421 28.83107,-36.79001 0.23879,-35.90561 -28.592275,0.8844 -66.042885,19.2262 -62.923548,19.79594 z"
       style="fill:#112b00;fill-opacity:1;stroke:#7fae00;stroke-width:0.01352765;stroke-miterlimit:4;stroke-dasharray:none;stroke-dashoffset:0;stroke-opacity:1" />
    <path
       style="fill:#71c837;fill-opacity:1;stroke:#7fae00;stroke-width:0.01352765;stroke-miterlimit:4;stroke-dasharray:none;stroke-dashoffset:0;stroke-opacity:1"
       d="m 64.918502,136.41522 c 38.868978,7.09932 -5.926656,-7.34017 62.486188,4.76256 68.41286,12.10273 -10.96722,-21.97116 -14.98188,-14.15443 -7.54894,14.69813 20.09411,24.74559 3.24083,5.69416 -51.110536,-57.776812 -0.51703,12.83878 -7.15318,21.61961 -15.311515,20.26004 -13.605795,22.06844 -8.639385,38.6519 0,0 20.198165,-75.40971 27.732155,-40.46413 0.81155,3.76421 28.83107,-36.79001 0.23879,-35.90561 -28.592255,0.8844 -66.042869,19.2262 -62.923532,19.79594 z"
       id="path2361" />
    <flowRoot
       style="font-style:normal;font-variant:normal;font-weight:normal;font-stretch:normal;font-size:40px;line-height:1.25;font-family:Streamster;-inkscape-font-specification:Streamster;letter-spacing:0px;word-spacing:0px;fill:#000000;fill-opacity:1;stroke:none"
       id="flowRoot2637"
       xml:space="preserve"><flowRegion
         id="flowRegion2639"><rect
           y="381.09113"
           x="400.71429"
           height="50.714287"
           width="209.28572"
           id="rect2641" /></flowRegion><flowPara
         id="flowPara2643" /></flowRoot>    <g
       aria-label="Goblins"
       transform="scale(1.0047093,0.9953128)"
       style="font-style:normal;font-variant:normal;font-weight:normal;font-stretch:normal;font-size:19.21096802px;line-height:1.25;font-family:Streamster;-inkscape-font-specification:Streamster;letter-spacing:0px;word-spacing:0px;fill:#ffffff;fill-opacity:1;stroke:none;stroke-width:0.4802742"
       id="text2647">
      <path
         d="m 126.65014,170.02797 q 0,0.096 -0.11527,0.17289 -0.096,0.0769 -0.19211,0.13448 -0.24974,0.13448 -0.59554,0.26895 -0.34579,0.13448 -0.73001,0.26896 -0.36501,0.13448 -0.74923,0.26895 -0.36501,0.13448 -0.67238,0.26896 -0.0576,0.096 -0.11527,0.21132 -0.0576,0.096 -0.19211,0.28816 -0.55712,0.86449 -1.17187,1.67135 -0.61475,0.78765 -1.32556,1.53688 -1.55608,1.67136 -3.26586,3.07376 -1.70978,1.4024 -3.76535,2.42058 -0.61475,0.3458 -1.44082,0.69159 -0.80686,0.3458 -1.67136,0.55712 -0.86449,0.21132 -1.72898,0.21132 -0.8645,0 -1.59451,-0.36501 -0.73002,-0.365 -1.19108,-0.99897 -0.44186,-0.63396 -0.53791,-1.47924 -0.11527,-1.03739 0.096,-2.11321 0.23054,-1.09502 0.65318,-2.15163 0.42264,-1.0566 0.97976,-2.03636 0.57633,-0.99897 1.15265,-1.84425 1.22951,-1.94031 2.76638,-3.68851 1.55609,-1.7482 3.30429,-3.20823 0.78765,-0.63396 1.70978,-1.28713 0.94133,-0.65318 1.95952,-1.15266 1.01818,-0.49949 2.07478,-0.74923 1.07581,-0.26895 2.13242,-0.15369 0.49948,0.0768 0.96055,0.26896 0.48027,0.19211 0.80686,0.65317 0.30737,0.44185 0.365,0.97976 0.0576,0.53791 -0.0576,1.09502 -0.11526,0.53791 -0.36501,1.07582 -0.24974,0.51869 -0.55711,0.94134 -0.30738,0.44185 -0.67239,0.84528 -0.36501,0.40343 -0.76844,0.73002 -0.0192,0.0192 -0.11526,0.096 -0.0961,0.0768 -0.21132,0.15369 -0.11527,0.0576 -0.23054,0.11526 -0.0961,0.0384 -0.0961,0 0,-0.0576 0.13448,-0.23053 0.15368,-0.19211 0.38422,-0.51869 0.24974,-0.32659 0.5379,-0.76844 0.30738,-0.44186 0.59554,-1.01818 0.23053,-0.46107 0.38422,-1.01819 0.1729,-0.57632 0.13448,-1.13344 -0.0384,-0.46107 -0.30738,-0.74923 -0.24974,-0.30738 -0.74922,-0.40343 -1.13345,-0.0576 -2.22848,0.28816 -1.07581,0.3458 -2.07478,0.92213 -0.99897,0.57633 -1.9211,1.32556 -0.90291,0.73001 -1.67135,1.46003 -1.72899,1.5753 -3.13139,3.38113 -1.4024,1.80583 -2.59348,3.80377 -0.36501,0.61475 -0.80686,1.46004 -0.44185,0.84528 -0.76844,1.76741 -0.30738,0.90291 -0.38422,1.80583 -0.0768,0.90291 0.30738,1.63293 0.28816,0.59554 0.96054,0.73002 0.6916,0.15368 1.49846,0.0384 0.80686,-0.11527 1.61372,-0.40343 0.80686,-0.26896 1.36398,-0.5187 2.05557,-0.92213 3.8614,-2.24768 1.82505,-1.34477 3.47719,-2.88165 0.74923,-0.67238 1.46003,-1.4024 0.71081,-0.73002 1.38319,-1.49845 -0.49948,0.17289 -0.99897,0.32658 -0.49948,0.13448 -0.99897,0.28817 -1.01818,0.32658 -2.05557,0.61475 -1.03739,0.28816 -2.07479,0.55712 -0.11526,0.0192 -0.51869,0.13447 -0.38422,0.0961 -0.82607,0.19211 -0.42264,0.0961 -0.78765,0.15369 -0.36501,0.0576 -0.44186,-0.0192 -0.0961,-0.0961 0.21133,-0.28817 0.30737,-0.1921 0.74922,-0.40343 0.88371,-0.38421 1.80583,-0.7108 0.92213,-0.3458 1.86347,-0.63396 1.0566,-0.32659 2.13242,-0.65318 1.07581,-0.32658 2.15162,-0.59554 0.71081,-0.15368 1.4024,-0.32658 0.71081,-0.1729 1.42162,-0.26896 0.15368,-0.0192 0.365,-0.0192 0.23054,-0.0192 0.30738,0.0576 z"
         style="fill:#ffffff;stroke-width:0.4802742"
         id="path865" />
      <path
         d="m 129.49607,171.41116 q 0.24974,0.0768 0.40343,0.26895 0.15368,0.1729 0.13447,0.15369 -0.0576,-0.0192 -0.1729,-0.0384 -0.0961,-0.0384 -0.28816,-0.0576 -0.36501,-0.0384 -0.73002,0.0769 -0.36501,0.096 -0.73001,0.30737 -0.36501,0.19211 -0.74923,0.48028 -0.36501,0.26895 -0.74923,0.57632 -0.1729,0.15369 -0.63396,0.61476 -0.46107,0.46106 -0.94134,1.07581 -0.46106,0.59554 -0.82607,1.26792 -0.3458,0.65318 -0.3458,1.19108 0.55712,-0.0768 1.30635,-0.5379 0.74923,-0.48028 1.46003,-1.11424 0.71081,-0.65317 1.28714,-1.36398 0.57632,-0.73002 0.78765,-1.32556 0.0768,-0.1921 0.0961,-0.365 0.0192,-0.19211 -0.0384,-0.40343 -0.0384,-0.11527 -0.0384,-0.13448 0.0192,-0.0768 0.15368,0.096 0.15369,0.15369 0.21132,0.38422 0.23054,0.8645 -0.23053,1.78662 -0.44185,0.92213 -1.24871,1.70978 -0.78765,0.78765 -1.7482,1.36398 -0.94134,0.57633 -1.70977,0.76844 -0.5187,0.15368 -0.97976,0 -0.38422,-0.15369 -0.53791,-0.53791 -0.15369,-0.38422 -0.0961,-0.76844 0.0768,-0.49948 0.26896,-0.94134 0.21132,-0.46106 0.51869,-0.90291 0.26896,-0.38422 0.67239,-0.84528 0.40343,-0.46107 0.90291,-0.90292 0.5187,-0.46106 1.09503,-0.86449 0.59554,-0.42264 1.19108,-0.6916 0.59554,-0.26895 1.17187,-0.36501 0.59554,-0.11526 1.13345,0.0384 z"
         style="fill:#ffffff;stroke-width:0.4802742"
         id="path867" />
      <path
         d="m 140.13384,161.24855 q 0.0961,0.0576 -0.13448,0.49949 -0.21132,0.44185 -0.65317,1.13345 -0.42264,0.69159 -0.99897,1.57529 -0.57633,0.8645 -1.19108,1.76741 -0.61475,0.90292 -1.2295,1.78662 -0.61475,0.8645 -1.11424,1.5753 -0.49948,0.6916 -0.82607,1.15266 -0.32659,0.46106 -0.38422,0.53791 -0.0768,0.11526 -0.26895,0.36501 -0.1729,0.23053 -0.42265,0.55712 -0.23053,0.32658 -0.51869,0.7108 -0.26895,0.36501 -0.55712,0.74923 0.76844,-0.71081 1.42161,-1.17187 0.65318,-0.48027 1.17187,-0.73002 0.5187,-0.26895 0.88371,-0.34579 0.365,-0.0769 0.5379,0 0.24975,0.096 0.23053,0.40343 0,0.30737 -0.0768,0.5379 -0.26895,0.80686 -0.86449,1.72899 -0.59554,0.90292 -1.32556,1.70978 0.0192,-0.0192 0.0192,-0.0192 0.0192,0 0.0384,-0.0192 0.57633,-0.32658 1.09503,-0.65317 0.51869,-0.32659 1.15266,-0.74923 0.0384,-0.0192 0.19211,-0.096 0.15368,-0.0769 0.17289,-0.0384 -0.44185,0.5379 -1.0566,1.01818 -0.61475,0.48027 -1.19108,0.8837 -0.80686,0.55712 -1.67135,1.07582 -0.8645,0.49948 -1.86347,0.78765 -0.15368,0.0384 -0.34579,0.0768 -0.19211,0.0384 -0.38422,0.0768 -0.1729,0.0384 -0.32659,0.0384 -0.13448,0.0192 -0.19211,0 -0.15369,-0.0384 -0.19211,-0.1729 -0.0384,-0.13448 0.0576,-0.24975 0.0384,-0.0576 0.24975,-0.17289 0.23053,-0.11527 0.32658,-0.15369 0.92213,-0.46106 1.70978,-1.13345 0.78765,-0.69159 1.59451,-1.61372 0.21132,-0.28816 0.44185,-0.63396 0.24974,-0.36501 0.48028,-0.71081 0.23053,-0.36501 0.42264,-0.7108 0.21132,-0.36501 0.34579,-0.67239 -0.63396,0.21132 -1.4024,0.78765 -0.74922,0.55712 -1.47924,1.2295 -0.73002,0.67239 -1.34477,1.36398 -0.61475,0.67239 -0.96055,1.13345 -0.26895,0.32659 -0.65317,0.82607 -0.36501,0.49949 -0.59554,0.84528 -0.11527,0.1729 -0.30738,0.21132 -0.21132,0.0384 -0.32658,-0.0384 -0.32659,-0.23053 -0.13448,-0.59554 0.49949,-0.86449 1.09503,-1.76741 0.61475,-0.90291 1.19108,-1.72898 0.97976,-1.4024 1.97873,-2.82402 0.99897,-1.44082 2.03636,-2.82401 1.03739,-1.38319 2.07478,-2.68953 1.0374,-1.32556 2.13242,-2.67033 0.30738,-0.3458 0.59554,-0.67238 0.28817,-0.3458 0.59554,-0.67239 0.0576,-0.0576 0.15369,-0.17289 0.11526,-0.11527 0.23053,-0.21133 0.11527,-0.11526 0.21132,-0.17289 0.0961,-0.0768 0.15369,-0.0576 z"
         style="fill:#ffffff;stroke-width:0.4802742"
         id="path869" />
      <path
         d="m 146.43834,161.13329 q 0.0384,0.0384 0,0.13447 -0.0192,0.0768 -0.0769,0.19211 -0.0384,0.0961 -0.096,0.19211 -0.0384,0.0961 -0.0576,0.13448 -0.59554,1.07581 -1.26793,2.094 -0.65317,1.01818 -1.32555,2.03636 -0.73002,1.07581 -1.47925,2.13242 -0.73002,1.03739 -1.47924,2.09399 -0.97976,1.36398 -1.97873,2.68954 -0.99897,1.32555 -1.99794,2.67032 -0.15369,0.21132 -0.32659,0.42264 -0.15369,0.21132 -0.30738,0.42264 1.32556,-0.94133 2.68954,-1.7674 0.0192,-0.0192 0.11527,-0.0769 0.11526,-0.0768 0.24974,-0.13448 0.13447,-0.0768 0.24974,-0.11526 0.11527,-0.0576 0.15369,-0.0384 0.0384,0.0192 -0.0576,0.096 -0.0769,0.0576 -0.1729,0.15369 -0.3458,0.30737 -0.71081,0.59554 -0.3458,0.26895 -0.69159,0.55712 -0.5187,0.40343 -1.01819,0.80686 -0.49948,0.40343 -0.99897,0.84528 -0.19211,0.15369 -0.38422,0.32659 -0.17289,0.1729 -0.365,0.34579 -0.15369,0.13448 -0.32659,0.23054 -0.1729,0.0961 -0.38422,0.0192 -0.36501,-0.11527 -0.38422,-0.46107 -0.0192,-0.26895 0.15369,-0.57633 0.15369,-0.30737 0.28816,-0.51869 1.05661,-1.67136 2.28611,-3.3235 0.96055,-1.28713 1.78662,-2.43979 0.84528,-1.17187 1.76741,-2.40137 0.76844,-1.03739 1.53688,-2.05558 0.78765,-1.01818 1.61372,-2.01715 0.57633,-0.69159 1.13344,-1.4024 0.57633,-0.7108 1.21029,-1.34477 0.0192,-0.0192 0.11527,-0.11526 0.0961,-0.0961 0.19211,-0.19211 0.11527,-0.11527 0.21132,-0.1729 0.0961,-0.0576 0.13448,-0.0384 z"
         style="fill:#ffffff;stroke-width:0.4802742"
         id="path871" />
      <path
         d="m 142.37222,174.15832 q 0.0384,-0.0384 0.19211,-0.11526 0.17289,-0.0769 0.1921,-0.0384 0,0.0192 0,0.0384 0,0 -0.0576,0.0576 -0.7108,0.65317 -1.46003,1.2295 -0.73002,0.55712 -1.46004,1.17187 -0.30737,0.26896 -0.76843,0.6916 -0.44186,0.42264 -0.73002,0.69159 -0.11527,0.0961 -0.26895,0.21132 -0.13448,0.0961 -0.30738,0.15369 -0.15369,0.0768 -0.30738,0.0576 -0.17289,-0.0192 -0.34579,-0.1729 -0.15369,-0.15368 -0.0961,-0.42264 0.0384,-0.26895 0.13448,-0.48027 0.19211,-0.48028 0.59554,-1.07582 0.40343,-0.61475 0.90291,-1.24871 0.5187,-0.63396 1.05661,-1.2295 0.55712,-0.61475 1.03739,-1.09503 0.48027,-0.48027 0.82607,-0.78765 0.3458,-0.30737 0.46107,-0.34579 0.13447,-0.0576 0.21132,-0.0192 0.0384,0.0192 0.0576,0.0576 0.0384,0.0384 0,0.11527 -0.24974,0.46106 -0.59554,0.99897 -0.3458,0.5379 -0.74923,1.13344 -0.40343,0.57633 -0.84528,1.21029 -0.42264,0.61475 -0.82607,1.26793 0.1729,-0.13448 0.46106,-0.32659 0.28816,-0.21132 0.46106,-0.32659 0.55712,-0.365 1.09503,-0.7108 0.53791,-0.36501 1.13345,-0.6916 z m 2.15162,-5.7825 q 0.0576,0.15369 0,0.32659 -0.0384,0.15369 -0.15368,0.30737 -0.0961,0.13448 -0.23054,0.24975 -0.13447,0.11526 -0.26895,0.1729 -0.11526,0.0576 -0.28816,0.096 -0.15369,0.0192 -0.30738,0.0192 -0.15369,-0.0192 -0.28816,-0.0768 -0.13448,-0.0576 -0.19211,-0.21132 -0.11527,-0.30738 0.0768,-0.57633 0.19211,-0.28817 0.44185,-0.42264 0.11527,-0.0769 0.28817,-0.11527 0.1729,-0.0576 0.34579,-0.0576 0.19211,0 0.3458,0.0576 0.15369,0.0576 0.23053,0.23053 z"
         style="fill:#ffffff;stroke-width:0.4802742"
         id="path873" />
      <path
         d="m 149.0021,174.56175 q 0.0192,0.0384 -0.0768,0.13448 -0.0961,0.0961 -0.23053,0.21132 -0.11527,0.0961 -0.24974,0.19211 -0.11527,0.0961 -0.13448,0.11527 -0.21132,0.1729 -0.44185,0.34579 -0.21132,0.1729 -0.44186,0.3458 -0.61475,0.49949 -1.30634,0.97976 -0.6916,0.46106 -1.30635,1.07582 -0.096,0.0768 -0.21132,0.17289 -0.096,0.0769 -0.23053,0.13448 -0.11527,0.0576 -0.24974,0.0576 -0.11527,0 -0.24975,-0.11526 -0.23053,-0.15369 -0.23053,-0.49949 0.0192,-0.34579 0.13448,-0.73001 0.13448,-0.40343 0.30738,-0.76844 0.17289,-0.36501 0.28816,-0.57633 0.26895,-0.5187 0.71081,-1.13345 0.44185,-0.61475 0.78765,-1.07581 -0.65318,0.40343 -1.22951,0.74922 -0.55711,0.32659 -1.13344,0.78765 -0.57633,0.46107 -1.19108,1.13345 -0.61475,0.65317 -1.32556,1.72899 -0.0768,0.096 -0.15369,0.21132 -0.0768,0.096 -0.19211,0.13448 -0.21132,0.0961 -0.42264,-0.0192 -0.23053,-0.13448 -0.23053,-0.38422 -0.0384,-0.30738 0.3458,-0.97976 0.36501,-0.6916 0.99897,-1.51767 0.63396,-0.84528 1.44082,-1.7482 0.82607,-0.90291 1.69056,-1.63293 0.19211,-0.15369 0.42265,-0.32659 0.23053,-0.19211 0.40343,-0.23053 0.0384,0 -0.0384,0.11527 -0.0576,0.11526 -0.17289,0.28816 -0.11527,0.15369 -0.24975,0.32659 -0.11526,0.1729 -0.19211,0.28816 -0.365,0.49949 -0.59554,0.82607 -0.23053,0.32659 -0.44185,0.63397 -0.21132,0.30737 -0.48027,0.67238 -0.24975,0.3458 -0.6916,0.92213 0.67239,-0.53791 1.42161,-1.15266 0.76844,-0.63396 1.51767,-1.2295 0.74923,-0.59554 1.42161,-1.07582 0.6916,-0.48027 1.2295,-0.73001 0.26896,-0.11527 0.55712,0.0384 0.21132,0.11526 0.26896,0.36501 0.0576,0.23053 -0.0961,0.42264 -0.28816,0.44185 -0.80686,0.94133 -0.49949,0.49949 -0.90292,0.96055 -0.40343,0.46107 -0.78765,0.94134 -0.365,0.48027 -0.69159,0.99897 -0.19211,0.30738 -0.40343,0.63396 -0.19211,0.32659 -0.30738,0.6916 0.38422,-0.30738 0.78765,-0.57633 0.40343,-0.28817 0.80686,-0.55712 0.0576,-0.0384 0.24975,-0.1729 0.21132,-0.13447 0.48027,-0.30737 0.28817,-0.19211 0.59554,-0.38422 0.30738,-0.21132 0.57633,-0.36501 0.26895,-0.15369 0.44185,-0.23053 0.19211,-0.0961 0.21132,-0.0576 z"
         style="fill:#ffffff;stroke-width:0.4802742"
         id="path875" />
      <path
         d="m 153.0262,171.44958 q 0.0192,0.21132 -0.0768,0.38422 -0.0961,0.1729 -0.24974,0.32658 -0.13448,0.13448 -0.30737,0.26896 -0.15369,0.13447 -0.24975,0.30737 -0.19211,0.32659 -0.34579,0.6916 -0.13448,0.36501 -0.24975,0.73001 -0.11526,0.40343 -0.23053,0.78765 -0.096,0.36501 -0.19211,0.74923 -0.19211,0.67239 -0.59554,1.26793 -0.40343,0.59554 -1.01818,0.92212 -0.73002,0.36501 -1.44082,0.30738 -0.38422,-0.0576 -0.63396,-0.21132 -0.0192,0 -0.11527,-0.0576 -0.096,-0.0576 -0.19211,-0.11526 -0.11527,-0.0576 -0.1729,-0.11527 -0.0768,-0.0768 -0.0576,-0.11526 0.0192,-0.0384 0.21132,0.0384 0.19211,0.0576 0.23053,0.0576 0.24974,0.0768 0.55712,0.0768 0.55712,-0.0384 0.97976,-0.365 0.36501,-0.26896 0.65317,-0.71081 0.30738,-0.44185 0.36501,-0.8837 0.0768,-0.44186 0.13448,-0.90292 0.0768,-0.48027 0.13447,-0.97976 -0.48027,0.44185 -1.19108,0.94134 -0.7108,0.49948 -1.4024,0.92213 -0.67238,0.40343 -1.17187,0.67238 -0.49948,0.24974 -0.55711,0.19211 -0.0384,-0.0576 0.51869,-0.46106 0.53791,-0.42265 1.30635,-1.01819 0.78765,-0.61475 1.59451,-1.34476 0.82607,-0.73002 1.32555,-1.44083 0.1729,-0.26895 0.3458,-0.51869 0.1729,-0.26896 0.38422,-0.53791 0.21132,-0.21132 0.46106,-0.36501 0.26896,-0.15369 0.57633,-0.15369 0.26896,0 0.46107,0.19211 0.19211,0.19211 0.21132,0.46107 z"
         style="fill:#ffffff;stroke-width:0.4802742"
         id="path877" />
    </g>
    <flowRoot
       style="font-style:normal;font-variant:normal;font-weight:normal;font-stretch:normal;font-size:40px;line-height:1.25;font-family:Streamster;-inkscape-font-specification:Streamster;letter-spacing:0px;word-spacing:0px;fill:#000000;fill-opacity:1;stroke:none"
       id="flowRoot2649"
       xml:space="preserve"><flowRegion
         id="flowRegion2651"><rect
           y="342.51968"
           x="87.14286"
           height="92.14286"
           width="176.42857"
           id="rect2653" /></flowRegion><flowPara
         id="flowPara2655" /></flowRoot>    <flowRoot
       style="font-style:normal;font-variant:normal;font-weight:normal;font-stretch:normal;font-size:40px;line-height:1.25;font-family:Streamster;-inkscape-font-specification:Streamster;letter-spacing:0px;word-spacing:0px;fill:#000000;fill-opacity:1;stroke:none"
       id="flowRoot2665"
       xml:space="preserve"><flowRegion
         id="flowRegion2667"><rect
           y="337.51968"
           x="50"
           height="77.14286"
           width="284.28571"
           id="rect2669" /></flowRegion><flowPara
         id="flowPara2671" /></flowRoot>    <flowRoot
       style="font-style:normal;font-variant:normal;font-weight:normal;font-stretch:normal;font-size:40px;line-height:1.25;font-family:'Rocket Rinder';-inkscape-font-specification:'Rocket Rinder';letter-spacing:0px;word-spacing:0px;fill:url(#linearGradient2695);fill-opacity:1;stroke:none"
       id="flowRoot2681"
       xml:space="preserve"><flowRegion
         style="font-style:normal;font-variant:normal;font-weight:normal;font-stretch:normal;font-family:'Rocket Rinder';-inkscape-font-specification:'Rocket Rinder';fill:url(#linearGradient849);fill-opacity:1"
         id="flowRegion2683"><rect
           style="font-style:normal;font-variant:normal;font-weight:normal;font-stretch:normal;font-family:'Rocket Rinder';-inkscape-font-specification:'Rocket Rinder';fill:url(#linearGradient847);fill-opacity:1"
           y="338.23398"
           x="77.14286"
           height="57.857143"
           width="394.28571"
           id="rect2685" /></flowRegion><flowPara
         style="fill:url(#linearGradient851);fill-opacity:1"
         id="flowPara2687" /></flowRoot>    <flowRoot
       style="font-style:normal;font-variant:normal;font-weight:normal;font-stretch:normal;font-size:40px;line-height:1.25;font-family:Streamster;-inkscape-font-specification:Streamster;letter-spacing:0px;word-spacing:0px;fill:#000000;fill-opacity:1;stroke:none"
       id="flowRoot2697"
       xml:space="preserve"><flowRegion
         id="flowRegion2699"><rect
           y="331.80539"
           x="49.285713"
           height="52.857143"
           width="425"
           id="rect2701" /></flowRegion><flowPara
         id="flowPara2703" /></flowRoot>    <text
       transform="scale(1.0047093,0.99531278)"
       id="text2647-3"
       y="124.80955"
       x="170.12454"
       style="font-style:normal;font-variant:normal;font-weight:normal;font-stretch:normal;font-size:19.21096802px;line-height:1.25;font-family:Streamster;-inkscape-font-specification:Streamster;letter-spacing:0px;word-spacing:0px;fill:#000000;fill-opacity:1;stroke:none;stroke-width:0.4802742"
       xml:space="preserve"><tspan
         style="fill:#000000;stroke-width:0.4802742"
         y="124.80955"
         x="170.12454"
         id="tspan2645-6">Goblins</tspan></text>
  </g>
</svg>
