<?xml version="1.0" encoding="UTF-8" standalone="no"?>
<svg
   xmlns:dc="http://purl.org/dc/elements/1.1/"
   xmlns:cc="http://creativecommons.org/ns#"
   xmlns:rdf="http://www.w3.org/1999/02/22-rdf-syntax-ns#"
   xmlns:svg="http://www.w3.org/2000/svg"
   xmlns="http://www.w3.org/2000/svg"
   xmlns:xlink="http://www.w3.org/1999/xlink"
   xmlns:sodipodi="http://sodipodi.sourceforge.net/DTD/sodipodi-0.dtd"
   xmlns:inkscape="http://www.inkscape.org/namespaces/inkscape"
   sodipodi:docname="goblin-blupi.svg"
   inkscape:version="1.0 (4035a4fb49, 2020-05-01)"
   id="svg8"
   version="1.1"
   viewBox="0 0 185 146"
   height="146mm"
   width="185mm">
  <defs
     id="defs2">
    <linearGradient
       id="linearGradient4528"
       inkscape:collect="always">
      <stop
         id="stop4524"
         offset="0"
         style="stop-color:#000000;stop-opacity:0.46341464" />
      <stop
         id="stop4526"
         offset="1"
         style="stop-color:#000000;stop-opacity:0" />
    </linearGradient>
    <linearGradient
       id="linearGradient4518"
       inkscape:collect="always">
      <stop
         id="stop4514"
         offset="0"
         style="stop-color:#cfe01b;stop-opacity:1" />
      <stop
         id="stop4516"
         offset="1"
         style="stop-color:#d0e11a;stop-opacity:0" />
    </linearGradient>
    <linearGradient
       id="linearGradient4506"
       inkscape:collect="always">
      <stop
         id="stop4502"
         offset="0"
         style="stop-color:#000000;stop-opacity:0.60569108" />
      <stop
         id="stop4504"
         offset="1"
         style="stop-color:#000000;stop-opacity:0" />
    </linearGradient>
    <linearGradient
       inkscape:collect="always"
       id="linearGradient2036">
      <stop
         style="stop-color:#506c26;stop-opacity:0.77366257"
         offset="0"
         id="stop2032" />
      <stop
         style="stop-color:#739935;stop-opacity:0;"
         offset="1"
         id="stop2034" />
    </linearGradient>
    <linearGradient
       inkscape:collect="always"
       id="linearGradient1998">
      <stop
         style="stop-color:#c3c3c3;stop-opacity:1"
         offset="0"
         id="stop1994" />
      <stop
         style="stop-color:#5b5b5b;stop-opacity:1"
         offset="1"
         id="stop1996" />
    </linearGradient>
    <linearGradient
       inkscape:collect="always"
       id="linearGradient1875">
      <stop
         style="stop-color:#2f2f2f;stop-opacity:1"
         offset="0"
         id="stop1871" />
      <stop
         style="stop-color:#d1d1d1;stop-opacity:1"
         offset="1"
         id="stop1873" />
    </linearGradient>
    <linearGradient
       inkscape:collect="always"
       id="linearGradient1839">
      <stop
         style="stop-color:#16320b;stop-opacity:1"
         offset="0"
         id="stop1835" />
      <stop
         style="stop-color:#439620;stop-opacity:1"
         offset="1"
         id="stop1837" />
    </linearGradient>
    <linearGradient
       id="linearGradient1811"
       inkscape:collect="always">
      <stop
         id="stop1807"
         offset="0"
         style="stop-color:#000000;stop-opacity:0" />
      <stop
         id="stop1809"
         offset="1"
         style="stop-color:#000000;stop-opacity:1" />
    </linearGradient>
    <linearGradient
       inkscape:collect="always"
       id="linearGradient1791">
      <stop
         style="stop-color:#aeda00;stop-opacity:1"
         offset="0"
         id="stop1787" />
      <stop
         style="stop-color:#305321;stop-opacity:1"
         offset="1"
         id="stop1789" />
    </linearGradient>
    <linearGradient
       id="linearGradient1755"
       inkscape:collect="always">
      <stop
         id="stop1751"
         offset="0"
         style="stop-color:#2c4d1f;stop-opacity:1" />
      <stop
         id="stop1753"
         offset="1"
         style="stop-color:#81dd58;stop-opacity:1" />
    </linearGradient>
    <linearGradient
       id="linearGradient1749"
       inkscape:collect="always">
      <stop
         id="stop1745"
         offset="0"
         style="stop-color:#678e32;stop-opacity:1" />
      <stop
         id="stop1747"
         offset="1"
         style="stop-color:#d6e417;stop-opacity:1" />
    </linearGradient>
    <linearGradient
       inkscape:collect="always"
       id="linearGradient1729">
      <stop
         style="stop-color:#719a36;stop-opacity:1"
         offset="0"
         id="stop1725" />
      <stop
         style="stop-color:#759935;stop-opacity:0.99607843"
         offset="1"
         id="stop1727" />
    </linearGradient>
    <linearGradient
       inkscape:collect="always"
       id="linearGradient1721">
      <stop
         style="stop-color:#86b841;stop-opacity:1;"
         offset="0"
         id="stop1717" />
      <stop
         style="stop-color:#a4d649;stop-opacity:1"
         offset="1"
         id="stop1719" />
    </linearGradient>
    <linearGradient
       inkscape:collect="always"
       id="linearGradient1705">
      <stop
         style="stop-color:#86b841;stop-opacity:1;"
         offset="0"
         id="stop1701" />
      <stop
         style="stop-color:#d6e417;stop-opacity:1"
         offset="1"
         id="stop1703" />
    </linearGradient>
    <linearGradient
       inkscape:collect="always"
       id="linearGradient1697">
      <stop
         style="stop-color:#44762f;stop-opacity:1"
         offset="0"
         id="stop1693" />
      <stop
         style="stop-color:#81dd58;stop-opacity:1"
         offset="1"
         id="stop1695" />
    </linearGradient>
    <linearGradient
       inkscape:collect="always"
       id="linearGradient1417">
      <stop
         style="stop-color:#b2f054;stop-opacity:1"
         offset="0"
         id="stop1413" />
      <stop
         style="stop-color:#77a138;stop-opacity:1"
         offset="1"
         id="stop1415" />
    </linearGradient>
    <linearGradient
       inkscape:collect="always"
       id="linearGradient1409">
      <stop
         style="stop-color:#b8f052;stop-opacity:1"
         offset="0"
         id="stop1405" />
      <stop
         style="stop-color:#759935;stop-opacity:0.99607843"
         offset="1"
         id="stop1407" />
    </linearGradient>
    <radialGradient
       inkscape:collect="always"
       xlink:href="#linearGradient1409"
       id="radialGradient1411"
       cx="109.66306"
       cy="64.976707"
       fx="109.66306"
       fy="64.976707"
       r="40.868176"
       gradientTransform="matrix(0.57480894,1.6884984,-1.2108428,0.41220252,86.735752,-157.24591)"
       gradientUnits="userSpaceOnUse" />
    <radialGradient
       inkscape:collect="always"
       xlink:href="#linearGradient1417"
       id="radialGradient1419"
       cx="125.7674"
       cy="76.112427"
       fx="125.7674"
       fy="76.112427"
       r="9.5536985"
       gradientTransform="matrix(0.51030815,1.958765,-1.3785493,0.35914719,127.94342,-205.54397)"
       gradientUnits="userSpaceOnUse" />
    <radialGradient
       inkscape:collect="always"
       xlink:href="#linearGradient1417"
       id="radialGradient1427"
       cx="105.46971"
       cy="130.00739"
       fx="105.46971"
       fy="130.00739"
       r="16.484608"
       gradientTransform="matrix(1,0,0,0.8998586,-38.568578,7.0795537)"
       gradientUnits="userSpaceOnUse" />
    <filter
       inkscape:collect="always"
       style="color-interpolation-filters:sRGB"
       id="filter1681"
       x="-0.34217626"
       width="1.6843525"
       y="-0.30707243"
       height="1.6141449">
      <feGaussianBlur
         inkscape:collect="always"
         stdDeviation="0.90856143"
         id="feGaussianBlur1683" />
    </filter>
    <linearGradient
       inkscape:collect="always"
       xlink:href="#linearGradient1755"
       id="linearGradient1699"
       x1="184.87053"
       y1="38.142563"
       x2="200.96051"
       y2="43.823433"
       gradientUnits="userSpaceOnUse"
       gradientTransform="translate(-38.902746,-0.61251033)" />
    <linearGradient
       inkscape:collect="always"
       xlink:href="#linearGradient1749"
       id="linearGradient1707"
       x1="177.62268"
       y1="38.332008"
       x2="199.24832"
       y2="15.441448"
       gradientUnits="userSpaceOnUse"
       gradientTransform="translate(-38.902746,-0.61251033)" />
    <linearGradient
       inkscape:collect="always"
       xlink:href="#linearGradient1697"
       id="linearGradient1713"
       gradientUnits="userSpaceOnUse"
       x1="186.70845"
       y1="34.633793"
       x2="200.96051"
       y2="43.823433"
       gradientTransform="matrix(-1,0,0,1,224.05806,-0.61251033)" />
    <linearGradient
       inkscape:collect="always"
       xlink:href="#linearGradient1705"
       id="linearGradient1715"
       gradientUnits="userSpaceOnUse"
       x1="177.62268"
       y1="38.332008"
       x2="199.24832"
       y2="15.441448"
       gradientTransform="matrix(-1,0,0,1,224.05806,-0.61251033)" />
    <linearGradient
       inkscape:collect="always"
       xlink:href="#linearGradient1721"
       id="linearGradient1723"
       x1="75.628448"
       y1="122.37781"
       x2="95.02877"
       y2="71.082901"
       gradientUnits="userSpaceOnUse"
       gradientTransform="translate(-38.568578,-6.6275483)" />
    <linearGradient
       inkscape:collect="always"
       xlink:href="#linearGradient1729"
       id="linearGradient1731"
       x1="181.72704"
       y1="121.20822"
       x2="163.86754"
       y2="69.913315"
       gradientUnits="userSpaceOnUse"
       gradientTransform="translate(-38.568578,-6.6275483)" />
    <linearGradient
       inkscape:collect="always"
       xlink:href="#linearGradient1791"
       id="linearGradient1793"
       x1="99.117592"
       y1="142.00026"
       x2="107.30499"
       y2="145.09132"
       gradientUnits="userSpaceOnUse"
       gradientTransform="translate(-29.170081,-9.0920426)" />
    <linearGradient
       inkscape:collect="always"
       xlink:href="#linearGradient1791"
       id="linearGradient1797"
       gradientUnits="userSpaceOnUse"
       gradientTransform="translate(-38.485035,-10.150376)"
       x1="99.117592"
       y1="142.00026"
       x2="107.30499"
       y2="145.09132" />
    <linearGradient
       inkscape:collect="always"
       xlink:href="#linearGradient1791"
       id="linearGradient1801"
       gradientUnits="userSpaceOnUse"
       gradientTransform="translate(-19.604501,-10.150376)"
       x1="99.117592"
       y1="142.00026"
       x2="107.30499"
       y2="145.09132" />
    <linearGradient
       inkscape:collect="always"
       xlink:href="#linearGradient1811"
       id="linearGradient1805"
       x1="112.78195"
       y1="138.38763"
       x2="113.95155"
       y2="147.70259"
       gradientUnits="userSpaceOnUse"
       gradientTransform="translate(-38.568578,-6.6275483)" />
    <linearGradient
       inkscape:collect="always"
       xlink:href="#linearGradient1791"
       id="linearGradient1823"
       gradientUnits="userSpaceOnUse"
       gradientTransform="translate(15.023736,-10.150376)"
       x1="99.117592"
       y1="142.00026"
       x2="107.30499"
       y2="145.09132" />
    <linearGradient
       inkscape:collect="always"
       xlink:href="#linearGradient1791"
       id="linearGradient1825"
       gradientUnits="userSpaceOnUse"
       gradientTransform="translate(5.4581563,-9.0920426)"
       x1="99.117592"
       y1="142.00026"
       x2="107.30499"
       y2="145.09132" />
    <linearGradient
       inkscape:collect="always"
       xlink:href="#linearGradient1791"
       id="linearGradient1827"
       gradientUnits="userSpaceOnUse"
       gradientTransform="translate(-3.8567977,-10.150376)"
       x1="99.117592"
       y1="142.00026"
       x2="107.30499"
       y2="145.09132" />
    <linearGradient
       inkscape:collect="always"
       xlink:href="#linearGradient1811"
       id="linearGradient1829"
       gradientUnits="userSpaceOnUse"
       x1="112.78195"
       y1="138.38763"
       x2="113.95155"
       y2="147.70259"
       gradientTransform="translate(-3.9403407,-6.6275483)" />
    <radialGradient
       inkscape:collect="always"
       xlink:href="#linearGradient1417"
       id="radialGradient1831"
       gradientUnits="userSpaceOnUse"
       gradientTransform="matrix(1,0,0,0.8998586,-3.9403407,7.0795537)"
       cx="105.46971"
       cy="130.00739"
       fx="105.46971"
       fy="130.00739"
       r="16.484608" />
    <radialGradient
       inkscape:collect="always"
       xlink:href="#linearGradient1839"
       id="radialGradient1841"
       cx="120.71287"
       cy="71.610191"
       fx="120.71287"
       fy="71.610191"
       r="3.3925543"
       gradientTransform="matrix(1,0,0,1.0363318,-38.568578,-9.1640416)"
       gradientUnits="userSpaceOnUse" />
    <radialGradient
       inkscape:collect="always"
       xlink:href="#linearGradient1839"
       id="radialGradient1845"
       gradientUnits="userSpaceOnUse"
       gradientTransform="matrix(-0.99908638,-0.04273635,-0.04428904,1.035385,224.46015,-3.9680163)"
       cx="120.71287"
       cy="71.610191"
       fx="120.71287"
       fy="71.610191"
       r="3.3925543" />
    <radialGradient
       inkscape:collect="always"
       xlink:href="#linearGradient1875"
       id="radialGradient1877"
       cx="81.118164"
       cy="64.566238"
       fx="81.118164"
       fy="64.566238"
       r="8.0284615"
       gradientTransform="matrix(1,0,0,1.0012471,-38.568578,-6.7129583)"
       gradientUnits="userSpaceOnUse" />
    <filter
       inkscape:collect="always"
       style="color-interpolation-filters:sRGB"
       id="filter1977"
       x="-0.35152525"
       width="1.7030505"
       y="-0.0855956"
       height="1.1711912">
      <feGaussianBlur
         inkscape:collect="always"
         stdDeviation="0.35828708"
         id="feGaussianBlur1979" />
    </filter>
    <linearGradient
       inkscape:collect="always"
       xlink:href="#linearGradient1998"
       id="linearGradient2000"
       x1="194.01912"
       y1="98.970551"
       x2="205.85509"
       y2="98.970551"
       gradientUnits="userSpaceOnUse"
       gradientTransform="rotate(-19.103172,152.52234,181.77516)" />
    <radialGradient
       inkscape:collect="always"
       xlink:href="#linearGradient2036"
       id="radialGradient2040"
       cx="133.42079"
       cy="97.818405"
       fx="133.42079"
       fy="97.818405"
       r="30.675043"
       gradientTransform="matrix(1.1661017,-0.67300871,0.3622374,0.6276377,-96.209919,121.35103)"
       gradientUnits="userSpaceOnUse" />
    <filter
       inkscape:collect="always"
       style="color-interpolation-filters:sRGB"
       id="filter2168"
       x="-0.42749703"
       width="1.8549941"
       y="-0.31221691"
       height="1.6244338">
      <feGaussianBlur
         inkscape:collect="always"
         stdDeviation="1.9345102"
         id="feGaussianBlur2170" />
    </filter>
    <filter
       inkscape:collect="always"
       style="color-interpolation-filters:sRGB"
       id="filter2208"
       x="-0.25594294"
       width="1.5118859"
       y="-0.2694822"
       height="1.5389644">
      <feGaussianBlur
         inkscape:collect="always"
         stdDeviation="0.53867982"
         id="feGaussianBlur2210" />
    </filter>
    <radialGradient
       gradientUnits="userSpaceOnUse"
       gradientTransform="matrix(0.94264224,-0.33380334,0.18537848,0.5234986,-11.328174,99.139652)"
       r="5.8393898"
       fy="104.68286"
       fx="140.83145"
       cy="104.68286"
       cx="140.83145"
       id="radialGradient4510"
       xlink:href="#linearGradient4506"
       inkscape:collect="always" />
    <radialGradient
       gradientUnits="userSpaceOnUse"
       gradientTransform="matrix(0.96940987,0.58119991,-0.5373925,0.89634148,60.118598,-8.8318819)"
       r="4.2292588"
       fy="109.40076"
       fx="34.639977"
       cy="109.40076"
       cx="34.639977"
       id="radialGradient4520"
       xlink:href="#linearGradient4518"
       inkscape:collect="always" />
    <radialGradient
       gradientUnits="userSpaceOnUse"
       gradientTransform="matrix(0.59909746,-0.08177729,0.21842598,1.6001808,43.651579,-14.529051)"
       r="10.605366"
       fy="45.323257"
       fx="133.577"
       cy="45.323257"
       cx="133.577"
       id="radialGradient4532"
       xlink:href="#linearGradient4528"
       inkscape:collect="always" />
  </defs>
  <sodipodi:namedview
     inkscape:object-paths="true"
     inkscape:snap-global="false"
     inkscape:window-maximized="0"
     inkscape:window-y="179"
     inkscape:window-x="489"
     inkscape:window-height="1429"
     inkscape:window-width="2718"
     showgrid="false"
     inkscape:document-rotation="0"
     inkscape:current-layer="layer2"
     inkscape:document-units="mm"
     inkscape:cy="275.90551"
     inkscape:cx="349.6063"
     inkscape:zoom="2.1692209"
     inkscape:pageshadow="2"
     inkscape:pageopacity="0.0"
     borderopacity="1.0"
     bordercolor="#666666"
     pagecolor="#ffffff"
     id="base"
     showguides="false" />
  <metadata
     id="metadata5">
    <rdf:RDF>
      <cc:Work
         rdf:about="">
        <dc:format>image/svg+xml</dc:format>
        <dc:type
           rdf:resource="http://purl.org/dc/dcmitype/StillImage" />
        <dc:title />
      </cc:Work>
    </rdf:RDF>
  </metadata>
  <g
     inkscape:groupmode="layer"
     id="layer2"
     inkscape:label="Smiley"
     style="display:inline">
    <path
       style="fill:#000000;fill-opacity:1;stroke:none;stroke-width:0.264583px;stroke-linecap:butt;stroke-linejoin:miter;stroke-opacity:1"
       d="m 130.79998,91.485401 c -1.08249,-1.814327 7.53175,-5.138052 8.4008,-3.00355 0.86904,2.134502 -7.36404,5.351505 -8.4008,3.00355 z"
       id="path2220" />
    <path
       style="fill:url(#linearGradient1707);fill-opacity:1;stroke:#000000;stroke-width:0.264583px;stroke-linecap:butt;stroke-linejoin:miter;stroke-opacity:1"
       d="M 127.01203,48.176127 C 131.02206,37.816897 148.733,4.4000207 182.31697,15.928843 151.90761,25.786821 165.44144,85.268854 127.01203,48.176127 Z"
       id="path1389"
       sodipodi:nodetypes="ccc" />
    <path
       sodipodi:nodetypes="ccc"
       id="path1391"
       d="m 127.01203,48.176127 c 42.60652,13.868005 5.3467,-46.1152873 55.30494,-32.247284 -30.40936,9.857978 -16.87553,69.340011 -55.30494,32.247284 z"
       style="fill:url(#linearGradient1699);fill-opacity:1;stroke:#000000;stroke-width:0.264583px;stroke-linecap:butt;stroke-linejoin:miter;stroke-opacity:1" />
    <path
       sodipodi:nodetypes="ccc"
       id="path1709"
       d="M 58.143282,48.176127 C 54.133252,37.816897 36.422312,4.4000207 2.8383423,15.928843 33.247702,25.786821 19.713872,85.268854 58.143282,48.176127 Z"
       style="fill:url(#linearGradient1715);fill-opacity:1;stroke:#000000;stroke-width:0.264583px;stroke-linecap:butt;stroke-linejoin:miter;stroke-opacity:1" />
    <path
       style="fill:url(#linearGradient1713);fill-opacity:1;stroke:#000000;stroke-width:0.264583px;stroke-linecap:butt;stroke-linejoin:miter;stroke-opacity:1"
       d="M 58.143282,48.176127 C 15.536762,62.044132 52.796582,2.0608397 2.8383423,15.928843 33.247702,25.786821 19.713872,85.268854 58.143282,48.176127 Z"
       id="path1711"
       sodipodi:nodetypes="ccc" />
    <path
       sodipodi:nodetypes="cszsc"
       id="path1285"
       d="M 90.587642,19.27053 C 114.98196,19.521156 136.86815,26.84097 132.92264,52.603861 128.34871,82.470194 114.48001,122.42221 91.590142,123.53118 68.700272,124.64015 55.082212,84.182804 52.13735,52.374116 49.742115,26.50218 66.694572,19.604699 90.587642,19.27053 Z"
       style="fill:url(#radialGradient1411);fill-opacity:1;stroke:#000000;stroke-width:0.264583px;stroke-linecap:butt;stroke-linejoin:miter;stroke-opacity:1" />
    <path
       sodipodi:nodetypes="cccccc"
       id="path1295"
       d="m 95.876342,59.556699 c -2.10822,0.279756 -6.51476,0.721933 -8.64878,0.233164 -17.64748,7.732857 -17.31253,-20.564467 -7.82847,-27.862943 5.42436,1.73244 10.52051,3.366446 13.66516,8.778413 1.88055,-5.108788 4.59517,-6.790771 11.418388,-7.751821 13.89801,8.102812 9.60231,35.354344 -8.606298,26.603187 z"
       style="fill:#ffffff;stroke:#000000;stroke-width:0.294;stroke-linecap:butt;stroke-linejoin:miter;stroke-miterlimit:4;stroke-dasharray:none;stroke-opacity:1" />
    <path
       sodipodi:nodetypes="sss"
       id="path1299"
       d="m 57.737055,134.53979 c 0.924047,-25.0419 32.740057,-23.76108 32.742157,-0.31983 9.2e-4,10.21941 -33.019767,7.84313 -32.742157,0.31983 z"
       style="fill:url(#radialGradient1427);fill-opacity:1;stroke:#000000;stroke-width:0.264583px;stroke-linecap:butt;stroke-linejoin:miter;stroke-opacity:1" />
    <path
       sodipodi:nodetypes="ccccc"
       id="path1333"
       d="m 54.831589,63.21372 -16.040102,43.9432 c -7.174409,-3.37307 -10.220192,13.40878 2.003572,7.1771 5.099515,2.57579 6.718616,-3.69586 1.839368,-6.17459 L 57.504939,65.719985"
       style="fill:url(#linearGradient1723);fill-opacity:1;stroke:#000000;stroke-width:0.264583px;stroke-linecap:butt;stroke-linejoin:miter;stroke-opacity:1" />
    <path
       style="fill:url(#linearGradient1731);fill-opacity:1;stroke:#000000;stroke-width:0.264583px;stroke-linecap:butt;stroke-linejoin:miter;stroke-opacity:1"
       d="m 126.74195,63.21372 16.0401,43.9432 c 7.17441,-3.37307 10.22019,13.40878 -2.00357,7.1771 -5.09952,2.57579 -6.71862,-3.69586 -1.83937,-6.17459 L 124.0686,65.719985"
       id="path1339"
       sodipodi:nodetypes="ccccc" />
    <path
       sodipodi:nodetypes="csccc"
       id="path1971"
       d="m 83.716302,60.999853 c -1.60207,2.91348 -3.95564,2.026246 -2.76501,4.679337 0.37473,0.83501 1.77245,1.239189 2.24328,0.519604 1.16919,-2.471064 1.94471,-4.195358 3.9877,-6.409943 -1.06238,0.547551 -2.63805,0.953465 -3.46597,1.211002 z"
       style="fill:url(#radialGradient1841);fill-opacity:1;stroke:#000000;stroke-width:0.264583px;stroke-linecap:butt;stroke-linejoin:miter;stroke-opacity:1" />
    <path
       style="color:#000000;font-style:normal;font-variant:normal;font-weight:normal;font-stretch:normal;font-size:medium;line-height:normal;font-family:sans-serif;font-variant-ligatures:normal;font-variant-position:normal;font-variant-caps:normal;font-variant-numeric:normal;font-variant-alternates:normal;font-variant-east-asian:normal;font-feature-settings:normal;font-variation-settings:normal;text-indent:0;text-align:start;text-decoration:none;text-decoration-line:none;text-decoration-style:solid;text-decoration-color:#000000;letter-spacing:normal;word-spacing:normal;text-transform:none;writing-mode:lr-tb;direction:ltr;text-orientation:mixed;dominant-baseline:auto;baseline-shift:baseline;text-anchor:start;white-space:normal;shape-padding:0;shape-margin:0;inline-size:0;clip-rule:nonzero;display:inline;overflow:visible;visibility:visible;opacity:1;isolation:auto;mix-blend-mode:normal;color-interpolation:sRGB;color-interpolation-filters:linearRGB;solid-color:#000000;solid-opacity:1;vector-effect:none;fill:#000000;fill-opacity:1;fill-rule:nonzero;stroke:none;stroke-width:4.7625;stroke-linecap:round;stroke-linejoin:round;stroke-miterlimit:4;stroke-dasharray:none;stroke-dashoffset:0;stroke-opacity:1;color-rendering:auto;image-rendering:auto;shape-rendering:auto;text-rendering:auto;enable-background:accumulate;stop-color:#000000;stop-opacity:1"
       d="m 114.73025,22.599014 c -1.38573,0.04037 -2.71622,0.40318 -3.8711,0.939454 -3.68174,1.317179 -6.68969,5.740768 -10.375,6.46289 -1.020018,0.174936 -1.675018,0.128756 -3.156248,-1.722656 -0.82126,-1.027729 -2.3203,-1.194776 -3.34765,-0.373047 -1.02712,0.821838 -1.19328,2.320817 -0.3711,3.347656 2.17553,2.719238 5.11259,3.881671 7.679688,3.441407 4.7344,-0.970485 6.90095,-7.701989 10.9559,-9.641917 1.50049,-0.696755 4.12726,-0.391155 5.48071,0.355159 1.15152,0.634541 1.9496,1.042764 2.34828,0.511748 0.60633,-0.738462 0.0101,-1.68568 -1.14231,-2.320694 -1.37476,-0.758065 -2.81545,-1.040371 -4.20117,-1 z"
       id="path1403"
       sodipodi:nodetypes="sccccccccccs" />
    <path
       sodipodi:nodetypes="cc"
       id="path1735"
       d="m 94.342673,84.646048 c 3.50877,0.334169 7.268177,2.756892 6.182117,7.101085"
       style="fill:none;stroke:#57772a;stroke-width:0.9525;stroke-linecap:round;stroke-linejoin:round;stroke-miterlimit:4;stroke-dasharray:none;stroke-opacity:1;filter:url(#filter1681)"
       transform="matrix(-1,0,0,1,167.94956,-0.95651633)" />
    <ellipse
       style="fill:#000000;fill-opacity:1;stroke:none;stroke-width:0.865;stroke-linecap:round;stroke-linejoin:round;stroke-miterlimit:4;stroke-dasharray:none;stroke-opacity:1"
       id="path1765"
       cx="84.802361"
       cy="51.496933"
       rx="6.1194654"
       ry="7.2890558" />
    <circle
       cy="48.211212"
       cx="81.96714"
       id="path1307"
       style="opacity:1;fill:#ffffff;fill-opacity:1;stroke-width:0.0596195;stroke-linecap:round;stroke-linejoin:round"
       r="1.5068128" />
    <ellipse
       ry="7.2890558"
       rx="6.1194654"
       cy="51.496933"
       cx="99.618896"
       id="ellipse1771"
       style="fill:#000000;fill-opacity:1;stroke:none;stroke-width:0.865;stroke-linecap:round;stroke-linejoin:round;stroke-miterlimit:4;stroke-dasharray:none;stroke-opacity:1" />
    <circle
       r="1.5068128"
       style="opacity:1;fill:#ffffff;fill-opacity:1;stroke-width:0.0596195;stroke-linecap:round;stroke-linejoin:round"
       id="circle1773"
       cx="96.783691"
       cy="48.211212" />
    <path
       style="fill:none;stroke:#000000;stroke-width:0.264583px;stroke-linecap:butt;stroke-linejoin:miter;stroke-opacity:1"
       d="m 87.670952,21.727612 c -0.0182,-0.636328 0.37041,-1.140293 0.59073,-1.713124 0.51783,-1.34635 -0.20291,0.490585 0.17722,-0.649807 0.0279,-0.08354 0.099,-0.150329 0.11815,-0.236293 0.0295,-0.132915 -0.0236,-0.389883 0,-0.531659 0.0517,-0.310465 0.0661,-0.473149 -0.11815,-0.767952 -0.46353,-0.741649 -1.35047,-1.105652 -2.06756,-1.535905 -0.87742,-0.526451 -1.27454,-1.6552 -1.47683,-2.599223 -0.20011,-0.933812 0.0307,-1.798911 0.11814,-2.717369 0.0411,-0.431698 0.0215,-0.867591 0.0591,-1.2996123 0.12187,-1.401551 0.23629,-2.788327 0.23629,-4.1942"
       id="path1777" />
    <path
       style="fill:none;stroke:#000000;stroke-width:0.264583px;stroke-linecap:butt;stroke-linejoin:miter;stroke-opacity:1"
       d="m 80.286792,22.672783 c 0.0788,-0.472585 0.11756,-0.953601 0.2363,-1.417759 0.41084,-1.606041 0.36987,-0.579745 0.59073,-1.83127 0.24851,-1.408202 -2.02163,-1.285186 -2.36293,-1.83127 -0.066,-0.105608 -0.0854,-0.234291 -0.11815,-0.35444 -0.24796,-0.909179 0.15049,-3.452979 -0.35444,-3.957908"
       id="path1779" />
    <path
       style="fill:none;stroke:#000000;stroke-width:0.264583px;stroke-linecap:butt;stroke-linejoin:miter;stroke-opacity:1"
       d="m 74.792982,23.972395 c 0.0398,-1.99459 -0.27595,-3.729342 -2.12663,-4.725861 -0.48801,-0.262773 -0.42592,-0.05129 -0.82703,-0.118146 -0.43797,-0.07299 -0.88898,-0.379829 -1.18146,-0.708879 -0.44236,-0.497654 -0.73641,-1.204962 -0.94518,-1.831271 -0.0487,-0.146088 -0.17415,-0.643664 -0.29536,-0.886098"
       id="path1781" />
    <path
       style="fill:none;stroke:#000000;stroke-width:0.264583px;stroke-linecap:butt;stroke-linejoin:miter;stroke-opacity:1"
       d="m 93.873642,22.909074 c 1.06417,-1.204121 1.83432,-2.515563 2.54015,-3.957906 0.1479,-0.302233 0.15255,-0.675987 0.35444,-0.945172 0.0264,-0.03522 0.0838,-0.03157 0.11815,-0.05907 0.36027,-0.28822 0.7438,-0.553267 1.06332,-0.886099 0.45967,-0.478823 0.81148,-1.828146 0.53165,-2.481076 -0.35063,-0.818155 -1.38563,-1.342621 -2.12663,-1.713124 -0.86194,-0.430966 -1.15592,-0.296974 -1.00425,-1.358685 0.21956,-1.5369023 1.35578,-2.8311593 2.18571,-4.0760543 0.37567,-0.563495 0.56512,-1.183735 0.8861,-1.772197 0.43691,-0.800993 0.99773,-1.520709 1.35869,-2.36293"
       id="path1783" />
    <path
       style="fill:none;stroke:#000000;stroke-width:0.264583px;stroke-linecap:butt;stroke-linejoin:miter;stroke-opacity:1"
       d="m 105.62922,22.61371 c 1.10523,-1.625341 1.45271,-2.249734 3.01273,-3.839762 0.3062,-0.312086 0.69507,-0.532271 1.06332,-0.767952 0.26214,-0.167768 0.66595,-0.209515 0.82703,-0.531659 0.30782,-0.615648 0.50732,-1.331712 0.6498,-2.00849 0.0494,-0.234414 0.0572,-0.477214 0.11815,-0.708879 0.081,-0.307645 0.24744,-0.586513 0.35444,-0.886099 0.15132,-0.423691 0.27287,-0.900177 0.47258,-1.299612"
       id="path1785" />
    <path
       style="fill:url(#linearGradient1805);fill-opacity:1;stroke:#000000;stroke-width:0.264583px;stroke-linecap:butt;stroke-linejoin:miter;stroke-opacity:1"
       d="m 57.737055,134.53979 c 0.924047,-25.0419 32.740057,-23.76108 32.742157,-0.31983 9.2e-4,10.21941 -33.019767,7.84313 -32.742157,0.31983 z"
       id="path1803"
       sodipodi:nodetypes="sss" />
    <path
       sodipodi:nodetypes="ccccc"
       style="fill:url(#linearGradient1797);fill-opacity:1;stroke:#000000;stroke-width:0.264583px;stroke-linecap:butt;stroke-linejoin:miter;stroke-opacity:1"
       d="m 60.419818,131.8885 4.338074,-3.12054 3.89832,3.44262 -4.36882,8.75709 z"
       id="path1795" />
    <path
       id="path1341"
       d="m 69.734772,132.94684 4.33807,-3.12054 3.89832,3.44262 -4.36882,8.75709 z"
       style="fill:url(#linearGradient1793);fill-opacity:1;stroke:#000000;stroke-width:0.264583px;stroke-linecap:butt;stroke-linejoin:miter;stroke-opacity:1"
       sodipodi:nodetypes="ccccc" />
    <path
       id="path1799"
       d="m 79.300352,131.8885 4.33807,-3.12054 3.89832,3.44262 -4.36882,8.75709 z"
       style="fill:url(#linearGradient1801);fill-opacity:1;stroke:#000000;stroke-width:0.264583px;stroke-linecap:butt;stroke-linejoin:miter;stroke-opacity:1"
       sodipodi:nodetypes="ccccc" />
    <path
       style="fill:url(#radialGradient1831);fill-opacity:1;stroke:#000000;stroke-width:0.264583px;stroke-linecap:butt;stroke-linejoin:miter;stroke-opacity:1"
       d="m 92.365292,134.53979 c 0.92405,-25.0419 32.740058,-23.76108 32.742158,-0.31983 9.2e-4,10.21941 -33.019768,7.84313 -32.742158,0.31983 z"
       id="path1813"
       sodipodi:nodetypes="sss" />
    <path
       sodipodi:nodetypes="sss"
       id="path1815"
       d="m 92.365292,134.53979 c 0.92405,-25.0419 32.740058,-23.76108 32.742158,-0.31983 9.2e-4,10.21941 -33.019768,7.84313 -32.742158,0.31983 z"
       style="fill:url(#linearGradient1829);fill-opacity:1;stroke:#000000;stroke-width:0.264583px;stroke-linecap:butt;stroke-linejoin:miter;stroke-opacity:1" />
    <path
       id="path1817"
       d="m 95.048052,131.8885 4.33808,-3.12054 3.898318,3.44262 -4.368818,8.75709 z"
       style="fill:url(#linearGradient1827);fill-opacity:1;stroke:#000000;stroke-width:0.264583px;stroke-linecap:butt;stroke-linejoin:miter;stroke-opacity:1"
       sodipodi:nodetypes="ccccc" />
    <path
       sodipodi:nodetypes="ccccc"
       style="fill:url(#linearGradient1825);fill-opacity:1;stroke:#000000;stroke-width:0.264583px;stroke-linecap:butt;stroke-linejoin:miter;stroke-opacity:1"
       d="m 104.36301,132.94684 4.33807,-3.12054 3.89832,3.44262 -4.36882,8.75709 z"
       id="path1819" />
    <path
       sodipodi:nodetypes="ccccc"
       style="fill:url(#linearGradient1823);fill-opacity:1;stroke:#000000;stroke-width:0.264583px;stroke-linecap:butt;stroke-linejoin:miter;stroke-opacity:1"
       d="m 113.92859,131.8885 4.33807,-3.12054 3.89832,3.44262 -4.36882,8.75709 z"
       id="path1821" />
    <path
       style="fill:url(#radialGradient1845);fill-opacity:1;stroke:#000000;stroke-width:0.264583px;stroke-linecap:butt;stroke-linejoin:miter;stroke-opacity:1"
       d="m 99.288442,60.905766 c 1.476088,2.979285 3.865428,2.193445 2.562498,4.793229 -0.41007,0.818232 -1.82379,1.162308 -2.263428,0.423259 -1.06252,-2.518773 -1.76364,-4.274635 -3.71012,-6.574506 1.03801,0.592453 2.59489,1.065334 3.41105,1.358018 z"
       id="path1843"
       sodipodi:nodetypes="csccc" />
    <path
       style="fill:url(#radialGradient1419);fill-opacity:1;stroke:#000000;stroke-width:0.267;stroke-linecap:butt;stroke-linejoin:miter;stroke-miterlimit:4;stroke-dasharray:none;stroke-opacity:1"
       d="m 87.162712,59.781436 c -2.94365,3.378336 -5.14422,7.967388 -5.03603,11.005209 0.1082,3.037819 4.61136,12.636809 7.00714,14.296739 1.56675,1.08553 3.11395,1.52864 4.46886,0.32793 1.35492,-1.20073 7.403388,-10.629211 7.360278,-13.779691 -0.0431,-3.150475 -3.496578,-10.64559 -5.213038,-12.148205 -2.84762,-0.418313 -5.66443,-0.492454 -8.58721,0.29803 z"
       id="path1948"
       sodipodi:nodetypes="cssssccc" />
    <circle
       style="fill:#000000;fill-opacity:1;stroke:#000000;stroke-width:0.294;stroke-linecap:round;stroke-linejoin:round;stroke-miterlimit:4;stroke-dasharray:none;stroke-opacity:1"
       id="path1847"
       cx="38.248463"
       cy="54.817734"
       r="3.7176275" />
    <path
       style="fill:url(#radialGradient1877);fill-opacity:1;stroke:#000000;stroke-width:0.264583px;stroke-linecap:butt;stroke-linejoin:miter;stroke-opacity:1"
       d="m 41.961457,55.063014 c -1.315788,-0.793652 -2.47928,-1.092538 -3.733878,-1.10842 -3.299917,-0.04177 -7.811196,2.568922 -7.936508,7.811196 -0.125315,5.242272 4.051795,7.915622 7.936508,7.999164 3.88471,0.08354 7.824602,-3.329553 7.852965,-7.706768 0.0082,-1.259356 -0.379958,-3.051028 -0.884178,-3.796792 -1.419169,0.832891 -2.397463,1.090349 -3.959604,1.591937 1.662898,3.079081 -0.774429,5.713627 -2.904756,5.671858 -2.130327,-0.04177 -3.796691,-1.499993 -3.780285,-3.550545 0.02089,-2.610692 2.374146,-4.164695 4.761906,-3.592314 2.063873,-0.674401 2.513181,-2.213563 2.64783,-3.319316 z"
       id="path1869"
       sodipodi:nodetypes="cssssccsscc" />
    <path
       transform="rotate(-153.61325,56.883274,69.714228)"
       sodipodi:nodetypes="cc"
       id="path1981"
       d="m 72.096909,63.575604 c -1.963243,1.837928 -3.132833,7.03843 0.605679,10.045948"
       style="fill:none;stroke:#000000;stroke-width:0.765;stroke-linecap:round;stroke-linejoin:round;stroke-miterlimit:4;stroke-dasharray:none;stroke-opacity:0.300412;filter:url(#filter1977)" />
    <path
       style="fill:none;stroke:#ffffff;stroke-width:0.765;stroke-linecap:round;stroke-linejoin:round;stroke-miterlimit:4;stroke-dasharray:none;stroke-opacity:1;filter:url(#filter1977)"
       d="m 72.096909,63.575604 c -1.963243,1.837928 -3.132833,7.03843 0.605679,10.045948"
       id="path1879"
       sodipodi:nodetypes="cc"
       transform="rotate(16.987718,78.922353,-64.092845)" />
    <g
       transform="translate(-32.507925,10.40588)"
       id="g4498">
      <path
         style="fill:#ffffff;stroke:#000000;stroke-width:0.268;stroke-linecap:butt;stroke-linejoin:miter;stroke-miterlimit:4;stroke-dasharray:none;stroke-opacity:1"
         d="m 170.06117,91.263606 -6.98752,0.0222 5.57328,-4.124889 z"
         id="path2012" />
      <path
         id="path2010"
         d="m 171.97411,85.287215 5.50443,-4.304311 -6.93065,0.205765 z"
         style="fill:#ffffff;stroke:#000000;stroke-width:0.268;stroke-linecap:butt;stroke-linejoin:miter;stroke-miterlimit:4;stroke-dasharray:none;stroke-opacity:1" />
      <path
         sodipodi:nodetypes="ccccc"
         id="path1992"
         d="m 166.68956,95.477476 c 1.29436,3.7586 12.43309,0.3944 10.94026,-3.76696 l -4.82491,-13.867148 c 1.31679,3.908922 -9.57321,7.453854 -10.87068,3.67595 z"
         style="fill:url(#linearGradient2000);fill-opacity:1;stroke:#000000;stroke-width:0.265;stroke-linecap:round;stroke-linejoin:round;stroke-miterlimit:4;stroke-dasharray:none;stroke-opacity:1" />
      <path
         sodipodi:nodetypes="ccccc"
         id="path2002"
         d="m 166.08226,88.890713 -5.85154,-0.259546 4.43731,-3.843155 c 1.39856,1.28536 1.62516,2.674635 1.41456,4.10259 z"
         style="fill:#ffffff;stroke:#000000;stroke-width:0.268;stroke-linecap:butt;stroke-linejoin:miter;stroke-miterlimit:4;stroke-dasharray:none;stroke-opacity:1" />
      <path
         sodipodi:nodetypes="ccccc"
         style="fill:#ffffff;stroke:#000000;stroke-width:0.286739;stroke-linecap:butt;stroke-linejoin:miter;stroke-miterlimit:4;stroke-dasharray:none;stroke-opacity:1"
         d="m 169.81562,94.082116 -5.80813,-0.24323 4.40548,-3.82898 c 1.37615,0.79013 2.39714,1.80201 1.40294,4.07211 z"
         id="path2004" />
      <path
         sodipodi:nodetypes="cccc"
         id="path2006"
         d="m 171.77224,89.340924 4.33728,-3.913327 -5.75374,-0.154099 c -1.15433,2.05254 -0.47487,3.319549 1.41616,4.067527 z"
         style="fill:#ffffff;stroke:#000000;stroke-width:0.286739;stroke-linecap:butt;stroke-linejoin:miter;stroke-miterlimit:4;stroke-dasharray:none;stroke-opacity:1" />
      <path
         sodipodi:nodetypes="cccc"
         style="fill:#ffffff;stroke:#000000;stroke-width:0.268;stroke-linecap:butt;stroke-linejoin:miter;stroke-miterlimit:4;stroke-dasharray:none;stroke-opacity:1"
         d="m 175.70698,92.996656 4.27639,-3.878987 -5.7026,-0.219559 c -0.17121,1.590126 0.33229,2.946586 1.42589,4.098656 z"
         id="path2008" />
      <path
         id="path1990"
         d="m 166.42509,76.959423 c -1.35398,0.468938 -2.50785,1.108998 -3.3405,1.843186 -0.41634,0.367097 -0.75825,0.757648 -0.98894,1.214763 -0.23069,0.457118 -0.34605,1.035897 -0.15441,1.589226 0.19164,0.553329 0.63963,0.934927 1.10363,1.151443 0.46399,0.216519 0.97421,0.311938 1.52841,0.342895 1.10839,0.06192 2.41096,-0.148788 3.76493,-0.617728 1.35397,-0.468939 2.50785,-1.109001 3.34051,-1.84319 0.41633,-0.367093 0.75824,-0.757646 0.98893,-1.214763 0.2307,-0.457118 0.3467,-1.034052 0.15506,-1.58738 -0.19164,-0.553328 -0.64027,-0.936773 -1.10427,-1.153288 -0.464,-0.216515 -0.97422,-0.311935 -1.52842,-0.342897 -1.10838,-0.06192 -2.41096,0.148794 -3.76493,0.617733 z m 0.62258,1.797583 c 1.15474,-0.399937 2.26872,-0.55772 3.0379,-0.514749 0.38459,0.02148 0.67827,0.09571 0.82838,0.16576 0.15011,0.07005 0.12464,0.0913 0.11118,0.05244 -0.0135,-0.03887 0.019,-0.03975 -0.0556,0.108123 -0.0746,0.147887 -0.25885,0.389694 -0.54777,0.644445 -0.57784,0.5095 -1.55142,1.072661 -2.70616,1.472598 -1.15473,0.399935 -2.26623,0.558925 -3.03541,0.515954 -0.38459,-0.02148 -0.68075,-0.09692 -0.83086,-0.166967 -0.15012,-0.07005 -0.124,-0.08945 -0.11054,-0.05059 0.0135,0.03887 -0.0197,0.03791 0.0549,-0.109974 0.0746,-0.147887 0.26133,-0.388487 0.55025,-0.643238 0.57784,-0.5095 1.54893,-1.07387 2.70367,-1.473803 z"
         style="color:#000000;font-style:normal;font-variant:normal;font-weight:normal;font-stretch:normal;font-size:medium;line-height:normal;font-family:sans-serif;font-variant-ligatures:normal;font-variant-position:normal;font-variant-caps:normal;font-variant-numeric:normal;font-variant-alternates:normal;font-variant-east-asian:normal;font-feature-settings:normal;font-variation-settings:normal;text-indent:0;text-align:start;text-decoration:none;text-decoration-line:none;text-decoration-style:solid;text-decoration-color:#000000;letter-spacing:normal;word-spacing:normal;text-transform:none;writing-mode:lr-tb;direction:ltr;text-orientation:mixed;dominant-baseline:auto;baseline-shift:baseline;text-anchor:start;white-space:normal;shape-padding:0;shape-margin:0;inline-size:0;clip-rule:nonzero;display:inline;overflow:visible;visibility:visible;isolation:auto;mix-blend-mode:normal;color-interpolation:sRGB;color-interpolation-filters:linearRGB;solid-color:#000000;solid-opacity:1;vector-effect:none;fill:#bcbcbc;fill-opacity:1;fill-rule:evenodd;stroke:#000000;stroke-width:0.2;stroke-linecap:round;stroke-linejoin:round;stroke-miterlimit:4;stroke-dasharray:none;stroke-dashoffset:0;stroke-opacity:0.995885;color-rendering:auto;image-rendering:auto;shape-rendering:auto;text-rendering:auto;enable-background:accumulate;stop-color:#000000" />
      <path
         id="path2028"
         d="m 164.25476,77.22061 1.0223,2.91757 3.45813,-1.34452 -0.99824,-2.73477 z"
         style="fill:#739935;fill-opacity:1;stroke:none;stroke-width:0.264583px;stroke-linecap:butt;stroke-linejoin:miter;stroke-opacity:1" />
      <path
         sodipodi:nodetypes="cc"
         id="path2024"
         d="m 164.25476,77.22061 1.0223,2.91757"
         style="fill:none;stroke:#000000;stroke-width:0.265;stroke-linecap:round;stroke-linejoin:miter;stroke-miterlimit:4;stroke-dasharray:none;stroke-opacity:1" />
      <path
         style="fill:none;stroke:#000000;stroke-width:0.265;stroke-linecap:round;stroke-linejoin:miter;stroke-miterlimit:4;stroke-dasharray:none;stroke-opacity:1"
         d="m 167.73695,76.05889 1.11377,3.05127"
         id="path2026"
         sodipodi:nodetypes="cc" />
    </g>
    <path
       style="fill:url(#radialGradient2040);fill-opacity:1;stroke:none;stroke-width:0.264583px;stroke-linecap:butt;stroke-linejoin:miter;stroke-opacity:1"
       d="m 61.135409,92.637764 c -1.973504,-5.62264 7.707443,-7.73448 10.999283,-3.09407 3.29184,4.64042 4.26245,7.81182 11.24103,8.35778 9.38402,0.73414 21.200258,-16.93122 32.000578,-13.31993 5.68711,1.90159 7.6765,4.88325 6.53966,7.87194 -5.2683,13.850106 -16.87552,31.244786 -31.077688,31.244786 -18.24456,0 -26.57364,-23.942226 -29.702863,-31.060506 z"
       id="path2030"
       sodipodi:nodetypes="csssssc" />
    <path
       style="fill:#ffffff;stroke:#000000;stroke-width:0.175373px;stroke-linecap:butt;stroke-linejoin:miter;stroke-opacity:1"
       d="m 83.375722,97.901474 0.70036,-7.26732 3.71169,6.22164 z"
       id="path1741" />
    <path
       sodipodi:nodetypes="cc"
       style="fill:none;stroke:#000000;stroke-width:0.661458;stroke-linecap:round;stroke-linejoin:round;stroke-miterlimit:4;stroke-dasharray:none;stroke-opacity:1"
       d="m 73.782362,88.784344 c -1.05036,-0.0421 -2.29621,0.24078 -2.89457,1.82083"
       id="path1743" />
    <ellipse
       style="opacity:0.36129;fill:#f5ff00;fill-opacity:0.773663;fill-rule:evenodd;stroke:none;stroke-width:0.23518;stroke-linecap:round;stroke-linejoin:round;stroke-miterlimit:4;stroke-dasharray:none;stroke-opacity:0.995885;filter:url(#filter2168)"
       id="path2042"
       cx="62.935184"
       cy="40.406704"
       rx="5.4302421"
       ry="7.4352551" />
    <path
       style="color:#000000;font-style:normal;font-variant:normal;font-weight:normal;font-stretch:normal;font-size:medium;line-height:normal;font-family:sans-serif;font-variant-ligatures:normal;font-variant-position:normal;font-variant-caps:normal;font-variant-numeric:normal;font-variant-alternates:normal;font-variant-east-asian:normal;font-feature-settings:normal;font-variation-settings:normal;text-indent:0;text-align:start;text-decoration:none;text-decoration-line:none;text-decoration-style:solid;text-decoration-color:#000000;letter-spacing:normal;word-spacing:normal;text-transform:none;writing-mode:lr-tb;direction:ltr;text-orientation:mixed;dominant-baseline:auto;baseline-shift:baseline;text-anchor:start;white-space:normal;shape-padding:0;shape-margin:0;inline-size:0;clip-rule:nonzero;display:inline;overflow:visible;visibility:visible;opacity:1;isolation:auto;mix-blend-mode:normal;color-interpolation:sRGB;color-interpolation-filters:linearRGB;solid-color:#000000;solid-opacity:1;vector-effect:none;fill:#000000;fill-opacity:1;fill-rule:nonzero;stroke:none;stroke-width:4.7625;stroke-linecap:round;stroke-linejoin:round;stroke-miterlimit:4;stroke-dasharray:none;stroke-dashoffset:0;stroke-opacity:1;color-rendering:auto;image-rendering:auto;shape-rendering:auto;text-rendering:auto;enable-background:accumulate;stop-color:#000000;stop-opacity:1"
       d="m 75.950952,29.065811 c -4.133,-0.435935 -7.68875,0.889519 -10.04297,3.814453 -0.82445,1.024267 -0.38043,1.588176 0.0692,1.922117 0.41889,0.355854 1.10368,0.258225 1.92858,-0.767059 1.54462,-2.127022 4.29326,-1.710847 7.60422,-0.942061 3.10848,0.721769 7.95335,2.633329 15.03273,5.335832 1.22862,0.469274 2.60503,-0.146349 3.07422,-1.375 0.46927,-1.228619 -0.14635,-2.605027 -1.375,-3.074219 -7.15728,-2.732238 -12.15802,-4.478127 -16.29102,-4.914063 z"
       id="path1399"
       sodipodi:nodetypes="scccscccs" />
    <ellipse
       ry="7.4352551"
       rx="5.4302421"
       cy="76.608185"
       cx="126.73351"
       id="ellipse2172"
       style="opacity:0.3;fill:#f5ff00;fill-opacity:0.773663;fill-rule:evenodd;stroke:none;stroke-width:0.23518;stroke-linecap:round;stroke-linejoin:round;stroke-miterlimit:4;stroke-dasharray:none;stroke-opacity:0.995885;filter:url(#filter2168)"
       transform="matrix(0.39187671,0,0,0.456434,37.582058,31.3382)" />
    <ellipse
       transform="matrix(0.65939439,0.75179721,-0.74936271,0.66215975,-38.568578,-6.6275483)"
       style="opacity:0.3;mix-blend-mode:normal;fill:#f5ff00;fill-opacity:0.773663;fill-rule:evenodd;stroke:none;stroke-width:0.0864985;stroke-linecap:round;stroke-linejoin:round;stroke-miterlimit:4;stroke-dasharray:none;stroke-opacity:0.995885;filter:url(#filter2208)"
       id="ellipse2174"
       cx="167.70476"
       cy="5.7226796"
       rx="1.851032"
       ry="2.9506295" />
    <path
       style="fill:none;stroke:#000000;stroke-width:0.865;stroke-linecap:round;stroke-linejoin:round;stroke-miterlimit:4;stroke-dasharray:none;stroke-opacity:1"
       d="M 72.134692,89.543704 C 85.721542,113.29115 100.96243,79.264952 115.3763,84.581544"
       id="path1733"
       sodipodi:nodetypes="cc" />
    <path
       id="path2261"
       d="m 87.418738,21.7238 c -0.0182,-0.636328 0.37041,-1.140293 0.59073,-1.713124 0.51783,-1.34635 -0.20291,0.490585 0.17722,-0.649807 0.0279,-0.08354 0.099,-0.150329 0.11815,-0.236293 0.0295,-0.132915 -0.0236,-0.389883 0,-0.531659 0.0517,-0.310465 0.0661,-0.473149 -0.11815,-0.767952 -0.46353,-0.741649 -1.35047,-1.105652 -2.06756,-1.535905 -0.87742,-0.526451 -1.27454,-1.6552 -1.47683,-2.599223 -0.20011,-0.933812 0.0307,-1.798911 0.11814,-2.717369 0.0411,-0.431698 0.0215,-0.867591 0.0591,-1.2996119 0.12187,-1.401551 0.23629,-2.788327 0.23629,-4.1942"
       style="fill:none;stroke:#ffffff;stroke-width:0.265;stroke-linecap:butt;stroke-linejoin:miter;stroke-miterlimit:4;stroke-dasharray:none;stroke-opacity:1" />
    <path
       id="path2263"
       d="m 80.034578,22.668971 c 0.0788,-0.472585 0.11756,-0.953601 0.2363,-1.417759 0.41084,-1.606041 0.36987,-0.579745 0.59073,-1.83127 0.24851,-1.408202 -2.02163,-1.285186 -2.36293,-1.83127 -0.066,-0.105608 -0.0854,-0.234291 -0.11815,-0.35444 -0.24796,-0.909179 0.15049,-3.452979 -0.35444,-3.957908"
       style="fill:none;stroke:#ffffff;stroke-width:0.265;stroke-linecap:butt;stroke-linejoin:miter;stroke-miterlimit:4;stroke-dasharray:none;stroke-opacity:1" />
    <path
       id="path2265"
       d="m 74.540768,23.968583 c 0.0398,-1.99459 -0.27595,-3.729342 -2.12663,-4.725861 -0.48801,-0.262773 -0.42592,-0.05129 -0.82703,-0.118146 -0.43797,-0.07299 -0.88898,-0.379829 -1.18146,-0.708879 -0.44236,-0.497654 -0.73641,-1.204962 -0.94518,-1.831271 -0.0487,-0.146088 -0.17415,-0.643664 -0.29536,-0.886098"
       style="fill:none;stroke:#ffffff;stroke-width:0.265;stroke-linecap:butt;stroke-linejoin:miter;stroke-miterlimit:4;stroke-dasharray:none;stroke-opacity:1" />
    <path
       id="path2267"
       d="m 93.621428,22.905262 c 1.06417,-1.204121 1.83432,-2.515563 2.54015,-3.957906 0.1479,-0.302233 0.15255,-0.675987 0.35444,-0.945172 0.0264,-0.03522 0.0838,-0.03157 0.11815,-0.05907 0.36027,-0.28822 0.7438,-0.553267 1.06332,-0.886099 0.45967,-0.478823 0.81148,-1.828146 0.53165,-2.481076 -0.35063,-0.818155 -1.38563,-1.342621 -2.12663,-1.713124 -0.86194,-0.430966 -1.15592,-0.296974 -1.00425,-1.358685 0.21956,-1.5369019 1.35578,-2.8311589 2.18571,-4.0760539 0.37567,-0.563495 0.56512,-1.183735 0.8861,-1.772197 0.43691,-0.800993 0.99773,-1.520709 1.358691,-2.36293"
       style="fill:none;stroke:#ffffff;stroke-width:0.265;stroke-linecap:butt;stroke-linejoin:miter;stroke-miterlimit:4;stroke-dasharray:none;stroke-opacity:1" />
    <path
       id="path2269"
       d="m 105.37701,22.609898 c 1.10523,-1.625341 1.45271,-2.249734 3.01273,-3.839762 0.3062,-0.312086 0.69507,-0.532271 1.06332,-0.767952 0.26214,-0.167768 0.66595,-0.209515 0.82703,-0.531659 0.30782,-0.615648 0.50732,-1.331712 0.6498,-2.00849 0.0494,-0.234414 0.0572,-0.477214 0.11815,-0.708879 0.081,-0.307645 0.24744,-0.586513 0.35444,-0.886099 0.15132,-0.423691 0.27287,-0.900177 0.47258,-1.299612"
       style="fill:none;stroke:#ffffff;stroke-width:0.265;stroke-linecap:butt;stroke-linejoin:miter;stroke-miterlimit:4;stroke-dasharray:none;stroke-opacity:1" />
    <path
       id="path4500"
       d="m 138.72744,107.45697 0.18296,0.70134 -1.02151,0.67085 -0.82331,0.80806 -0.80806,1.26545 -0.21345,1.23497 11.67878,-3.91834 -1.57039,-1.23496 -1.43316,-0.27444 -1.06725,0.13722 -0.8843,0.28968 -0.30493,-0.86905 -1.57038,0.67084 z"
       style="fill:url(#radialGradient4510);stroke:none;stroke-width:0.264583px;stroke-linecap:butt;stroke-linejoin:miter;stroke-opacity:1;fill-opacity:1" />
    <path
       sodipodi:nodetypes="csssc"
       id="path4512"
       d="m 38.724876,107.22651 c -2.975519,-1.29371 -5.111991,0.6611 -5.929477,3.32051 -0.885163,2.87957 0.797785,5.11013 2.932396,5.11013 2.564761,-1e-5 4.635774,-1.20746 5.153254,-3.47145 0.409085,-1.78975 -0.08624,-4.07516 -2.156173,-4.95919 z"
       style="fill:url(#radialGradient4520);stroke:none;stroke-width:0.264583px;stroke-linecap:butt;stroke-linejoin:miter;stroke-opacity:1;fill-opacity:1" />
    <path
       sodipodi:nodetypes="ccccc"
       id="path4522"
       d="m 132.04407,38.078026 c 1.51691,4.115163 1.94544,9.082105 0.81934,15.265707 1.85431,1.595568 6.4254,4.82983 8.96969,5.821669 15.86755,3.674258 13.7995,-35.447493 0.0431,-33.593184 -3.68582,3.46366 -7.39345,8.387342 -9.83213,12.505808 z"
       style="fill:url(#radialGradient4532);fill-opacity:1;stroke:none;stroke-width:0.264583px;stroke-linecap:butt;stroke-linejoin:miter;stroke-opacity:1" />
  </g>
</svg>
