<?xml version="1.0" encoding="UTF-8" standalone="no"?>
<svg
   xmlns:dc="http://purl.org/dc/elements/1.1/"
   xmlns:cc="http://creativecommons.org/ns#"
   xmlns:rdf="http://www.w3.org/1999/02/22-rdf-syntax-ns#"
   xmlns:svg="http://www.w3.org/2000/svg"
   xmlns="http://www.w3.org/2000/svg"
   xmlns:xlink="http://www.w3.org/1999/xlink"
   xmlns:sodipodi="http://sodipodi.sourceforge.net/DTD/sodipodi-0.dtd"
   xmlns:inkscape="http://www.inkscape.org/namespaces/inkscape"
   sodipodi:docname="goblin-blupi-poly.svg"
   inkscape:version="1.0 (4035a4fb49, 2020-05-01)"
   id="svg8"
   version="1.1"
   viewBox="0 0 261 146"
   height="146mm"
   width="261mm">
  <defs
     id="defs2">
    <radialGradient
       gradientUnits="userSpaceOnUse"
       gradientTransform="matrix(0.59909746,-0.08177729,0.21842598,1.6001808,43.651579,-14.529054)"
       r="10.605366"
       fy="45.323257"
       fx="133.577"
       cy="45.323257"
       cx="133.577"
       id="radialGradient4532"
       xlink:href="#linearGradient4528"
       inkscape:collect="always" />
    <linearGradient
       id="linearGradient4528"
       inkscape:collect="always">
      <stop
         id="stop4524"
         offset="0"
         style="stop-color:#000000;stop-opacity:0.46341464" />
      <stop
         id="stop4526"
         offset="1"
         style="stop-color:#000000;stop-opacity:0" />
    </linearGradient>
    <radialGradient
       gradientUnits="userSpaceOnUse"
       gradientTransform="matrix(0.96940988,0.58119991,-0.5373925,0.89634149,60.118597,-8.8318843)"
       r="4.229259"
       fy="109.40076"
       fx="34.639977"
       cy="109.40076"
       cx="34.639977"
       id="radialGradient4520"
       xlink:href="#linearGradient4518"
       inkscape:collect="always" />
    <linearGradient
       id="linearGradient4518"
       inkscape:collect="always">
      <stop
         id="stop4514"
         offset="0"
         style="stop-color:#cfe01b;stop-opacity:1" />
      <stop
         id="stop4516"
         offset="1"
         style="stop-color:#d0e11a;stop-opacity:0" />
    </linearGradient>
    <radialGradient
       gradientUnits="userSpaceOnUse"
       gradientTransform="matrix(0.94264225,-0.33380333,0.18537848,0.5234986,-11.328174,99.139648)"
       r="5.8393898"
       fy="104.68286"
       fx="140.83145"
       cy="104.68286"
       cx="140.83145"
       id="radialGradient4510"
       xlink:href="#linearGradient4506"
       inkscape:collect="always" />
    <linearGradient
       id="linearGradient4506"
       inkscape:collect="always">
      <stop
         id="stop4502"
         offset="0"
         style="stop-color:#000000;stop-opacity:0.60569108" />
      <stop
         id="stop4504"
         offset="1"
         style="stop-color:#000000;stop-opacity:0" />
    </linearGradient>
    <filter
       inkscape:collect="always"
       style="color-interpolation-filters:sRGB"
       id="filter2208"
       x="-0.25594294"
       width="1.5118859"
       y="-0.2694822"
       height="1.5389644">
      <feGaussianBlur
         inkscape:collect="always"
         stdDeviation="0.53867982"
         id="feGaussianBlur2210" />
    </filter>
    <filter
       inkscape:collect="always"
       style="color-interpolation-filters:sRGB"
       id="filter2168"
       x="-0.42749703"
       width="1.8549941"
       y="-0.31221691"
       height="1.6244338">
      <feGaussianBlur
         inkscape:collect="always"
         stdDeviation="1.9345102"
         id="feGaussianBlur2170" />
    </filter>
    <linearGradient
       gradientTransform="translate(1.0261459e-8)"
       inkscape:collect="always"
       xlink:href="#linearGradient1327"
       id="linearGradient1329"
       x1="86.42469"
       y1="94.769539"
       x2="83.633545"
       y2="94.834221"
       gradientUnits="userSpaceOnUse" />
    <linearGradient
       inkscape:collect="always"
       id="linearGradient1327">
      <stop
         style="stop-color:#8b8b8b;stop-opacity:1"
         offset="0"
         id="stop1323" />
      <stop
         style="stop-color:#ffffff;stop-opacity:1"
         offset="1"
         id="stop1325" />
    </linearGradient>
    <radialGradient
       inkscape:collect="always"
       xlink:href="#linearGradient2036"
       id="radialGradient2040"
       cx="133.42079"
       cy="97.818405"
       fx="133.42079"
       fy="97.818405"
       r="30.675043"
       gradientTransform="matrix(1.1661017,-0.67300871,0.36223741,0.6276377,-96.209919,121.35103)"
       gradientUnits="userSpaceOnUse" />
    <linearGradient
       inkscape:collect="always"
       id="linearGradient2036">
      <stop
         style="stop-color:#506c26;stop-opacity:0.77366257"
         offset="0"
         id="stop2032" />
      <stop
         style="stop-color:#739935;stop-opacity:0;"
         offset="1"
         id="stop2034" />
    </linearGradient>
    <linearGradient
       inkscape:collect="always"
       xlink:href="#linearGradient1998"
       id="linearGradient2000"
       x1="194.01912"
       y1="98.970551"
       x2="205.85509"
       y2="98.970551"
       gradientUnits="userSpaceOnUse"
       gradientTransform="rotate(-19.554217,172.80151,278.01146)" />
    <linearGradient
       inkscape:collect="always"
       id="linearGradient1998">
      <stop
         style="stop-color:#c3c3c3;stop-opacity:1"
         offset="0"
         id="stop1994" />
      <stop
         style="stop-color:#5b5b5b;stop-opacity:1"
         offset="1"
         id="stop1996" />
    </linearGradient>
    <filter
       inkscape:collect="always"
       style="color-interpolation-filters:sRGB"
       id="filter1977"
       x="-0.35152525"
       width="1.7030505"
       y="-0.0855956"
       height="1.1711912">
      <feGaussianBlur
         inkscape:collect="always"
         stdDeviation="0.35828708"
         id="feGaussianBlur1979" />
    </filter>
    <radialGradient
       inkscape:collect="always"
       xlink:href="#linearGradient1875"
       id="radialGradient1877"
       cx="81.118164"
       cy="64.566238"
       fx="81.118164"
       fy="64.566238"
       r="8.0284615"
       gradientTransform="matrix(1,0,0,1.0012471,-38.568578,-6.7129612)"
       gradientUnits="userSpaceOnUse" />
    <linearGradient
       inkscape:collect="always"
       id="linearGradient1875">
      <stop
         style="stop-color:#2f2f2f;stop-opacity:1"
         offset="0"
         id="stop1871" />
      <stop
         style="stop-color:#d1d1d1;stop-opacity:1"
         offset="1"
         id="stop1873" />
    </linearGradient>
    <radialGradient
       inkscape:collect="always"
       xlink:href="#linearGradient1417"
       id="radialGradient1419"
       cx="125.7674"
       cy="76.112427"
       fx="125.7674"
       fy="76.112427"
       r="9.5536985"
       gradientTransform="matrix(0.51030814,1.958765,-1.3785493,0.35914718,127.94342,-205.54397)"
       gradientUnits="userSpaceOnUse" />
    <linearGradient
       inkscape:collect="always"
       id="linearGradient1417">
      <stop
         style="stop-color:#b2f054;stop-opacity:1"
         offset="0"
         id="stop1413" />
      <stop
         style="stop-color:#77a138;stop-opacity:1"
         offset="1"
         id="stop1415" />
    </linearGradient>
    <radialGradient
       inkscape:collect="always"
       xlink:href="#linearGradient1839"
       id="radialGradient1845"
       gradientUnits="userSpaceOnUse"
       gradientTransform="matrix(-0.99908637,-0.04273635,-0.04428904,1.035385,224.46015,-3.9680192)"
       cx="120.71287"
       cy="71.610191"
       fx="120.71287"
       fy="71.610191"
       r="3.3925543" />
    <linearGradient
       inkscape:collect="always"
       id="linearGradient1839">
      <stop
         style="stop-color:#16320b;stop-opacity:1"
         offset="0"
         id="stop1835" />
      <stop
         style="stop-color:#439620;stop-opacity:1"
         offset="1"
         id="stop1837" />
    </linearGradient>
    <linearGradient
       inkscape:collect="always"
       xlink:href="#linearGradient1791"
       id="linearGradient1823"
       gradientUnits="userSpaceOnUse"
       gradientTransform="translate(15.023736,-10.150379)"
       x1="99.117592"
       y1="142.00026"
       x2="107.30499"
       y2="145.09132" />
    <linearGradient
       inkscape:collect="always"
       id="linearGradient1791">
      <stop
         style="stop-color:#aeda00;stop-opacity:1"
         offset="0"
         id="stop1787" />
      <stop
         style="stop-color:#305321;stop-opacity:1"
         offset="1"
         id="stop1789" />
    </linearGradient>
    <linearGradient
       inkscape:collect="always"
       xlink:href="#linearGradient1791"
       id="linearGradient1825"
       gradientUnits="userSpaceOnUse"
       gradientTransform="translate(5.4581562,-9.0920453)"
       x1="99.117592"
       y1="142.00026"
       x2="107.30499"
       y2="145.09132" />
    <linearGradient
       inkscape:collect="always"
       xlink:href="#linearGradient1791"
       id="linearGradient1827"
       gradientUnits="userSpaceOnUse"
       gradientTransform="translate(-3.8567978,-10.150379)"
       x1="99.117592"
       y1="142.00026"
       x2="107.30499"
       y2="145.09132" />
    <linearGradient
       inkscape:collect="always"
       xlink:href="#linearGradient1811"
       id="linearGradient1829"
       gradientUnits="userSpaceOnUse"
       x1="112.78195"
       y1="138.38763"
       x2="113.95155"
       y2="147.70259"
       gradientTransform="translate(-3.9403408,-6.6275513)" />
    <linearGradient
       id="linearGradient1811"
       inkscape:collect="always">
      <stop
         id="stop1807"
         offset="0"
         style="stop-color:#000000;stop-opacity:0" />
      <stop
         id="stop1809"
         offset="1"
         style="stop-color:#000000;stop-opacity:1" />
    </linearGradient>
    <radialGradient
       inkscape:collect="always"
       xlink:href="#linearGradient1417"
       id="radialGradient1831"
       gradientUnits="userSpaceOnUse"
       gradientTransform="matrix(1,0,0,0.89985859,-3.9403408,7.0795508)"
       cx="105.46971"
       cy="130.00739"
       fx="105.46971"
       fy="130.00739"
       r="16.484608" />
    <linearGradient
       inkscape:collect="always"
       xlink:href="#linearGradient1791"
       id="linearGradient1801"
       gradientUnits="userSpaceOnUse"
       gradientTransform="translate(-19.604501,-10.150379)"
       x1="99.117592"
       y1="142.00026"
       x2="107.30499"
       y2="145.09132" />
    <linearGradient
       inkscape:collect="always"
       xlink:href="#linearGradient1791"
       id="linearGradient1793"
       x1="99.117592"
       y1="142.00026"
       x2="107.30499"
       y2="145.09132"
       gradientUnits="userSpaceOnUse"
       gradientTransform="translate(-29.17008,-9.0920453)" />
    <linearGradient
       inkscape:collect="always"
       xlink:href="#linearGradient1791"
       id="linearGradient1797"
       gradientUnits="userSpaceOnUse"
       gradientTransform="translate(-38.485035,-10.150379)"
       x1="99.117592"
       y1="142.00026"
       x2="107.30499"
       y2="145.09132" />
    <linearGradient
       inkscape:collect="always"
       xlink:href="#linearGradient1811"
       id="linearGradient1805"
       x1="112.78195"
       y1="138.38763"
       x2="113.95155"
       y2="147.70259"
       gradientUnits="userSpaceOnUse"
       gradientTransform="translate(-38.568578,-6.6275513)" />
    <filter
       inkscape:collect="always"
       style="color-interpolation-filters:sRGB"
       id="filter1681"
       x="-0.34217626"
       width="1.6843525"
       y="-0.30707243"
       height="1.6141449">
      <feGaussianBlur
         inkscape:collect="always"
         stdDeviation="0.90856143"
         id="feGaussianBlur1683" />
    </filter>
    <radialGradient
       inkscape:collect="always"
       xlink:href="#linearGradient1839"
       id="radialGradient1841"
       cx="120.71287"
       cy="71.610191"
       fx="120.71287"
       fy="71.610191"
       r="3.3925543"
       gradientTransform="matrix(1,0,0,1.0363318,-38.568578,-9.1640443)"
       gradientUnits="userSpaceOnUse" />
    <linearGradient
       inkscape:collect="always"
       xlink:href="#linearGradient1729"
       id="linearGradient1731"
       x1="181.72704"
       y1="121.20822"
       x2="163.86754"
       y2="69.913315"
       gradientUnits="userSpaceOnUse"
       gradientTransform="translate(-38.568578,-6.6275513)" />
    <linearGradient
       inkscape:collect="always"
       id="linearGradient1729">
      <stop
         style="stop-color:#719a36;stop-opacity:1"
         offset="0"
         id="stop1725" />
      <stop
         style="stop-color:#759935;stop-opacity:0.99607843"
         offset="1"
         id="stop1727" />
    </linearGradient>
    <linearGradient
       inkscape:collect="always"
       xlink:href="#linearGradient1721"
       id="linearGradient1723"
       x1="75.628448"
       y1="122.37781"
       x2="95.02877"
       y2="71.082901"
       gradientUnits="userSpaceOnUse"
       gradientTransform="translate(-38.568578,-6.6275513)" />
    <linearGradient
       inkscape:collect="always"
       id="linearGradient1721">
      <stop
         style="stop-color:#86b841;stop-opacity:1;"
         offset="0"
         id="stop1717" />
      <stop
         style="stop-color:#a4d649;stop-opacity:1"
         offset="1"
         id="stop1719" />
    </linearGradient>
    <radialGradient
       inkscape:collect="always"
       xlink:href="#linearGradient1417"
       id="radialGradient1427"
       cx="105.46971"
       cy="130.00739"
       fx="105.46971"
       fy="130.00739"
       r="16.484608"
       gradientTransform="matrix(1,0,0,0.89985859,-38.568578,7.0795508)"
       gradientUnits="userSpaceOnUse" />
    <linearGradient
       gradientTransform="translate(1.0261459e-8)"
       inkscape:collect="always"
       xlink:href="#linearGradient1337"
       id="linearGradient1341"
       x1="88.676292"
       y1="43.182354"
       x2="84.037956"
       y2="29.521536"
       gradientUnits="userSpaceOnUse" />
    <linearGradient
       inkscape:collect="always"
       id="linearGradient1337">
      <stop
         style="stop-color:#ffffff;stop-opacity:1;"
         offset="0"
         id="stop1333" />
      <stop
         style="stop-color:#dedede;stop-opacity:1"
         offset="1"
         id="stop1335" />
    </linearGradient>
    <filter
       inkscape:collect="always"
       style="color-interpolation-filters:sRGB"
       id="filter1319"
       x="-0.32792845"
       width="1.6558568"
       y="-0.22922166"
       height="1.4584433">
      <feGaussianBlur
         inkscape:collect="always"
         stdDeviation="2.5742838"
         id="feGaussianBlur1321" />
    </filter>
    <radialGradient
       inkscape:collect="always"
       xlink:href="#linearGradient1409"
       id="radialGradient1411"
       cx="109.66306"
       cy="64.976707"
       fx="109.66306"
       fy="64.976707"
       r="40.868176"
       gradientTransform="matrix(0.57480895,1.6884984,-1.2108428,0.41220252,86.735751,-157.24591)"
       gradientUnits="userSpaceOnUse" />
    <linearGradient
       inkscape:collect="always"
       id="linearGradient1409">
      <stop
         style="stop-color:#b8f052;stop-opacity:1"
         offset="0"
         id="stop1405" />
      <stop
         style="stop-color:#759935;stop-opacity:0.99607843"
         offset="1"
         id="stop1407" />
    </linearGradient>
    <linearGradient
       inkscape:collect="always"
       xlink:href="#linearGradient1697"
       id="linearGradient1713"
       gradientUnits="userSpaceOnUse"
       x1="186.70845"
       y1="34.633793"
       x2="200.96051"
       y2="43.823433"
       gradientTransform="matrix(-1,0,0,1,224.05806,-0.6125134)" />
    <linearGradient
       inkscape:collect="always"
       id="linearGradient1697">
      <stop
         style="stop-color:#44762f;stop-opacity:1"
         offset="0"
         id="stop1693" />
      <stop
         style="stop-color:#81dd58;stop-opacity:1"
         offset="1"
         id="stop1695" />
    </linearGradient>
    <linearGradient
       inkscape:collect="always"
       xlink:href="#linearGradient1705"
       id="linearGradient1715"
       gradientUnits="userSpaceOnUse"
       x1="177.62268"
       y1="38.332008"
       x2="199.24832"
       y2="15.441448"
       gradientTransform="matrix(-1,0,0,1,224.05806,-0.6125134)" />
    <linearGradient
       inkscape:collect="always"
       id="linearGradient1705">
      <stop
         style="stop-color:#86b841;stop-opacity:1;"
         offset="0"
         id="stop1701" />
      <stop
         style="stop-color:#d6e417;stop-opacity:1"
         offset="1"
         id="stop1703" />
    </linearGradient>
    <linearGradient
       inkscape:collect="always"
       xlink:href="#linearGradient1755"
       id="linearGradient1699"
       x1="184.87053"
       y1="38.142563"
       x2="200.96051"
       y2="43.823433"
       gradientUnits="userSpaceOnUse"
       gradientTransform="translate(-38.902746,-0.6125134)" />
    <linearGradient
       id="linearGradient1755"
       inkscape:collect="always">
      <stop
         id="stop1751"
         offset="0"
         style="stop-color:#2c4d1f;stop-opacity:1" />
      <stop
         id="stop1753"
         offset="1"
         style="stop-color:#81dd58;stop-opacity:1" />
    </linearGradient>
    <linearGradient
       inkscape:collect="always"
       xlink:href="#linearGradient1749"
       id="linearGradient1707"
       x1="177.62268"
       y1="38.332008"
       x2="199.24832"
       y2="15.441448"
       gradientUnits="userSpaceOnUse"
       gradientTransform="translate(-38.902746,-0.6125134)" />
    <linearGradient
       id="linearGradient1749"
       inkscape:collect="always">
      <stop
         id="stop1745"
         offset="0"
         style="stop-color:#678e32;stop-opacity:1" />
      <stop
         id="stop1747"
         offset="1"
         style="stop-color:#d6e417;stop-opacity:1" />
    </linearGradient>
  </defs>
  <sodipodi:namedview
     inkscape:object-paths="true"
     inkscape:snap-global="false"
     inkscape:window-maximized="0"
     inkscape:window-y="186"
     inkscape:window-x="518"
     inkscape:window-height="1429"
     inkscape:window-width="2729"
     showgrid="false"
     inkscape:document-rotation="0"
     inkscape:current-layer="layer1"
     inkscape:document-units="mm"
     inkscape:cy="275.90551"
     inkscape:cx="493.22835"
     inkscape:zoom="2.1692209"
     inkscape:pageshadow="2"
     inkscape:pageopacity="0.0"
     borderopacity="1.0"
     bordercolor="#666666"
     pagecolor="#ffffff"
     id="base"
     showguides="false" />
  <metadata
     id="metadata5">
    <rdf:RDF>
      <cc:Work
         rdf:about="">
        <dc:format>image/svg+xml</dc:format>
        <dc:type
           rdf:resource="http://purl.org/dc/dcmitype/StillImage" />
        <dc:title />
      </cc:Work>
    </rdf:RDF>
  </metadata>
  <g
     inkscape:groupmode="layer"
     id="layer1"
     inkscape:label="Blupi">
    <path
       style="display:inline;fill:#000000;fill-opacity:1;stroke:none;stroke-width:0.264583px;stroke-linecap:butt;stroke-linejoin:miter;stroke-opacity:1"
       d="m 131.85832,94.131235 c -1.08249,-1.814327 7.53175,-5.138052 8.4008,-3.00355 0.86904,2.134502 -7.36404,5.351505 -8.4008,3.00355 z"
       id="path2220" />
    <path
       style="display:inline;fill:url(#linearGradient1707);fill-opacity:1;stroke:#000000;stroke-width:0.264583px;stroke-linecap:butt;stroke-linejoin:miter;stroke-opacity:1"
       d="M 127.01203,48.176124 C 131.02206,37.816895 148.733,4.4000177 182.31697,15.928841 151.90761,25.786819 165.44144,85.268852 127.01203,48.176124 Z"
       id="path1389"
       sodipodi:nodetypes="ccc" />
    <path
       sodipodi:nodetypes="ccc"
       id="path1391"
       d="m 127.01203,48.176124 c 42.60652,13.868006 5.3467,-46.1152873 55.30494,-32.247283 -30.40936,9.857978 -16.87553,69.340011 -55.30494,32.247283 z"
       style="display:inline;fill:url(#linearGradient1699);fill-opacity:1;stroke:#000000;stroke-width:0.264583px;stroke-linecap:butt;stroke-linejoin:miter;stroke-opacity:1" />
    <path
       sodipodi:nodetypes="ccc"
       id="path1709"
       d="M 58.143282,48.176124 C 54.133252,37.816895 36.422313,4.4000177 2.8383423,15.928841 33.247702,25.786819 19.713872,85.268852 58.143282,48.176124 Z"
       style="display:inline;fill:url(#linearGradient1715);fill-opacity:1;stroke:#000000;stroke-width:0.264583px;stroke-linecap:butt;stroke-linejoin:miter;stroke-opacity:1" />
    <path
       style="display:inline;fill:url(#linearGradient1713);fill-opacity:1;stroke:#000000;stroke-width:0.264583px;stroke-linecap:butt;stroke-linejoin:miter;stroke-opacity:1"
       d="M 58.143282,48.176124 C 15.536762,62.04413 52.796582,2.0608367 2.8383423,15.928841 33.247702,25.786819 19.713872,85.268852 58.143282,48.176124 Z"
       id="path1711"
       sodipodi:nodetypes="ccc" />
    <path
       sodipodi:nodetypes="cszsc"
       id="path1285"
       d="m 90.587644,19.270527 c 24.394316,0.250627 46.280506,7.570441 42.334996,33.333333 -4.57393,29.866333 -18.44263,69.81835 -41.332498,70.92732 C 68.700273,124.64015 55.082211,84.182801 52.137351,52.374114 49.742115,26.502178 66.694573,19.604697 90.587644,19.270527 Z"
       style="display:inline;fill:url(#radialGradient1411);fill-opacity:1;stroke:#000000;stroke-width:0.264583px;stroke-linecap:butt;stroke-linejoin:miter;stroke-opacity:1" />
    <path
       sodipodi:nodetypes="cssssccc"
       id="path1143"
       d="m 91.715075,61.978793 c -2.94365,3.378336 -5.14422,7.967388 -5.03603,11.005209 0.1082,3.037819 4.61136,12.636809 7.00714,14.296739 1.56675,1.08553 3.11395,1.52864 4.46886,0.32793 1.354919,-1.20073 7.403385,-10.629211 7.360275,-13.779691 -0.0431,-3.150475 -3.49658,-10.64559 -5.21304,-12.148205 -2.847615,-0.418313 -5.664425,-0.492454 -8.587205,0.29803 z"
       style="display:inline;opacity:0.373;fill:#000000;fill-opacity:1;stroke:none;stroke-width:0.267;stroke-linecap:butt;stroke-linejoin:miter;stroke-miterlimit:4;stroke-dasharray:none;stroke-opacity:1;filter:url(#filter1319)" />
    <path
       style="display:inline;fill:url(#linearGradient1341);fill-opacity:1;stroke:#040404;stroke-width:0.294;stroke-linecap:butt;stroke-linejoin:miter;stroke-miterlimit:4;stroke-dasharray:none;stroke-opacity:1"
       d="m 95.876342,59.556697 c -2.108219,0.279757 -6.514759,0.721934 -8.64878,0.233164 -17.64748,7.732858 -17.312528,-20.564467 -7.82847,-27.862943 5.42436,1.732439 10.520511,3.366445 13.66516,8.778412 1.88055,-5.108786 4.59517,-6.790769 11.418388,-7.75182 13.89801,8.102811 9.60231,35.354344 -8.606298,26.603187 z"
       id="path1331"
       sodipodi:nodetypes="cccccc" />
    <path
       sodipodi:nodetypes="sss"
       id="path1299"
       d="m 57.737056,134.53979 c 0.924047,-25.0419 32.740055,-23.76108 32.742156,-0.31983 7.94e-4,10.21941 -33.019767,7.84313 -32.742156,0.31983 z"
       style="display:inline;fill:url(#radialGradient1427);fill-opacity:1;stroke:#000000;stroke-width:0.264583px;stroke-linecap:butt;stroke-linejoin:miter;stroke-opacity:1" />
    <path
       sodipodi:nodetypes="ccccc"
       id="path1333"
       d="M 54.83159,63.213718 38.791488,107.15692 c -7.17441,-3.37307 -10.220193,13.40878 2.00357,7.1771 5.099516,2.57579 6.718618,-3.69586 1.83937,-6.17459 L 57.50494,65.719983"
       style="display:inline;fill:url(#linearGradient1723);fill-opacity:1;stroke:#000000;stroke-width:0.264583px;stroke-linecap:butt;stroke-linejoin:miter;stroke-opacity:1" />
    <path
       style="display:inline;fill:url(#linearGradient1731);fill-opacity:1;stroke:#000000;stroke-width:0.264583px;stroke-linecap:butt;stroke-linejoin:miter;stroke-opacity:1"
       d="m 126.74195,63.213718 16.0401,43.943202 c 7.17441,-3.37307 10.22019,13.40878 -2.00357,7.1771 -5.09952,2.57579 -6.71862,-3.69586 -1.83937,-6.17459 L 124.0686,65.719983"
       id="path1339"
       sodipodi:nodetypes="ccccc" />
    <path
       sodipodi:nodetypes="csccc"
       id="path1971"
       d="m 83.716303,60.999851 c -1.60207,2.91348 -3.955639,2.026245 -2.765009,4.679336 0.374729,0.835012 1.772449,1.239189 2.243278,0.519605 1.169191,-2.471063 1.944711,-4.195358 3.987702,-6.409944 -1.062382,0.547552 -2.638052,0.953465 -3.465971,1.211003 z"
       style="display:inline;fill:url(#radialGradient1841);fill-opacity:1;stroke:#000000;stroke-width:0.264583px;stroke-linecap:butt;stroke-linejoin:miter;stroke-opacity:1" />
    <path
       style="color:#000000;font-style:normal;font-variant:normal;font-weight:normal;font-stretch:normal;font-size:medium;line-height:normal;font-family:sans-serif;font-variant-ligatures:normal;font-variant-position:normal;font-variant-caps:normal;font-variant-numeric:normal;font-variant-alternates:normal;font-variant-east-asian:normal;font-feature-settings:normal;font-variation-settings:normal;text-indent:0;text-align:start;text-decoration:none;text-decoration-line:none;text-decoration-style:solid;text-decoration-color:#000000;letter-spacing:normal;word-spacing:normal;text-transform:none;writing-mode:lr-tb;direction:ltr;text-orientation:mixed;dominant-baseline:auto;baseline-shift:baseline;text-anchor:start;white-space:normal;shape-padding:0;shape-margin:0;inline-size:0;clip-rule:nonzero;display:inline;overflow:visible;visibility:visible;opacity:1;isolation:auto;mix-blend-mode:normal;color-interpolation:sRGB;color-interpolation-filters:linearRGB;solid-color:#000000;solid-opacity:1;vector-effect:none;fill:#000000;fill-opacity:1;fill-rule:nonzero;stroke:none;stroke-width:4.7625;stroke-linecap:round;stroke-linejoin:round;stroke-miterlimit:4;stroke-dasharray:none;stroke-dashoffset:0;stroke-opacity:1;color-rendering:auto;image-rendering:auto;shape-rendering:auto;text-rendering:auto;enable-background:accumulate;stop-color:#000000;stop-opacity:1"
       d="m 114.73025,22.599011 c -1.38573,0.04037 -2.71622,0.403181 -3.8711,0.939454 -3.68174,1.31718 -6.68969,5.740769 -10.375,6.46289 -1.020018,0.174937 -1.675018,0.128757 -3.156248,-1.722655 -0.821259,-1.027729 -2.320298,-1.194776 -3.347649,-0.373047 -1.02712,0.821838 -1.193281,2.320817 -0.371099,3.347655 2.175528,2.719239 5.112588,3.881673 7.679686,3.441409 4.7344,-0.970487 6.90095,-7.70199 10.9559,-9.641918 1.50049,-0.696755 4.12726,-0.391155 5.48071,0.355159 1.15152,0.63454 1.9496,1.042763 2.34828,0.511748 0.60633,-0.738463 0.0101,-1.68568 -1.14231,-2.320694 -1.37476,-0.758066 -2.81545,-1.040371 -4.20117,-1.000001 z"
       id="path1403"
       sodipodi:nodetypes="sccccccccccs" />
    <path
       sodipodi:nodetypes="cc"
       id="path1735"
       d="m 94.342673,84.646048 c 3.50877,0.334169 7.268177,2.756892 6.182117,7.101085"
       style="display:inline;fill:none;stroke:#57772a;stroke-width:0.9525;stroke-linecap:round;stroke-linejoin:round;stroke-miterlimit:4;stroke-dasharray:none;stroke-opacity:1;filter:url(#filter1681)"
       transform="matrix(-1,0,0,1,167.94956,-0.9565194)" />
    <ellipse
       style="display:inline;fill:#000000;fill-opacity:1;stroke:none;stroke-width:0.865;stroke-linecap:round;stroke-linejoin:round;stroke-miterlimit:4;stroke-dasharray:none;stroke-opacity:1"
       id="path1765"
       cx="84.802361"
       cy="51.496929"
       rx="6.1194654"
       ry="7.2890563" />
    <circle
       cy="48.211208"
       cx="81.96714"
       id="path1307"
       style="display:inline;opacity:1;fill:#ffffff;fill-opacity:1;stroke-width:0.0596196;stroke-linecap:round;stroke-linejoin:round"
       r="1.5068128" />
    <ellipse
       ry="7.2890563"
       rx="6.1194654"
       cy="51.496929"
       cx="99.618896"
       id="ellipse1771"
       style="display:inline;fill:#000000;fill-opacity:1;stroke:none;stroke-width:0.865;stroke-linecap:round;stroke-linejoin:round;stroke-miterlimit:4;stroke-dasharray:none;stroke-opacity:1" />
    <circle
       r="1.5068128"
       style="display:inline;opacity:1;fill:#ffffff;fill-opacity:1;stroke-width:0.0596196;stroke-linecap:round;stroke-linejoin:round"
       id="circle1773"
       cx="96.783691"
       cy="48.211208" />
    <path
       style="display:inline;fill:none;stroke:#000000;stroke-width:0.264583px;stroke-linecap:butt;stroke-linejoin:miter;stroke-opacity:1"
       d="m 87.670954,21.727609 c -0.0182,-0.636327 0.370409,-1.140293 0.59073,-1.713123 0.517829,-1.34635 -0.202912,0.490584 0.177218,-0.649808 0.0279,-0.08354 0.099,-0.150328 0.118152,-0.236293 0.0295,-0.132914 -0.0236,-0.389882 0,-0.531658 0.0517,-0.310465 0.0661,-0.473149 -0.118152,-0.767952 -0.463529,-0.74165 -1.350468,-1.105652 -2.06756,-1.535906 -0.87742,-0.526451 -1.274541,-1.6552 -1.47683,-2.599223 -0.20011,-0.933812 0.0307,-1.798911 0.118141,-2.717369 0.0411,-0.431698 0.02151,-0.867591 0.0591,-1.2996121 0.12187,-1.4015511 0.236289,-2.7883271 0.236289,-4.1942002"
       id="path1777" />
    <path
       style="display:inline;fill:none;stroke:#000000;stroke-width:0.264583px;stroke-linecap:butt;stroke-linejoin:miter;stroke-opacity:1"
       d="m 80.286793,22.67278 c 0.0788,-0.472584 0.11756,-0.9536 0.236299,-1.417758 0.41084,-1.606041 0.369872,-0.579745 0.59073,-1.831271 0.24851,-1.408202 -2.021628,-1.285186 -2.36293,-1.831269 -0.066,-0.105608 -0.0854,-0.234291 -0.11815,-0.354441 -0.247959,-0.909179 0.15049,-3.452978 -0.354438,-3.957907"
       id="path1779" />
    <path
       style="display:inline;fill:none;stroke:#000000;stroke-width:0.264583px;stroke-linecap:butt;stroke-linejoin:miter;stroke-opacity:1"
       d="m 74.792982,23.972393 c 0.0398,-1.99459 -0.27595,-3.729342 -2.126628,-4.725862 -0.488011,-0.262772 -0.425921,-0.05129 -0.827032,-0.118146 -0.43797,-0.07299 -0.888979,-0.379829 -1.18146,-0.708878 -0.44236,-0.497654 -0.73641,-1.204962 -0.945179,-1.831272 -0.0487,-0.146087 -0.174152,-0.643663 -0.29536,-0.886097"
       id="path1781" />
    <path
       style="display:inline;fill:none;stroke:#000000;stroke-width:0.264583px;stroke-linecap:butt;stroke-linejoin:miter;stroke-opacity:1"
       d="m 93.873642,22.909071 c 1.06417,-1.20412 1.834322,-2.515562 2.540151,-3.957905 0.147899,-0.302233 0.15255,-0.675988 0.354441,-0.945172 0.0264,-0.03522 0.0838,-0.03157 0.118149,-0.05907 0.36027,-0.288219 0.7438,-0.553267 1.063318,-0.886098 0.459672,-0.478823 0.811483,-1.828147 0.531652,-2.481077 -0.350629,-0.818155 -1.385631,-1.342621 -2.126631,-1.713124 -0.861939,-0.430966 -1.15592,-0.296974 -1.00425,-1.358685 0.219562,-1.5369021 1.35578,-2.8311591 2.18571,-4.0760542 0.375671,-0.563495 0.56512,-1.1837349 0.8861,-1.7721971 0.436911,-0.800993 0.99773,-1.520709 1.358691,-2.36293"
       id="path1783" />
    <path
       style="display:inline;fill:none;stroke:#000000;stroke-width:0.264583px;stroke-linecap:butt;stroke-linejoin:miter;stroke-opacity:1"
       d="m 105.62922,22.613708 c 1.10523,-1.625341 1.45271,-2.249735 3.01273,-3.839762 0.3062,-0.312087 0.69507,-0.532271 1.06332,-0.767952 0.26214,-0.167769 0.66595,-0.209516 0.82703,-0.53166 0.30782,-0.615648 0.50732,-1.331711 0.6498,-2.008489 0.0494,-0.234415 0.0572,-0.477215 0.11815,-0.70888 0.081,-0.307645 0.24744,-0.586513 0.35444,-0.886099 0.15132,-0.423691 0.27287,-0.900177 0.47258,-1.299612"
       id="path1785" />
    <path
       style="display:inline;fill:url(#linearGradient1805);fill-opacity:1;stroke:#000000;stroke-width:0.264583px;stroke-linecap:butt;stroke-linejoin:miter;stroke-opacity:1"
       d="m 57.737056,134.53979 c 0.924047,-25.0419 32.740055,-23.76108 32.742156,-0.31983 7.94e-4,10.21941 -33.019767,7.84313 -32.742156,0.31983 z"
       id="path1803"
       sodipodi:nodetypes="sss" />
    <path
       sodipodi:nodetypes="ccccc"
       style="display:inline;fill:url(#linearGradient1797);fill-opacity:1;stroke:#000000;stroke-width:0.264583px;stroke-linecap:butt;stroke-linejoin:miter;stroke-opacity:1"
       d="m 60.419818,131.8885 4.338074,-3.12054 3.89832,3.44262 -4.368818,8.75709 z"
       id="path1795" />
    <path
       id="path1341"
       d="m 69.734773,132.94684 4.338069,-3.12054 3.89832,3.44262 -4.368818,8.75709 z"
       style="display:inline;fill:url(#linearGradient1793);fill-opacity:1;stroke:#000000;stroke-width:0.264583px;stroke-linecap:butt;stroke-linejoin:miter;stroke-opacity:1"
       sodipodi:nodetypes="ccccc" />
    <path
       id="path1799"
       d="m 79.300352,131.8885 4.338071,-3.12054 3.898321,3.44262 -4.368821,8.75709 z"
       style="display:inline;fill:url(#linearGradient1801);fill-opacity:1;stroke:#000000;stroke-width:0.264583px;stroke-linecap:butt;stroke-linejoin:miter;stroke-opacity:1"
       sodipodi:nodetypes="ccccc" />
    <path
       style="display:inline;fill:url(#radialGradient1831);fill-opacity:1;stroke:#000000;stroke-width:0.264583px;stroke-linecap:butt;stroke-linejoin:miter;stroke-opacity:1"
       d="m 92.365292,134.53979 c 0.924052,-25.0419 32.740058,-23.76108 32.742158,-0.31983 7.9e-4,10.21941 -33.019767,7.84313 -32.742158,0.31983 z"
       id="path1813"
       sodipodi:nodetypes="sss" />
    <path
       sodipodi:nodetypes="sss"
       id="path1815"
       d="m 92.365292,134.53979 c 0.924052,-25.0419 32.740058,-23.76108 32.742158,-0.31983 7.9e-4,10.21941 -33.019767,7.84313 -32.742158,0.31983 z"
       style="display:inline;fill:url(#linearGradient1829);fill-opacity:1;stroke:#000000;stroke-width:0.264583px;stroke-linecap:butt;stroke-linejoin:miter;stroke-opacity:1" />
    <path
       id="path1817"
       d="m 95.048053,131.8885 4.338079,-3.12054 3.898318,3.44262 -4.368818,8.75709 z"
       style="display:inline;fill:url(#linearGradient1827);fill-opacity:1;stroke:#000000;stroke-width:0.264583px;stroke-linecap:butt;stroke-linejoin:miter;stroke-opacity:1"
       sodipodi:nodetypes="ccccc" />
    <path
       sodipodi:nodetypes="ccccc"
       style="display:inline;fill:url(#linearGradient1825);fill-opacity:1;stroke:#000000;stroke-width:0.264583px;stroke-linecap:butt;stroke-linejoin:miter;stroke-opacity:1"
       d="m 104.36301,132.94684 4.33807,-3.12054 3.89832,3.44262 -4.36882,8.75709 z"
       id="path1819" />
    <path
       sodipodi:nodetypes="ccccc"
       style="display:inline;fill:url(#linearGradient1823);fill-opacity:1;stroke:#000000;stroke-width:0.264583px;stroke-linecap:butt;stroke-linejoin:miter;stroke-opacity:1"
       d="m 113.92859,131.8885 4.33807,-3.12054 3.89832,3.44262 -4.36882,8.75709 z"
       id="path1821" />
    <path
       style="display:inline;fill:url(#radialGradient1845);fill-opacity:1;stroke:#000000;stroke-width:0.264583px;stroke-linecap:butt;stroke-linejoin:miter;stroke-opacity:1"
       d="m 99.288443,60.905765 c 1.476087,2.979285 3.865427,2.193444 2.562497,4.793229 -0.41007,0.818232 -1.82379,1.162306 -2.263428,0.423259 -1.062519,-2.518775 -1.763638,-4.274635 -3.71012,-6.574507 1.038011,0.592453 2.594891,1.065334 3.411051,1.358019 z"
       id="path1843"
       sodipodi:nodetypes="csccc" />
    <path
       style="display:inline;fill:url(#radialGradient1419);fill-opacity:1;stroke:#000000;stroke-width:0.266999;stroke-linecap:butt;stroke-linejoin:miter;stroke-miterlimit:4;stroke-dasharray:none;stroke-opacity:1"
       d="m 87.162713,59.781434 c -2.943651,3.378335 -5.14422,7.967387 -5.036031,11.005209 0.108201,3.037819 4.611362,12.636809 7.00714,14.296739 1.566751,1.08553 3.11395,1.528641 4.46886,0.32793 1.354921,-1.200729 7.403388,-10.629212 7.360278,-13.77969 -0.0431,-3.150476 -3.496578,-10.64559 -5.213036,-12.148207 -2.847621,-0.418311 -5.66443,-0.492453 -8.587211,0.29803 z"
       id="path1948"
       sodipodi:nodetypes="cssssccc" />
    <circle
       style="display:inline;fill:#000000;fill-opacity:1;stroke:#000000;stroke-width:0.294;stroke-linecap:round;stroke-linejoin:round;stroke-miterlimit:4;stroke-dasharray:none;stroke-opacity:1"
       id="path1847"
       cx="38.248463"
       cy="54.81773"
       r="3.7176275" />
    <path
       style="display:inline;fill:url(#radialGradient1877);fill-opacity:1;stroke:#000000;stroke-width:0.264583px;stroke-linecap:butt;stroke-linejoin:miter;stroke-opacity:1"
       d="m 41.961458,55.063011 c -1.315789,-0.793652 -2.479281,-1.092536 -3.73388,-1.108419 -3.299915,-0.04177 -7.811195,2.568922 -7.936507,7.811196 -0.125315,5.242272 4.051794,7.915622 7.936507,7.999164 3.884711,0.08354 7.824603,-3.329554 7.852966,-7.706768 0.0082,-1.259356 -0.379957,-3.051029 -0.884177,-3.796792 -1.419169,0.83289 -2.397463,1.090348 -3.959606,1.591937 1.662899,3.079081 -0.774427,5.713627 -2.904754,5.671857 -2.130327,-0.04177 -3.796692,-1.499991 -3.780285,-3.550544 0.02088,-2.610691 2.374146,-4.164695 4.761905,-3.592314 2.063874,-0.674402 2.513182,-2.213562 2.647831,-3.319317 z"
       id="path1869"
       sodipodi:nodetypes="cssssccsscc" />
    <path
       transform="rotate(-153.61325,56.883274,69.714227)"
       sodipodi:nodetypes="cc"
       id="path1981"
       d="m 72.096909,63.575604 c -1.963243,1.837928 -3.132833,7.03843 0.605679,10.045948"
       style="display:inline;fill:none;stroke:#000000;stroke-width:0.765;stroke-linecap:round;stroke-linejoin:round;stroke-miterlimit:4;stroke-dasharray:none;stroke-opacity:0.300412;filter:url(#filter1977)" />
    <path
       style="display:inline;fill:none;stroke:#ffffff;stroke-width:0.765;stroke-linecap:round;stroke-linejoin:round;stroke-miterlimit:4;stroke-dasharray:none;stroke-opacity:1;filter:url(#filter1977)"
       d="m 72.096909,63.575604 c -1.963243,1.837928 -3.132833,7.03843 0.605679,10.045948"
       id="path1879"
       sodipodi:nodetypes="cc"
       transform="rotate(16.987718,78.922364,-64.092846)" />
    <path
       id="path2012"
       d="m 137.77247,101.97156 -6.98713,0.0772 5.54064,-4.168636 z"
       style="display:inline;fill:#ffffff;stroke:#000000;stroke-width:0.267999;stroke-linecap:butt;stroke-linejoin:miter;stroke-miterlimit:4;stroke-dasharray:none;stroke-opacity:1" />
    <path
       style="display:inline;fill:#ffffff;stroke:#000000;stroke-width:0.267999;stroke-linecap:butt;stroke-linejoin:miter;stroke-miterlimit:4;stroke-dasharray:none;stroke-opacity:1"
       d="m 139.63831,95.980286 5.47037,-4.347506 -6.92881,0.260313 z"
       id="path2010" />
    <path
       style="display:inline;fill:url(#linearGradient2000);fill-opacity:1;stroke:#000000;stroke-width:0.264999;stroke-linecap:round;stroke-linejoin:round;stroke-miterlimit:4;stroke-dasharray:none;stroke-opacity:1"
       d="m 134.9692,107.70645 c -0.0866,0.949 11.13742,-2.28025 10.91027,-3.85297 l -4.93392,-13.828742 c -0.23651,0.629356 -10.93243,4.60212 -10.8414,3.761409 z"
       id="path1992"
       sodipodi:nodetypes="ccccc" />
    <path
       style="display:inline;fill:#ffffff;stroke:#000000;stroke-width:0.267999;stroke-linecap:butt;stroke-linejoin:miter;stroke-miterlimit:4;stroke-dasharray:none;stroke-opacity:1"
       d="m 133.77501,99.630057 -5.85341,-0.213473 4.40693,-3.877969 c 1.40863,1.27431 1.64616,2.661758 1.44682,4.091323 z"
       id="path2002"
       sodipodi:nodetypes="ccccc" />
    <path
       id="path2004"
       d="m 137.54912,104.79191 -5.80986,-0.1975 4.3752,-3.86354 c 1.38232,0.77927 2.41125,1.78308 1.43498,4.06093 z"
       style="display:inline;fill:#ffffff;stroke:#000000;stroke-width:0.28674;stroke-linecap:butt;stroke-linejoin:miter;stroke-miterlimit:4;stroke-dasharray:none;stroke-opacity:1"
       sodipodi:nodetypes="ccccc" />
    <path
       style="display:inline;fill:#ffffff;stroke:#000000;stroke-width:0.28674;stroke-linecap:butt;stroke-linejoin:miter;stroke-miterlimit:4;stroke-dasharray:none;stroke-opacity:1"
       d="m 139.46836,100.03546 4.30634,-3.947351 -5.75477,-0.108799 c -1.13815,2.061565 -0.44873,3.323185 1.44789,4.05634 z"
       id="path2006"
       sodipodi:nodetypes="cccc" />
    <path
       id="path2008"
       d="m 143.43176,103.6601 4.24572,-3.912528 -5.70415,-0.174662 c -0.15869,1.59143 0.35547,2.94388 1.45794,4.08737 z"
       style="display:inline;fill:#ffffff;stroke:#000000;stroke-width:0.267999;stroke-linecap:butt;stroke-linejoin:miter;stroke-miterlimit:4;stroke-dasharray:none;stroke-opacity:1"
       sodipodi:nodetypes="cccc" />
    <path
       style="color:#000000;font-style:normal;font-variant:normal;font-weight:normal;font-stretch:normal;font-size:medium;line-height:normal;font-family:sans-serif;font-variant-ligatures:normal;font-variant-position:normal;font-variant-caps:normal;font-variant-numeric:normal;font-variant-alternates:normal;font-variant-east-asian:normal;font-feature-settings:normal;font-variation-settings:normal;text-indent:0;text-align:start;text-decoration:none;text-decoration-line:none;text-decoration-style:solid;text-decoration-color:#000000;letter-spacing:normal;word-spacing:normal;text-transform:none;writing-mode:lr-tb;direction:ltr;text-orientation:mixed;dominant-baseline:auto;baseline-shift:baseline;text-anchor:start;white-space:normal;shape-padding:0;shape-margin:0;inline-size:0;clip-rule:nonzero;display:inline;overflow:visible;visibility:visible;isolation:auto;mix-blend-mode:normal;color-interpolation:sRGB;color-interpolation-filters:linearRGB;solid-color:#000000;solid-opacity:1;vector-effect:none;fill:#bcbcbc;fill-opacity:1;fill-rule:nonzero;stroke:#000000;stroke-width:0.189053;stroke-linecap:round;stroke-linejoin:round;stroke-miterlimit:4;stroke-dasharray:none;stroke-dashoffset:0;stroke-opacity:0.995885;color-rendering:auto;image-rendering:auto;shape-rendering:auto;text-rendering:auto;enable-background:accumulate;stop-color:#000000"
       d="m 135.33969,91.259847 c -1.34753,0.48164 -2.55508,0.961639 -3.49351,1.38675 -0.46922,0.212559 -0.87648,0.412885 -1.19893,0.604028 -0.32243,0.191148 -0.56986,0.387996 -0.53166,0.499028 0.0386,0.110874 0.35194,0.106889 0.72088,0.05091 0.36894,-0.05597 0.80976,-0.158779 1.30646,-0.291467 0.99338,-0.265364 2.23058,-0.659204 3.57811,-1.140849 1.34752,-0.48164 2.55509,-0.961642 3.49352,-1.386756 0.46921,-0.21255 0.87648,-0.412882 1.19891,-0.604022 0.32245,-0.191156 0.57001,-0.387633 0.53181,-0.498666 -0.0386,-0.110871 -0.35208,-0.107251 -0.72102,-0.05128 -0.36895,0.05597 -0.80975,0.158777 -1.30646,0.291465 -0.99337,0.265362 -2.23058,0.659204 -3.57811,1.140852 z m 0.12385,0.360791 c 1.14925,-0.410784 2.20181,-0.741111 2.89117,-0.925261 0.3447,-0.09208 0.59367,-0.145677 0.71304,-0.163777 0.11935,-0.0181 0.0909,-0.0054 0.0882,-0.01323 -0.003,-0.0077 0.0271,-0.01638 -0.0771,0.04543 -0.10429,0.06184 -0.33148,0.178848 -0.65709,0.326356 -0.65123,0.295015 -1.67581,0.706691 -2.82505,1.117467 -1.14924,0.410779 -2.19984,0.740815 -2.8892,0.92497 -0.34469,0.09208 -0.59563,0.145955 -0.71498,0.164061 -0.11937,0.0181 -0.0907,0.0058 -0.0881,0.0136 0.003,0.0077 -0.0273,0.01603 0.077,-0.04581 0.10429,-0.06183 0.33342,-0.179131 0.65905,-0.326641 0.65124,-0.295021 1.67382,-0.706401 2.82308,-1.117177 z"
       id="path1990" />
    <path
       style="display:inline;fill:#739935;fill-opacity:1;stroke:none;stroke-width:0.264583px;stroke-linecap:butt;stroke-linejoin:miter;stroke-opacity:1"
       d="m 132.39076,89.469311 1.12794,3.067058 3.46193,-1.256522 -1.11734,-2.999481 z"
       id="path2028"
       sodipodi:nodetypes="ccccc" />
    <path
       style="display:inline;fill:none;stroke:#000000;stroke-width:0.264999;stroke-linecap:round;stroke-linejoin:miter;stroke-miterlimit:4;stroke-dasharray:none;stroke-opacity:1"
       d="m 132.39076,89.469311 1.09017,3.117424"
       id="path2024"
       sodipodi:nodetypes="cc" />
    <path
       sodipodi:nodetypes="cc"
       id="path2026"
       d="m 135.77298,87.954982 1.24895,3.400208"
       style="display:inline;fill:none;stroke:#000000;stroke-width:0.264999;stroke-linecap:round;stroke-linejoin:miter;stroke-miterlimit:4;stroke-dasharray:none;stroke-opacity:1" />
    <path
       style="display:inline;fill:url(#radialGradient2040);fill-opacity:1;stroke:none;stroke-width:0.264583px;stroke-linecap:butt;stroke-linejoin:miter;stroke-opacity:1"
       d="m 61.13541,92.637763 c -1.973503,-5.622642 7.707442,-7.73448 10.999282,-3.094072 3.29184,4.640421 4.262451,7.81182 11.241032,8.357783 9.384019,0.734139 21.200256,-16.931222 32.000576,-13.319932 5.68711,1.901589 7.6765,4.88325 6.53966,7.871941 -5.2683,13.850107 -16.87552,31.244787 -31.077687,31.244787 -18.244561,0 -26.573641,-23.942229 -29.702863,-31.060507 z"
       id="path2030"
       sodipodi:nodetypes="csssssc" />
    <path
       style="display:inline;fill:url(#linearGradient1329);fill-opacity:1;stroke:#000000;stroke-width:0.175373px;stroke-linecap:butt;stroke-linejoin:miter;stroke-opacity:1"
       d="m 83.375724,97.901474 0.70036,-7.267321 3.711689,6.22164 z"
       id="path1741" />
    <path
       sodipodi:nodetypes="cc"
       style="display:inline;fill:none;stroke:#000000;stroke-width:0.661458;stroke-linecap:round;stroke-linejoin:round;stroke-miterlimit:4;stroke-dasharray:none;stroke-opacity:1"
       d="m 73.782363,88.784342 c -1.050361,-0.0421 -2.29621,0.240781 -2.89457,1.820831"
       id="path1743" />
    <ellipse
       style="display:inline;opacity:0.36129;fill:#f5ff00;fill-opacity:0.773663;fill-rule:evenodd;stroke:none;stroke-width:0.23518;stroke-linecap:round;stroke-linejoin:round;stroke-miterlimit:4;stroke-dasharray:none;stroke-opacity:0.995885;filter:url(#filter2168)"
       id="path2042"
       cx="62.935184"
       cy="40.4067"
       rx="5.4302421"
       ry="7.4352551" />
    <path
       style="color:#000000;font-style:normal;font-variant:normal;font-weight:normal;font-stretch:normal;font-size:medium;line-height:normal;font-family:sans-serif;font-variant-ligatures:normal;font-variant-position:normal;font-variant-caps:normal;font-variant-numeric:normal;font-variant-alternates:normal;font-variant-east-asian:normal;font-feature-settings:normal;font-variation-settings:normal;text-indent:0;text-align:start;text-decoration:none;text-decoration-line:none;text-decoration-style:solid;text-decoration-color:#000000;letter-spacing:normal;word-spacing:normal;text-transform:none;writing-mode:lr-tb;direction:ltr;text-orientation:mixed;dominant-baseline:auto;baseline-shift:baseline;text-anchor:start;white-space:normal;shape-padding:0;shape-margin:0;inline-size:0;clip-rule:nonzero;display:inline;overflow:visible;visibility:visible;opacity:1;isolation:auto;mix-blend-mode:normal;color-interpolation:sRGB;color-interpolation-filters:linearRGB;solid-color:#000000;solid-opacity:1;vector-effect:none;fill:#000000;fill-opacity:1;fill-rule:nonzero;stroke:none;stroke-width:4.7625;stroke-linecap:round;stroke-linejoin:round;stroke-miterlimit:4;stroke-dasharray:none;stroke-dashoffset:0;stroke-opacity:1;color-rendering:auto;image-rendering:auto;shape-rendering:auto;text-rendering:auto;enable-background:accumulate;stop-color:#000000;stop-opacity:1"
       d="m 75.950952,29.065809 c -4.133001,-0.435935 -7.688749,0.889519 -10.04297,3.814453 -0.824449,1.024266 -0.380431,1.588175 0.0692,1.922116 0.418891,0.355854 1.10368,0.258226 1.928579,-0.767059 1.544622,-2.127022 4.293262,-1.710846 7.604221,-0.942059 3.108481,0.721767 7.953351,2.633326 15.03273,5.335831 1.228619,0.469273 2.60503,-0.146349 3.07422,-1.375 0.469271,-1.228619 -0.146349,-2.605027 -1.374999,-3.07422 -7.157281,-2.732239 -12.15802,-4.478126 -16.291021,-4.914062 z"
       id="path1399"
       sodipodi:nodetypes="scccscccs" />
    <ellipse
       ry="7.4352551"
       rx="5.4302421"
       cy="76.608185"
       cx="126.73351"
       id="ellipse2172"
       style="display:inline;opacity:0.3;fill:#f5ff00;fill-opacity:0.773663;fill-rule:evenodd;stroke:none;stroke-width:0.23518;stroke-linecap:round;stroke-linejoin:round;stroke-miterlimit:4;stroke-dasharray:none;stroke-opacity:0.995885;filter:url(#filter2168)"
       transform="matrix(0.3918767,0,0,0.456434,37.582056,31.338197)" />
    <ellipse
       transform="matrix(0.6593944,0.75179722,-0.74936271,0.66215974,-38.568578,-6.6275512)"
       style="display:inline;opacity:0.3;mix-blend-mode:normal;fill:#f5ff00;fill-opacity:0.773663;fill-rule:evenodd;stroke:none;stroke-width:0.0864985;stroke-linecap:round;stroke-linejoin:round;stroke-miterlimit:4;stroke-dasharray:none;stroke-opacity:0.995885;filter:url(#filter2208)"
       id="ellipse2174"
       cx="167.70476"
       cy="5.7226796"
       rx="1.851032"
       ry="2.9506295" />
    <path
       style="display:inline;fill:none;stroke:#000000;stroke-width:0.865;stroke-linecap:round;stroke-linejoin:round;stroke-miterlimit:4;stroke-dasharray:none;stroke-opacity:1"
       d="M 72.134692,89.543702 C 85.721544,113.29115 100.96243,79.264951 115.3763,84.581542"
       id="path1733"
       sodipodi:nodetypes="cc" />
    <path
       id="path2261"
       d="m 87.41874,21.723798 c -0.0182,-0.636329 0.370409,-1.140293 0.59073,-1.713125 0.517829,-1.34635 -0.202912,0.490586 0.177218,-0.649806 0.0279,-0.08354 0.099,-0.15033 0.118152,-0.236293 0.0295,-0.132915 -0.0236,-0.389884 0,-0.53166 0.0517,-0.310465 0.0661,-0.473149 -0.118152,-0.767952 -0.463529,-0.741649 -1.350468,-1.105652 -2.06756,-1.535905 -0.87742,-0.52645 -1.274541,-1.655199 -1.47683,-2.599223 -0.20011,-0.933812 0.0307,-1.798911 0.118141,-2.717369 0.0411,-0.431698 0.02151,-0.867591 0.0591,-1.2996117 0.12187,-1.4015511 0.236289,-2.7883271 0.236289,-4.1942001"
       style="display:inline;fill:none;stroke:#ffffff;stroke-width:0.264999;stroke-linecap:butt;stroke-linejoin:miter;stroke-miterlimit:4;stroke-dasharray:none;stroke-opacity:1" />
    <path
       id="path2263"
       d="m 80.034579,22.668969 c 0.0788,-0.472585 0.117559,-0.953602 0.236299,-1.41776 0.41084,-1.606041 0.369872,-0.579745 0.59073,-1.831269 0.24851,-1.408203 -2.021628,-1.285186 -2.36293,-1.831271 -0.066,-0.105608 -0.0854,-0.234291 -0.11815,-0.354439 -0.247959,-0.90918 0.15049,-3.45298 -0.354438,-3.957909"
       style="display:inline;fill:none;stroke:#ffffff;stroke-width:0.264999;stroke-linecap:butt;stroke-linejoin:miter;stroke-miterlimit:4;stroke-dasharray:none;stroke-opacity:1" />
    <path
       id="path2265"
       d="m 74.540768,23.968581 c 0.0398,-1.99459 -0.27595,-3.729342 -2.126628,-4.725861 -0.488011,-0.262774 -0.425921,-0.05129 -0.827032,-0.118146 -0.43797,-0.07299 -0.888979,-0.379829 -1.18146,-0.70888 -0.44236,-0.497654 -0.73641,-1.204962 -0.945179,-1.83127 -0.0487,-0.146089 -0.174152,-0.643665 -0.29536,-0.886099"
       style="display:inline;fill:none;stroke:#ffffff;stroke-width:0.264999;stroke-linecap:butt;stroke-linejoin:miter;stroke-miterlimit:4;stroke-dasharray:none;stroke-opacity:1" />
    <path
       id="path2267"
       d="m 93.621428,22.90526 c 1.06417,-1.204122 1.834322,-2.515564 2.540151,-3.957907 0.147899,-0.302233 0.15255,-0.675987 0.354441,-0.945172 0.0264,-0.03522 0.0838,-0.03157 0.118149,-0.05907 0.36027,-0.288221 0.7438,-0.553267 1.063321,-0.8861 0.459669,-0.478823 0.81148,-1.828145 0.531649,-2.481075 -0.350629,-0.818156 -1.385631,-1.342622 -2.126631,-1.713125 -0.861939,-0.430966 -1.15592,-0.296974 -1.00425,-1.358685 0.219562,-1.5369017 1.35578,-2.8311587 2.185709,-4.0760537 0.375672,-0.5634951 0.565121,-1.183735 0.886101,-1.7721971 0.436911,-0.8009931 0.99773,-1.5207091 1.358691,-2.3629301"
       style="display:inline;fill:none;stroke:#ffffff;stroke-width:0.264999;stroke-linecap:butt;stroke-linejoin:miter;stroke-miterlimit:4;stroke-dasharray:none;stroke-opacity:1" />
    <path
       id="path2269"
       d="m 105.37701,22.609896 c 1.10523,-1.625342 1.45271,-2.249734 3.01273,-3.839763 0.3062,-0.312086 0.69507,-0.532271 1.06332,-0.767952 0.26214,-0.167767 0.66595,-0.209514 0.82703,-0.531659 0.30782,-0.615647 0.50732,-1.331712 0.6498,-2.00849 0.0494,-0.234414 0.0572,-0.477213 0.11815,-0.708879 0.081,-0.307644 0.24744,-0.586513 0.35444,-0.886098 0.15132,-0.423692 0.27287,-0.900178 0.47258,-1.299613"
       style="display:inline;fill:none;stroke:#ffffff;stroke-width:0.264999;stroke-linecap:butt;stroke-linejoin:miter;stroke-miterlimit:4;stroke-dasharray:none;stroke-opacity:1" />
    <path
       id="path4500"
       d="m 138.65121,107.24352 0.25919,0.91479 -1.02151,0.67085 -0.82331,0.80806 -0.80806,1.26545 -0.21345,1.23497 11.67878,-3.91834 -1.57039,-1.23496 -1.43316,-0.27444 -1.06725,0.13722 -0.8843,0.28968 -0.35067,-1.02151 -1.4789,0.45739 z"
       style="display:inline;fill:url(#radialGradient4510);fill-opacity:1;stroke:none;stroke-width:0.264583px;stroke-linecap:butt;stroke-linejoin:miter;stroke-opacity:1"
       sodipodi:nodetypes="cccccccccccccc" />
    <path
       sodipodi:nodetypes="csssc"
       id="path4512"
       d="m 38.724876,107.22651 c -2.97552,-1.29371 -5.111991,0.6611 -5.929477,3.32051 -0.885163,2.87957 0.797785,5.11013 2.932396,5.11013 2.564762,-1e-5 4.635775,-1.20746 5.153255,-3.47145 0.409083,-1.78975 -0.08624,-4.07516 -2.156174,-4.95919 z"
       style="display:inline;fill:url(#radialGradient4520);fill-opacity:1;stroke:none;stroke-width:0.264583px;stroke-linecap:butt;stroke-linejoin:miter;stroke-opacity:1" />
    <path
       sodipodi:nodetypes="ccccc"
       id="path4522"
       d="m 132.04407,38.078023 c 1.51691,4.115163 1.94544,9.082106 0.81934,15.265707 1.85431,1.59557 6.4254,4.829831 8.96969,5.821669 15.86755,3.674259 13.7995,-35.447492 0.0431,-33.593183 -3.68582,3.46366 -7.39345,8.387343 -9.83213,12.505807 z"
       style="display:inline;fill:url(#radialGradient4532);fill-opacity:1;stroke:none;stroke-width:0.264583px;stroke-linecap:butt;stroke-linejoin:miter;stroke-opacity:1" />
  </g>
  <g
     inkscape:groupmode="layer"
     id="layer2"
     inkscape:label="Balloon"
     style="display:inline">
    <path
       style="fill:#ffffff;fill-opacity:1;stroke:#000000;stroke-width:0.264583px;stroke-linecap:butt;stroke-linejoin:miter;stroke-opacity:1"
       d="M 199.17961,61.839598 C 171.49207,58.91228 156.48493,48.84449 158.34006,31.278841 c 2.07037,-19.60378 14.236,-29.7192151 47.93991,-28.7261058 27.31958,0.8049907 47.7116,4.1283789 50.85707,28.4035328 3.76029,29.020078 -33.34341,29.790846 -47.58984,31.127273 l -30.77782,48.893269 -27.33093,-10.34368 25.32887,4.64928 z"
       id="path3255"
       sodipodi:nodetypes="csssccccc" />
    <path
       style="display:inline;fill:#000000;stroke-width:0.0886672"
       d="m 226.96779,29.759007 c 0,-0.04128 0.0979,-0.278535 0.21748,-0.527231 0.28622,-0.595077 0.40345,-1.540191 0.4277,-3.448009 0.0219,-1.723391 -0.0136,-1.862112 -0.42783,-1.673362 -0.20228,0.09216 -0.22716,0.08622 -0.2013,-0.04805 0.0386,-0.200651 0.57445,-0.558452 0.83628,-0.558452 0.37727,0 0.42058,0.25088 0.35915,2.080717 -0.085,2.530961 -0.2698,3.336736 -0.90704,3.954371 -0.16744,0.162292 -0.30444,0.261301 -0.30444,0.22002 z m -8.9554,-0.229029 c 0,-0.04817 0.22943,-0.232 0.50984,-0.408521 0.96924,-0.610146 1.26351,-0.996357 1.26351,-1.658275 0,-0.339526 -0.0431,-0.432025 -0.31034,-0.666699 -0.17068,-0.149864 -0.31033,-0.289638 -0.31033,-0.310611 0,-0.02097 0.13965,-0.245653 0.31033,-0.499289 0.54899,-0.815801 0.38918,-1.689929 -0.36671,-2.005759 -0.53603,-0.22397 -1.25793,-0.07879 -1.39589,0.280719 -0.0957,0.249408 -0.0543,0.698875 0.0807,0.877481 0.18815,0.248743 0.16034,0.469044 -0.079,0.625858 -0.26548,0.17395 -0.45508,0.101259 -0.59086,-0.226529 -0.24825,-0.599339 0.26406,-1.554319 1.05399,-1.964696 0.86809,-0.450969 1.70033,-0.265162 2.07837,0.464013 0.20943,0.403944 0.14359,0.935619 -0.19277,1.556637 l -0.25448,0.469859 0.25338,0.242741 c 0.68231,0.653696 0.24099,1.834962 -1.02233,2.736442 -0.59909,0.42751 -1.02745,0.630391 -1.02745,0.486629 z m -34.85306,-0.344552 c -0.53191,-0.531902 -0.21541,-1.525777 0.75178,-2.36079 l 0.48341,-0.41734 -0.25901,-0.733824 c -0.55098,-1.561043 -0.71831,-1.819385 -1.05996,-1.636539 -0.31865,0.170541 -0.32661,6.88e-4 -0.0131,-0.279449 0.41368,-0.369622 0.78609,-0.328882 1.03311,0.113018 l 0.18014,0.322269 0.30972,-0.265059 c 0.90261,-0.772462 1.8614,-0.572093 1.8614,0.388998 0,0.733359 -0.44742,1.34256 -1.5019,2.044964 -1.13253,0.754395 -1.51279,1.19563 -1.51279,1.755341 0,0.594379 0.83493,1.030385 1.25139,0.653488 0.25648,-0.232109 0.38119,-0.10564 0.16582,0.16816 -0.44665,0.567825 -1.25146,0.685336 -1.69003,0.246763 z m 2.29673,-3.493447 c 0.59366,-0.604898 0.59578,-1.311635 0.005,-1.617218 -0.23361,-0.120806 -0.3429,-0.129382 -0.61396,-0.04817 -0.54217,0.162439 -0.55608,0.231325 -0.24024,1.190168 0.15553,0.472171 0.32563,0.858493 0.37799,0.858493 0.0524,0 0.26448,-0.172472 0.47136,-0.383271 z m 43.7705,3.520162 c -0.33199,-0.358224 -0.36367,-0.738519 -0.10806,-1.296855 0.21358,-0.466519 0.70303,-1.048917 1.11731,-1.329494 l 0.20901,-0.14155 -0.15545,-0.472664 c -0.57571,-1.750471 -0.81487,-2.138344 -1.19357,-1.935675 -0.2886,0.154458 -0.22246,-0.133126 0.0802,-0.348632 0.45543,-0.324292 0.85379,-0.195658 1.05181,0.339637 l 0.0773,0.209028 0.30418,-0.265056 c 0.67745,-0.590312 1.15075,-0.689859 1.57653,-0.331584 0.32465,0.273169 0.41759,0.641082 0.27371,1.083471 -0.19896,0.611791 -0.61711,1.070684 -1.56107,1.713232 -1.06879,0.727512 -1.37807,1.082996 -1.39161,1.599492 -0.0173,0.658184 0.73917,1.099607 1.25963,0.735067 0.36596,-0.256326 0.33141,-0.02918 -0.0496,0.326238 -0.33254,0.310179 -0.42167,0.347811 -0.82388,0.347811 -0.37276,0 -0.48838,-0.04033 -0.66645,-0.232466 z m 2.14141,-3.373069 c 0.38809,-0.296021 0.56519,-0.632527 0.56519,-1.073972 0,-0.66116 -0.75226,-1.003064 -1.34326,-0.610519 l -0.23492,0.156032 0.30053,0.860152 c 0.16528,0.473083 0.30092,0.870127 0.30142,0.882318 0.003,0.06567 0.13407,-0.0028 0.41104,-0.214011 z m -56.86321,3.049761 c -1.3425,-0.519416 -1.83422,-1.809838 -1.18903,-3.120397 0.15146,-0.307664 0.53824,-0.843296 0.85951,-1.190295 l 0.58412,-0.630905 h -0.65456 c -0.46707,0 -0.74882,0.04805 -0.98364,0.167776 -0.41359,0.21086 -0.45259,0.04058 -0.0653,-0.285276 0.4351,-0.366108 0.80847,-0.44148 1.89806,-0.383161 3.31111,0.177223 3.19643,0.176642 3.50369,0.01775 0.41782,-0.216062 0.46143,-0.08424 0.086,0.259853 -0.47504,0.435346 -1.03689,0.52788 -2.38527,0.392848 l -1.07338,-0.107492 -0.52948,0.523021 c -0.72918,0.720291 -0.99672,1.285438 -0.95069,2.008277 0.046,0.722926 0.39111,1.249368 1.06285,1.621444 0.42189,0.233685 0.55733,0.26254 1.22787,0.261593 0.88942,-0.0013 1.30324,-0.175638 1.80339,-0.759947 0.38532,-0.450164 0.47879,-0.800177 0.28685,-1.074205 -0.1929,-0.275402 -0.1746,-0.479873 0.0575,-0.64244 0.24544,-0.171911 0.28851,-0.171789 0.46161,0.0013 0.51151,0.511511 -0.42747,2.047067 -1.65151,2.700795 -0.48886,0.261085 -0.65321,0.301603 -1.31251,0.323572 -0.4468,0.01489 -0.86863,-0.01936 -1.036,-0.08412 z m 18.20117,-0.02706 c -1.28693,-0.471519 -1.78721,-1.808649 -1.15545,-3.088196 0.14212,-0.287838 0.53219,-0.816516 0.86682,-1.174841 l 0.60843,-0.651501 h -0.65501 c -0.4783,0 -0.74815,0.04748 -1.00022,0.175994 -0.48683,0.248197 -0.51276,0.131823 -0.0604,-0.27112 0.4739,-0.422149 0.7311,-0.474252 1.99294,-0.40374 3.12111,0.174408 3.11366,0.174374 3.42001,0.01595 0.42559,-0.220083 0.46097,-0.07719 0.0658,0.265862 -0.48347,0.419741 -1.05977,0.525305 -2.19408,0.401905 -0.4863,-0.0529 -0.97918,-0.09619 -1.09529,-0.09619 -0.27405,0 -1.20516,0.922895 -1.45795,1.445089 -0.24992,0.516271 -0.25023,1.292284 -7.4e-4,1.807714 0.77984,1.610943 3.51871,1.551433 4.20393,-0.09134 0.12881,-0.308808 0.12924,-0.360679 0.005,-0.551051 -0.18446,-0.281518 -0.17351,-0.511166 0.0333,-0.698313 0.37184,-0.336518 0.70878,0.06265 0.58951,0.698405 -0.077,0.410451 -0.74955,1.304544 -1.26858,1.686453 -0.85864,0.63181 -2.03211,0.846013 -2.89756,0.528917 z m 19.43256,0.005 c -1.29162,-0.474374 -1.80043,-1.819182 -1.17032,-3.093193 0.14236,-0.287837 0.53263,-0.816515 0.86727,-1.174841 l 0.60843,-0.651505 h -0.65502 c -0.47829,0 -0.74814,0.04748 -1.00021,0.175994 -0.48683,0.248198 -0.51276,0.131824 -0.0604,-0.271119 0.4739,-0.422149 0.7311,-0.474252 1.99294,-0.40374 3.1211,0.174408 3.11366,0.174374 3.42,0.01596 0.4256,-0.220083 0.46098,-0.07719 0.0658,0.265862 -0.49989,0.433995 -1.02943,0.520604 -2.36515,0.38684 l -1.07338,-0.107494 -0.53281,0.523022 c -0.69343,0.680688 -0.96199,1.201735 -0.96199,1.866422 0,0.931468 0.55531,1.670844 1.45693,1.939835 1.24295,0.370824 2.53899,-0.143485 2.9673,-1.177516 0.10304,-0.248752 0.0998,-0.316186 -0.0247,-0.506066 -0.1901,-0.290125 -0.18124,-0.518378 0.0274,-0.707231 0.37184,-0.336518 0.70878,0.06265 0.58951,0.698405 -0.077,0.410451 -0.74955,1.304543 -1.26858,1.686453 -0.8531,0.627735 -2.03283,0.846202 -2.88313,0.533913 z m 11.78086,-2.34736 c -0.55788,-0.175508 -0.98842,-0.801143 -0.91712,-1.332702 0.0688,-0.512722 0.29979,-0.917482 1.23424,-2.162489 0.8846,-1.178596 1.08397,-1.611351 0.86428,-1.876059 -0.0954,-0.114917 -0.0767,-0.174178 0.11525,-0.366141 0.28849,-0.288498 0.51044,-0.223019 0.51044,0.150589 0,0.434643 -0.18615,0.772041 -1.08537,1.967212 -1.24019,1.648358 -1.3598,2.132766 -0.68601,2.7783 0.21469,0.205684 0.36187,0.259886 0.78978,0.290838 0.47293,0.03421 0.54886,0.01509 0.75376,-0.189807 0.261,-0.261004 0.306,-0.719355 0.0977,-0.994801 -0.25885,-0.342222 -0.11601,-0.748452 0.26318,-0.748452 0.29381,0 0.399,0.177354 0.399,0.672718 0,0.371848 -0.0552,0.541988 -0.28817,0.888522 -0.48527,0.721759 -1.39209,1.129544 -2.05093,0.922272 z m -57.13449,-0.148218 c -0.16255,-0.06559 -0.13509,-0.335172 0.0513,-0.503872 0.18183,-0.164557 0.42004,-0.192069 0.50285,-0.05808 0.0301,0.04877 0.0886,0.08867 0.12984,0.08867 0.11144,0 0.9785,-1.197204 0.9785,-1.351064 0,-0.403747 -0.61034,-0.751812 -0.86746,-0.494693 -0.0577,0.05771 -0.13538,0.07447 -0.1726,0.03724 -0.11249,-0.112495 0.57178,-0.674171 0.82133,-0.674171 0.315,0 0.5345,0.271443 1.14149,1.411594 0.6267,1.177191 0.68072,1.233357 0.99084,1.03016 0.36716,-0.240573 0.37771,-0.06187 0.0159,0.269686 -0.36086,0.330702 -0.68047,0.386948 -0.90769,0.159734 -0.0789,-0.07893 -0.28178,-0.418085 -0.45078,-0.753672 -0.169,-0.335587 -0.33766,-0.610159 -0.3748,-0.610159 -0.0371,0 -0.2457,0.244659 -0.46346,0.543685 -0.58862,0.8083 -0.98986,1.068533 -1.3953,0.904937 z m 13.31503,-0.02718 c -0.28436,-0.115036 -0.6442,-0.593907 -0.71005,-0.944932 -0.12494,-0.665996 0.37293,-1.471122 1.13263,-1.831623 1.15748,-0.549262 2.35736,0.613871 1.79121,1.736355 -0.44005,0.87248 -1.45247,1.348187 -2.21379,1.0402 z m 1.60728,-0.663736 c 0.65981,-0.659816 -0.29097,-1.875157 -1.30786,-1.671779 -0.36569,0.07314 -0.55675,0.514154 -0.42873,0.989594 0.21167,0.786089 1.2319,1.186868 1.73659,0.682185 z m 5.89234,0.678707 c 0,-0.03901 0.0467,-0.117655 0.10383,-0.174759 0.0651,-0.06511 0.10644,-0.450177 0.11083,-1.032587 0.008,-1.052834 -0.0605,-1.214461 -0.44065,-1.041234 -0.20228,0.09216 -0.22715,0.08622 -0.20129,-0.04805 0.0386,-0.200651 0.57444,-0.558452 0.83628,-0.558452 0.30368,0 0.38901,0.252176 0.38901,1.149693 0,0.854051 -0.11368,1.269331 -0.43557,1.591221 -0.18804,0.188045 -0.36244,0.242981 -0.36244,0.114172 z m 10.01941,0 c 0,-0.03901 0.0491,-0.120013 0.10906,-0.179999 0.0762,-0.07625 0.12637,-0.715234 0.16656,-2.123582 0.0658,-2.305291 0.14862,-2.702205 0.69095,-3.311037 0.19016,-0.213486 0.37026,-0.364299 0.40022,-0.33514 0.03,0.02916 -0.0449,0.23085 -0.1664,0.448201 -0.27018,0.483395 -0.3983,1.31211 -0.40063,2.591263 l -0.002,0.964466 0.40436,-0.372723 c 0.4399,-0.405493 0.87637,-0.625202 1.242,-0.625202 0.26148,0 0.83632,0.511938 0.83632,0.744805 0,0.206554 0.0616,0.180773 0.50903,-0.213076 0.76613,-0.674375 1.49882,-0.663241 1.82672,0.02776 0.53965,1.13723 -0.68229,2.811926 -1.75216,2.401378 -0.21882,-0.08397 -0.17011,-0.45453 0.0814,-0.619338 0.2059,-0.134915 0.23802,-0.134526 0.45169,0.0055 0.33424,0.219006 0.6201,0.11607 0.74721,-0.26906 0.1926,-0.583604 -0.0557,-1.259213 -0.53601,-1.458145 -0.22071,-0.09142 -0.30947,-0.08171 -0.59418,0.06497 -0.27217,0.140224 -0.40098,0.306909 -0.68938,0.892088 -0.5346,1.084733 -0.99904,1.484521 -1.652,1.422066 -0.24948,-0.02386 -0.30322,-0.06782 -0.32621,-0.266852 -0.0203,-0.175734 0.0321,-0.27733 0.19951,-0.387033 0.20958,-0.137326 0.2438,-0.137752 0.44557,-0.0056 0.29601,0.193952 0.45487,0.180123 0.61876,-0.05387 0.32715,-0.467075 0.0572,-1.476568 -0.44606,-1.667897 -0.38509,-0.146409 -0.97708,0.172967 -1.18993,0.641959 -0.095,0.209364 -0.17364,0.471719 -0.17471,0.583011 -0.003,0.282515 -0.21741,0.766782 -0.43752,0.986887 -0.18804,0.188046 -0.36244,0.242982 -0.36244,0.114173 z m 6.87827,-0.261568 c 0.16145,-0.452415 0.16351,-1.710925 0.003,-1.930224 -0.10699,-0.146316 -0.15476,-0.154264 -0.36139,-0.06012 -0.21034,0.09584 -0.23467,0.09062 -0.2086,-0.04472 0.0386,-0.200651 0.57444,-0.558452 0.83628,-0.558452 0.24333,0 0.389,0.234498 0.389,0.626205 v 0.283195 l 0.28817,-0.233114 c 1.11166,-0.899275 1.85205,-0.97521 2.34703,-0.240712 0.59498,0.882897 -0.30662,2.488416 -1.39829,2.489992 -0.53422,7.68e-4 -0.72026,-0.401207 -0.31006,-0.669977 0.2008,-0.131567 0.23739,-0.130768 0.47638,0.0104 0.35972,0.212496 0.68033,0.117126 0.8046,-0.23934 0.14822,-0.425203 0.11811,-0.728506 -0.10529,-1.060366 -0.3972,-0.59005 -0.95441,-0.633709 -1.61894,-0.126847 -0.2918,0.22256 -0.34694,0.34359 -0.5711,1.253358 -0.0865,0.351258 -0.43775,0.833224 -0.60715,0.833224 -0.0454,0 -0.0291,-0.149626 0.0362,-0.332502 z m 29.17154,0 c 0.16145,-0.452415 0.16351,-1.710925 0.003,-1.930224 -0.10698,-0.146316 -0.15476,-0.154264 -0.36139,-0.06012 -0.21034,0.09584 -0.23466,0.09062 -0.2086,-0.04472 0.0386,-0.200651 0.57444,-0.558452 0.83627,-0.558452 0.24465,0 0.38902,0.234847 0.38902,0.632837 v 0.289825 l 0.3325,-0.319615 c 0.41606,-0.39993 0.96158,-0.691714 1.29323,-0.691714 0.28172,0 0.85695,0.499954 0.85695,0.744805 0,0.206554 0.0616,0.180773 0.50903,-0.213076 0.69844,-0.6148 1.34783,-0.682389 1.7072,-0.177691 0.3798,0.533377 0.3447,1.225581 -0.0959,1.890731 -0.3245,0.489889 -0.74637,0.769918 -1.15992,0.769918 -0.52748,0 -0.70511,-0.404728 -0.29544,-0.673158 0.20428,-0.133847 0.23882,-0.134007 0.44022,-0.002 0.35482,0.232487 0.57199,0.182725 0.71699,-0.164288 0.0707,-0.169119 0.12847,-0.412465 0.12847,-0.540771 0,-0.379219 -0.27005,-0.841221 -0.57739,-0.987778 -0.25836,-0.123206 -0.31266,-0.121362 -0.61223,0.02079 -0.27313,0.129613 -0.39448,0.286941 -0.7177,0.9305 -0.57721,1.149313 -1.20591,1.611542 -1.85379,1.362929 -0.21882,-0.08397 -0.17011,-0.45453 0.0814,-0.619338 0.20427,-0.133846 0.23881,-0.134007 0.44022,-0.002 0.1202,0.07876 0.27754,0.143198 0.34964,0.143198 0.41024,0 0.56602,-1.104113 0.21817,-1.546341 -0.29542,-0.375571 -0.5579,-0.435256 -1.01837,-0.231568 -0.30729,0.135934 -0.4319,0.257945 -0.56667,0.554908 -0.095,0.209364 -0.17452,0.480412 -0.17666,0.60233 -0.006,0.323293 -0.31118,0.945826 -0.51864,1.056854 -0.2623,0.140376 -0.26982,0.127631 -0.13981,-0.236681 z m 6.73668,0.02502 c 0.17034,-0.407686 0.17383,-1.724599 0.005,-1.955239 -0.10582,-0.144736 -0.15604,-0.153681 -0.35466,-0.06318 -0.3695,0.168353 -0.29673,-0.10598 0.0995,-0.375248 0.57704,-0.392103 0.91043,-0.242706 0.91043,0.407973 v 0.289818 l 0.3325,-0.319615 c 0.41605,-0.39993 0.96158,-0.691714 1.29323,-0.691714 0.28172,0 0.85695,0.499954 0.85695,0.744805 0,0.206554 0.0616,0.180773 0.50903,-0.213076 0.44382,-0.390667 0.94946,-0.58547 1.29473,-0.498812 0.32192,0.08079 0.61147,0.537589 0.65984,1.040922 0.0848,0.882964 -0.72394,1.940848 -1.48383,1.940848 -0.54529,0 -0.73218,-0.39966 -0.31476,-0.673158 0.20427,-0.133847 0.23881,-0.134007 0.44022,-0.002 0.35482,0.232487 0.57199,0.182723 0.71698,-0.164289 0.0707,-0.169118 0.12848,-0.412466 0.12848,-0.540772 0,-0.379219 -0.27006,-0.841221 -0.57739,-0.987777 -0.25745,-0.122766 -0.31277,-0.121311 -0.60176,0.01582 -0.25873,0.122777 -0.39399,0.297681 -0.72331,0.935303 -0.48931,0.947392 -0.97481,1.416916 -1.46513,1.416916 -0.54285,0 -0.72847,-0.400349 -0.31211,-0.673158 0.20428,-0.133847 0.23882,-0.134007 0.44022,-0.002 0.1202,0.07876 0.27888,0.143199 0.35262,0.143199 0.22456,0 0.42724,-0.414108 0.4184,-0.854851 -0.009,-0.447229 -0.16524,-0.750395 -0.49976,-0.969582 -0.43671,-0.286141 -1.19773,0.179796 -1.3698,0.838665 -0.0524,0.200803 -0.13832,0.529574 -0.19082,0.730602 -0.0925,0.354103 -0.42552,0.78717 -0.60531,0.78717 -0.0507,0 -0.0336,-0.130664 0.0403,-0.307488 z m -53.0719,-3.527569 c 0,-0.175799 1.42337,-1.852857 1.53971,-1.814127 0.26648,0.08872 0.1208,0.3744 -0.53514,1.049471 -0.74115,0.762765 -1.00457,0.963272 -1.00457,0.764656 z m 39.9553,0.03966 c -0.0262,-0.04244 0.20017,-0.25914 0.50311,-0.481569 0.71316,-0.523642 0.88132,-0.716411 0.84551,-0.969262 -0.0339,-0.239364 -0.44081,-0.336067 -0.65747,-0.156251 -0.0714,0.05924 -0.15861,0.07888 -0.19384,0.04365 -0.10213,-0.102132 0.57686,-0.670552 0.80098,-0.670552 0.59191,0 0.79499,0.638216 0.36549,1.148635 -0.35226,0.418639 -1.5806,1.219932 -1.66378,1.085347 z m 8.5457,-0.01112 c 0,-0.102069 1.53078,-1.448648 1.82707,-1.607219 0.23257,-0.124467 0.46391,-0.0096 0.35043,0.174038 -0.0797,0.128905 -2.0005,1.515665 -2.09938,1.515665 -0.043,0 -0.0781,-0.03712 -0.0781,-0.08248 z m -68.21573,-0.345667 c -0.20066,-0.221723 -0.18405,-0.422336 0.0484,-0.58518 0.18,-0.126074 0.21105,-0.121813 0.399,0.05476 0.26051,0.244729 0.25711,0.371252 -0.0147,0.549369 -0.26977,0.17676 -0.25501,0.177406 -0.43271,-0.01895 z m 1.1888,-0.05363 -0.20271,-0.215778 0.23965,-0.23965 0.23965,-0.239651 0.23134,0.231338 0.23133,0.231339 -0.21052,0.224089 c -0.25892,0.275605 -0.27736,0.275895 -0.52874,0.0083 z m 10.8096,-0.0083 -0.21052,-0.22409 0.2394,-0.239398 0.2394,-0.239399 0.23939,0.239399 0.2394,0.239398 -0.21052,0.22409 c -0.11578,0.123249 -0.23651,0.224089 -0.26827,0.224089 -0.0318,0 -0.15249,-0.10084 -0.26828,-0.224089 z m 1.24134,0 -0.21052,-0.22409 0.2394,-0.239398 0.2394,-0.239399 0.2394,0.239399 0.2394,0.239398 -0.21053,0.22409 c -0.11578,0.123249 -0.23651,0.224089 -0.26827,0.224089 -0.0318,0 -0.15249,-0.10084 -0.26828,-0.224089 z m 3.55926,0.01337 -0.19796,-0.210716 0.22179,-0.254788 0.22179,-0.254786 0.24445,0.241414 0.24444,0.241413 -0.21052,0.22409 c -0.25832,0.274964 -0.27777,0.275461 -0.52399,0.01337 z m 9.8295,-0.01337 -0.21052,-0.22409 0.2394,-0.239398 0.2394,-0.239399 0.2394,0.239399 0.2394,0.239398 -0.21052,0.22409 c -0.11579,0.123249 -0.23652,0.224089 -0.26828,0.224089 -0.0318,0 -0.15249,-0.10084 -0.26828,-0.224089 z m 1.24134,0 -0.21052,-0.22409 0.2394,-0.239398 0.2394,-0.239399 0.2394,0.239399 0.2394,0.239398 -0.21052,0.22409 c -0.11579,0.123249 -0.23651,0.224089 -0.26828,0.224089 -0.0318,0 -0.15249,-0.10084 -0.26828,-0.224089 z m 4.22772,0.06194 c -0.19783,-0.218601 -0.18473,-0.354782 0.0528,-0.548463 0.19441,-0.158553 0.20458,-0.157957 0.399,0.02341 0.25137,0.2345 0.25199,0.374377 0.003,0.549173 -0.249,0.174406 -0.27582,0.172982 -0.4542,-0.02412 z m 1.1888,-0.05363 -0.20271,-0.215777 0.23965,-0.23965 0.23965,-0.239651 0.23134,0.231338 0.23133,0.231338 -0.21052,0.22409 c -0.25891,0.275605 -0.27736,0.275895 -0.52874,0.0083 z m 12.76809,0 -0.20271,-0.215777 0.23965,-0.23965 0.23965,-0.239651 0.23134,0.231338 0.23133,0.231338 -0.21052,0.22409 c -0.25891,0.275605 -0.27736,0.275895 -0.52874,0.0083 z m 1.23353,-0.0083 -0.21052,-0.224089 0.2394,-0.239399 0.2394,-0.239398 0.2394,0.239398 0.23939,0.239399 -0.21052,0.224089 c -0.11578,0.12325 -0.23651,0.22409 -0.26827,0.22409 -0.0318,0 -0.15249,-0.10084 -0.26828,-0.22409 z m 3.51838,0.06194 c -0.20118,-0.222295 -0.18393,-0.422422 0.0506,-0.586667 0.18419,-0.129014 0.2119,-0.123615 0.41673,0.08122 l 0.21942,0.219421 -0.21052,0.224089 c -0.25122,0.267417 -0.28614,0.27196 -0.4762,0.06194 z m 12.08934,-0.05952 -0.20825,-0.221668 0.20355,-0.216665 c 0.19106,-0.203374 0.21648,-0.208187 0.41446,-0.07847 0.25211,0.165189 0.2707,0.390871 0.0488,0.591728 -0.20804,0.188271 -0.21185,0.187648 -0.45852,-0.07493 z m -62.32411,-0.877096 -0.19925,-0.212091 0.24881,-0.230711 0.24882,-0.230712 0.21871,0.218713 0.21871,0.218714 -0.21052,0.224089 c -0.25848,0.275141 -0.27766,0.275579 -0.52528,0.012 z m 12.04304,-0.01701 -0.21495,-0.229106 0.25695,-0.221262 0.25696,-0.221263 0.22628,0.226279 0.22627,0.226279 -0.21052,0.224089 c -0.26041,0.277194 -0.27634,0.277047 -0.54099,-0.005 z m 14.63011,0 -0.21496,-0.229106 0.25696,-0.221262 0.25695,-0.221263 0.22628,0.226279 0.22628,0.226279 -0.21052,0.224089 c -0.26042,0.277194 -0.27635,0.277047 -0.54099,-0.005 z m 5.47349,0.06696 c -0.19511,-0.215593 -0.18547,-0.302563 0.059,-0.53223 l 0.20575,-0.193288 0.19326,0.205713 c 0.24396,0.259691 0.24318,0.370924 -0.004,0.543926 -0.249,0.174406 -0.27582,0.172981 -0.4542,-0.02412 z m 13.95689,-0.05363 -0.20271,-0.215777 0.23965,-0.23965 0.23965,-0.23965 0.23134,0.231337 0.23133,0.231339 -0.21052,0.224089 c -0.25891,0.275605 -0.27736,0.275895 -0.52874,0.0083 z"
       id="path2320" />
    <path
       style="display:inline;fill:#000000;stroke-width:0.0583491"
       d="m 207.66086,15.072316 c -1.06851,-1.911979 -1.28639,-2.322856 -1.28639,-2.42579 0,-0.07598 0.17028,-0.227681 0.5277,-0.470136 0.29024,-0.19688 0.52771,-0.374889 0.52771,-0.395576 0,-0.04205 -1.45404,-0.888648 -1.48186,-0.862801 -0.0264,0.02463 -0.0998,2.829562 -0.10057,3.848785 l -7.9e-4,0.890348 h -0.1649 -0.16491 v -2.530209 -2.53021 l 0.16001,-0.05705 c 0.14578,-0.05197 0.24828,-0.0071 1.15267,0.504347 0.60018,0.33943 1.00883,0.606199 1.03357,0.674716 0.0401,0.110939 -0.12835,0.257506 -0.97321,0.847011 l -0.1771,0.123567 0.33253,0.593564 c 1.05694,1.886652 1.2602,2.250494 1.2853,2.300548 0.0153,0.03043 -0.0437,0.08081 -0.13113,0.111965 -0.15547,0.05543 -0.167,0.0421 -0.53873,-0.623083 z m -22.78978,-1.750719 c 3.7e-4,-1.31294 0.0194,-2.509483 0.0423,-2.658985 0.0596,-0.388705 0.21484,-0.407898 0.77393,-0.09573 1.17738,0.657404 1.80333,1.575026 2.65256,3.888578 0.43306,1.179797 0.44313,1.249818 0.18022,1.252505 -0.0903,9e-4 -0.10336,-0.02876 -0.57768,-1.315375 -0.73727,-1.999871 -1.31962,-2.884726 -2.2962,-3.489003 l -0.34693,-0.214673 -0.0401,2.18733 c -0.0221,1.203033 -0.0444,2.332498 -0.0495,2.509922 -0.009,0.307735 -0.0169,0.32259 -0.17424,0.32259 h -0.16492 l 6.1e-4,-2.387163 z m 7.74734,2.271031 c -0.0174,-0.03548 -0.0238,-1.225841 -0.0144,-2.645235 l 0.0172,-2.580717 0.1792,-0.01617 0.17919,-0.01617 0.0187,0.582625 0.0187,0.582624 1.05541,0.638312 c 0.7207,0.435877 1.06049,0.673638 1.07141,0.749707 0.0127,0.08902 -0.20177,0.241006 -1.06797,0.756575 l -1.08398,0.645179 -0.003,0.68389 -0.003,0.68389 h -0.16699 c -0.0918,0 -0.18119,-0.02904 -0.19855,-0.06452 z m 1.26185,-2.183187 c 0.4503,-0.27105 0.81834,-0.50912 0.81787,-0.529047 -5.3e-4,-0.01992 -0.0878,-0.08268 -0.19407,-0.139459 -0.10625,-0.05678 -0.49175,-0.284582 -0.85665,-0.506236 l -0.66346,-0.403007 v 1.035283 c 0,0.569406 0.0175,1.035283 0.0388,1.035283 0.0213,0 0.40721,-0.221767 0.85752,-0.492817 z m 17.63931,-0.353297 c 0,-2.329988 0.0109,-2.604285 0.10491,-2.6325 0.0577,-0.01732 0.1319,-0.01844 0.1649,-0.0025 0.0336,0.01626 0.0603,0.646041 0.0608,1.432467 l 8e-4,1.403445 1.31572,1.030611 c 1.24805,0.977592 1.31014,1.035464 1.20668,1.12491 -0.10383,0.08978 -0.16451,0.05095 -1.26769,-0.81125 -0.63725,-0.498053 -1.1806,-0.90555 -1.20744,-0.90555 -0.0268,0 -0.0488,0.441303 -0.0488,0.980672 v 0.980673 h -0.16492 -0.16489 z m 6.40765,2.555663 c -0.0706,-0.03558 0.0744,-0.31418 0.68033,-1.307595 l 0.77007,-1.262385 -0.29447,-0.511746 c -0.16197,-0.28146 -0.49192,-0.846072 -0.73323,-1.254693 -0.24131,-0.408621 -0.4233,-0.774438 -0.40442,-0.812926 0.0189,-0.03849 0.0872,-0.06969 0.15183,-0.06934 0.11402,6.05e-4 0.44409,0.508933 1.19707,1.843602 0.13183,0.233666 0.25676,0.425284 0.27762,0.425818 0.0209,5.42e-4 0.33072,-0.480977 0.68857,-1.070025 0.35784,-0.589049 0.68213,-1.098612 0.72064,-1.132362 0.0538,-0.04713 0.0995,-0.04425 0.19718,0.01241 0.1224,0.071 0.10411,0.111183 -0.4857,1.067844 -0.3371,0.546739 -0.67954,1.110203 -0.76099,1.252142 l -0.1481,0.258072 0.72917,1.22946 c 0.59741,1.007322 0.71192,1.23799 0.6338,1.276665 -0.0525,0.02596 -0.12922,0.04756 -0.17063,0.048 -0.0414,3.97e-4 -0.36764,-0.497633 -0.72497,-1.106818 -0.35734,-0.609183 -0.66999,-1.091133 -0.69477,-1.070997 -0.0248,0.02013 -0.3398,0.524366 -0.70003,1.120512 -0.36023,0.596145 -0.69642,1.089679 -0.7471,1.09674 -0.0506,0.0071 -0.13253,-0.0075 -0.18187,-0.03237 z m 7.11478,-2.554865 c 0,-2.304047 0.0119,-2.607895 0.10396,-2.667715 0.1346,-0.08741 0.22244,-0.0456 1.26478,0.601941 0.60447,0.37552 0.80805,0.531287 0.80805,0.618274 0,0.08913 -0.21176,0.24082 -0.907,0.649695 l -0.90699,0.533413 -0.0175,1.432298 -0.0175,1.432298 h -0.16387 -0.16387 z m 1.12435,-1.060464 c 0.64313,-0.368178 0.66417,-0.386339 0.53843,-0.464529 -0.88776,-0.55207 -1.26414,-0.778165 -1.2954,-0.778165 -0.0207,0 -0.0375,0.373559 -0.0375,0.830131 0,0.501589 0.0248,0.82332 0.0626,0.812925 0.0345,-0.0095 0.3638,-0.189626 0.7319,-0.400362 z m -27.39756,1.092854 c 0.0393,-2.495359 0.0487,-2.59055 0.25705,-2.59283 0.0397,-4.39e-4 0.37634,0.17454 0.74804,0.388832 l 0.67581,0.389622 0.59308,-0.396894 c 0.58583,-0.392045 0.59463,-0.395679 0.72033,-0.297319 0.12571,0.09836 0.11921,0.104917 -0.53194,0.53632 -0.36257,0.240208 -0.70161,0.443856 -0.75344,0.452551 -0.0518,0.0087 -0.35658,-0.136282 -0.67724,-0.322169 -0.32066,-0.185888 -0.60527,-0.338167 -0.63249,-0.338398 -0.0271,-2.34e-4 -0.0489,0.191198 -0.0481,0.425398 l 0.002,0.425818 0.69623,0.405368 c 0.69581,0.405131 0.69631,0.405311 0.83969,0.30662 0.0789,-0.05431 0.34816,-0.242563 0.59834,-0.418337 0.35617,-0.250232 0.47428,-0.307002 0.5442,-0.261589 0.0491,0.0319 0.0893,0.08634 0.0893,0.120977 0,0.09484 -1.22422,0.95667 -1.35895,0.95667 -0.0644,0 -0.38991,-0.162586 -0.72337,-0.361301 -0.33347,-0.198715 -0.62472,-0.361301 -0.64721,-0.361301 -0.0225,0 -0.0409,0.778087 -0.0409,1.729081 v 1.729079 h -0.19467 -0.19466 z M 178.01036,12.9732 v -2.580717 h 0.19788 0.19789 v 0.631501 0.631501 l 0.82176,-0.641465 c 0.81769,-0.638281 0.82246,-0.640981 0.95933,-0.544049 l 0.13758,0.09742 -0.95934,0.751906 -0.95933,0.751906 v 0.488967 0.488966 l 0.85473,-0.667315 c 0.84776,-0.661881 0.85583,-0.666531 0.99096,-0.570845 0.13573,0.09612 0.13255,0.09924 -0.86843,0.851747 l -1.00466,0.755276 -0.005,0.255035 c -0.004,0.14027 -0.0118,0.620852 -0.0193,1.067961 l -0.0136,0.812926 h -0.16492 -0.1649 z m 53.75589,2.542006 c -0.003,-0.0213 -0.005,-1.165194 -0.007,-2.542006 l -0.003,-2.503296 0.1718,-0.01633 c 0.17111,-0.01626 0.17182,-0.01479 0.17492,0.361301 l 0.003,0.377633 0.98283,0.581233 c 1.0302,0.609236 1.20633,0.694594 1.18485,0.574194 -0.007,-0.03934 -0.009,-0.497024 -0.004,-1.017077 l 0.008,-0.945554 0.14842,0.0165 0.14843,0.01649 0.0171,2.567814 0.0171,2.567813 h -0.16446 -0.16445 l -0.0175,-1.376413 -0.0176,-1.376414 -1.02243,-0.608677 c -0.56233,-0.334772 -1.04469,-0.609605 -1.07189,-0.610739 -0.0272,-0.0012 -0.0495,0.892157 -0.0495,1.985092 v 1.987151 h -0.16491 c -0.0907,0 -0.1667,-0.01742 -0.16889,-0.03871 z"
       id="path3483" />
    <path
       id="path1209"
       style="display:inline;fill:#000000;stroke-width:0.126358"
       d="m 185.26923,49.051867 c 0.41284,-0.579779 1.14285,-1.163109 1.90011,-1.518288 0.59214,-0.277736 0.87697,-0.328671 1.83795,-0.328671 0.96099,0 1.24582,0.05094 1.83796,0.328671 0.75724,0.355179 1.48728,0.938509 1.90011,1.518288 l 0.25941,0.364304 h -3.99748 -3.99747 z m 0.41333,-3.26848 c 0.0371,-0.193374 0.25175,-0.229058 1.71088,-0.284306 1.44303,-0.05463 1.65231,-0.08881 1.54837,-0.252717 -0.21149,-0.333494 -0.14266,-1.212871 0.12012,-1.533884 l 0.24412,-0.298302 0.21524,0.505431 c 0.19579,0.45979 0.19798,0.553923 0.0243,1.04245 l -0.19099,0.537022 h 1.67665 c 1.32185,0 1.69104,0.0375 1.74466,0.177181 0.0374,0.09746 0.034,0.211175 -0.008,0.252717 -0.0414,0.04154 -1.6623,0.07554 -3.60175,0.07554 -3.29018,0 -3.52338,-0.01479 -3.48392,-0.221125 z" />
    <path
       id="path1207"
       style="display:inline;fill:#000000;stroke-width:0.126358"
       d="m 174.61915,49.695825 c -0.0963,-0.155852 0.679,-1.416875 0.87114,-1.416875 0.0947,0 0.27272,0.170585 0.39588,0.379074 0.12314,0.208489 0.25433,0.378714 0.29146,0.378274 0.0371,-5.29e-4 0.1644,-0.171024 0.28278,-0.379073 0.11831,-0.208053 0.27739,-0.378275 0.35336,-0.378275 0.0759,0 0.23497,0.170222 0.35336,0.378275 0.26944,0.473522 0.3498,0.473628 0.59432,7.93e-4 0.25056,-0.484536 0.50913,-0.481507 0.76277,0.0089 0.16084,0.311052 0.23571,0.358916 0.37742,0.241308 0.0972,-0.08069 0.21123,-0.255296 0.25337,-0.388016 0.11312,-0.356585 0.4208,-0.293283 0.66563,0.136972 0.11831,0.208052 0.24564,0.378634 0.28278,0.379076 0.0371,5.29e-4 0.16829,-0.16978 0.29144,-0.378272 0.12313,-0.208492 0.29221,-0.379074 0.37564,-0.379074 0.17476,0 0.84486,1.05641 0.84486,1.331907 0,0.314423 -0.3135,0.20315 -0.5485,-0.194685 -0.27854,-0.471517 -0.34573,-0.471432 -0.61444,7.93e-4 -0.27139,0.476944 -0.43532,0.476944 -0.70671,0 -0.26946,-0.473516 -0.34982,-0.473625 -0.59432,-7.93e-4 -0.2514,0.486156 -0.44814,0.478128 -0.73749,-0.0301 l -0.23209,-0.407567 -0.36908,0.439957 c -0.362,0.431496 -0.37289,0.435097 -0.56632,0.187241 -0.10854,-0.138989 -0.25021,-0.338008 -0.31493,-0.442251 -0.10455,-0.168479 -0.13075,-0.168479 -0.23541,0 -0.0647,0.104248 -0.20647,0.303257 -0.31495,0.442251 -0.19344,0.247856 -0.20433,0.244255 -0.56633,-0.187241 l -0.36909,-0.439951 -0.23206,0.407569 c -0.2233,0.392189 -0.46554,0.518398 -0.59449,0.309748 z m -0.20619,-3.312197 c 0,-0.673907 0.0281,-0.758147 0.25272,-0.758147 0.22208,0 0.25272,-0.08424 0.25272,-0.694966 0,-0.533511 0.0439,-0.694967 0.18954,-0.694967 0.1455,0 0.18954,0.161456 0.18954,0.694967 0,0.657059 0.0172,0.694966 0.31588,0.694966 0.29866,0 0.31589,-0.03791 0.31589,-0.694966 0,-0.533511 0.0441,-0.694967 0.18954,-0.694967 0.14552,0 0.18954,0.161456 0.18954,0.694967 0,0.657059 0.0171,0.694966 0.3159,0.694966 0.29866,0 0.31589,-0.03791 0.31589,-0.694966 0,-0.533511 0.044,-0.694967 0.18953,-0.694967 0.1458,0 0.18953,0.162433 0.18953,0.703754 0,0.657548 0.0186,0.701106 0.28432,0.663379 0.24767,-0.03517 0.28922,-0.125841 0.32248,-0.703757 0.0274,-0.4772 0.0896,-0.663376 0.22115,-0.663376 0.13775,0 0.18293,0.173722 0.18293,0.703754 0,0.657548 0.0186,0.701106 0.2843,0.663379 0.24769,-0.03517 0.28922,-0.125841 0.32251,-0.703757 0.0274,-0.4772 0.0896,-0.663376 0.22111,-0.663376 0.13744,0 0.18294,0.172603 0.18294,0.694967 0,0.61073 0.0307,0.694966 0.25271,0.694966 0.26304,0 0.28812,-0.06621 0.26345,-0.694966 -0.008,-0.208491 0.0366,-0.457438 0.0993,-0.553212 0.20544,-0.312951 0.39528,-0.01328 0.39528,0.623848 0,0.540094 0.0342,0.62433 0.25272,0.62433 0.13895,0 0.25583,-0.04265 0.25962,-0.09476 0.005,-0.05212 0.0216,-0.335357 0.0397,-0.629409 0.018,-0.294056 0.0681,-0.569839 0.11094,-0.612855 0.18878,-0.188777 0.34776,0.137018 0.34776,0.712703 0,0.540094 0.034,0.62433 0.25271,0.62433 0.22463,0 0.2527,0.08423 0.2527,0.758147 v 0.758148 h -3.72755 -3.72755 z" />
    <path
       id="path1199"
       style="display:inline;fill:#000000;stroke-width:0.126358"
       d="m 229.39118,50.120974 c -1.66873,-0.448755 -2.60775,-2.267969 -2.08458,-4.038624 0.23845,-0.807072 1.26521,-1.767962 2.1042,-1.969236 2.10931,-0.50601 3.95893,0.914758 3.95893,3.040997 0,1.36588 -0.90254,2.567929 -2.22235,2.959875 -0.74477,0.221168 -0.95663,0.222009 -1.75621,0.007 z m 2.00369,-0.564902 c 1.28186,-0.582213 1.90984,-2.223809 1.33486,-3.489467 -0.25146,-0.553496 -0.98993,-1.2694 -1.5158,-1.469457 -0.56107,-0.213442 -1.58877,-0.15051 -2.14075,0.131096 -2.06217,1.052039 -1.9204,4.067561 0.23161,4.926423 0.50714,0.202401 1.53401,0.153963 2.09006,-0.09858 z m -1.56031,-1.852898 c -0.5205,-0.364567 -0.23041,-1.319591 0.40081,-1.319591 0.45418,0 0.70828,0.248365 0.70828,0.692248 0,0.416367 -0.34379,0.824048 -0.69496,0.824048 -0.0733,0 -0.25969,-0.08852 -0.41413,-0.196705 z m 0.78418,-0.254577 c 0.24131,-0.241305 0.24566,-0.320516 0.0336,-0.61061 -0.2635,-0.36036 -0.77335,-0.220057 -0.82437,0.226853 -0.0622,0.544214 0.40412,0.770464 0.79084,0.383757 z" />
    <path
       id="path1187"
       style="display:inline;fill:#000000;stroke-width:0.126358"
       d="m 218.95512,50.188059 c -0.28901,-0.185621 -0.0315,-0.392814 0.48831,-0.392814 0.73644,0 1.01257,-0.418161 1.01257,-1.533334 v -0.867466 h -0.94767 c -0.54755,0 -0.94768,-0.05335 -0.94768,-0.126362 0,-0.073 0.40013,-0.126363 0.94768,-0.126363 0.75813,0 0.94767,-0.03791 0.94767,-0.189536 0,-0.151631 -0.18954,-0.189537 -0.94767,-0.189537 -1.20921,0 -1.24352,-0.229521 -0.0417,-0.278771 0.58445,-0.02394 0.92452,-0.09319 0.9582,-0.195072 0.0387,-0.117067 -0.19578,-0.157945 -0.90599,-0.157945 -1.21692,0 -1.25988,-0.229286 -0.0522,-0.278771 0.58447,-0.02394 0.92453,-0.09319 0.95822,-0.195072 0.0388,-0.11707 -0.1958,-0.157948 -0.90598,-0.157948 -0.55458,0 -0.95823,-0.05324 -0.95823,-0.126362 0,-0.07227 0.38041,-0.126363 0.88849,-0.126363 0.73589,0 0.9002,-0.03797 0.95679,-0.221128 0.12284,-0.397481 0.25413,-0.58375 0.58637,-0.831794 0.3252,-0.242806 0.32996,-0.24257 0.78592,0.03924 0.30089,0.185957 0.48386,0.409139 0.53174,0.6486 0.0728,0.363257 0.0778,0.365088 1.01237,0.365088 0.59406,0 0.91065,0.04644 0.86126,0.126362 -0.043,0.0695 -0.47278,0.126362 -0.95515,0.126362 -0.69535,0 -0.87705,0.03926 -0.87705,0.189537 0,0.15176 0.19038,0.189537 0.95515,0.189537 0.60457,0 0.92649,0.04637 0.87705,0.126363 -0.043,0.0695 -0.47278,0.126362 -0.95515,0.126362 -0.69535,0 -0.87705,0.03926 -0.87705,0.189537 0,0.151759 0.19038,0.189537 0.95515,0.189537 0.60457,0 0.92649,0.04637 0.87705,0.126362 -0.043,0.0695 -0.47278,0.126362 -0.95515,0.126362 -0.69535,0 -0.87705,0.03926 -0.87705,0.189537 0,0.151763 0.19038,0.189537 0.95515,0.189537 0.60457,0 0.92649,0.04637 0.87705,0.126363 -0.043,0.0695 -0.47278,0.126365 -0.95515,0.126365 h -0.87705 v 0.94892 c 0,1.090501 0.1709,1.343345 0.98135,1.45188 0.30704,0.04111 0.47178,0.12936 0.47178,0.252714 0,0.160522 -0.35784,0.194312 -2.33762,0.220742 -1.2857,0.01717 -2.41598,-0.01913 -2.51177,-0.08063 z m 3.01405,-0.716936 c -0.0677,-0.178266 -0.12326,-0.718445 -0.12326,-1.200399 v -0.876279 h -0.50543 -0.50545 v 0.95599 c 0,0.525796 -0.0588,1.065977 -0.13073,1.200401 -0.12252,0.229037 -0.0831,0.244409 0.62867,0.244409 h 0.75946 z m -0.12326,-2.518929 c 0,-0.136885 -0.14046,-0.189537 -0.50543,-0.189537 -0.36504,0 -0.50545,0.05266 -0.50545,0.189537 0,0.136882 0.14046,0.189534 0.50545,0.189534 0.36502,0 0.50543,-0.05265 0.50543,-0.189534 z m 0,-0.631791 c 0,-0.136884 -0.14046,-0.189536 -0.50543,-0.189536 -0.36504,0 -0.50545,0.05265 -0.50545,0.189536 0,0.136885 0.14046,0.189537 0.50545,0.189537 0.36502,0 0.50543,-0.05265 0.50543,-0.189537 z m 0,-0.631787 c 0,-0.136885 -0.14046,-0.189537 -0.50543,-0.189537 -0.36504,0 -0.50545,0.05265 -0.50545,0.189537 0,0.136884 0.14046,0.189536 0.50545,0.189536 0.36502,0 0.50543,-0.05266 0.50543,-0.189536 z m 0,-0.622764 c 0,-0.178649 -0.32665,-0.577638 -0.47293,-0.577638 -0.15145,0 -0.53795,0.422587 -0.53795,0.588195 0,0.114038 0.16629,0.169953 0.50545,0.169953 0.35378,0 0.50543,-0.05417 0.50543,-0.18051 z" />
    <path
       id="path1183"
       style="display:inline;fill:#000000;stroke-width:0.126358"
       d="m 201.20087,50.129411 c 0,-0.114292 0.0427,-0.208237 0.0948,-0.208764 0.40099,-0.004 1.89091,-0.31165 2.59033,-0.534805 l 0.85292,-0.272132 V 48.322 47.530287 l -1.16882,-0.03633 c -0.93854,-0.02918 -1.16879,-0.07367 -1.16879,-0.225867 0,-0.161343 0.39294,-0.194628 2.6415,-0.223753 2.2713,-0.02942 2.66263,-0.06312 2.79229,-0.24043 0.15097,-0.206473 0.44184,-0.139361 0.44184,0.101942 0,0.07056 -0.31793,0.461586 -0.70648,0.86896 -1.13522,1.190146 -3.64016,2.307529 -5.57886,2.48857 -0.67943,0.06344 -0.7907,0.0446 -0.7907,-0.133971 z m 4.86477,-1.694995 c 0.5571,-0.345051 1.07405,-0.785212 1.07405,-0.914521 0,-0.04577 -0.1279,-0.06902 -0.28431,-0.05168 -0.15638,0.01736 -0.63969,0.03627 -1.07404,0.04206 l -0.78974,0.01061 v 0.703482 c 0,0.67201 0.0121,0.69945 0.2843,0.613331 0.15638,-0.04957 0.51176,-0.231026 0.78974,-0.403201 z m -1.95231,-2.197962 c -0.99966,-0.117515 -2.44167,-0.780368 -2.38116,-1.094566 0.022,-0.114424 0.28417,-0.342696 0.58252,-0.507275 1.56189,-0.861581 3.62292,-0.866124 5.36196,-0.01183 0.72372,0.355531 0.76647,0.626866 0.1555,0.98734 -0.93336,0.550701 -2.34277,0.788069 -3.71882,0.626314 z m 2.82626,-0.691999 c 0.34169,-0.12926 0.64257,-0.298948 0.66862,-0.37709 0.0663,-0.198845 -0.83297,-0.533842 -1.80104,-0.670941 -0.98935,-0.140105 -2.09107,-0.0011 -2.91987,0.368655 l -0.61245,0.273156 0.37908,0.204806 c 1.06851,0.577291 3.04627,0.670245 4.28566,0.201414 z" />
    <path
       id="path1181"
       style="display:inline;fill:#000000;stroke-width:0.126358"
       d="m 239.50796,50.521802 c -0.0302,-0.08687 -0.071,-0.385392 -0.0908,-0.66338 l -0.036,-0.505431 -0.82132,-0.0303 c -0.45173,-0.01664 -1.06662,-0.06333 -1.3664,-0.103727 -0.45438,-0.06119 -0.52014,-0.103463 -0.39518,-0.254008 0.11746,-0.141525 0.11239,-0.182517 -0.0237,-0.189513 -0.0954,-0.005 0.054,-0.111731 0.33201,-0.237387 0.27798,-0.125648 0.83959,-0.523076 1.248,-0.88316 1.10707,-0.976059 1.23202,-1.034945 2.35999,-1.112258 1.20235,-0.08241 1.29223,-0.182394 0.89638,-0.997181 -0.67326,-1.385773 0.0963,-2.36411 1.14575,-1.456322 0.22827,0.197496 0.52879,0.424172 0.66777,0.503732 0.19898,0.113904 0.0579,0.12772 -0.66337,0.06502 -0.85672,-0.07446 -0.91609,-0.06333 -0.91609,0.171577 0,0.138168 0.28429,0.576093 0.63178,0.973183 0.36743,0.419899 0.63178,0.844108 0.63178,1.013864 0,0.414327 -1.16599,1.874513 -1.7003,2.129306 l -0.44604,0.212701 0.21546,0.476301 c 0.33788,0.746892 0.40005,0.792197 1.08714,0.792197 0.4521,0 0.602,0.03956 0.50758,0.134003 -0.0738,0.07369 -0.41099,0.116356 -0.74953,0.09477 -0.61522,-0.03921 -0.61569,-0.0396 -0.96894,-0.777912 -0.26075,-0.544963 -0.40489,-0.718937 -0.54968,-0.66338 -0.10793,0.04142 -0.33372,0.07531 -0.5018,0.07531 -0.27791,0 -0.30555,0.05147 -0.30555,0.568611 v 0.568608 h 0.56862 c 0.31274,0 0.5686,0.05686 0.5686,0.126365 0,0.188743 -1.26028,0.158726 -1.3263,-0.03159 z" />
    <path
       id="path1171"
       style="display:inline;fill:#000000;stroke-width:0.126358"
       d="m 196.45003,50.503455 c -0.10298,-0.268229 0.16882,-1.137462 0.47882,-1.531564 l 0.27604,-0.350912 -0.27647,-0.480353 c -0.36063,-0.626618 -0.3516,-1.21334 0.0272,-1.760609 l 0.30358,-0.438685 -0.33229,-0.439885 c -0.46463,-0.615048 -0.4568,-1.312048 0.0194,-1.72161 0.39328,-0.338296 0.56558,-0.365889 1.01263,-0.162192 0.63249,0.288174 0.75289,1.075412 0.27259,1.782217 -0.37718,0.55511 -0.3788,0.580203 -0.0631,0.983721 0.33695,0.430726 0.3336,1.300525 -0.008,1.778569 l -0.25952,0.364464 0.31618,0.539546 c 0.17389,0.296751 0.35573,0.78695 0.40407,1.089335 0.0789,0.493768 0.0637,0.545131 -0.1495,0.50407 -0.15888,-0.0306 -0.26183,-0.191431 -0.31143,-0.486608 -0.0857,-0.510177 -0.45318,-1.262219 -0.61668,-1.262219 -0.17125,0 -0.63983,1.047155 -0.63983,1.42983 0,0.363535 -0.332,0.482486 -0.45466,0.162885 z m 1.42779,-2.793116 c 0.19695,-0.41302 0.19695,-0.471485 0,-0.884502 -0.11602,-0.243239 -0.25973,-0.442254 -0.31942,-0.442254 -0.0598,0 -0.2144,0.196649 -0.34383,0.437002 -0.22329,0.414626 -0.22441,0.459917 -0.022,0.884505 0.26818,0.562395 0.41896,0.563552 0.68517,0.0053 z m -0.04,-2.522709 c 0.35481,-0.541528 0.23015,-1.204844 -0.22644,-1.204844 -0.35902,0 -0.58036,0.228187 -0.58036,0.598326 0,0.307234 0.33627,0.917967 0.50543,0.917967 0.0536,0 0.18912,-0.140153 0.30137,-0.311449 z" />
    <path
       id="path4646"
       style="display:inline;fill:#000000;stroke-width:0.126358"
       d="m 211.71829,47.11014 0.0334,-3.822325 h 0.75815 0.75815 l 0.0359,1.35835 0.0358,1.358344 h 0.37481 0.37478 v 1.70583 1.705832 h 0.63179 0.63179 v 0.758145 0.758151 h -1.83404 -1.83405 z m 3.19238,3.064176 c 0,-0.28693 -0.0548,-0.31941 -0.59659,-0.354258 l -0.59656,-0.03837 -0.0351,-1.666394 -0.0351,-1.666396 -0.37908,-0.06524 -0.37906,-0.06525 -0.036,-1.294173 c -0.0356,-1.281578 -0.0391,-1.294175 -0.34747,-1.294175 h -0.31146 v 3.415935 3.415938 l 1.35836,-0.03586 c 1.35509,-0.03577 1.35834,-0.03663 1.35834,-0.351761 z" />
    <text
       id="text4665"
       y="34.81982"
       x="174.2377"
       style="font-style:normal;font-weight:normal;font-size:5.01187px;line-height:1.25;font-family:sans-serif;display:inline;fill:#000000;fill-opacity:1;stroke:none;stroke-width:0.125297"
       xml:space="preserve"
       transform="scale(0.95030332,1.0522956)"><tspan
         style="font-style:normal;font-variant:normal;font-weight:normal;font-stretch:normal;font-family:'Courier New';-inkscape-font-specification:'Courier New';stroke-width:0.125297"
         y="34.81982"
         x="174.2377"
         id="tspan4663"
         sodipodi:role="line">quest.goblin.getX('Walhalla');</tspan></text>
  </g>
</svg>
