<?xml version="1.0" encoding="UTF-8" standalone="no"?>
<!-- Created with Inkscape (http://www.inkscape.org/) -->

<svg
   xmlns:dc="http://purl.org/dc/elements/1.1/"
   xmlns:cc="http://creativecommons.org/ns#"
   xmlns:rdf="http://www.w3.org/1999/02/22-rdf-syntax-ns#"
   xmlns:svg="http://www.w3.org/2000/svg"
   xmlns="http://www.w3.org/2000/svg"
   xmlns:xlink="http://www.w3.org/1999/xlink"
   xmlns:sodipodi="http://sodipodi.sourceforge.net/DTD/sodipodi-0.dtd"
   xmlns:inkscape="http://www.inkscape.org/namespaces/inkscape"
   width="210mm"
   height="297mm"
   viewBox="0 0 210 297"
   version="1.1"
   id="svg8"
   inkscape:export-filename="/home/sam/devel/xcraft.ch/static/img/plan.png"
   inkscape:export-xdpi="96"
   inkscape:export-ydpi="96"
   inkscape:version="0.92.3 (2405546, 2018-03-11)"
   sodipodi:docname="plan.svg">
  <defs
     id="defs2">
    <marker
       inkscape:stockid="Arrow1Lend"
       orient="auto"
       refY="0.0"
       refX="0.0"
       id="marker14946"
       style="overflow:visible;"
       inkscape:isstock="true">
      <path
         id="path14944"
         d="M 0.0,0.0 L 5.0,-5.0 L -12.5,0.0 L 5.0,5.0 L 0.0,0.0 z "
         style="fill-rule:evenodd;stroke:#000000;stroke-width:1pt;stroke-opacity:1;fill:#000000;fill-opacity:1"
         transform="scale(0.8) rotate(180) translate(12.5,0)" />
    </marker>
    <marker
       inkscape:stockid="Arrow2Send"
       orient="auto"
       refY="0.0"
       refX="0.0"
       id="Arrow2Send"
       style="overflow:visible;"
       inkscape:isstock="true">
      <path
         id="path4593"
         style="fill-rule:evenodd;stroke-width:0.625;stroke-linejoin:round;stroke:#000000;stroke-opacity:1;fill:#000000;fill-opacity:1"
         d="M 8.7185878,4.0337352 L -2.2072895,0.016013256 L 8.7185884,-4.0017078 C 6.9730900,-1.6296469 6.9831476,1.6157441 8.7185878,4.0337352 z "
         transform="scale(0.3) rotate(180) translate(-2.3,0)" />
    </marker>
    <marker
       inkscape:stockid="Tail"
       orient="auto"
       refY="0.0"
       refX="0.0"
       id="Tail"
       style="overflow:visible"
       inkscape:isstock="true">
      <g
         id="g4608"
         transform="scale(-1.2)"
         style="stroke:#000000;stroke-opacity:1;fill:#000000;fill-opacity:1">
        <path
           id="path4596"
           d="M -3.8048674,-3.9585227 L 0.54352094,0"
           style="fill:#000000;fill-rule:evenodd;stroke:#000000;stroke-width:0.8;stroke-linecap:round;stroke-opacity:1;fill-opacity:1" />
        <path
           id="path4598"
           d="M -1.2866832,-3.9585227 L 3.0617053,0"
           style="fill:#000000;fill-rule:evenodd;stroke:#000000;stroke-width:0.8;stroke-linecap:round;stroke-opacity:1;fill-opacity:1" />
        <path
           id="path4600"
           d="M 1.3053582,-3.9585227 L 5.6537466,0"
           style="fill:#000000;fill-rule:evenodd;stroke:#000000;stroke-width:0.8;stroke-linecap:round;stroke-opacity:1;fill-opacity:1" />
        <path
           id="path4602"
           d="M -3.8048674,4.1775838 L 0.54352094,0.21974226"
           style="fill:#000000;fill-rule:evenodd;stroke:#000000;stroke-width:0.8;stroke-linecap:round;stroke-opacity:1;fill-opacity:1" />
        <path
           id="path4604"
           d="M -1.2866832,4.1775838 L 3.0617053,0.21974226"
           style="fill:#000000;fill-rule:evenodd;stroke:#000000;stroke-width:0.8;stroke-linecap:round;stroke-opacity:1;fill-opacity:1" />
        <path
           id="path4606"
           d="M 1.3053582,4.1775838 L 5.6537466,0.21974226"
           style="fill:#000000;fill-rule:evenodd;stroke:#000000;stroke-width:0.8;stroke-linecap:round;stroke-opacity:1;fill-opacity:1" />
      </g>
    </marker>
    <linearGradient
       inkscape:collect="always"
       id="linearGradient14714">
      <stop
         style="stop-color:#000000;stop-opacity:1;"
         offset="0"
         id="stop14710" />
      <stop
         style="stop-color:#000000;stop-opacity:0"
         offset="1"
         id="stop14712" />
    </linearGradient>
    <linearGradient
       id="linearGradient14640"
       inkscape:collect="always">
      <stop
         id="stop14636"
         offset="0"
         style="stop-color:#deaa87;stop-opacity:0.26557377" />
      <stop
         id="stop14638"
         offset="1"
         style="stop-color:#f4eed7;stop-opacity:0;" />
    </linearGradient>
    <linearGradient
       inkscape:collect="always"
       id="linearGradient14628">
      <stop
         style="stop-color:#333333;stop-opacity:1;"
         offset="0"
         id="stop14624" />
      <stop
         style="stop-color:#333333;stop-opacity:0;"
         offset="1"
         id="stop14626" />
    </linearGradient>
    <marker
       inkscape:isstock="true"
       style="overflow:visible;"
       id="marker11048"
       refX="0.0"
       refY="0.0"
       orient="auto"
       inkscape:stockid="Arrow1Lend"
       inkscape:collect="always">
      <path
         transform="scale(0.8) rotate(180) translate(12.5,0)"
         style="fill-rule:evenodd;stroke:#000000;stroke-width:1pt;stroke-opacity:1;fill:#000000;fill-opacity:1"
         d="M 0.0,0.0 L 5.0,-5.0 L -12.5,0.0 L 5.0,5.0 L 0.0,0.0 z "
         id="path11046" />
    </marker>
    <linearGradient
       inkscape:collect="always"
       id="linearGradient11034">
      <stop
         style="stop-color:#f4eed7;stop-opacity:1;"
         offset="0"
         id="stop11030" />
      <stop
         style="stop-color:#f4eed7;stop-opacity:0;"
         offset="1"
         id="stop11032" />
    </linearGradient>
    <marker
       inkscape:isstock="true"
       style="overflow:visible;"
       id="marker6772"
       refX="0.0"
       refY="0.0"
       orient="auto"
       inkscape:stockid="Arrow1Lend">
      <path
         transform="scale(0.8) rotate(180) translate(12.5,0)"
         style="fill-rule:evenodd;stroke:#1e626f;stroke-width:1pt;stroke-opacity:1;fill:#1e626f;fill-opacity:1"
         d="M 0.0,0.0 L 5.0,-5.0 L -12.5,0.0 L 5.0,5.0 L 0.0,0.0 z "
         id="path6770" />
    </marker>
    <marker
       inkscape:stockid="Arrow1Lend"
       orient="auto"
       refY="0.0"
       refX="0.0"
       id="Arrow1Lend"
       style="overflow:visible;"
       inkscape:isstock="true"
       inkscape:collect="always">
      <path
         id="path4563"
         d="M 0.0,0.0 L 5.0,-5.0 L -12.5,0.0 L 5.0,5.0 L 0.0,0.0 z "
         style="fill-rule:evenodd;stroke:#1e626f;stroke-width:1pt;stroke-opacity:1;fill:#1e626f;fill-opacity:1"
         transform="scale(0.8) rotate(180) translate(12.5,0)" />
    </marker>
    <inkscape:perspective
       sodipodi:type="inkscape:persp3d"
       inkscape:vp_x="-686.16333 : 117.61346 : 1"
       inkscape:vp_y="-657.65521 : 137.07765 : 1"
       inkscape:vp_z="-686.1476 : 130.65063 : 1"
       inkscape:persp3d-origin="-683.41667 : 109.85275 : 1"
       id="perspective4530" />
    <linearGradient
       inkscape:collect="always"
       xlink:href="#linearGradient11034"
       id="linearGradient11036"
       x1="-245.89372"
       y1="147.64117"
       x2="-239.97879"
       y2="147.64118"
       gradientUnits="userSpaceOnUse" />
    <linearGradient
       inkscape:collect="always"
       xlink:href="#linearGradient14628"
       id="linearGradient14630"
       x1="-520.91754"
       y1="147.64117"
       x2="-258.8776"
       y2="143.86142"
       gradientUnits="userSpaceOnUse"
       gradientTransform="matrix(0.39749646,0,0,1,-302.59517,5.2916667)" />
    <linearGradient
       inkscape:collect="always"
       xlink:href="#linearGradient14640"
       id="linearGradient14634"
       gradientUnits="userSpaceOnUse"
       x1="-468.89969"
       y1="87.165001"
       x2="-239.97879"
       y2="147.64118" />
    <radialGradient
       inkscape:collect="always"
       xlink:href="#linearGradient14714"
       id="radialGradient14716"
       cx="-398.11838"
       cy="167.66525"
       fx="-398.11838"
       fy="167.66525"
       r="202.11583"
       gradientTransform="matrix(0.56367442,0.23111043,-0.14745029,0.23447452,-152.99318,87.251858)"
       gradientUnits="userSpaceOnUse" />
    <linearGradient
       inkscape:collect="always"
       xlink:href="#linearGradient14628"
       id="linearGradient15295"
       gradientUnits="userSpaceOnUse"
       gradientTransform="matrix(0.32180442,0,0,0.73764356,-345.1927,-0.48145934)"
       x1="-520.91754"
       y1="147.64117"
       x2="-258.8776"
       y2="143.86142" />
    <linearGradient
       inkscape:collect="always"
       xlink:href="#linearGradient11034"
       id="linearGradient15297"
       gradientUnits="userSpaceOnUse"
       x1="-245.89372"
       y1="147.64117"
       x2="-239.97879"
       y2="147.64118"
       gradientTransform="matrix(0.80957808,0,0,0.73764356,-100.21828,-4.3848232)" />
    <radialGradient
       inkscape:collect="always"
       xlink:href="#linearGradient14714"
       id="radialGradient15353"
       gradientUnits="userSpaceOnUse"
       gradientTransform="matrix(0.59906806,0.23111044,-0.15670883,0.23447451,-162.59977,323.05707)"
       cx="-398.11838"
       cy="167.66525"
       fx="-398.11838"
       fy="167.66525"
       r="202.11583" />
    <linearGradient
       inkscape:collect="always"
       xlink:href="#linearGradient14640"
       id="linearGradient15361"
       gradientUnits="userSpaceOnUse"
       x1="-468.89969"
       y1="87.165001"
       x2="-239.97879"
       y2="147.64118"
       gradientTransform="matrix(0.80957808,0,0,0.73764356,-100.21828,-4.3848232)" />
    <linearGradient
       inkscape:collect="always"
       xlink:href="#linearGradient14640"
       id="linearGradient15521"
       gradientUnits="userSpaceOnUse"
       gradientTransform="matrix(0.80957808,0,0,0.73764356,-100.21828,-4.3848232)"
       x1="-468.89969"
       y1="87.165001"
       x2="-239.97879"
       y2="147.64118" />
    <radialGradient
       inkscape:collect="always"
       xlink:href="#linearGradient14714"
       id="radialGradient15523"
       gradientUnits="userSpaceOnUse"
       gradientTransform="matrix(0.59906806,0.23111044,-0.15670883,0.23447451,-162.59977,323.05707)"
       cx="-398.11838"
       cy="167.66525"
       fx="-398.11838"
       fy="167.66525"
       r="202.11583" />
  </defs>
  <sodipodi:namedview
     id="base"
     pagecolor="#ffffff"
     bordercolor="#666666"
     borderopacity="1.0"
     inkscape:pageopacity="0.0"
     inkscape:pageshadow="2"
     inkscape:zoom="0.49497475"
     inkscape:cx="-1990.1527"
     inkscape:cy="881.91289"
     inkscape:document-units="mm"
     inkscape:current-layer="g15411"
     showgrid="false"
     inkscape:lockguides="true"
     inkscape:window-width="2039"
     inkscape:window-height="738"
     inkscape:window-x="860"
     inkscape:window-y="129"
     inkscape:window-maximized="0" />
  <metadata
     id="metadata5">
    <rdf:RDF>
      <cc:Work
         rdf:about="">
        <dc:format>image/svg+xml</dc:format>
        <dc:type
           rdf:resource="http://purl.org/dc/dcmitype/StillImage" />
        <dc:title></dc:title>
      </cc:Work>
    </rdf:RDF>
  </metadata>
  <g
     inkscape:label="Calque 1"
     inkscape:groupmode="layer"
     id="layer1">
    <text
       xml:space="preserve"
       style="font-style:normal;font-variant:normal;font-weight:normal;font-stretch:normal;font-size:10.58333302px;line-height:1.25;font-family:'Rocket Rinder';-inkscape-font-specification:'Rocket Rinder';letter-spacing:0px;word-spacing:0px;fill:#000000;fill-opacity:1;stroke:none;stroke-width:0.26458332"
       x="-470.20239"
       y="228.96428"
       id="text8816"><tspan
         sodipodi:role="line"
         id="tspan8814"
         x="-470.20239"
         y="238.5174"
         style="stroke-width:0.26458332" /></text>
    <flowRoot
       xml:space="preserve"
       id="flowRoot8818"
       style="fill:black;fill-opacity:1;stroke:none;font-family:'Rocket Rinder';font-style:normal;font-weight:normal;font-size:40px;line-height:1.25;letter-spacing:0px;word-spacing:0px;-inkscape-font-specification:'Rocket Rinder';font-stretch:normal;font-variant:normal"><flowRegion
         id="flowRegion8820"><rect
           id="rect8822"
           width="157.14285"
           height="82.85714"
           x="-1765.7142"
           y="851.09113" /></flowRegion><flowPara
         id="flowPara8824"></flowPara></flowRoot>    <g
       id="g15411"
       transform="matrix(0.73247774,0,0,0.75378649,-109.45313,2.0653526)">
      <g
         id="g15720"
         inkscape:export-xdpi="96"
         inkscape:export-ydpi="96">
        <path
           sodipodi:nodetypes="csssssc"
           inkscape:connector-curvature="0"
           id="path14620"
           d="m -505.88361,-16.718399 c 0,0 24.56694,1.672869 27.00033,5.01861 2.43339,3.3457407 11.34347,190.370329 15.73805,196.283439 33.98259,45.72512 -91.07688,32.34217 -45.08073,20.63206 3.88868,-0.99001 -1.64216,-48.3408 -5.61469,-94.80245 C -518.35443,57.621345 -522.80041,3.6916287 -524.44689,0.56792624 -533.5584,-16.718401 -505.88361,-16.718399 -505.88361,-16.718399 Z"
           style="fill:url(#linearGradient15295);fill-opacity:1;fill-rule:evenodd;stroke:none;stroke-width:0.1019259px;stroke-linecap:butt;stroke-linejoin:miter;stroke-opacity:1"
           inkscape:export-xdpi="96"
           inkscape:export-ydpi="96" />
        <path
           style="fill:url(#linearGradient15297);fill-opacity:1;fill-rule:evenodd;stroke:#000000;stroke-width:0.16166572px;stroke-linecap:butt;stroke-linejoin:miter;stroke-opacity:1"
           d="m -424.48727,-3.3354373 c 0,0 112.58894,-7.2491057 118.71074,-3.9033648 6.12179,3.345741 15.68709,201.3020321 8.80008,207.9935321 -6.88703,6.69148 -273.77587,30.66929 -215.02805,5.57623 14.03356,-5.99418 -20.39714,-211.9941772 -11.55454,-206.32065725 21.7274,13.94058425 99.07177,-3.34574005 99.07177,-3.34574005 z"
           id="path4518"
           inkscape:connector-curvature="0"
           sodipodi:nodetypes="cssssc"
           inkscape:export-xdpi="96"
           inkscape:export-ydpi="96" />
        <path
           sodipodi:type="spiral"
           style="fill:#afdde9;fill-rule:evenodd;stroke:#000000;stroke-width:0.26458332"
           id="path4528"
           sodipodi:cx="-436.94046"
           sodipodi:cy="68.702377"
           sodipodi:expansion="1"
           sodipodi:revolution="3"
           sodipodi:radius="48.862835"
           sodipodi:argument="-17.888218"
           sodipodi:t0="0"
           d="m -436.94046,68.702377 c 1.40238,2.00882 -2.01596,2.881465 -3.33879,2.330853 -3.58478,-1.492125 -3.3349,-6.379134 -1.32292,-9.008433 3.59897,-4.703199 10.66154,-4.073564 14.67808,-0.314977 5.89444,5.515877 4.84562,15.006183 -0.69296,20.347718 -7.38206,7.119426 -19.37347,5.632594 -26.01736,-1.700898 -8.36065,-9.228452 -6.42743,-23.75169 2.70883,-31.687004 11.06524,-9.610728 28.13609,-7.22683 37.35665,3.716774 10.86611,12.896658 8.02911,32.524337 -4.72471,43.026289 -14.72479,12.124921 -36.91516,8.833311 -48.69593,-5.732649 -13.38606,-16.550772 -9.63886,-41.307797 6.74058,-54.365575 18.37526,-14.648852 45.70175,-10.445369 60.03522,7.748525 15.91287,20.198671 11.25261,50.096688 -8.75646,65.70486"
           transform="matrix(0.58593631,-0.1069861,0.07474444,0.61605162,-199.81187,58.748274)"
           inkscape:export-xdpi="96"
           inkscape:export-ydpi="96" />
        <rect
           style="fill:none;fill-opacity:1;stroke:#51a6af;stroke-width:1.23619592;stroke-linejoin:round;stroke-miterlimit:4;stroke-dasharray:4.94478345, 1.23619586;stroke-dashoffset:0;stroke-opacity:1"
           id="rect4546"
           width="76.396103"
           height="99.05806"
           x="-410.26617"
           y="-51.259377"
           transform="matrix(0.98373601,-0.17962033,0.12044509,0.99271999,0,0)"
           inkscape:export-xdpi="96"
           inkscape:export-ydpi="96" />
        <rect
           y="10.271254"
           x="-497.77869"
           height="98.88768"
           width="76.396103"
           id="rect4556"
           style="fill:none;fill-opacity:1;stroke:#51a6af;stroke-width:1.23513222;stroke-linejoin:round;stroke-miterlimit:4;stroke-dasharray:4.94052892, 1.23513223;stroke-dashoffset:0;stroke-opacity:1"
           transform="matrix(0.98373601,-0.17962033,0.1678655,0.98580991,0,0)"
           inkscape:export-xdpi="96"
           inkscape:export-ydpi="96" />
        <path
           style="fill:none;stroke:#1e626f;stroke-width:0.63133258;stroke-linecap:butt;stroke-linejoin:miter;stroke-miterlimit:4;stroke-dasharray:15.15198196, 0.63133258;stroke-dashoffset:0;stroke-opacity:1;marker-end:url(#Arrow1Lend)"
           d="m -397.83649,121.14287 c -16.62188,20.21383 -48.49212,22.05778 -16.31518,20.14616 33.48325,-1.98922 68.65423,-24.38028 76.92168,-31.42965"
           id="path4558"
           inkscape:connector-curvature="0"
           sodipodi:nodetypes="csc"
           inkscape:export-xdpi="96"
           inkscape:export-ydpi="96" />
        <path
           style="fill:url(#linearGradient15521);fill-opacity:1;fill-rule:evenodd;stroke:#000000;stroke-width:0.16166572px;stroke-linecap:butt;stroke-linejoin:miter;stroke-opacity:1"
           d="m -424.48727,-3.3354373 c 0,0 112.58894,-7.2491057 118.71074,-3.9033648 6.12179,3.345741 15.07509,201.8596521 8.18808,208.5511521 -6.88703,6.69148 -273.16387,30.11167 -214.41605,5.01861 14.03356,-5.99418 -20.39714,-211.9941772 -11.55454,-206.32065725 21.7274,13.94058425 99.07177,-3.34574005 99.07177,-3.34574005 z"
           id="path14632"
           inkscape:connector-curvature="0"
           sodipodi:nodetypes="cssssc"
           inkscape:export-xdpi="96"
           inkscape:export-ydpi="96" />
        <g
           transform="matrix(1.2610872,0,0,1.4155069,29.560793,-83.801836)"
           id="g15605">
          <g
             id="g15586"
             transform="matrix(0.42128444,0.31925146,-0.34366049,0.41515682,-110.46921,205.17308)">
            <g
               transform="translate(-72.353845,-13.588831)"
               id="g15625">
              <g
                 transform="matrix(1.3652292,0,0,1.3266356,256.28197,-22.026932)"
                 id="g15543">
                <path
                   sodipodi:type="star"
                   style="fill:#241c1c;fill-opacity:1;fill-rule:evenodd;stroke:#78381b;stroke-width:0.61900002;stroke-linejoin:round;stroke-miterlimit:4;stroke-dasharray:none;stroke-dashoffset:0;stroke-opacity:1"
                   id="path15537"
                   sodipodi:sides="8"
                   sodipodi:cx="-469.06842"
                   sodipodi:cy="33.172619"
                   sodipodi:r1="13.758541"
                   sodipodi:r2="12.711234"
                   sodipodi:arg1="0.92180077"
                   sodipodi:arg2="1.3144998"
                   inkscape:flatsided="true"
                   inkscape:rounded="1.95"
                   inkscape:randomized="0"
                   d="m -460.75294,44.133928 c -16.35938,12.410561 10.15705,5.461671 -10.18637,2.669437 -20.34341,-2.792234 3.32014,11.044105 -9.09042,-5.31527 -12.41056,-16.359375 -5.46167,10.157054 -2.66944,-10.186363 2.79224,-20.343416 -11.0441,3.320138 5.31527,-9.090423 16.35938,-12.4105602 -10.15705,-5.46167 10.18637,-2.669436 20.34341,2.792234 -3.32014,-11.0441056 9.09042,5.31527 12.41056,16.359375 5.46167,-10.157054 2.66944,10.186363 -2.79224,20.343416 11.0441,-3.320138 -5.31527,9.090422 z"
                   inkscape:transform-center-x="2.3681544"
                   inkscape:transform-center-y="-0.96203293"
                   transform="matrix(0.47643095,0,0,0.49731024,-88.970946,132.85736)" />
                <path
                   transform="matrix(0.47643095,0,0,0.49731024,-89.440634,132.32282)"
                   inkscape:transform-center-y="-0.96203293"
                   inkscape:transform-center-x="2.3681544"
                   d="m -460.75294,44.133928 c -16.35938,12.410561 10.15705,5.461671 -10.18637,2.669437 -20.34341,-2.792234 3.32014,11.044105 -9.09042,-5.31527 -12.41056,-16.359375 -5.46167,10.157054 -2.66944,-10.186363 2.79224,-20.343416 -11.0441,3.320138 5.31527,-9.090423 16.35938,-12.4105602 -10.15705,-5.46167 10.18637,-2.669436 20.34341,2.792234 -3.32014,-11.0441056 9.09042,5.31527 12.41056,16.359375 5.46167,-10.157054 2.66944,10.186363 -2.79224,20.343416 11.0441,-3.320138 -5.31527,9.090422 z"
                   inkscape:randomized="0"
                   inkscape:rounded="1.95"
                   inkscape:flatsided="true"
                   sodipodi:arg2="1.3144998"
                   sodipodi:arg1="0.92180077"
                   sodipodi:r2="12.711234"
                   sodipodi:r1="13.758541"
                   sodipodi:cy="33.172619"
                   sodipodi:cx="-469.06842"
                   sodipodi:sides="8"
                   id="path15539"
                   style="fill:#a02c2c;fill-opacity:1;fill-rule:evenodd;stroke:#78381b;stroke-width:0.61900002;stroke-linejoin:round;stroke-miterlimit:4;stroke-dasharray:none;stroke-dashoffset:0;stroke-opacity:1"
                   sodipodi:type="star" />
              </g>
              <g
                 id="g15564"
                 transform="translate(6.7083137,-2.256465)">
                <g
                   id="g15611"
                   transform="translate(-8.6561791,-18.847943)">
                  <g
                     id="g15558"
                     style="font-style:normal;font-variant:normal;font-weight:normal;font-stretch:normal;font-size:40px;line-height:1.25;font-family:'Rocket Rinder';-inkscape-font-specification:'Rocket Rinder';letter-spacing:0px;word-spacing:0px;fill:#280b0b;fill-opacity:1;stroke:none"
                     transform="matrix(0.29911633,-0.19677749,0.20250201,0.29066063,385.14727,-362.56015)"
                     aria-label="B">
                    <path
                       inkscape:connector-curvature="0"
                       id="path15556"
                       style="fill:#280b0b"
                       d="m -2156.3379,463.97738 h -11.7187 v 1.95313 h 11.7187 z m 0,-7.8125 v -1.95312 h -17.5781 l -3.9063,-7.8125 h 25.3907 l 3.9062,3.90625 v 7.8125 l -1.9531,1.95312 1.9531,1.95313 v 7.8125 l -3.9062,3.90625 h -23.4375 v -17.57813 z" />
                  </g>
                  <g
                     aria-label="B"
                     transform="matrix(0.25914518,-0.17785707,0.17544151,0.26271322,311.21437,-308.88214)"
                     style="font-style:normal;font-variant:normal;font-weight:normal;font-stretch:normal;font-size:40px;line-height:1.25;font-family:'Rocket Rinder';-inkscape-font-specification:'Rocket Rinder';letter-spacing:0px;word-spacing:0px;fill:#782121;fill-opacity:1;stroke:none"
                     id="flowRoot15545">
                    <path
                       d="m -2156.3379,463.97738 h -11.7187 v 1.95313 h 11.7187 z m 0,-7.8125 v -1.95312 h -17.5781 l -3.9063,-7.8125 h 25.3907 l 3.9062,3.90625 v 7.8125 l -1.9531,1.95312 1.9531,1.95313 v 7.8125 l -3.9062,3.90625 h -23.4375 v -17.57813 z"
                       style="fill:#782121"
                       id="path15553"
                       inkscape:connector-curvature="0" />
                  </g>
                </g>
              </g>
            </g>
          </g>
        </g>
        <path
           sodipodi:nodetypes="csc"
           inkscape:connector-curvature="0"
           id="path6768"
           d="m -390.09607,97.333339 c 22.34684,-16.952133 2.13068,-7.409319 8.15053,-21.23138 9.53742,-21.898635 -43.94987,6.895794 -53.31676,11.90314"
           style="fill:none;stroke:#1e626f;stroke-width:0.61173403;stroke-linecap:butt;stroke-linejoin:miter;stroke-miterlimit:4;stroke-dasharray:14.68161657, 0.61173403;stroke-dashoffset:0;stroke-opacity:1;marker-end:url(#marker6772)"
           inkscape:export-xdpi="96"
           inkscape:export-ydpi="96" />
        <g
           aria-label="Zorondatr   ASD"
           transform="matrix(0.20669824,-0.03774102,0.03203845,0.26406423,-59.749986,-261.88658)"
           style="font-style:normal;font-variant:normal;font-weight:normal;font-stretch:normal;font-size:40px;line-height:1.25;font-family:'Rocket Rinder';-inkscape-font-specification:'Rocket Rinder';letter-spacing:0px;word-spacing:0px;fill:#000000;fill-opacity:1;stroke:none"
           id="flowRoot8826"
           inkscape:export-xdpi="96"
           inkscape:export-ydpi="96">
          <path
             d="m -1746.1443,853.05064 q 0.2571,0.15323 0.3348,0.32379 0.1133,0.1671 0.1191,0.34459 0.042,0.17403 -0.01,0.31234 -0.014,0.13485 -0.066,0.18442 -0.06,0.36191 -0.2679,0.64894 -0.1713,0.28356 -0.398,0.52795 -0.1713,0.28356 -0.2707,0.5602 -0.1547,0.23745 -0.1795,0.5959 -0.2374,1.04656 -0.1816,2.24289 6e-4,1.15715 0.056,2.35348 0.1611,1.67577 0.4135,3.38724 0.1971,1.6723 0.4688,3.42642 1.0619,6.21775 2.9812,12.75342 1.8998,6.49303 4.7181,13.52065 0.3737,0.98765 0.7834,1.97184 0.4098,0.98418 1.0213,2.08243 2.6713,-0.48003 4.7338,-1.39098 2.118,-0.87177 4.0893,-1.81843 1.5455,-0.72758 2.9998,-1.49088 1.5096,-0.72411 2.9998,-1.49087 0.7106,-0.33554 1.3299,-0.7068 0.6746,-0.33207 1.4405,-0.62844 0.4258,-0.21907 0.8709,-0.39551 0.4811,-0.1799 1.0176,-0.32062 0.1077,-0.0104 0.1826,0.0714 0.019,0.0426 0.022,0.13138 -0.017,0.0461 -0.05,0.13832 0,0.0888 -0.033,0.0922 -0.257,0.42534 -0.6772,0.82191 -0.4173,0.48531 -0.926,0.93491 -0.4727,0.44613 -0.9813,0.89574 -0.2267,0.24438 -0.9122,0.80005 -0.6303,0.59485 -1.5979,1.35574 -0.9122,0.80006 -2.0926,1.67048 -1.1805,0.87042 -2.5629,1.62678 -1.327,0.79554 -2.8229,1.38481 -1.4045,0.62498 -2.9475,0.86273 -1.507,0.23429 -3.0834,-0.0143 -1.521,-0.20944 -2.9539,-1.05049 -0.7165,-0.42053 -1.2171,-0.86184 -0.4094,-0.40561 -0.7471,-0.81815 -0.4869,-0.57617 -0.7914,-1.08092 -0.213,-0.46904 -0.4815,-0.97726 -0.5564,-1.05907 -1.002,-2.03979 -0.4097,-0.98418 -0.8195,-1.96837 -0.7668,-2.01794 -1.3678,-3.91836 -0.6009,-1.90042 -1.1299,-3.80777 -1.058,-3.81469 -1.7482,-7.39781 -0.6541,-3.58658 -0.9433,-7.03032 -0.3776,-3.3907 -0.3513,-6.55329 0.062,-3.16605 0.8741,-6.00379 -1.2136,0.96263 -2.5932,1.80774 -1.3437,0.84164 -2.8338,1.6084 -1.4875,0.85551 -3.0496,1.6292 -1.6174,0.73451 -3.3261,1.43332 -1.2802,0.56847 -2.6156,1.09777 -1.2996,0.52584 -2.8563,0.89844 -0.1079,0.0104 -0.1963,0.0634 -0.1079,0.0104 -0.3624,-0.0541 -0.072,0.007 -0.091,-0.0357 -0.074,-0.0818 -0.094,-0.12445 0.077,-0.40802 0.4284,-0.70891 0.387,-0.30435 0.7214,-0.55914 l 2.3222,-1.82612 q 2.535,-1.93566 5.1642,-3.74687 2.5738,-1.85038 5.5126,-3.55792 0.7078,-0.42429 1.435,-0.80593 0.763,-0.38512 1.526,-0.77023 0.089,-0.053 0.4618,-0.22254 0.3732,-0.1695 0.8378,-0.3033 0.4452,-0.17643 0.9125,-0.22148 0.4479,-0.0877 0.8518,0.14043 z"
             style="font-style:normal;font-variant:normal;font-weight:normal;font-stretch:normal;font-size:40px;font-family:Streamster;-inkscape-font-specification:'Streamster, Normal';font-variant-ligatures:normal;font-variant-caps:normal;font-variant-numeric:normal;font-feature-settings:normal;text-align:start;writing-mode:lr-tb;text-anchor:start"
             id="path8842"
             inkscape:connector-curvature="0" />
          <path
             d="m -1720.205,875.43008 q 0.6887,0.11165 1.5295,0.47568 0.7855,0.32485 0.6942,0.28914 -0.1631,-0.0288 -0.4342,-0.0472 -0.2904,-0.061 -0.7053,-0.0656 -0.7937,-0.0125 -1.1447,0.28838 -0.4064,0.26171 -0.4809,0.75848 -0.1297,0.45759 -0.019,1.11451 0.091,0.61429 0.2577,1.31039 0.119,0.34459 0.5841,1.36795 0.465,1.02336 1.3367,2.36358 0.8523,1.29758 2.1057,2.73454 1.234,1.39432 2.7831,2.49121 0.8212,-0.25719 0.8954,-1.33253 0.019,-1.11452 -0.4768,-2.5355 -0.5509,-1.46015 -1.5195,-3.01358 -1.0239,-1.5926 -2.3435,-2.84513 -0.4094,-0.40561 -0.8712,-0.76165 -0.5175,-0.39521 -1.2338,-0.81574 -0.4038,-0.22812 -0.4592,-0.26729 -0.1848,-0.16017 0.5643,0.16815 0.7302,0.28568 1.5019,0.74538 2.921,1.72128 4.7138,3.68483 1.8288,1.96009 2.5873,3.7118 0.7944,1.74824 0.6567,3.09675 -0.1016,1.34504 -0.9864,1.8754 -0.528,0.40696 -1.8334,0.17672 -1.1616,-0.24409 -2.5557,-0.99986 -1.394,-0.75577 -2.3927,-1.54966 -1.2952,-1.03241 -2.2076,-1.96808 -0.9323,-0.97831 -1.6297,-1.93478 -0.6033,-0.83201 -1.1761,-1.84497 -0.5729,-1.01297 -0.9107,-2.00408 -0.3571,-1.03376 -0.4405,-1.96039 -0.1027,-0.96926 0.2371,-1.62513 0.3399,-0.65587 1.1417,-0.95571 0.7825,-0.34247 2.2316,-0.1261 z"
             style="font-style:normal;font-variant:normal;font-weight:normal;font-stretch:normal;font-size:40px;font-family:Streamster;-inkscape-font-specification:'Streamster, Normal';font-variant-ligatures:normal;font-variant-caps:normal;font-variant-numeric:normal;font-feature-settings:normal;text-align:start;writing-mode:lr-tb;text-anchor:start"
             id="path8844"
             inkscape:connector-curvature="0" />
          <path
             d="m -1702.0521,880.22288 q 0.147,0.0749 0.2658,0.41947 0.119,0.34458 0.2962,0.81709 0.1219,0.43333 0.2437,0.86666 0.067,0.39415 0.1441,0.56471 0.089,0.52555 0.2328,1.09026 0.1247,0.52208 0.2133,1.04762 0.2438,0.86666 0.5594,1.72639 0.3156,0.85973 0.7419,1.79781 0.1356,0.29848 0.216,0.55779 0.1716,0.29501 0.1606,0.51861 -0.061,0.36191 -0.9872,0.13967 -0.8712,-0.18307 -1.8476,-0.84558 -0.9572,-0.61986 -1.5545,-1.27438 -0.5616,-0.65798 -0.938,-1.1558 -1.2755,-1.56834 -2.3131,-3.02609 -1.093,-1.49693 -2.4045,-3.0618 -0.1882,-0.24891 -0.7935,-0.59109 -0.5698,-0.34564 -1.0842,-0.65211 0.4734,1.2896 0.734,2.68873 0.2052,1.35996 0.2582,2.46754 0.053,1.10759 -0.1071,1.74613 -0.1961,0.64201 -0.4339,0.53142 -0.1469,-0.0749 -0.2547,-0.64307 -0.1441,-0.56471 -0.3519,-1.43484 -0.2078,-0.87013 -0.4571,-1.91428 -0.2494,-1.04415 -0.6425,-2.07444 -0.3572,-1.03376 -0.836,-1.92227 -0.4788,-0.88851 -1.1454,-1.44735 -0.9765,-0.66251 -2.1024,-1.48864 -1.0905,-0.8296 -1.4719,-1.50491 -0.2878,-0.55086 0.3233,-0.60977 0.6112,-0.0589 1.8946,0.61852 1.2834,0.67742 1.9723,1.36765 0.6336,0.65105 1.1759,1.26639 0.2047,0.20281 0.3541,0.36644 0.1491,0.16363 0.4817,0.39867 0.8465,0.54152 1.7454,1.03347 0.8797,0.4493 1.9059,0.97349 1.3941,0.75577 2.2461,1.47478 0.8294,0.67637 1.3059,1.38739 0.5091,0.70755 1.0376,1.45774 0.4732,0.71102 0.9824,1.41858 0,-0.66732 -0.097,-1.37036 -0.094,-0.70303 -0.097,-1.37035 0,-0.0888 0,-0.48983 -0.05,-0.44026 0.027,-0.84828 0.058,-0.45066 0.1379,-0.76993 0.025,-0.35845 0.2625,-0.24785 z"
             style="font-style:normal;font-variant:normal;font-weight:normal;font-stretch:normal;font-size:40px;font-family:Streamster;-inkscape-font-specification:'Streamster, Normal';font-variant-ligatures:normal;font-variant-caps:normal;font-variant-numeric:normal;font-feature-settings:normal;text-align:start;writing-mode:lr-tb;text-anchor:start"
             id="path8846"
             inkscape:connector-curvature="0" />
          <path
             d="m -1700.7562,873.55532 q 0.6887,0.11165 1.5295,0.47567 0.7855,0.32485 0.6942,0.28914 -0.1631,-0.0288 -0.4342,-0.0472 -0.2904,-0.061 -0.7052,-0.0655 -0.7935,-0.0125 -1.1447,0.28837 -0.4064,0.26172 -0.4809,0.75848 -0.1297,0.45759 -0.019,1.11452 0.091,0.61428 0.2577,1.31038 0.119,0.34459 0.5841,1.36795 0.465,1.02336 1.3368,2.36358 0.8522,1.29759 2.1056,2.73454 1.234,1.39432 2.7831,2.49121 0.8212,-0.25719 0.8954,-1.33253 0.019,-1.11451 -0.4767,-2.53549 -0.551,-1.46016 -1.5195,-3.01358 -1.024,-1.5926 -2.3436,-2.84514 -0.4094,-0.40561 -0.8712,-0.76165 -0.5174,-0.39521 -1.2338,-0.81573 -0.4038,-0.22812 -0.4591,-0.2673 -0.1857,-0.16016 0.5641,0.16816 0.7302,0.28568 1.502,0.74538 2.9209,1.72128 4.7138,3.68484 1.8287,1.96008 2.5872,3.71179 0.7945,1.74824 0.6568,3.09675 -0.1017,1.34504 -0.9865,1.8754 -0.5279,0.40696 -1.8333,0.17673 -1.1617,-0.2441 -2.5557,-0.99987 -1.394,-0.75578 -2.3928,-1.54966 -1.2942,-1.03241 -2.2076,-1.96808 -0.9323,-0.97831 -1.6296,-1.93477 -0.6032,-0.83201 -1.1762,-1.84498 -0.5727,-1.01297 -0.9106,-2.00408 -0.3572,-1.03376 -0.4406,-1.96038 -0.1027,-0.96927 0.2371,-1.62514 0.3399,-0.65587 1.1417,-0.9557 0.7825,-0.34248 2.2316,-0.12611 z"
             style="font-style:normal;font-variant:normal;font-weight:normal;font-stretch:normal;font-size:40px;font-family:Streamster;-inkscape-font-specification:'Streamster, Normal';font-variant-ligatures:normal;font-variant-caps:normal;font-variant-numeric:normal;font-feature-settings:normal;text-align:start;writing-mode:lr-tb;text-anchor:start"
             id="path8848"
             inkscape:connector-curvature="0" />
          <path
             d="m -1678.2116,878.68141 q 0.147,0.0749 0.2435,0.28809 0.097,0.2132 0.1772,0.4725 0.061,0.21667 0.086,0.4368 0.061,0.21667 0.08,0.25931 0.1025,0.39069 0.169,0.78484 0.1025,0.39069 0.1691,0.78485 0.288,1.12943 0.377,2.23355 0.034,1.06494 0.6537,2.42943 0.042,0.17402 0.1025,0.39069 0.042,0.17402 -0.044,0.3158 -0.05,0.13832 -0.3013,0.16258 -0.2157,0.0208 -0.7993,-0.19 -0.874,-0.27182 -1.8699,-0.97696 -0.9603,-0.70862 -1.8504,-1.5129 -0.9102,-0.84693 -1.6378,-1.62244 -0.7276,-0.7755 -1.1205,-1.22722 -0.9906,-1.10623 -1.9341,-2.43952 -0.9436,-1.3333 -1.6243,-2.33587 -0.06,0.94049 -0.1431,1.7496 -0.1019,0.76646 0.1474,1.81061 0.2494,1.04416 1.0354,2.52616 0.7306,1.44283 2.4987,3.76483 0.1329,0.20974 0.321,0.45865 0.1329,0.20973 0.028,0.30887 -0.1188,0.23399 -0.8462,0.0371 -0.8186,-0.23264 -1.5378,-0.74191 -0.9572,-0.61986 -2.1746,-2.06029 -1.3086,-1.47613 -2.5013,-3.27499 -1.248,-1.83805 -2.3384,-3.8248 -1.0544,-1.99022 -1.5392,-3.6348 -0.083,-0.34805 -0.1496,-0.74221 -0.1219,-0.43333 0.091,-0.54287 0.072,-0.007 0.2603,0.24198 0.2236,0.24545 0.5063,0.61881 0.2269,0.33419 0.4732,0.71102 0.2823,0.37337 0.4705,0.62228 0.7553,1.08438 1.2645,1.79193 0.5091,0.70756 0.9989,1.37247 0.4898,0.66492 1.0376,1.45775 0.5286,0.75019 1.3615,2.00514 -0.2909,-1.21818 -0.6594,-2.60692 -0.3877,-1.43138 -0.7008,-2.78094 -0.313,-1.34956 -0.438,-2.45021 -0.089,-1.10412 0.1984,-1.71042 0.1713,-0.28357 1.1531,-0.0222 0.7274,0.19693 1.5545,0.69581 0.7717,0.4597 1.037,0.87917 0.7332,0.953 1.201,2.06511 0.5039,1.10864 1.0767,2.1216 0.5729,1.01297 1.237,2.06164 0.7002,1.04521 1.5828,2.16184 0.5257,0.66145 1.0708,1.36553 0.5811,0.70063 1.4165,1.46574 -0.1662,-0.6961 -0.1858,-1.31732 -0.075,-0.66039 -0.095,-1.28161 0,-0.0887 -0.031,-0.39762 0.01,-0.31234 0.013,-0.71343 -0.014,-0.44372 0.01,-0.89092 -0.033,-0.48636 0.027,-0.84827 0.061,-0.36192 0.1628,-0.5498 0.083,-0.23053 0.2295,-0.15565 z"
             style="font-style:normal;font-variant:normal;font-weight:normal;font-stretch:normal;font-size:40px;font-family:Streamster;-inkscape-font-specification:'Streamster, Normal';font-variant-ligatures:normal;font-variant-caps:normal;font-variant-numeric:normal;font-feature-settings:normal;text-align:start;writing-mode:lr-tb;text-anchor:start"
             id="path8850"
             inkscape:connector-curvature="0" />
          <path
             d="m -1690.9563,848.53194 q 0.091,0.0357 0.2959,0.23851 0.2374,0.19934 0.465,0.44478 0.2047,0.20281 0.3734,0.40908 0.2047,0.2028 0.2792,0.28462 2.0557,2.29427 3.7297,4.49182 1.674,2.19755 3.3481,4.39509 1.7321,2.32547 3.373,4.61523 1.6215,2.24711 3.2264,4.54034 2.5098,3.54123 4.9836,7.08593 2.4544,3.50206 4.5825,6.94657 -0.028,-0.30888 -0.058,-0.7065 -0.05,-0.44026 -0.039,-0.66386 -0.1,-0.88052 -0.02,-1.77837 0.1157,-0.90131 0.3089,-1.63207 -0.039,-0.0853 0.028,-0.2697 0.1022,-0.18789 0.2488,-0.113 0.1491,0.16363 0.2906,0.6396 0.1413,0.47597 0.2854,1.04069 0.089,0.52554 0.2133,1.04761 0.069,0.4829 0.111,0.65693 0.1912,0.91623 0.6064,2.07791 0.4154,1.16168 0.7532,2.15279 0.1412,0.47597 0.2769,0.77445 0.08,0.25931 -0.016,0.62469 -0.3483,0.38963 -1.7174,-0.14601 -0.8408,-0.36403 -1.5075,-0.92287 -0.6864,-0.60148 -1.1509,-1.04627 -0.9682,-0.97484 -1.8896,-2.17675 -0.9767,-1.24108 -1.6547,-2.15491 0.5509,1.46016 0.9637,3.11167 0.3575,1.61233 0.618,3.01147 0.061,0.21666 0.069,0.4829 0.044,0.26277 -0.058,0.45065 -0.066,0.18443 -0.3899,0.21561 -0.3235,0.0312 -0.9431,-0.17614 -0.8933,-0.31445 -1.6679,-0.8629 -0.8105,-0.54498 -1.3309,-1.02894 -1.9504,-1.81484 -3.0987,-3.35094 -1.2036,-1.57527 -1.8568,-2.84754 -0.7085,-1.31145 -0.991,-2.26339 -0.3019,-0.99458 -0.4294,-1.6054 -0.036,-0.57511 0.088,-1.21019 0.069,-0.67425 0.4669,-1.2022 0.3426,-0.56713 1.0726,-0.86003 0.7105,-0.33554 1.9412,-0.18712 -1.1899,-1.71013 -2.3382,-3.24623 -1.1123,-1.53956 -2.2469,-3.21051 -1.5137,-2.25751 -3.0079,-4.47238 -1.4584,-2.21834 -2.8254,-4.40097 -1.0045,-1.54996 -1.9178,-3.06421 -0.9326,-1.55689 -1.572,-2.96401 -0.019,-0.0426 -0.1162,-0.25584 -0.1522,-0.25237 -0.2491,-0.46557 -0.061,-0.21667 -0.047,-0.35152 -0.042,-0.17402 0.141,-0.1026 z m 19.4812,35.6867 q -0.219,-1.22511 -0.3495,-2.50325 -0.1305,-1.27815 -0.5377,-2.75217 -0.4072,-1.47401 -1.3095,-3.21186 -0.8663,-1.74131 -2.5016,-3.85358 -0.8102,0.0336 -1.1751,0.46934 -0.3842,0.3931 -0.4005,1.01778 -0.072,0.58551 0.075,1.23897 0.1468,0.65346 0.2881,1.12943 0.083,0.34805 0.6172,1.27574 0.4788,0.88851 1.237,2.06164 0.7583,1.17313 1.7932,2.54213 1.0155,1.32636 2.2632,2.58583 z"
             style="font-style:normal;font-variant:normal;font-weight:normal;font-stretch:normal;font-size:40px;font-family:Streamster;-inkscape-font-specification:'Streamster, Normal';font-variant-ligatures:normal;font-variant-caps:normal;font-variant-numeric:normal;font-feature-settings:normal;text-align:start;writing-mode:lr-tb;text-anchor:start"
             id="path8852"
             inkscape:connector-curvature="0" />
          <path
             d="m -1653.8899,875.80284 q 0.059,0.0392 0.169,0.20627 0.2324,0.51168 0.3378,0.99111 0.1052,0.47944 0.2105,0.95888 0.1721,1.45217 0.7011,3.35951 0.053,0.52901 0.3241,1.12597 0.2519,0.55432 0.4513,1.15821 0.022,0.13139 0.086,0.4368 0.044,0.26277 0.083,0.34805 0.155,0.34112 -0.4783,0.26864 -0.578,-0.0333 -1.3276,-0.36161 -0.8408,-0.36403 -1.4329,-0.84106 -0.5562,-0.48049 -0.9848,-0.92874 -0.9877,-1.01748 -1.7735,-1.92091 -0.7498,-0.90689 -1.483,-1.85989 0.18,0.56125 0.3959,1.11903 0.216,0.55779 0.3212,1.03723 0.3157,0.85973 0.5207,1.64111 0.2049,0.78138 0.338,1.56969 0.061,0.21667 0.069,0.4829 0.044,0.26277 -0.058,0.45066 -0.1217,0.14525 -0.4452,0.17643 -0.3235,0.0312 -0.943,-0.17613 -0.8381,-0.27528 -1.6127,-0.82373 -0.8104,-0.54498 -1.2752,-0.98977 -1.5769,-1.40576 -2.6671,-2.81394 -1.1096,-1.45082 -1.7959,-2.63088 -0.7416,-1.21923 -1.0739,-2.03286 -0.3321,-0.81363 -0.3931,-1.03029 -0.2935,-0.72835 -0.4265,-1.51666 -0.097,-0.79178 0.1348,-1.43725 0.1767,-0.68465 0.7214,-1.13772 0.5804,-0.45653 1.5511,-0.55009 0.5032,-0.0485 1.3357,0.0493 0.8325,0.0978 1.7286,0.50099 0.091,0.0357 0.3845,0.18547 0.2378,0.1106 0.074,0.0818 -1.3579,-0.18066 -1.98,0.10184 -0.6221,0.28251 -0.821,0.83577 -0.1988,0.55327 0.01,1.33465 0.1496,0.7422 0.2798,1.44177 0.1828,0.65 0.5897,1.54544 0.4069,0.89544 1.1264,1.98329 0.6642,1.04867 1.5856,2.25058 0.9021,1.15927 2.0585,2.38302 -5e-4,-1.15715 -0.2444,-2.60239 -0.2634,-1.48788 -0.4687,-2.84784 -0.2215,-0.73527 -0.2799,-1.44177 -0.078,-0.74914 -0.2828,-1.53052 -0.061,-0.21666 -0.1246,-0.52208 -0.083,-0.34805 -0.091,-0.61428 -0.028,-0.30888 -0.053,-0.52901 -0.044,-0.26277 0.063,-0.27317 0.1769,-0.10607 0.6886,0.11166 0.4564,0.17854 0.7717,0.4597 0.1113,0.0784 0.2435,0.28808 0.1329,0.20974 0.2851,0.46211 0.1522,0.25238 0.2491,0.46558 0.1328,0.20973 0.2076,0.29155 0.4206,0.76059 1.0294,1.77008 0.6448,1.00604 1.2342,1.9729 0.5701,0.92422 1.0074,1.6387 0.4731,0.71102 0.606,0.92076 -0.01,-0.26624 -0.022,-0.70997 0.022,-0.44719 -0.042,-0.7526 -0.045,-0.84135 0.057,-1.60781 0.047,-0.80564 0.2759,-1.53986 -0.039,-0.0853 0.028,-0.2697 0.066,-0.18442 0.2489,-0.113 z"
             style="font-style:normal;font-variant:normal;font-weight:normal;font-stretch:normal;font-size:40px;font-family:Streamster;-inkscape-font-specification:'Streamster, Normal';font-variant-ligatures:normal;font-variant-caps:normal;font-variant-numeric:normal;font-feature-settings:normal;text-align:start;writing-mode:lr-tb;text-anchor:start"
             id="path8854"
             inkscape:connector-curvature="0" />
          <path
             d="m -1646.6682,853.20886 q 1.2361,-0.25267 1.402,-0.13515 0.091,0.0357 -0.8682,0.48426 -0.4257,0.21907 -1.1197,0.50851 -0.7134,0.24679 -1.5678,0.59619 -2.3889,0.8534 -4.598,1.68946 -2.2286,0.79342 -4.7973,1.66414 -1.2664,0.43363 -2.5162,0.82115 -1.2138,0.38405 -2.4111,0.722 1.4112,1.86683 2.4295,3.28193 1.0542,1.41165 1.3752,1.87029 1.5468,2.1653 3.0023,4.2949 1.4362,2.08695 2.8917,4.21654 1.1733,1.75623 2.3825,3.50899 1.1539,1.71359 2.4544,3.50206 -0.1249,-1.10065 -0.1032,-2.12642 -0.034,-1.06494 0.024,-2.09418 0.011,-0.22359 0.077,-0.40801 0.066,-0.18443 0.1326,-0.36885 0.1022,-0.18788 0.2129,-0.10953 0.1658,0.11752 0.3432,0.59003 0.1578,0.42986 0.2825,0.95194 0.1246,0.52207 0.2299,1.00151 0.05,0.44026 0.091,0.61429 0.2272,0.91276 0.4544,1.82553 0.2271,0.91277 0.5649,1.90388 0.083,0.34805 0.2216,0.73528 0.1744,0.38376 0.3128,0.77099 0.1,0.30194 0.053,0.529 -0.047,0.22706 -0.6996,0.11195 -0.7799,-0.14736 -1.441,-0.52871 -0.697,-0.37789 -1.2531,-0.85838 -0.5563,-0.4805 -0.913,-0.93568 -0.4482,-0.49088 -0.7111,-0.82161 -0.581,-0.70062 -1.0515,-1.3229 -0.4703,-0.62227 -0.9601,-1.28718 -1.7874,-2.36464 -3.373,-4.61523 -1.5496,-2.25404 -3.2458,-4.58298 -0.4344,-0.62574 -1.1705,-1.66748 -0.7001,-1.04521 -1.5496,-2.25405 -0.8136,-1.2123 -1.6658,-2.50988 -0.9077,-1.33676 -1.7213,-2.54907 -0.7162,0.15805 -1.5208,0.36914 -0.8047,0.21109 -1.6646,0.383 -0.86,0.17191 -1.6481,0.33689 -0.8433,0.12581 -1.5263,0.19165 -1.438,0.13861 -1.8252,-0.13561 -0.2016,-0.11406 -0.064,-0.30541 0.1382,-0.19136 0.5087,-0.4496 1.0394,-0.76782 2.8616,-1.29953 1.8222,-0.53171 3.4424,-1.17748 -0.6254,-0.96339 -1.0792,-1.63177 -0.4539,-0.66838 -0.5119,-0.7963 -1.309,-2.05471 -2.6179,-4.10942 -1.273,-2.05817 -2.0896,-3.9378 -0.019,-0.0426 -0.097,-0.2132 -0.042,-0.17403 -0.01,-0.26624 0.014,-0.13485 0.141,-0.1026 0.1632,0.0288 0.4429,0.3134 1.1371,1.18111 2.0004,2.2551 0.8991,1.07052 1.8205,2.27243 0.9021,1.15927 1.9369,2.52827 0.9796,1.32983 2.2773,3.02956 0.9291,-0.26759 1.9853,-0.50294 1.001,-0.27451 2.0379,-0.5525 2.8454,-0.67484 5.3864,-1.27586 2.4859,-0.64019 5.2427,-1.26199 1.0563,-0.23535 1.8803,-0.4038 0.86,-0.17191 1.4877,-0.27692 z"
             style="font-style:normal;font-variant:normal;font-weight:normal;font-stretch:normal;font-size:40px;font-family:Streamster;-inkscape-font-specification:'Streamster, Normal';font-variant-ligatures:normal;font-variant-caps:normal;font-variant-numeric:normal;font-feature-settings:normal;text-align:start;writing-mode:lr-tb;text-anchor:start"
             id="path8856"
             inkscape:connector-curvature="0" />
          <path
             d="m -1639.563,874.19926 q 0.147,0.0749 0.2657,0.41947 0.119,0.34458 0.2962,0.81709 0.122,0.43332 0.2437,0.86666 0.066,0.39416 0.1441,0.56472 0.089,0.52554 0.2327,1.09025 0.1248,0.52207 0.2134,1.04762 0.2438,0.86666 0.5594,1.72639 0.3157,0.85973 0.7419,1.79781 0.1357,0.29848 0.216,0.55779 0.1716,0.29502 0.1605,0.51861 -0.061,0.36191 -0.9871,0.13967 -0.8712,-0.18307 -1.8477,-0.84558 -0.9571,-0.61986 -1.5544,-1.27438 -0.5616,-0.65798 -0.938,-1.1558 -1.2755,-1.56834 -2.3132,-3.02609 -1.093,-1.49693 -2.4044,-3.0618 -0.1882,-0.24891 -0.7935,-0.59109 -0.5698,-0.34564 -1.0844,-0.65211 0.4735,1.2896 0.734,2.68873 0.2053,1.35996 0.2582,2.46754 0.053,1.10759 -0.107,1.74613 -0.1961,0.64201 -0.4339,0.53142 -0.147,-0.0749 -0.2548,-0.64307 -0.144,-0.56471 -0.3518,-1.43484 -0.2078,-0.87013 -0.4571,-1.91428 -0.2493,-1.04415 -0.6424,-2.07444 -0.3573,-1.03376 -0.8361,-1.92227 -0.4788,-0.88851 -1.1455,-1.44735 -0.9764,-0.66251 -2.1023,-1.48864 -1.0895,-0.8296 -1.4718,-1.50491 -0.2879,-0.55086 0.3232,-0.60977 0.6112,-0.0589 1.8946,0.61852 1.2835,0.67742 1.9723,1.36765 0.6335,0.65105 1.1758,1.26639 0.2047,0.20281 0.3542,0.36644 0.149,0.16363 0.4817,0.39868 0.8465,0.54151 1.7455,1.03346 0.8796,0.4493 1.9058,0.97349 1.394,0.75577 2.2462,1.47477 0.8293,0.67638 1.3058,1.3874 0.5091,0.70755 1.0377,1.45774 0.4731,0.71102 0.9823,1.41858 0,-0.66732 -0.097,-1.37036 -0.094,-0.70303 -0.097,-1.37035 0,-0.0888 0,-0.48983 -0.05,-0.44026 0.027,-0.84828 0.058,-0.45066 0.138,-0.76993 0.025,-0.35845 0.2626,-0.24785 z"
             style="font-style:normal;font-variant:normal;font-weight:normal;font-stretch:normal;font-size:40px;font-family:Streamster;-inkscape-font-specification:'Streamster, Normal';font-variant-ligatures:normal;font-variant-caps:normal;font-variant-numeric:normal;font-feature-settings:normal;text-align:start;writing-mode:lr-tb;text-anchor:start"
             id="path8858"
             inkscape:connector-curvature="0" />
          <path
             d="m -1611.3376,838.80974 q 0.7136,0.33178 1.2115,0.68435 0.4975,0.35258 0.8523,0.71901 0.3541,0.36643 0.5451,0.70409 0.2268,0.33419 0.4537,0.66838 1.8097,2.49603 4.3137,5.28119 2.4845,2.74253 5.7326,6.2571 2.0335,2.16289 4.1029,4.32232 2.0502,2.11679 4.2109,4.31193 0.6774,-0.24333 1.4295,-0.40485 0.6968,-0.20069 1.4295,-0.40484 0.036,-0.003 0.3401,-0.0773 0.3402,-0.0773 0.6997,-0.11194 0.3954,-0.0381 0.7024,-0.0232 0.2516,-0.0243 0.2016,0.11406 0.039,0.0853 -0.066,0.18442 -0.069,0.0957 -0.4561,0.40003 -0.7078,0.42428 -1.4514,0.85204 -0.7078,0.42428 -1.5262,0.77022 2.7748,2.80355 5.7352,5.76727 2.9408,2.92107 6.3631,6.24082 3.1234,2.9925 6.1556,5.94928 3.0322,2.95679 6.341,6.10944 1.0429,1.05667 2.0832,2.02458 1.0955,1.00709 2.0307,2.07415 0.074,0.0818 -0.053,0.0496 -0.036,0.003 -0.1469,-0.0749 -3.0512,-2.42085 -6.034,-4.93737 -2.9822,-2.51653 -5.9507,-5.1679 -2.3929,-2.12824 -4.6393,-4.1816 -2.3018,-2.09253 -4.5675,-4.18853 -2.4512,-2.25616 -4.7557,-4.43743 -2.3598,-2.22045 -4.6284,-4.4052 -1.9272,0.63085 -3.6525,1.37577 -1.6893,0.74144 -3.6691,1.42186 -0.053,0.0496 -0.4811,0.1799 -0.4286,0.13033 -0.8738,0.30676 -0.4976,0.22601 -1.175,0.46934 1.3285,2.67593 2.6018,5.31268 1.3091,2.63328 2.6958,5.43713 0.4401,0.80323 0.7888,1.57075 0.4401,0.80323 0.8442,1.60992 0.2353,0.60043 0.3572,1.03376 0.1578,0.42987 0.047,0.35152 -0.1658,-0.11753 -0.4649,-0.44479 -0.2435,-0.28808 -0.5617,-0.65798 -0.2629,-0.33072 -0.5257,-0.66145 -0.2629,-0.33072 -0.451,-0.57963 -2.2081,-3.12523 -4.1066,-6.1468 -1.9537,-3.06075 -3.6004,-6.10657 -2.2536,0.57329 -4.4325,1.2284 -2.1428,0.65165 -4.7753,1.21695 -1.2359,0.25267 -2.5633,0.46963 -1.3632,0.22043 -2.9838,0.28762 -0.036,0.003 -0.3788,-0.008 -0.343,-0.0115 -0.3816,-0.0967 -0.1301,-0.12099 0.1547,-0.23746 0.2295,-0.15564 0.5862,-0.27904 0.3013,-0.16257 0.6774,-0.24333 0.3208,-0.11993 0.4451,-0.17643 2.1926,-0.78996 4.496,-1.50157 2.2839,-0.75425 4.8331,-1.66761 0.766,-0.29636 1.5871,-0.55356 0.8212,-0.25719 1.5872,-0.55356 -0.4429,-0.89197 -0.9217,-1.78048 -0.4981,-0.93115 -0.8857,-1.78395 -1.8073,-3.56444 -3.2303,-6.94339 -1.3869,-3.38243 -2.4309,-6.7534 -0.4847,-1.64458 -0.914,-3.24998 -0.4846,-1.64458 -0.7314,-3.17856 -0.2106,-0.95887 -0.33,-1.88204 -0.1387,-0.9658 -0.095,-1.86018 -0.031,-0.39762 0.4533,-0.48878 0.4646,-0.13379 1.8005,0.49406 z m 19.0805,23.5747 q -0.2374,-0.19934 -0.7996,-0.76858 -0.5588,-0.56924 -1.3584,-1.33781 -0.8188,-0.81122 -1.7125,-1.70425 -0.8577,-0.8965 -1.6766,-1.70772 -0.8382,-0.85385 -1.5272,-1.54408 -0.6529,-0.6937 -1.0624,-1.0993 -1.0624,-1.09931 -2.4041,-2.48323 -1.3059,-1.38738 -2.5759,-2.77823 -1.3252,-1.43003 -2.5399,-2.78171 -1.2145,-1.35167 -2.1497,-2.41873 0.3936,2.18745 1.1608,4.78397 0.8031,2.59305 1.9382,5.42115 1.0796,2.78893 2.4885,5.72416 1.3536,2.89606 2.9393,5.72522 1.4102,-0.44749 2.7485,-0.88805 1.283,-0.47973 2.6931,-0.92721 0.9456,-0.3137 1.9106,-0.58475 0.9456,-0.31369 1.9273,-0.63085 z"
             style="font-style:normal;font-variant:normal;font-weight:normal;font-stretch:normal;font-size:40px;font-family:Streamster;-inkscape-font-specification:'Streamster, Normal';font-variant-ligatures:normal;font-variant-caps:normal;font-variant-numeric:normal;font-feature-settings:normal;text-align:start;writing-mode:lr-tb;text-anchor:start"
             id="path8860"
             inkscape:connector-curvature="0" />
          <path
             d="m -1576.6817,852.82713 q 1.4739,-0.14208 3.3433,-0.32227 1.8139,-0.21937 3.8852,-0.2855 2.0714,-0.0661 4.35,0.15927 2.2235,0.18624 4.5716,0.89456 2.3482,0.70831 4.716,2.03785 2.4037,1.32607 4.7801,3.50041 2.3211,2.13517 3.3506,3.90526 1.0655,1.76663 1.4726,3.24064 0.5069,1.77597 0.538,3.33074 0.031,1.55478 -0.303,2.96672 -0.3808,1.639 -1.0384,3.08212 -0.6575,1.44313 -1.6082,2.73648 -1.0062,1.25419 -2.2335,2.35167 -1.1914,1.09402 -2.7674,2.00256 -0.7602,0.47386 -1.703,0.87629 -0.9069,0.39898 -2.3117,0.44538 -0.7024,0.0232 -1.5155,-0.032 -0.8131,-0.0552 -1.8502,-0.35574 -1.1284,-0.33631 -2.1546,-0.8605 -0.9709,-0.48501 -1.892,-1.10834 -0.8659,-0.58416 -1.5713,-1.22828 -0.741,-0.64066 -1.3555,-1.24907 -1.7707,-1.83217 -2.6702,-3.48127 -0.8995,-1.6491 -1.5777,-3.1415 -0.077,-0.17056 -0.1577,-0.42987 -0.1,-0.30194 -0.1441,-0.56471 -0.1,-0.30195 -0.1052,-0.47944 -0.01,-0.17749 0.1215,-0.14525 0.1826,0.0714 0.3546,0.27769 0.1134,0.1671 0.169,0.20627 0.5838,0.78937 1.1317,1.58221 0.4926,0.75366 1.0599,1.58913 0.1327,0.20973 0.5478,0.79283 0.3597,0.54393 0.9243,1.29066 0.5644,0.74673 1.2395,1.5718 0.6751,0.82508 1.4193,1.55448 0.7442,0.72941 1.5188,1.27785 0.7935,0.59109 1.5213,0.78802 1.0012,0.30406 1.6483,0.24168 0.6471,-0.0624 1.1476,-0.19963 1.2525,-0.29877 2.3473,-1.02742 1.1308,-0.7321 2.0015,-1.70619 0.9259,-0.93491 1.65,-1.98388 0.7601,-1.05243 1.2713,-1.99186 0.7847,-1.41089 1.2957,-2.92889 0.4915,-1.56065 0.6899,-3.27107 0.063,-1.43032 -0.1119,-2.97124 -0.1389,-1.54438 -1.0081,-3.37443 -0.3044,-0.50475 -0.7085,-1.31145 -0.3682,-0.81016 -1.0295,-1.77009 -0.6613,-0.95993 -1.6491,-1.97741 -1.007,-1.06013 -2.5337,-2.02564 -1.4163,-0.88716 -3.1946,-1.24983 -1.7423,-0.36614 -3.6892,-0.35651 -2.0022,-0.0295 -4.1397,0.22102 -2.1376,0.25056 -4.3083,0.59332 -2.1348,0.33931 -4.2335,0.67514 -2.0989,0.33584 -4.0235,0.47686 -1.9247,0.14102 -3.6421,-0.005 -1.6813,-0.14947 -3.0533,-0.77386 -1.9942,-0.92046 -3.3888,-2.83339 -1.3946,-1.91292 -1.4926,-4.44043 0.123,-3.52797 2.8875,-5.61927 0.7602,-0.47386 1.67,-0.78409 0.8903,-0.35286 2.2757,-0.4419 0.5224,-0.006 1.1367,0.024 0.5945,-0.0128 1.2831,0.0988 0.7245,0.10819 1.5625,0.38347 0.8741,0.27181 1.8449,0.75683 1.3748,0.71313 2.119,1.44253 0.6889,0.69023 0.9435,1.3333 0.2354,0.60042 0.2163,1.13636 -0.074,0.49676 -0.1546,0.81603 -0.066,0.18442 -0.2073,0.28703 -0.105,0.0991 -0.2294,0.15564 -0.022,-0.13138 -0.2603,-0.82055 -0.2022,-0.69264 -0.6422,-1.49587 -0.4954,-0.8424 -1.2755,-1.56834 -0.7802,-0.72594 -1.9224,-0.92739 -0.9431,-0.17614 -1.5543,-0.11723 -0.5752,0.0554 -1.0756,0.1927 -0.5364,0.14073 -1.0175,0.32063 -0.4811,0.1799 -0.8156,0.43468 -1.5566,0.95118 -2.0675,2.46919 -0.5109,1.51801 -0.6373,3.2215 0.011,0.93356 0.1888,1.98464 0.1774,1.05108 1.1211,2.38438 1.2694,0.23369 2.7295,0.22647 1.4961,-0.0107 2.8981,-0.14584 1.438,-0.13861 2.804,-0.27029 1.3107,-0.17086 2.2813,-0.26442 z"
             style="font-style:normal;font-variant:normal;font-weight:normal;font-stretch:normal;font-size:40px;font-family:Streamster;-inkscape-font-specification:'Streamster, Normal';font-variant-ligatures:normal;font-variant-caps:normal;font-variant-numeric:normal;font-feature-settings:normal;text-align:start;writing-mode:lr-tb;text-anchor:start"
             id="path8862"
             inkscape:connector-curvature="0" />
          <path
             d="m -1538.053,837.35346 q 3.4351,0.87059 7.0944,2.56521 3.6593,1.69461 6.9873,4.31133 2.1464,1.75142 3.8482,3.67926 1.7375,1.92438 3.0049,3.80506 1.3034,1.87722 2.225,3.65771 0.9023,1.73784 1.5611,3.1876 2.0929,5.1837 1.6992,9.27186 -0.3937,4.08816 -2.8756,7.13141 -1.5839,1.79945 -3.8344,3.04007 -2.2145,1.23715 -4.4625,1.98794 -2.2479,0.75078 -4.0757,1.105 -1.8278,0.35422 -2.5661,0.38089 -0.036,0.003 -0.271,-0.0184 -0.2351,-0.0218 -0.5615,-0.0794 -0.271,-0.0184 -0.5254,-0.0829 -0.2351,-0.0218 -0.3458,-0.10019 -0.091,-0.0357 0.282,-0.20522 0.3926,-0.12686 0.8738,-0.30676 0.4451,-0.17643 0.9096,-0.31023 0.4646,-0.13379 0.5365,-0.14072 2.9722,-1.22118 5.5266,-3.1142 2.6458,-1.85731 4.279,-4.37366 1.7245,-2.48064 2.2597,-5.51426 0.5158,-3.07625 -0.6251,-6.66042 -0.5872,-2.03527 -1.3569,-4.14195 -0.7697,-2.10669 -1.7164,-4.10731 -1.0019,-2.03979 -2.1421,-3.88823 -1.1954,-1.88761 -2.6701,-3.48127 -1.4746,-1.59365 -3.245,-2.84724 -1.8257,-1.29277 -3.997,-2.10716 -2.4615,-0.87541 -5.0113,-1.11921 -2.6052,-0.28297 -5.1244,-0.12914 -2.5386,0.11118 -4.8668,0.60266 -2.3836,0.4523 -4.4215,1.00481 -2.0379,0.5525 -3.6055,1.1487 -1.5872,0.55356 -2.5853,0.91682 -2.2092,0.83606 -4.0008,1.7654 -1.8469,0.89015 -4.0202,1.72275 -0.071,0.007 -0.1797,0.0173 -0.072,0.007 -0.1469,-0.0749 -0.075,-0.0818 -0.044,-0.26277 1.0558,-1.3925 2.084,-2.51529 1.0642,-1.12626 2.6179,-2.16619 4.6721,-3.34337 13.026,-4.28217 2.0491,-0.19752 4.5933,-0.13121 2.4888,0.0271 5.8685,0.85855 z m 6.1149,33.19198 q -0.2184,-0.0679 -0.4786,-0.30993 -0.2792,-0.28462 -0.4289,-0.44825 -0.9186,-1.11316 -1.5383,-1.89907 -0.6392,-0.82854 -1.2037,-1.57527 -0.5644,-0.74673 -1.1289,-1.49346 -0.5285,-0.75019 -1.2452,-1.74929 -2.6676,-3.97111 -5.2799,-7.90303 -2.5762,-3.93539 -4.6243,-7.69917 -0.7638,-1.35062 -1.4171,-2.62289 -0.6531,-1.27227 -0.9246,-2.44781 0,-0.0887 -0.044,-0.26277 -0.042,-0.17402 -0.028,-0.30887 -0.01,-0.17749 0.1189,-0.234 0.105,-0.0991 0.3954,-0.0381 0.3651,0.14283 0.6611,0.38135 0.2771,0.19587 0.5007,0.44132 0.2603,0.24198 0.4841,0.48742 0.169,0.20627 0.2989,0.32726 1.2727,1.4796 2.2909,2.8947 0.963,1.37594 2.0229,2.96507 2.4491,3.90315 4.4971,7.66692 2.0287,3.72114 4.2039,7.51716 0.7142,1.48893 1.5361,2.96747 0.822,1.47854 1.5002,2.97094 0.077,0.17056 0.064,0.30541 -0.014,0.13485 -0.2323,0.0669 z"
             style="font-style:normal;font-variant:normal;font-weight:normal;font-stretch:normal;font-size:40px;font-family:Streamster;-inkscape-font-specification:'Streamster, Normal';font-variant-ligatures:normal;font-variant-caps:normal;font-variant-numeric:normal;font-feature-settings:normal;text-align:start;writing-mode:lr-tb;text-anchor:start"
             id="path8864"
             inkscape:connector-curvature="0" />
        </g>
        <g
           aria-label="Blupi rev4.0"
           transform="matrix(0.23188713,-0.06549157,0.04255141,0.17450351,-101.4773,-56.679568)"
           style="font-style:normal;font-variant:normal;font-weight:normal;font-stretch:normal;font-size:40px;line-height:1.25;font-family:Streamster;-inkscape-font-specification:'Streamster, Normal';font-variant-ligatures:normal;font-variant-caps:normal;font-variant-numeric:normal;font-feature-settings:normal;text-align:start;letter-spacing:0px;word-spacing:0px;writing-mode:lr-tb;text-anchor:start;fill:#000000;fill-opacity:1;stroke:none"
           id="flowRoot10997"
           inkscape:export-xdpi="96"
           inkscape:export-ydpi="96">
          <path
             d="m -1213.4226,945.0392 q 0.48,1.88 -0.2,3.68 -0.64,1.76 -1.6,3.24 -1.28,1.92 -2.92,3.6 -1.6,1.64 -3.44,3.04 -1.8,1.4 -3.76,2.64 -1.96,1.24 -4,2.28 -4.36,2.16 -8.96,3.68 -4.56,1.56 -9.28,2.52 -4.32,0.92 -8.76,1.36 -4.44,0.48 -8.84,0.36 -0.84,-0.04 -1.16,-0.08 -0.36,-0.04 -0.52,-0.16 -0.08,-0.08 0.2,-0.12 0.28,-0.04 0.32,-0.04 1.28,-0.08 2.64,-0.28 1.32,-0.2 2.68,-0.4 4.52,-0.72 9,-1.76 4.48,-1.04 8.84,-2.52 4.36,-1.48 8.6,-3.48 4.28,-2 8.4,-4.64 2.88,-1.92 5.6,-4.44 2.72,-2.52 4.52,-5.52 0.4,-0.88 0.6,-1.8 0.24,-0.96 -0.2,-1.88 -0.36,-0.76 -0.96,-1.28 -0.56,-0.52 -1.28,-0.84 -0.72,-0.36 -1.52,-0.56 -0.76,-0.24 -1.48,-0.36 -3.32,-0.52 -6.64,-0.16 -3.32,0.36 -6.52,1.16 -2.16,2.52 -4.36,5 -2.2,2.44 -4.36,4.88 -0.12,0.12 -0.76,0.84 -0.64,0.72 -1.52,1.72 -0.88,0.96 -1.92,2.08 -1,1.08 -1.88,2 -0.88,0.92 -1.48,1.52 -0.6,0.6 -0.64,0.52 -0.12,-0.08 0.08,-0.48 0.2,-0.4 0.48,-0.84 0.32,-0.48 0.6,-0.88 0.28,-0.4 0.36,-0.48 2.04,-2.76 4.04,-5.44 2,-2.72 4.16,-5.44 0.92,-1.2 1.88,-2.36 0.96,-1.2 1.96,-2.4 -0.8,0.16 -1.56,0.32 -0.72,0.16 -1.48,0.36 -1.4,0.32 -2.8,0.64 -1.4,0.32 -2.92,0.64 -0.12,0.04 -0.4,0.08 -0.24,0 -0.2,-0.08 0.04,-0.08 0.2,-0.16 0.2,-0.12 0.4,-0.24 0.2,-0.12 0.36,-0.2 0.16,-0.08 0.24,-0.08 2.4,-1 4.72,-1.68 2.32,-0.72 4.88,-1.36 0.24,-0.28 0.44,-0.52 0.2,-0.24 0.44,-0.52 1.48,-1.8 3,-3.52 1.52,-1.72 3.12,-3.4 0.76,-0.8 1.52,-1.52 0.76,-0.76 1.6,-1.44 0.04,-0.04 0.24,-0.2 0.24,-0.2 0.48,-0.32 0.28,-0.16 0.48,-0.24 0.24,-0.12 0.32,-0.04 0,0.44 -0.24,0.88 -0.24,0.44 -0.44,0.84 -1.48,2.36 -3.24,4.52 -1.76,2.16 -3.52,4.32 2.16,-0.68 3.96,-1.48 1.8,-0.84 3.8,-1.8 1.8,-0.92 3.32,-2.12 1.56,-1.24 2.6,-3.04 0.52,-1.28 -1.04,-2.28 -1.56,-1 -4.84,-1.2 -3.24,-0.2 -8,0.68 -4.72,0.84 -10.52,3.24 -1.04,0.44 -2,0.92 -0.92,0.48 -1.88,1.04 -0.04,0 -0.24,0.12 -0.16,0.08 -0.36,0.2 -0.2,0.08 -0.4,0.16 -0.16,0.04 -0.16,0.04 -0.04,-0.04 0.12,-0.2 0.2,-0.16 0.4,-0.32 0.24,-0.2 0.44,-0.32 0.2,-0.16 0.24,-0.2 1.8,-1.28 3.72,-2.4 1.96,-1.12 4,-2.08 3.04,-1.36 6,-2.16 2.96,-0.8 5.52,-1.08 2.6,-0.32 4.72,-0.12 2.12,0.2 3.48,0.84 0.8,0.36 1.4,1 0.6,0.64 0.88,1.44 0.32,0.76 0.24,1.64 -0.04,0.88 -0.56,1.72 -1.08,1.72 -2.68,3.08 -1.56,1.36 -3.24,2.44 -0.96,0.64 -1.92,1.2 -0.96,0.56 -2.04,1.08 h 1.04 q 1.92,0.04 3.84,0.16 1.92,0.08 3.8,0.68 1.6,0.52 2.92,1.64 1.32,1.12 1.8,2.92 z"
             id="path11005"
             inkscape:connector-curvature="0" />
          <path
             d="m -1190.9801,925.3592 q 0.08,0.08 0,0.28 -0.04,0.16 -0.16,0.4 -0.08,0.2 -0.2,0.4 -0.08,0.2 -0.12,0.28 -1.24,2.24 -2.64,4.36 -1.36,2.12 -2.76,4.24 -1.52,2.24 -3.08,4.44 -1.52,2.16 -3.08,4.36 -2.04,2.84 -4.12,5.6 -2.08,2.76 -4.16,5.56 -0.32,0.44 -0.68,0.88 -0.32,0.44 -0.64,0.88 2.76,-1.96 5.6,-3.68 0.04,-0.04 0.24,-0.16 0.24,-0.16 0.52,-0.28 0.28,-0.16 0.52,-0.24 0.24,-0.12 0.32,-0.08 0.08,0.04 -0.12,0.2 -0.16,0.12 -0.36,0.32 -0.72,0.64 -1.48,1.24 -0.72,0.56 -1.44,1.16 -1.08,0.84 -2.12,1.68 -1.04,0.84 -2.08,1.76 -0.4,0.32 -0.8,0.68 -0.36,0.36 -0.76,0.72 -0.32,0.28 -0.68,0.48 -0.36,0.2 -0.8,0.04 -0.76,-0.24 -0.8,-0.96 -0.04,-0.56 0.32,-1.2 0.32,-0.64 0.6,-1.08 2.2,-3.48 4.76,-6.92 2,-2.68 3.72,-5.08 1.76,-2.44 3.68,-5 1.6,-2.16 3.2,-4.28 1.64,-2.12 3.36,-4.2 1.2,-1.44 2.36,-2.92 1.2,-1.48 2.52,-2.8 0.04,-0.04 0.24,-0.24 0.2,-0.2 0.4,-0.4 0.24,-0.24 0.44,-0.36 0.2,-0.12 0.28,-0.08 z"
             id="path11007"
             inkscape:connector-curvature="0" />
          <path
             d="m -1191.4863,952.4392 q 0.08,0.12 -0.24,0.4 -0.32,0.24 -0.4,0.32 -1.8,1.52 -3.56,2.84 -1.04,0.84 -2.08,1.76 -1,0.92 -2,1.84 l -0.96,0.84 q -0.2,0.16 -0.4,0.28 -0.2,0.12 -0.44,0.2 -0.48,0.08 -0.88,-0.2 -0.4,-0.32 -0.48,-0.8 -0.08,-0.52 0.16,-1.08 0.24,-0.6 0.52,-1.08 0.6,-1.2 1.32,-2.24 0.72,-1.04 1.8,-2.4 -1.12,0.92 -2.16,1.84 -1.04,0.92 -2.08,1.84 -0.88,0.8 -1.76,1.56 -0.88,0.76 -1.8,1.48 -0.24,0.2 -0.6,0.44 -0.32,0.24 -0.68,0.4 -0.32,0.16 -0.68,0.16 -0.36,0 -0.68,-0.24 -0.52,-0.4 -0.48,-1.12 0,-0.76 0.32,-1.56 0.28,-0.8 0.72,-1.52 0.44,-0.72 0.68,-1.12 1.04,-1.6 2.32,-3 1.32,-1.44 2.76,-2.6 0.8,-0.68 1.72,-1.28 0.92,-0.6 1.96,-0.92 0.04,0 0.16,-0.04 0.16,-0.04 0.28,-0.04 0.16,0 0.24,0.04 0.08,0 -0.04,0.12 -0.16,0.2 -0.36,0.32 -0.16,0.12 -0.36,0.32 -0.44,0.36 -0.84,0.76 -0.36,0.4 -0.76,0.84 -0.84,0.96 -1.68,2.08 -0.8,1.08 -1.6,2.24 -0.8,1.16 -1.56,2.32 -0.76,1.16 -1.48,2.24 3.24,-2.08 6.4,-4.8 3.2,-2.72 6.6,-5.44 0.48,-0.4 1.16,-0.92 0.68,-0.52 0.96,-0.6 0.32,-0.04 0.52,0.2 0.2,0.2 0.12,0.48 -0.04,0.16 -0.36,0.56 -0.32,0.4 -0.44,0.56 -0.12,0.16 -0.6,0.76 -0.44,0.6 -1.12,1.44 -0.64,0.84 -1.4,1.8 -0.72,0.96 -1.4,1.84 -0.64,0.88 -1.12,1.56 -0.48,0.68 -0.6,0.92 0.04,-0.04 0.6,-0.4 0.56,-0.4 1.32,-0.96 0.8,-0.56 1.72,-1.16 0.92,-0.64 1.72,-1.12 0.8,-0.52 1.36,-0.8 0.56,-0.28 0.64,-0.16 z"
             id="path11009"
             inkscape:connector-curvature="0" />
          <path
             d="m -1177.6982,952.7592 q 0.04,0.04 -0.12,0.2 -0.96,1.04 -2.16,2 -1.2,0.96 -2.44,1.8 -1.92,1.32 -3.84,2.4 -1.88,1.04 -3.48,1.44 -0.32,0.08 -0.72,0.2 -0.4,0.08 -0.8,0.12 -0.36,0.08 -0.68,0.12 -0.28,0.04 -0.4,0 -0.32,-0.08 -0.4,-0.36 -0.08,-0.28 0.12,-0.52 0.08,-0.12 0.52,-0.36 0.48,-0.24 0.64,-0.32 0.04,-0.04 0.24,-0.12 0.24,-0.12 0.48,-0.24 0.28,-0.16 0.52,-0.28 0.28,-0.16 0.44,-0.28 0.76,-0.52 1.56,-1.2 0.8,-0.72 1.52,-1.44 0.76,-0.76 1.44,-1.48 0.72,-0.76 1.28,-1.4 0.92,-1.2 1.8,-2.6 0.88,-1.44 1.44,-2.72 -1.04,0.16 -2.32,0.96 -1.28,0.76 -2.68,1.96 -1.4,1.16 -2.84,2.64 -1.44,1.44 -2.76,2.92 -1.28,1.48 -2.4,2.92 -1.12,1.4 -1.88,2.52 -1.64,2.4 -3.24,4.72 -1.6,2.36 -3.28,4.76 -1.68,2.44 -3.4,4.88 -1.76,2.48 -3.64,4.8 -0.4,0.48 -0.8,0.96 -0.4,0.48 -0.88,0.88 -0.12,0.08 -0.36,0.2 -0.24,0.16 -0.32,-0.16 -0.04,-0.2 0.04,-0.44 0.08,-0.24 0.16,-0.44 0.16,-0.4 0.32,-0.8 0.16,-0.36 0.36,-0.72 1.2,-2.4 2.64,-4.64 1.4,-2.2 2.8,-4.44 1.08,-1.68 2.16,-3.32 1.08,-1.64 2.24,-3.32 0.6,-0.84 1.4,-2 0.8,-1.16 1.68,-2.36 0.88,-1.24 1.76,-2.4 0.84,-1.2 1.52,-2.12 0.68,-0.96 1.08,-1.52 0.44,-0.6 0.44,-0.6 0.92,-1.16 1.68,-2.12 0.68,-0.8 1.24,-1.52 0.6,-0.76 0.8,-0.96 0.04,-0.04 0.32,-0.32 0.32,-0.32 0.68,-0.68 0.4,-0.4 0.84,-0.76 0.44,-0.36 0.76,-0.52 0.28,-0.16 0.44,-0.08 0.2,0.08 0.12,0.36 -0.16,0.68 -0.36,1.2 -0.2,0.52 -0.48,1 -0.24,0.48 -0.56,0.96 -0.28,0.48 -0.68,1.12 0.2,-0.2 0.36,-0.32 0.2,-0.16 0.36,-0.32 1.6,-1.48 3.04,-2.4 1.48,-0.92 2.64,-1.4 1.2,-0.48 2.04,-0.56 0.88,-0.12 1.24,0.04 0.6,0.28 0.56,1 0,0.68 -0.4,1.6 -0.4,0.88 -1.04,1.92 -0.6,1 -1.24,1.92 -0.64,0.88 -1.16,1.56 -0.52,0.64 -0.68,0.84 l -0.84,1 q 1.16,-0.8 2.32,-1.56 1.16,-0.8 2.44,-1.48 0.08,-0.08 0.4,-0.24 0.36,-0.16 0.4,-0.08 z"
             id="path11011"
             inkscape:connector-curvature="0" />
          <path
             d="m -1171.3995,952.4792 q 0.08,-0.08 0.4,-0.24 0.36,-0.16 0.4,-0.08 0,0.04 0,0.08 0,0 -0.12,0.12 -1.48,1.36 -3.04,2.56 -1.52,1.16 -3.04,2.44 -0.64,0.56 -1.6,1.44 -0.92,0.88 -1.52,1.44 -0.24,0.2 -0.56,0.44 -0.28,0.2 -0.64,0.32 -0.32,0.16 -0.64,0.12 -0.36,-0.04 -0.72,-0.36 -0.32,-0.32 -0.2,-0.88 0.08,-0.56 0.28,-1 0.4,-1 1.24,-2.24 0.84,-1.28 1.88,-2.6 1.08,-1.32 2.2,-2.56 1.16,-1.28 2.16,-2.28 1,-1 1.72,-1.64 0.72,-0.64 0.96,-0.72 0.28,-0.12 0.44,-0.04 0.08,0.04 0.12,0.12 0.08,0.08 0,0.24 -0.52,0.96 -1.24,2.08 -0.72,1.12 -1.56,2.36 -0.84,1.2 -1.76,2.52 -0.88,1.28 -1.72,2.64 0.36,-0.28 0.96,-0.68 0.6,-0.44 0.96,-0.68 1.16,-0.76 2.28,-1.48 1.12,-0.76 2.36,-1.44 z m 4.48,-12.04 q 0.12,0.32 0,0.68 -0.08,0.32 -0.32,0.64 -0.2,0.28 -0.48,0.52 -0.28,0.24 -0.56,0.36 -0.24,0.12 -0.6,0.2 -0.32,0.04 -0.64,0.04 -0.32,-0.04 -0.6,-0.16 -0.28,-0.12 -0.4,-0.44 -0.24,-0.64 0.16,-1.2 0.4,-0.6 0.92,-0.88 0.24,-0.16 0.6,-0.24 0.36,-0.12 0.72,-0.12 0.4,0 0.72,0.12 0.32,0.12 0.48,0.48 z"
             id="path11013"
             inkscape:connector-curvature="0" />
          <path
             d="m -1148.9351,952.6392 q 0.04,0.08 -0.32,0.4 -0.36,0.32 -0.84,0.76 -0.48,0.4 -0.96,0.8 -0.48,0.36 -0.64,0.52 -0.64,0.48 -1.28,1 -0.6,0.48 -1.24,0.96 -0.96,0.8 -1.84,1.6 -0.88,0.8 -1.76,1.68 -0.28,0.28 -0.56,0.52 -0.24,0.28 -0.56,0.48 -0.56,0.32 -1.16,0.04 -0.6,-0.24 -0.64,-0.92 -0.08,-0.64 0.24,-1.28 0.36,-0.64 0.68,-1.12 0.92,-1.52 1.92,-2.92 1,-1.44 1.88,-2.96 0.16,-0.24 0.04,-0.6 -0.08,-0.36 -0.16,-0.68 -1.32,1.2 -3,2.48 -1.68,1.24 -3.16,2.24 -1.48,1 -2.52,1.56 -1.08,0.56 -1.16,0.44 -0.04,-0.08 0.64,-0.6 0.64,-0.52 1.64,-1.32 1,-0.8 2.2,-1.76 1.2,-0.96 2.24,-1.92 1.08,-0.96 1.84,-1.8 0.76,-0.84 0.88,-1.4 -0.04,-0.68 0,-1.52 0.08,-0.84 0.64,-1.48 0.48,-0.52 1.16,-0.52 0.68,0 1,0.72 0.32,0.72 0.04,1.4 -0.28,0.64 -0.6,1.24 -0.08,0.2 -0.16,0.36 -0.08,0.16 -0.08,0.4 0.08,0.56 0.28,1.08 0.24,0.48 0.52,1.04 0.32,0.8 0.16,1.52 -0.12,0.68 -0.64,1.36 -0.48,0.68 -1,1.4 -0.52,0.68 -1,1.36 0.92,-0.6 1.8,-1.24 0.88,-0.64 1.8,-1.24 0.12,-0.08 0.68,-0.44 0.56,-0.4 1.2,-0.76 0.68,-0.4 1.2,-0.68 0.52,-0.32 0.6,-0.2 z"
             id="path11015"
             inkscape:connector-curvature="0" />
          <path
             d="m -1137.5638,951.9992 q 0.08,0.08 -0.24,0.44 -0.32,0.36 -0.76,0.8 -0.4,0.44 -0.8,0.84 -0.4,0.36 -0.48,0.44 -1.6,1.4 -3.28,2.76 -1.68,1.32 -3.68,2.44 -0.96,0.56 -2,1.04 -1.04,0.44 -2.16,0.48 -0.96,0 -1.72,-0.6 -0.72,-0.64 -0.6,-1.68 0.24,-2.28 1.48,-4.12 1.24,-1.84 2.76,-3.48 0.76,-0.8 1.6,-1.48 0.84,-0.72 1.76,-1.36 0.88,-0.64 1.84,-1.12 0.96,-0.52 2,-0.84 0.48,-0.16 1.04,-0.16 0.56,-0.04 1.04,0.2 0.96,0.56 0.88,1.56 -0.08,0.96 -0.76,2 -0.32,0.44 -0.64,0.84 -0.32,0.4 -0.68,0.8 -1.44,1.56 -3.24,2.64 -1.28,0.72 -2.56,1.28 -1.28,0.52 -2.92,0.96 -0.88,1.16 -1.28,2.56 1.16,0 2.56,-0.52 1.4,-0.56 2.8,-1.36 1.4,-0.84 2.76,-1.72 1.36,-0.92 2.48,-1.64 0.08,-0.04 0.52,-0.36 0.44,-0.32 0.92,-0.68 0.52,-0.4 0.92,-0.68 0.44,-0.28 0.44,-0.28 z m -10.24,2.16 q -0.4,0.44 -0.64,0.76 -0.2,0.32 -0.48,0.72 1.36,-0.36 2.64,-1.04 1.32,-0.72 2.4,-1.68 1.12,-0.96 1.96,-2.16 0.88,-1.2 1.36,-2.6 -2.12,1 -3.84,2.6 -1.72,1.6 -3.4,3.4 z"
             id="path11017"
             inkscape:connector-curvature="0" />
          <path
             d="m -1124.192,944.5192 q 0.04,0.04 -0.12,0.28 -0.12,0.24 -0.8,1.08 -0.68,0.8 -2.08,2.44 -1.36,1.6 -3.84,4.36 -1.8,2 -3.56,3.76 -1.72,1.72 -3.64,3.6 -0.36,0.36 -0.72,0.68 -0.32,0.28 -0.88,0.2 -0.52,-0.08 -0.92,-0.44 -0.36,-0.4 -0.32,-0.92 0,-0.44 0.16,-1 0.16,-0.56 0.4,-1.16 0.28,-0.6 0.52,-1.16 0.28,-0.56 0.48,-1 0.8,-1.68 1.68,-3.32 0.92,-1.68 1.96,-3.36 0.28,-0.44 0.56,-0.88 0.32,-0.48 0.76,-0.8 0.16,-0.16 0.2,-0.08 0.08,0.08 0.08,0.28 0,0.16 -0.04,0.36 -0.04,0.2 -0.04,0.28 -0.16,0.88 -0.6,2.04 -0.44,1.12 -0.96,2.32 -0.52,1.2 -1.04,2.36 -0.48,1.12 -0.8,2 0.4,-0.48 1.52,-1.56 1.12,-1.12 2.6,-2.48 1.48,-1.4 3.08,-2.84 1.64,-1.44 3,-2.6 1.4,-1.2 2.32,-1.88 0.92,-0.68 1.04,-0.56 z"
             id="path11019"
             inkscape:connector-curvature="0" />
          <path
             d="m -1099.607,930.9592 q 0.16,0.12 0,0.6 -0.12,0.44 -0.4,0.96 -0.28,0.48 -0.56,0.96 -0.24,0.44 -0.32,0.6 -1.56,2.52 -3.4,5.04 -1.8,2.48 -4,5.36 1.8,-0.64 3.56,-1.28 1.8,-0.68 3.8,-1.2 0.04,-0.04 0.36,-0.12 0.36,-0.08 0.28,0.08 -0.2,0.24 -0.56,0.4 -0.32,0.16 -0.6,0.32 -1.08,0.68 -2.2,1.24 -1.08,0.52 -2.2,1.08 -1.08,0.52 -2.16,1.08 -1.08,0.52 -2.24,1 -0.08,0.12 -0.24,0.28 -0.12,0.16 -0.2,0.28 -1.76,2.28 -3.48,4.52 -1.72,2.2 -3.52,4.4 -0.8,1.04 -1.68,2.12 -0.84,1.04 -1.68,2.08 -0.76,0.92 -1.56,1.84 -0.76,0.92 -1.64,1.72 -0.16,0.16 -0.4,0.24 -0.2,0.12 -0.08,-0.24 0.12,-0.48 0.4,-0.96 0.28,-0.44 0.52,-0.88 2,-3.24 4.24,-6.44 2.24,-3.24 4.92,-7.04 -2.28,0.92 -4.64,1.8 -2.32,0.88 -4.76,1.44 -0.96,0.2 -2.08,0.36 -1.12,0.16 -2.04,-0.28 -0.92,-0.44 -1.12,-1.28 -0.2,-0.84 0,-1.68 0.64,-2.52 2.12,-4.84 1.52,-2.36 3.24,-4.76 1.68,-2.28 3.4,-4.44 1.76,-2.2 3.64,-4.32 1.52,-1.6 3.04,-3.16 1.52,-1.56 3.24,-3.08 0.44,-0.4 0.76,-0.44 0.12,0 0.12,0.12 0.04,0.12 -0.04,0.28 -0.04,0.12 -0.12,0.28 -0.08,0.12 -0.08,0.16 -0.88,1.52 -2,3 -1.08,1.48 -2.24,3.04 -1.68,2.28 -3.32,4.48 -1.6,2.2 -3.2,4.48 -0.72,1.08 -1.56,2.24 -0.8,1.16 -1.6,2.36 -0.76,1.2 -1.44,2.48 -0.64,1.24 -1.08,2.56 1.68,-0.08 3.28,-0.52 1.6,-0.44 3.24,-0.92 1.92,-0.56 3.84,-1.16 1.92,-0.64 3.72,-1.44 1.52,-1.8 2.88,-3.76 1.36,-2 3.04,-4.08 0.8,-1.04 1.64,-2.04 0.88,-1 1.76,-2.04 0.12,-0.12 0.6,-0.64 0.48,-0.52 1.04,-1.04 0.56,-0.56 1.04,-0.92 0.52,-0.4 0.72,-0.28 z"
             id="path11021"
             inkscape:connector-curvature="0" />
          <path
             d="m -1100.5345,958.4792 q 0.12,0.32 0,0.64 -0.08,0.32 -0.32,0.64 -0.2,0.28 -0.52,0.52 -0.28,0.24 -0.52,0.36 -0.24,0.12 -0.56,0.2 -0.32,0.08 -0.68,0.08 -0.32,0 -0.6,-0.12 -0.28,-0.16 -0.4,-0.48 -0.24,-0.64 0.16,-1.2 0.4,-0.6 0.92,-0.92 0.24,-0.12 0.6,-0.2 0.4,-0.12 0.76,-0.12 0.4,0 0.72,0.12 0.32,0.12 0.44,0.48 z"
             id="path11023"
             inkscape:connector-curvature="0" />
          <path
             d="m -1082.7482,939.0792 q -0.08,-0.04 0,-0.24 0.08,-0.2 0.2,-0.4 0.16,-0.2 0.28,-0.36 0.16,-0.2 0.2,-0.24 2.68,-3.52 5.92,-6.44 3.28,-2.92 6.92,-4.92 0.96,-0.52 2.08,-1 1.16,-0.48 2.32,-0.72 1.2,-0.24 2.36,-0.12 1.16,0.12 2.2,0.8 0.84,0.56 1.32,1.4 0.48,0.8 0.68,1.72 0.2,0.92 0.16,1.92 -0.04,0.96 -0.24,1.88 -1.16,5.16 -3.8,9.76 -2.6,4.6 -6.04,8.56 -1.76,2 -3.68,3.8 -1.92,1.8 -4.04,3.4 -2.04,1.52 -4.36,2.8 -2.32,1.24 -4.84,1.72 -1.08,0.16 -2.12,0.08 -1.04,-0.04 -1.96,-0.36 -0.88,-0.32 -1.64,-0.96 -0.72,-0.64 -1.2,-1.68 -0.56,-1.2 -0.68,-2.48 -0.16,-1.32 -0.04,-2.64 0.08,-1.32 0.4,-2.6 0.28,-1.28 0.64,-2.44 0.76,-2.52 1.84,-4.88 1.08,-2.36 2.44,-4.6 1.28,-2.16 2.76,-4.16 1.52,-2 3.32,-3.8 1.56,-1.56 3.32,-2.92 1.76,-1.36 3.8,-2.2 0.04,-0.04 0.16,-0.08 0.12,-0.04 0.16,0.04 0.08,0.08 -0.04,0.16 -0.08,0.08 -0.12,0.12 -0.56,0.56 -1.12,1.04 -0.56,0.44 -1.12,0.96 -2.84,2.52 -5.04,5.48 -2.16,2.92 -3.92,6.08 -0.52,0.92 -1.28,2.44 -0.76,1.52 -1.56,3.4 -0.8,1.84 -1.48,3.88 -0.68,2 -1,3.88 -0.32,1.88 -0.16,3.48 0.2,1.6 1.12,2.56 0.8,0.88 1.92,0.96 1.16,0.12 2.48,-0.36 1.36,-0.52 2.84,-1.44 1.48,-0.96 2.96,-2.12 1.48,-1.2 2.88,-2.48 1.4,-1.28 2.56,-2.44 1.16,-1.16 2,-2.08 0.88,-0.96 1.32,-1.44 1.76,-1.96 3.28,-4.04 1.52,-2.12 2.8,-4.4 0.36,-0.6 0.92,-1.6 0.6,-1.04 1.2,-2.24 0.64,-1.2 1.2,-2.48 0.6,-1.32 0.96,-2.56 0.36,-1.24 0.44,-2.28 0.08,-1.04 -0.28,-1.72 -0.56,-0.96 -1.68,-1.08 -1.08,-0.16 -2.48,0.24 -1.36,0.36 -2.88,1.12 -1.48,0.76 -2.84,1.6 -1.32,0.84 -2.36,1.56 -1.04,0.72 -1.48,1.04 -1.32,1 -2.6,2.04 -1.24,1.04 -2.52,2.08 -0.12,0.12 -0.68,0.64 -0.56,0.48 -1.24,1.04 -0.64,0.56 -1.2,1 -0.56,0.4 -0.64,0.32 z"
             id="path11025"
             inkscape:connector-curvature="0" />
        </g>
        <path
           sodipodi:nodetypes="csc"
           inkscape:connector-curvature="0"
           id="path11044"
           d="m -469.33586,93.981074 c -9.34497,-17.700023 -2.45893,-51.827425 15.63125,-59.608006 18.8246,-8.096466 39.28903,-16.976563 43.93708,-11.567133"
           style="fill:none;stroke:#132023;stroke-width:0.50313187;stroke-linecap:butt;stroke-linejoin:miter;stroke-miterlimit:4;stroke-dasharray:12.07516425, 0.50313185;stroke-dashoffset:0;stroke-opacity:1;marker-end:url(#marker11048)"
           inkscape:export-xdpi="96"
           inkscape:export-ydpi="96" />
        <g
           aria-label="???"
           transform="matrix(0.20669824,-0.03774102,0,0.19516819,-107.46874,-57.417985)"
           style="font-style:normal;font-variant:normal;font-weight:normal;font-stretch:normal;font-size:40px;line-height:1.25;font-family:Streamster;-inkscape-font-specification:'Streamster, Normal';font-variant-ligatures:normal;font-variant-caps:normal;font-variant-numeric:normal;font-feature-settings:normal;text-align:start;letter-spacing:0px;word-spacing:0px;writing-mode:lr-tb;text-anchor:start;fill:#000000;fill-opacity:1;stroke:none"
           id="flowRoot14590"
           inkscape:export-xdpi="96"
           inkscape:export-ydpi="96">
          <path
             inkscape:connector-curvature="0"
             d="m -1219.6923,805.7992 q 0.2,0.56 0.08,1.12 -0.08,0.56 -0.28,1.12 -0.48,1.24 -1.2,2.36 -0.72,1.12 -1.52,2.16 -1.56,2.16 -3.28,4.24 -1.72,2.08 -3.44,4.16 -2.28,2.76 -4.6,5.52 -2.28,2.72 -4.76,5.28 -0.72,0.76 -1.48,1.48 -0.08,0.08 -0.4,0.36 -0.28,0.24 -0.4,0.16 -0.12,-0.08 0.08,-0.48 0.2,-0.4 0.28,-0.48 0.28,-0.52 0.56,-1 0.28,-0.48 0.6,-0.92 2.04,-3.24 4.28,-6.32 2.28,-3.12 4.6,-6.2 0.96,-1.28 2.24,-2.72 1.28,-1.48 2.6,-3 1.32,-1.52 2.52,-3.04 1.2,-1.56 1.96,-2.96 0.04,-0.04 0.08,-0.16 0.08,-0.16 0.12,-0.28 0.08,-0.12 0.12,-0.2 0.04,-0.12 0,-0.08 -1.08,0.32 -2.4,1.04 -1.32,0.68 -2.64,1.48 -1.32,0.8 -2.56,1.64 -1.24,0.8 -2.2,1.36 -0.12,0.08 -0.68,0.4 -0.52,0.32 -1.28,0.76 -0.72,0.44 -1.56,0.96 -0.84,0.48 -1.56,0.88 -0.72,0.36 -1.24,0.6 -0.48,0.2 -0.52,0.12 -0.04,-0.04 0,-0.12 0.08,-0.12 0.16,-0.2 0.12,-0.08 0.2,-0.16 0.08,-0.08 0.12,-0.12 0.8,-0.8 1.64,-1.52 0.88,-0.76 1.76,-1.44 2.04,-1.64 4.12,-3.16 2.12,-1.52 4.44,-2.72 0.92,-0.52 2.04,-0.96 1.12,-0.48 2.16,-0.16 0.44,0.12 0.76,0.44 0.32,0.32 0.48,0.76 z m -22.24,32.36 q 0.12,0.32 0,0.64 -0.08,0.32 -0.32,0.64 -0.2,0.28 -0.52,0.52 -0.28,0.24 -0.52,0.36 -0.24,0.12 -0.56,0.2 -0.32,0.08 -0.68,0.08 -0.32,0 -0.6,-0.12 -0.28,-0.16 -0.4,-0.48 -0.24,-0.64 0.16,-1.2 0.4,-0.6 0.92,-0.92 0.24,-0.12 0.6,-0.2 0.4,-0.12 0.76,-0.12 0.4,0 0.72,0.12 0.32,0.12 0.44,0.48 z"
             id="path14598" />
          <path
             inkscape:connector-curvature="0"
             d="m -1201.6454,805.7992 q 0.2,0.56 0.08,1.12 -0.08,0.56 -0.28,1.12 -0.48,1.24 -1.2,2.36 -0.72,1.12 -1.52,2.16 -1.56,2.16 -3.28,4.24 -1.72,2.08 -3.44,4.16 -2.28,2.76 -4.6,5.52 -2.28,2.72 -4.76,5.28 -0.72,0.76 -1.48,1.48 -0.08,0.08 -0.4,0.36 -0.28,0.24 -0.4,0.16 -0.12,-0.08 0.08,-0.48 0.2,-0.4 0.28,-0.48 0.28,-0.52 0.56,-1 0.28,-0.48 0.6,-0.92 2.04,-3.24 4.28,-6.32 2.28,-3.12 4.6,-6.2 0.96,-1.28 2.24,-2.72 1.28,-1.48 2.6,-3 1.32,-1.52 2.52,-3.04 1.2,-1.56 1.96,-2.96 0.04,-0.04 0.08,-0.16 0.08,-0.16 0.12,-0.28 0.08,-0.12 0.12,-0.2 0.04,-0.12 0,-0.08 -1.08,0.32 -2.4,1.04 -1.32,0.68 -2.64,1.48 -1.32,0.8 -2.56,1.64 -1.24,0.8 -2.2,1.36 -0.12,0.08 -0.68,0.4 -0.52,0.32 -1.28,0.76 -0.72,0.44 -1.56,0.96 -0.84,0.48 -1.56,0.88 -0.72,0.36 -1.24,0.6 -0.48,0.2 -0.52,0.12 -0.04,-0.04 0,-0.12 0.08,-0.12 0.16,-0.2 0.12,-0.08 0.2,-0.16 0.08,-0.08 0.12,-0.12 0.8,-0.8 1.64,-1.52 0.88,-0.76 1.76,-1.44 2.04,-1.64 4.12,-3.16 2.12,-1.52 4.44,-2.72 0.92,-0.52 2.04,-0.96 1.12,-0.48 2.16,-0.16 0.44,0.12 0.76,0.44 0.32,0.32 0.48,0.76 z m -22.24,32.36 q 0.12,0.32 0,0.64 -0.08,0.32 -0.32,0.64 -0.2,0.28 -0.52,0.52 -0.28,0.24 -0.52,0.36 -0.24,0.12 -0.56,0.2 -0.32,0.08 -0.68,0.08 -0.32,0 -0.6,-0.12 -0.28,-0.16 -0.4,-0.48 -0.24,-0.64 0.16,-1.2 0.4,-0.6 0.92,-0.92 0.24,-0.12 0.6,-0.2 0.4,-0.12 0.76,-0.12 0.4,0 0.72,0.12 0.32,0.12 0.44,0.48 z"
             id="path14600" />
          <path
             inkscape:connector-curvature="0"
             d="m -1183.5985,805.7992 q 0.2,0.56 0.08,1.12 -0.08,0.56 -0.28,1.12 -0.48,1.24 -1.2,2.36 -0.72,1.12 -1.52,2.16 -1.56,2.16 -3.28,4.24 -1.72,2.08 -3.44,4.16 -2.28,2.76 -4.6,5.52 -2.28,2.72 -4.76,5.28 -0.72,0.76 -1.48,1.48 -0.08,0.08 -0.4,0.36 -0.28,0.24 -0.4,0.16 -0.12,-0.08 0.08,-0.48 0.2,-0.4 0.28,-0.48 0.28,-0.52 0.56,-1 0.28,-0.48 0.6,-0.92 2.04,-3.24 4.28,-6.32 2.28,-3.12 4.6,-6.2 0.96,-1.28 2.24,-2.72 1.28,-1.48 2.6,-3 1.32,-1.52 2.52,-3.04 1.2,-1.56 1.96,-2.96 0.04,-0.04 0.08,-0.16 0.08,-0.16 0.12,-0.28 0.08,-0.12 0.12,-0.2 0.04,-0.12 0,-0.08 -1.08,0.32 -2.4,1.04 -1.32,0.68 -2.64,1.48 -1.32,0.8 -2.56,1.64 -1.24,0.8 -2.2,1.36 -0.12,0.08 -0.68,0.4 -0.52,0.32 -1.28,0.76 -0.72,0.44 -1.56,0.96 -0.84,0.48 -1.56,0.88 -0.72,0.36 -1.24,0.6 -0.48,0.2 -0.52,0.12 -0.04,-0.04 0,-0.12 0.08,-0.12 0.16,-0.2 0.12,-0.08 0.2,-0.16 0.08,-0.08 0.12,-0.12 0.8,-0.8 1.64,-1.52 0.88,-0.76 1.76,-1.44 2.04,-1.64 4.12,-3.16 2.12,-1.52 4.44,-2.72 0.92,-0.52 2.04,-0.96 1.12,-0.48 2.16,-0.16 0.44,0.12 0.76,0.44 0.32,0.32 0.48,0.76 z m -22.24,32.36 q 0.12,0.32 0,0.64 -0.08,0.32 -0.32,0.64 -0.2,0.28 -0.52,0.52 -0.28,0.24 -0.52,0.36 -0.24,0.12 -0.56,0.2 -0.32,0.08 -0.68,0.08 -0.32,0 -0.6,-0.12 -0.28,-0.16 -0.4,-0.48 -0.24,-0.64 0.16,-1.2 0.4,-0.6 0.92,-0.92 0.24,-0.12 0.6,-0.2 0.4,-0.12 0.76,-0.12 0.4,0 0.72,0.12 0.32,0.12 0.44,0.48 z"
             id="path14602" />
        </g>
        <g
           id="g14611"
           style="font-style:normal;font-variant:normal;font-weight:normal;font-stretch:normal;font-size:40px;line-height:1.25;font-family:Streamster;-inkscape-font-specification:'Streamster, Normal';font-variant-ligatures:normal;font-variant-caps:normal;font-variant-numeric:normal;font-feature-settings:normal;text-align:start;letter-spacing:0px;word-spacing:0px;writing-mode:lr-tb;text-anchor:start;fill:#000000;fill-opacity:1;stroke:none"
           transform="matrix(0.20669824,-0.03774102,0,0.19516819,-177.73524,-172.61715)"
           aria-label="???"
           inkscape:export-xdpi="96"
           inkscape:export-ydpi="96">
          <path
             id="path14605"
             d="m -1219.6923,805.7992 q 0.2,0.56 0.08,1.12 -0.08,0.56 -0.28,1.12 -0.48,1.24 -1.2,2.36 -0.72,1.12 -1.52,2.16 -1.56,2.16 -3.28,4.24 -1.72,2.08 -3.44,4.16 -2.28,2.76 -4.6,5.52 -2.28,2.72 -4.76,5.28 -0.72,0.76 -1.48,1.48 -0.08,0.08 -0.4,0.36 -0.28,0.24 -0.4,0.16 -0.12,-0.08 0.08,-0.48 0.2,-0.4 0.28,-0.48 0.28,-0.52 0.56,-1 0.28,-0.48 0.6,-0.92 2.04,-3.24 4.28,-6.32 2.28,-3.12 4.6,-6.2 0.96,-1.28 2.24,-2.72 1.28,-1.48 2.6,-3 1.32,-1.52 2.52,-3.04 1.2,-1.56 1.96,-2.96 0.04,-0.04 0.08,-0.16 0.08,-0.16 0.12,-0.28 0.08,-0.12 0.12,-0.2 0.04,-0.12 0,-0.08 -1.08,0.32 -2.4,1.04 -1.32,0.68 -2.64,1.48 -1.32,0.8 -2.56,1.64 -1.24,0.8 -2.2,1.36 -0.12,0.08 -0.68,0.4 -0.52,0.32 -1.28,0.76 -0.72,0.44 -1.56,0.96 -0.84,0.48 -1.56,0.88 -0.72,0.36 -1.24,0.6 -0.48,0.2 -0.52,0.12 -0.04,-0.04 0,-0.12 0.08,-0.12 0.16,-0.2 0.12,-0.08 0.2,-0.16 0.08,-0.08 0.12,-0.12 0.8,-0.8 1.64,-1.52 0.88,-0.76 1.76,-1.44 2.04,-1.64 4.12,-3.16 2.12,-1.52 4.44,-2.72 0.92,-0.52 2.04,-0.96 1.12,-0.48 2.16,-0.16 0.44,0.12 0.76,0.44 0.32,0.32 0.48,0.76 z m -22.24,32.36 q 0.12,0.32 0,0.64 -0.08,0.32 -0.32,0.64 -0.2,0.28 -0.52,0.52 -0.28,0.24 -0.52,0.36 -0.24,0.12 -0.56,0.2 -0.32,0.08 -0.68,0.08 -0.32,0 -0.6,-0.12 -0.28,-0.16 -0.4,-0.48 -0.24,-0.64 0.16,-1.2 0.4,-0.6 0.92,-0.92 0.24,-0.12 0.6,-0.2 0.4,-0.12 0.76,-0.12 0.4,0 0.72,0.12 0.32,0.12 0.44,0.48 z"
             inkscape:connector-curvature="0" />
          <path
             id="path14607"
             d="m -1201.6454,805.7992 q 0.2,0.56 0.08,1.12 -0.08,0.56 -0.28,1.12 -0.48,1.24 -1.2,2.36 -0.72,1.12 -1.52,2.16 -1.56,2.16 -3.28,4.24 -1.72,2.08 -3.44,4.16 -2.28,2.76 -4.6,5.52 -2.28,2.72 -4.76,5.28 -0.72,0.76 -1.48,1.48 -0.08,0.08 -0.4,0.36 -0.28,0.24 -0.4,0.16 -0.12,-0.08 0.08,-0.48 0.2,-0.4 0.28,-0.48 0.28,-0.52 0.56,-1 0.28,-0.48 0.6,-0.92 2.04,-3.24 4.28,-6.32 2.28,-3.12 4.6,-6.2 0.96,-1.28 2.24,-2.72 1.28,-1.48 2.6,-3 1.32,-1.52 2.52,-3.04 1.2,-1.56 1.96,-2.96 0.04,-0.04 0.08,-0.16 0.08,-0.16 0.12,-0.28 0.08,-0.12 0.12,-0.2 0.04,-0.12 0,-0.08 -1.08,0.32 -2.4,1.04 -1.32,0.68 -2.64,1.48 -1.32,0.8 -2.56,1.64 -1.24,0.8 -2.2,1.36 -0.12,0.08 -0.68,0.4 -0.52,0.32 -1.28,0.76 -0.72,0.44 -1.56,0.96 -0.84,0.48 -1.56,0.88 -0.72,0.36 -1.24,0.6 -0.48,0.2 -0.52,0.12 -0.04,-0.04 0,-0.12 0.08,-0.12 0.16,-0.2 0.12,-0.08 0.2,-0.16 0.08,-0.08 0.12,-0.12 0.8,-0.8 1.64,-1.52 0.88,-0.76 1.76,-1.44 2.04,-1.64 4.12,-3.16 2.12,-1.52 4.44,-2.72 0.92,-0.52 2.04,-0.96 1.12,-0.48 2.16,-0.16 0.44,0.12 0.76,0.44 0.32,0.32 0.48,0.76 z m -22.24,32.36 q 0.12,0.32 0,0.64 -0.08,0.32 -0.32,0.64 -0.2,0.28 -0.52,0.52 -0.28,0.24 -0.52,0.36 -0.24,0.12 -0.56,0.2 -0.32,0.08 -0.68,0.08 -0.32,0 -0.6,-0.12 -0.28,-0.16 -0.4,-0.48 -0.24,-0.64 0.16,-1.2 0.4,-0.6 0.92,-0.92 0.24,-0.12 0.6,-0.2 0.4,-0.12 0.76,-0.12 0.4,0 0.72,0.12 0.32,0.12 0.44,0.48 z"
             inkscape:connector-curvature="0" />
          <path
             id="path14609"
             d="m -1183.5985,805.7992 q 0.2,0.56 0.08,1.12 -0.08,0.56 -0.28,1.12 -0.48,1.24 -1.2,2.36 -0.72,1.12 -1.52,2.16 -1.56,2.16 -3.28,4.24 -1.72,2.08 -3.44,4.16 -2.28,2.76 -4.6,5.52 -2.28,2.72 -4.76,5.28 -0.72,0.76 -1.48,1.48 -0.08,0.08 -0.4,0.36 -0.28,0.24 -0.4,0.16 -0.12,-0.08 0.08,-0.48 0.2,-0.4 0.28,-0.48 0.28,-0.52 0.56,-1 0.28,-0.48 0.6,-0.92 2.04,-3.24 4.28,-6.32 2.28,-3.12 4.6,-6.2 0.96,-1.28 2.24,-2.72 1.28,-1.48 2.6,-3 1.32,-1.52 2.52,-3.04 1.2,-1.56 1.96,-2.96 0.04,-0.04 0.08,-0.16 0.08,-0.16 0.12,-0.28 0.08,-0.12 0.12,-0.2 0.04,-0.12 0,-0.08 -1.08,0.32 -2.4,1.04 -1.32,0.68 -2.64,1.48 -1.32,0.8 -2.56,1.64 -1.24,0.8 -2.2,1.36 -0.12,0.08 -0.68,0.4 -0.52,0.32 -1.28,0.76 -0.72,0.44 -1.56,0.96 -0.84,0.48 -1.56,0.88 -0.72,0.36 -1.24,0.6 -0.48,0.2 -0.52,0.12 -0.04,-0.04 0,-0.12 0.08,-0.12 0.16,-0.2 0.12,-0.08 0.2,-0.16 0.08,-0.08 0.12,-0.12 0.8,-0.8 1.64,-1.52 0.88,-0.76 1.76,-1.44 2.04,-1.64 4.12,-3.16 2.12,-1.52 4.44,-2.72 0.92,-0.52 2.04,-0.96 1.12,-0.48 2.16,-0.16 0.44,0.12 0.76,0.44 0.32,0.32 0.48,0.76 z m -22.24,32.36 q 0.12,0.32 0,0.64 -0.08,0.32 -0.32,0.64 -0.2,0.28 -0.52,0.52 -0.28,0.24 -0.52,0.36 -0.24,0.12 -0.56,0.2 -0.32,0.08 -0.68,0.08 -0.32,0 -0.6,-0.12 -0.28,-0.16 -0.4,-0.48 -0.24,-0.64 0.16,-1.2 0.4,-0.6 0.92,-0.92 0.24,-0.12 0.6,-0.2 0.4,-0.12 0.76,-0.12 0.4,0 0.72,0.12 0.32,0.12 0.44,0.48 z"
             inkscape:connector-curvature="0" />
        </g>
        <g
           aria-label="x"
           style="font-style:normal;font-variant:normal;font-weight:normal;font-stretch:normal;font-size:10.58333302px;line-height:1.25;font-family:'Rocket Rinder';-inkscape-font-specification:'Rocket Rinder';letter-spacing:0px;word-spacing:0px;fill:#e9afaf;fill-opacity:1;stroke:none;stroke-width:0.26458332"
           id="text14615"
           transform="matrix(2.1181879,-0.38675985,2.979469,3.3537479,-364.40571,-705.64643)"
           inkscape:export-xdpi="96"
           inkscape:export-ydpi="96">
          <path
             d="m -283.07833,204.18027 -3.61735,-3.61735 h 2.92489 l 2.1549,2.15491 2.15491,-2.15491 h 2.92489 l -3.61735,3.61735 3.61735,3.61735 h -2.92489 l -2.15491,-2.1549 -2.1549,2.1549 h -2.92489 z"
             style="fill:#e9afaf;stroke-width:0.26458332"
             id="path14617"
             inkscape:connector-curvature="0" />
        </g>
        <path
           d="m -344.19065,78.34687 a 51.392658,29.369621 0 0 1 -24.20723,24.92416 l -27.18543,-24.92416 z"
           sodipodi:end="1.0134039"
           sodipodi:start="0"
           sodipodi:ry="29.369621"
           sodipodi:rx="51.392658"
           sodipodi:cy="78.34687"
           sodipodi:cx="-395.58331"
           sodipodi:type="arc"
           id="path14726"
           style="fill:none;fill-opacity:1;fill-rule:evenodd;stroke:#808080;stroke-width:1.14392984;stroke-linejoin:round;stroke-miterlimit:4;stroke-dasharray:27.45431926, 1.14392996;stroke-dashoffset:0;stroke-opacity:1"
           transform="matrix(0.98373601,-0.17962033,0,1,0,0)"
           inkscape:export-xdpi="96"
           inkscape:export-ydpi="96" />
        <path
           inkscape:connector-curvature="0"
           id="path14728"
           d="m -388.92243,151.69538 c -10.84649,-71.057666 -10.84649,-71.057666 -10.84649,-71.057666 l 0.92443,-0.786542"
           style="fill:none;stroke:#000000;stroke-width:0.82348651;stroke-linecap:butt;stroke-linejoin:miter;stroke-miterlimit:4;stroke-dasharray:1.6469731, 0.82348655, 0.41174328, 0.82348655;stroke-dashoffset:0;stroke-opacity:1;marker-start:url(#marker14946)"
           inkscape:export-xdpi="96"
           inkscape:export-ydpi="96" />
        <ellipse
           inkscape:export-ydpi="96"
           inkscape:export-xdpi="96"
           ry="58.896572"
           rx="83.630203"
           cy="33.286446"
           cx="-405.26862"
           id="path14708"
           style="fill:none;fill-opacity:1;fill-rule:evenodd;stroke:url(#radialGradient14716);stroke-width:0.77173352;stroke-linejoin:round;stroke-miterlimit:4;stroke-dasharray:18.52160406, 0.7717335;stroke-dashoffset:0;stroke-opacity:1"
           transform="matrix(0.98373601,-0.17962033,0,1,0,0)" />
        <ellipse
           style="fill:none;fill-opacity:1;fill-rule:evenodd;stroke:url(#radialGradient15523);stroke-width:0.79559362;stroke-linejoin:round;stroke-miterlimit:4;stroke-dasharray:19.09424623, 0.79559359;stroke-dashoffset:0;stroke-opacity:1"
           id="ellipse15351"
           cx="-430.71582"
           cy="269.09167"
           rx="88.881416"
           ry="58.896572"
           inkscape:export-xdpi="96"
           inkscape:export-ydpi="96"
           transform="matrix(0.92561572,0.3784647,0,1,0,0)" />
        <path
           inkscape:connector-curvature="0"
           id="path15529"
           d="m -326.86168,0.73875466 c 4.03819,-0.20481108 0.37708,0.65632254 1.03207,0.87962284 0.12162,0.041466 0.39438,-0.041466 0.51604,0 0.24324,0.082932 -0.24328,0.2689175 0,0.3518491 0.12162,0.041466 0.39437,-0.041466 0.51599,0 0.12163,0.041466 -0.0769,0.123474 0,0.1759246 0.1088,0.074176 0.40724,0.1017483 0.51604,0.1759246 0.15384,0.1049012 -0.24324,0.2689175 0,0.3518491 0.12162,0.041466 0.39441,0.041466 0.51603,0 0.0637,-0.021731 0,-0.593378 0,-0.7036983 0,-0.042666 -0.0166,-0.5221159 0,-0.5277737 0.12162,-0.041466 0.39438,0.041466 0.516,0 0.12166,-0.041466 0,-0.117283 0,-0.1759246 0,-0.2932076 0,-0.58641519 0,-0.87962284 0,-0.0586415 0,-0.11728302 0,-0.17592452 0,-0.0586415 -0.12162,-0.13445875 0,-0.17592459 0.68805,-0.23456609 0.51604,0.29320761 0.51604,-0.17592459 0,-0.30965493 -0.42682,-0.35184911 0.51603,-0.35184911 0.54429,1.11339114 0.51601,0.69884514 0.51601,1.23147201 0,0.0586415 0.12163,0.1344587 0,0.17592454 -0.12162,0.0414657 -0.39439,-0.0414657 -0.51602,0 -0.12163,0.0414657 0,0.1172831 0,0.1759246 0,0.058642 -0.12163,0.1344587 0,0.1759245 0.0516,0.017593 1.49647,0.017593 1.54807,0 0.12163,-0.041466 -0.12163,-0.1344587 0,-0.1759245 0.12163,-0.041466 0.34402,0 0.51603,0 0.68803,0.2932076 1.45315,0.5671972 2.06409,0.8796228 0,0.4691323 -0.172,-0.058642 0.51603,0.1759246 0.25801,0.087962 -0.25801,0.4398115 0,0.5277738 0.12163,0.041466 0.39439,-0.041466 0.51602,0 0.24326,0.082932 -0.24325,0.2689175 0,0.3518491 0.12163,0.041466 0.3944,-0.041466 0.51603,0 0.24325,0.082932 -0.24326,0.2689175 0,0.3518492 0.12162,0.041466 0.39439,-0.041466 0.51602,0 0.25801,0.087962 -0.25801,0.4398114 0,0.5277737 0.12163,0.041466 0.3944,-0.041466 0.51602,0 0.12163,0.041466 -0.12162,0.1344588 0,0.1759246 0.12163,0.041466 0.67107,-0.025396 0.51603,0 -1.86501,0.3054884 -3.79212,0.5647991 -5.68818,0.8471987"
           style="fill:none;stroke:#78381b;stroke-width:0.59633654;stroke-linecap:butt;stroke-linejoin:miter;stroke-miterlimit:4;stroke-dasharray:none;stroke-opacity:1" />
        <path
           inkscape:connector-curvature="0"
           id="path15531"
           d="m -318.08927,1.9702266 c 1.37609,-0.4104906 2.8353,-0.7906842 4.1282,-1.23147194 0.24328,-0.0829316 -0.24324,-0.26891751 0,-0.3518492 0.12162,-0.0414657 0.39441,0.0414657 0.51604,0 0.24324,-0.0829316 -0.34403,-0.35184911 0,-0.35184911 0.34402,0 -0.15385,0.24694803 0,0.35184911 0.10879,0.0741764 0.40723,0.10174833 0.51603,0.1759246 0.1023,0.0697527 -0.10551,0.49180834 0,0.52777374 0.12162,0.041466 0.39438,-0.041466 0.516,0 0.24328,0.082932 -0.15384,0.246948 0,0.3518491 0.1088,0.074176 0.40723,0.1017483 0.51603,0.1759246 0.0769,0.052451 -0.0769,0.123474 0,0.1759246 0.1088,0.074176 0.40724,0.1017482 0.51604,0.1759245 0.15384,0.1049012 -0.24328,0.2689175 0,0.3518492 0.12162,0.041466 0.39437,-0.041466 0.51603,0 0.25798,0.087962 -0.25802,0.4398115 0,0.5277738 0.12162,0.041466 0.39438,-0.041466 0.516,0 0.24328,0.082932 -0.24324,0.2689175 0,0.3518491 0.12162,0.041466 0.39441,-0.041466 0.51603,0 0.12163,0.041466 0,0.1172831 0,0.1759245 0,0.058642 0.15385,0.2021499 0,0.1759246 -2.82428,-0.4814322 -5.50425,-1.0555474 -8.2564,-1.5833212"
           style="fill:none;stroke:#78381b;stroke-width:0.59633654;stroke-linecap:butt;stroke-linejoin:miter;stroke-miterlimit:4;stroke-dasharray:none;stroke-opacity:1" />
      </g>
    </g>
  </g>
</svg>
