<?xml version="1.0" encoding="UTF-8" standalone="no"?>
<svg
   xmlns:dc="http://purl.org/dc/elements/1.1/"
   xmlns:cc="http://creativecommons.org/ns#"
   xmlns:rdf="http://www.w3.org/1999/02/22-rdf-syntax-ns#"
   xmlns:svg="http://www.w3.org/2000/svg"
   xmlns="http://www.w3.org/2000/svg"
   xmlns:xlink="http://www.w3.org/1999/xlink"
   xmlns:sodipodi="http://sodipodi.sourceforge.net/DTD/sodipodi-0.dtd"
   xmlns:inkscape="http://www.inkscape.org/namespaces/inkscape"
   width="225mm"
   height="225mm"
   viewBox="0 0 225 225"
   version="1.1"
   id="svg8"
   inkscape:version="1.0 (4035a4fb49, 2020-05-01)"
   sodipodi:docname="xcraft-halo.svg">
  <defs
     id="defs2">
    <linearGradient
       id="linearGradient932"
       inkscape:collect="always">
      <stop
         id="stop928"
         offset="0"
         style="stop-color:#ffb380;stop-opacity:1;" />
      <stop
         id="stop930"
         offset="1"
         style="stop-color:#963c00;stop-opacity:1" />
    </linearGradient>
    <linearGradient
       id="linearGradient908"
       inkscape:collect="always">
      <stop
         id="stop904"
         offset="0"
         style="stop-color:#ff4f4f;stop-opacity:1" />
      <stop
         id="stop906"
         offset="1"
         style="stop-color:#900000;stop-opacity:1" />
    </linearGradient>
    <linearGradient
       id="linearGradient900"
       inkscape:collect="always">
      <stop
         id="stop896"
         offset="0"
         style="stop-color:#fee959;stop-opacity:1" />
      <stop
         id="stop898"
         offset="1"
         style="stop-color:#745001;stop-opacity:1" />
    </linearGradient>
    <pattern
       id="EMFhbasepattern"
       patternUnits="userSpaceOnUse"
       width="6"
       height="6"
       x="0"
       y="0" />
    <linearGradient
       gradientTransform="matrix(0.44138808,-0.63036751,0.63036751,0.44138808,20.660573,53.816424)"
       gradientUnits="userSpaceOnUse"
       y2="145.21719"
       x2="142.81937"
       y1="126.97783"
       x1="142.92464"
       id="linearGradient902"
       xlink:href="#linearGradient900"
       inkscape:collect="always" />
    <linearGradient
       gradientTransform="matrix(-0.44138809,0.6303675,0.6303675,0.44138809,-17.771591,17.934171)"
       gradientUnits="userSpaceOnUse"
       y2="212.94281"
       x2="53.087765"
       y1="184.36302"
       x1="53.06044"
       id="linearGradient910"
       xlink:href="#linearGradient908"
       inkscape:collect="always" />
    <linearGradient
       gradientTransform="matrix(-0.44138809,0.6303675,0.6303675,0.44138809,-17.771591,17.934171)"
       gradientUnits="userSpaceOnUse"
       y2="212.22473"
       x2="100.94503"
       y1="184.65027"
       x1="100.79565"
       id="linearGradient918"
       xlink:href="#linearGradient908"
       inkscape:collect="always" />
    <linearGradient
       gradientTransform="matrix(-0.44138809,0.6303675,0.6303675,0.44138809,-17.771591,17.934171)"
       gradientUnits="userSpaceOnUse"
       y2="208.92152"
       x2="81.540337"
       y1="190.49998"
       x1="92.604164"
       id="linearGradient926"
       xlink:href="#linearGradient908"
       inkscape:collect="always" />
    <linearGradient
       gradientTransform="matrix(0.76953664,0,0,0.76953664,144.60522,-64.77483)"
       gradientUnits="userSpaceOnUse"
       y2="66.313828"
       x2="79.211006"
       y1="58.798935"
       x1="79.211006"
       id="linearGradient934"
       xlink:href="#linearGradient932"
       inkscape:collect="always" />
    <filter
       inkscape:collect="always"
       style="color-interpolation-filters:sRGB"
       id="filter1549"
       x="-0.049238477"
       width="1.098477"
       y="-0.036626481"
       height="1.073253">
      <feGaussianBlur
         inkscape:collect="always"
         stdDeviation="3.2548104"
         id="feGaussianBlur1551" />
    </filter>
    <filter
       inkscape:collect="always"
       style="color-interpolation-filters:sRGB"
       id="filter1771"
       x="-0.35643"
       width="1.71286"
       y="-0.35643"
       height="1.71286">
      <feGaussianBlur
         inkscape:collect="always"
         stdDeviation="17.968001"
         id="feGaussianBlur1773" />
    </filter>
  </defs>
  <sodipodi:namedview
     inkscape:snap-global="false"
     inkscape:object-nodes="false"
     inkscape:snap-others="false"
     inkscape:snap-to-guides="false"
     id="base"
     pagecolor="#ffffff"
     bordercolor="#666666"
     borderopacity="1.0"
     inkscape:pageopacity="0.0"
     inkscape:pageshadow="2"
     inkscape:zoom="1.2159074"
     inkscape:cx="425.19685"
     inkscape:cy="425.19685"
     inkscape:document-units="mm"
     inkscape:current-layer="layer1"
     inkscape:document-rotation="0"
     showgrid="true"
     inkscape:window-width="1958"
     inkscape:window-height="1266"
     inkscape:window-x="4249"
     inkscape:window-y="215"
     inkscape:window-maximized="0"
     inkscape:snap-grids="false">
    <inkscape:grid
       type="xygrid"
       id="grid837"
       dotted="false"
       spacingx="2.6458333"
       spacingy="2.6458333" />
  </sodipodi:namedview>
  <metadata
     id="metadata5">
    <rdf:RDF>
      <cc:Work
         rdf:about="">
        <dc:format>image/svg+xml</dc:format>
        <dc:type
           rdf:resource="http://purl.org/dc/dcmitype/StillImage" />
        <dc:title />
      </cc:Work>
    </rdf:RDF>
  </metadata>
  <g
     inkscape:label="Calque 1"
     inkscape:groupmode="layer"
     id="layer1">
    <circle
       style="mix-blend-mode:normal;fill:#ffffff;fill-opacity:0.80487806;fill-rule:nonzero;stroke:none;stroke-width:1.23831;stroke-miterlimit:4;stroke-dasharray:none;filter:url(#filter1771)"
       id="path1721"
       cx="105.50709"
       cy="111.19439"
       r="60.493229" />
    <path
       d="m 18.52083,25.4 59.531249,85.98958 -59.531249,85.98958 h 52.916666 l 33.072884,-47.77176 33.07292,47.77176 h 52.91666 L 130.96872,111.38958 190.49996,25.4 H 137.5833 L 104.51038,73.171761 71.437496,25.4 Z"
       style="fill:#599a3e;fill-opacity:1;stroke:#000000;stroke-width:1;stroke-linecap:butt;stroke-linejoin:miter;stroke-miterlimit:4;stroke-dasharray:none;stroke-opacity:1"
       id="path946" />
    <path
       d="m 187.51622,6.2261721 -25.85682,19.1786749 -46.71395,66.713756 8.33955,5.839436 8.33902,5.838921 46.71343,-66.713756 z M 48.318535,6.9744471 c -0.34134,2.31e-4 -0.6919,0.03075 -1.05265,0.09508 l 3.82923,10.4825629 c -0.95089,4.04456 -7.65821,6.670792 -10.42934,3.222543 l -3.31969,-9.244914 c -0.21786,-0.785553 -1.48587,-0.549964 -1.7291,0.399459 -2.14175,4.467382 -2.05176,11.236296 0.3359,14.67869 1.98512,2.870787 12.725,4.042169 17.39635,10.713559 l 31.53193,45.031877 c 4.60742,6.675802 2.6259,11.666807 6.16758,16.657893 2.329583,3.283053 7.937981,4.786353 11.911395,1.994203 3.97348,-2.792033 4.52774,-8.608362 2.22208,-11.933127 -2.64289,-3.81105 -9.828713,-5.929117 -13.629625,-11.390519 L 60.020665,32.649882 c -3.73799,-5.507167 -0.46921,-14.632025 -3.83904,-19.681486 -2.13986,-3.1369469 -4.56346,-5.9961829 -7.86309,-5.9939489 z m 49.07865,80.4178299 2.053091,1.458825 2.633434,0.197922 0.42064,2.482535 1.72134,2.002978 -1.45779,2.05259 -0.19844,2.633945 -2.48253,0.42013 -2.002968,1.722378 -2.052578,-1.458308 -2.633936,-0.19844 -0.42013,-2.483052 -1.721863,-2.00298 1.457793,-2.052071 0.19895,-2.633946 2.482539,-0.420648 z m 27.815855,34.035643 -11.67474,8.1747 46.71343,66.71427 -11.67474,8.1747 10.51047,15.01045 24.51788,-14.68179 c -1.33567,-9.00708 -0.33589,-14.67821 8.50336,-23.3531 1.65584,-1.64753 -0.30107,-4.38365 -2.33577,-3.33571 l -16.17835,8.84235 -1.66759,1.16789 z m -32.695642,0.69712 -21.021463,30.02142 -2.50321,10.6748 -4.5036,-0.66766 -4.67155,6.67091 6.67143,4.67155 -19.85305,28.35331 -7.50704,7.17166 -2.53989,5.6782 4.87205,3.41168 4.33927,-4.41885 4.17132,-9.50691 19.85305,-28.35331 6.67143,4.67155 4.67155,-6.67143 -2.16783,-4.00389 9.17464,-6.00325 21.021425,-30.02142 c -2.66785,-6.83921 -9.339337,-11.51054 -16.678532,-11.67836 z"
       style="fill:#000000;fill-opacity:0.68;stroke:none;stroke-width:1.53907;stroke-linecap:butt;stroke-linejoin:round;stroke-miterlimit:4;stroke-dasharray:none;stroke-opacity:1;filter:url(#filter1549)"
       id="path981" />
    <g
       id="g999">
      <rect
         y="-28.12565"
         x="164.96588"
         height="14.25246"
         width="81.442627"
         id="rect841"
         style="fill:url(#linearGradient934);fill-opacity:1;stroke:#000000;stroke-width:0.939;stroke-linejoin:round;stroke-miterlimit:4;stroke-dasharray:none"
         transform="rotate(55)" />
      <path
         style="fill:#ffffff;fill-opacity:1;stroke:#ffffff;stroke-width:3.11638;stroke-linecap:round;stroke-linejoin:miter;stroke-miterlimit:4;stroke-dasharray:none;stroke-opacity:0.619632"
         d="m 116.6597,124.67131 47.88141,68.38174"
         id="path944" />
      <path
         sodipodi:nodetypes="cccccccc"
         id="path843"
         d="m 182.2196,175.70328 -16.17846,8.84271 -13.34279,9.34271 -11.67492,8.17489 10.51055,15.01061 24.5177,-14.6819 c -1.33567,-9.00707 -0.33565,-14.67843 8.5036,-23.35332 1.65584,-1.64754 -0.30097,-4.38363 -2.33568,-3.3357 z"
         style="fill:#4d4d4d;fill-opacity:1;stroke:#000000;stroke-width:0.939;stroke-linecap:butt;stroke-linejoin:round;stroke-miterlimit:4;stroke-dasharray:none;stroke-opacity:1" />
    </g>
    <g
       id="g989">
      <path
         sodipodi:nodetypes="ccccc"
         id="path855"
         d="m 80.621013,161.39673 -9.174891,6.00356 -10.007089,-7.00704 2.503512,-10.67491 z"
         style="fill:url(#linearGradient926);fill-opacity:1;stroke:#000000;stroke-width:0.939;stroke-linecap:butt;stroke-linejoin:round;stroke-miterlimit:4;stroke-dasharray:none;stroke-opacity:1" />
      <path
         sodipodi:nodetypes="ccccccccc"
         id="path857"
         d="m 58.935543,171.06817 3.335694,2.33567 -19.85327,28.35341 -4.171347,9.50708 -4.339163,4.41841 -4.872063,-3.41146 2.539839,-5.6783 7.50704,-7.17141 z"
         style="fill:#cccccc;stroke:#000000;stroke-width:0.939;stroke-linecap:butt;stroke-linejoin:miter;stroke-miterlimit:4;stroke-dasharray:none;stroke-opacity:1" />
      <path
         style="fill:url(#linearGradient910);fill-opacity:1;stroke:#000000;stroke-width:0.939;stroke-linecap:butt;stroke-linejoin:round;stroke-miterlimit:4;stroke-dasharray:none;stroke-opacity:1"
         d="m 84.963652,119.69709 c 7.339228,0.16782 14.010615,4.83918 16.678468,11.67839 L 80.621013,161.39673 63.942545,149.71834 Z"
         id="path861"
         sodipodi:nodetypes="ccccc" />
      <path
         style="fill:url(#linearGradient918);fill-opacity:1;stroke:#000000;stroke-width:0.939;stroke-linecap:butt;stroke-linejoin:round;stroke-miterlimit:4;stroke-dasharray:none;stroke-opacity:1"
         d="m 71.44613,167.4003 2.167858,4.00352 -4.671356,6.67139 -8.339238,-5.8392 -8.33923,-5.83919 4.671356,-6.67139 4.503522,0.66783 z"
         id="path863"
         sodipodi:nodetypes="cccccccc" />
      <path
         sodipodi:nodetypes="ccccc"
         id="path865"
         d="m 85.963667,125.36846 c 2.335678,-3.33569 5.671372,-1.00001 3.335694,2.33568 l -18.685428,26.68556 -3.335694,-2.33568 z"
         style="fill:#ff2a2a;stroke:#000000;stroke-width:0.939;stroke-linecap:butt;stroke-linejoin:round;stroke-miterlimit:4;stroke-dasharray:none;stroke-opacity:1" />
      <path
         style="fill:#ff2a2a;stroke:#000000;stroke-width:0.939;stroke-linecap:butt;stroke-linejoin:round;stroke-miterlimit:4;stroke-dasharray:none;stroke-opacity:1"
         d="m 92.635054,130.03982 c 2.335678,-3.33569 5.671372,-1.00002 3.335694,2.33568 l -18.685428,26.68555 -3.335694,-2.33567 z"
         id="path869"
         sodipodi:nodetypes="ccccc" />
      <path
         style="fill:#666666;stroke:#000000;stroke-width:0.939;stroke-linecap:butt;stroke-linejoin:round;stroke-miterlimit:4;stroke-dasharray:none;stroke-opacity:1"
         d="m 36.802294,212.74899 -2.894837,2.93375 -4.872063,-3.41146 1.745081,-3.77255 z"
         id="path871"
         sodipodi:nodetypes="ccccc" />
      <path
         style="fill:#ff2a2a;stroke:#000000;stroke-width:0.939;stroke-linecap:butt;stroke-linejoin:round;stroke-miterlimit:4;stroke-dasharray:none;stroke-opacity:1"
         d="m 57.935522,165.3968 c 2.335684,-3.3357 5.671377,-1.00002 3.335693,2.33568 l -2.335672,3.33569 -3.335693,-2.33568 z"
         id="path873"
         sodipodi:nodetypes="ccccc" />
      <path
         sodipodi:nodetypes="ccccc"
         id="path875"
         d="m 64.606917,170.06816 c 2.335684,-3.3357 5.671377,-1.00002 3.335694,2.33568 l -2.335672,3.33569 -3.335694,-2.33568 z"
         style="fill:#ff2a2a;stroke:#000000;stroke-width:0.939;stroke-linecap:butt;stroke-linejoin:round;stroke-miterlimit:4;stroke-dasharray:none;stroke-opacity:1" />
    </g>
    <g
       id="g978">
      <path
         id="path847"
         d="m 154.10567,22.97683 16.67847,11.678389 9.17834,-30.8569031 z"
         style="fill:url(#linearGradient902);fill-opacity:1;stroke:#000000;stroke-width:0.939;stroke-linecap:round;stroke-linejoin:round;stroke-miterlimit:4;stroke-dasharray:none;stroke-opacity:1" />
      <path
         sodipodi:nodetypes="cccc"
         id="path849"
         d="m 171.3912,10.191126 5.43188,3.730442 3.13941,-10.1232603 z"
         style="fill:#4d4d4d;stroke:#000000;stroke-width:0.939;stroke-linecap:round;stroke-linejoin:round;stroke-miterlimit:4;stroke-dasharray:none;stroke-opacity:1" />
      <path
         sodipodi:nodetypes="ccczcc"
         id="path851"
         d="m 115.73132,95.529919 8.33924,5.839201 46.71358,-66.713901 c -2.37178,-2.45984 -0.57291,-4.129519 -2.41786,-5.421368 -1.84494,-1.291843 -3.11103,0.885811 -5.92138,-0.417829 z"
         style="fill:#aa0000;stroke:#000000;stroke-width:0.939;stroke-linecap:butt;stroke-linejoin:round;stroke-miterlimit:4;stroke-dasharray:none;stroke-opacity:1" />
      <path
         style="fill:#ff0000;stroke:#000000;stroke-width:0.939;stroke-linecap:butt;stroke-linejoin:round;stroke-miterlimit:4;stroke-dasharray:none;stroke-opacity:1"
         d="m 107.39209,89.690727 8.33924,5.839198 46.71358,-66.713897 c -2.37179,-2.459847 -0.57292,-4.129525 -2.41786,-5.421368 -1.84495,-1.291849 -3.11104,0.885805 -5.92138,-0.41783 z"
         id="path853"
         sodipodi:nodetypes="ccczcc" />
      <path
         style="fill:#ffffff;fill-opacity:1;stroke:#ffffff;stroke-width:1.79297;stroke-linecap:round;stroke-linejoin:miter;stroke-miterlimit:4;stroke-dasharray:none;stroke-opacity:0.619632"
         d="M 110.22778,89.190712 154.60567,25.812517"
         id="path940" />
    </g>
    <g
       id="g971">
      <path
         id="path877"
         style="fill:#b3b3b3;stroke:#000000;stroke-width:0.939;stroke-linecap:butt;stroke-linejoin:round;stroke-miterlimit:4;stroke-dasharray:none;stroke-opacity:1"
         d="m 28.399233,24.179772 c 1.985121,2.870788 12.725231,4.042372 17.396587,10.713759 l 31.531665,45.031885 c 4.607427,6.675803 2.626184,11.666543 6.167864,16.657638 2.329574,3.283042 7.937692,4.786466 11.911114,1.994314 3.97348,-2.792029 4.52796,-8.608098 2.2223,-11.932862 C 94.985873,82.833455 87.79978,80.715462 83.998872,75.25406 L 52.467207,30.222176 C 48.729218,24.715008 51.997869,15.589655 48.628041,10.540195 46.266805,7.0787362 43.560133,3.9554621 39.712166,4.6417001 L 43.54167,15.123975 c -0.950893,4.04456 -7.658218,6.670768 -10.429357,3.222519 L 29.792692,9.1018079 C 29.574827,8.3162546 28.306818,8.5519129 28.063587,9.5013358 25.921841,13.968717 26.011573,20.737378 28.399233,24.179772 Z m 57.444876,72.099036 -0.420512,-2.482902 -1.721822,-2.002807 1.458088,-2.052568 0.198826,-2.63353 2.482337,-0.420605 2.002799,-1.721816 2.052805,1.45841 2.633629,0.198269 0.420274,2.482566 1.72182,2.002807 -1.45808,2.052568 -0.19859,2.633852 -2.48257,0.420292 -2.002581,1.722126 -2.0528,-1.458401 z"
         sodipodi:nodetypes="cscssscccccccccccccccccccccccccc" />
      <path
         style="fill:#ffffff;fill-opacity:1;stroke:#ffffff;stroke-width:2.57536;stroke-linecap:round;stroke-linejoin:miter;stroke-miterlimit:4;stroke-dasharray:none;stroke-opacity:0.619632"
         d="M 81.831014,79.257581 49.131513,32.557854"
         id="path936" />
    </g>
  </g>
</svg>
