<?xml version="1.0" encoding="UTF-8" standalone="no"?>
<svg
   xmlns:dc="http://purl.org/dc/elements/1.1/"
   xmlns:cc="http://creativecommons.org/ns#"
   xmlns:rdf="http://www.w3.org/1999/02/22-rdf-syntax-ns#"
   xmlns:svg="http://www.w3.org/2000/svg"
   xmlns="http://www.w3.org/2000/svg"
   xmlns:xlink="http://www.w3.org/1999/xlink"
   xmlns:sodipodi="http://sodipodi.sourceforge.net/DTD/sodipodi-0.dtd"
   xmlns:inkscape="http://www.inkscape.org/namespaces/inkscape"
   sodipodi:docname="xcraft-halo.svg"
   inkscape:version="1.0 (4035a4fb49, 2020-05-01)"
   id="svg8"
   version="1.1"
   viewBox="0 0 225 225"
   height="225mm"
   width="225mm">
  <defs
     id="defs2">
    <linearGradient
       inkscape:collect="always"
       id="linearGradient932">
      <stop
         style="stop-color:#ffb380;stop-opacity:1;"
         offset="0"
         id="stop928" />
      <stop
         style="stop-color:#963c00;stop-opacity:1"
         offset="1"
         id="stop930" />
    </linearGradient>
    <linearGradient
       inkscape:collect="always"
       id="linearGradient908">
      <stop
         style="stop-color:#ff4f4f;stop-opacity:1"
         offset="0"
         id="stop904" />
      <stop
         style="stop-color:#900000;stop-opacity:1"
         offset="1"
         id="stop906" />
    </linearGradient>
    <linearGradient
       inkscape:collect="always"
       id="linearGradient900">
      <stop
         style="stop-color:#fee959;stop-opacity:1"
         offset="0"
         id="stop896" />
      <stop
         style="stop-color:#745001;stop-opacity:1"
         offset="1"
         id="stop898" />
    </linearGradient>
    <pattern
       y="0"
       x="0"
       height="6"
       width="6"
       patternUnits="userSpaceOnUse"
       id="EMFhbasepattern" />
    <linearGradient
       inkscape:collect="always"
       xlink:href="#linearGradient900"
       id="linearGradient902"
       x1="142.92464"
       y1="126.97783"
       x2="142.81937"
       y2="145.21719"
       gradientUnits="userSpaceOnUse"
       gradientTransform="matrix(0.44138808,-0.63036751,0.63036751,0.44138808,25.95224,53.816424)" />
    <linearGradient
       inkscape:collect="always"
       xlink:href="#linearGradient908"
       id="linearGradient910"
       x1="53.06044"
       y1="184.36302"
       x2="53.087765"
       y2="212.94281"
       gradientUnits="userSpaceOnUse"
       gradientTransform="matrix(0.76953664,0,0,0.76953664,122.10003,257.81661)" />
    <linearGradient
       inkscape:collect="always"
       xlink:href="#linearGradient908"
       id="linearGradient918"
       x1="100.79565"
       y1="184.65027"
       x2="100.94503"
       y2="212.22473"
       gradientUnits="userSpaceOnUse"
       gradientTransform="matrix(0.76953664,0,0,0.76953664,122.10003,257.81661)" />
    <linearGradient
       inkscape:collect="always"
       xlink:href="#linearGradient908"
       id="linearGradient926"
       x1="92.604164"
       y1="190.49998"
       x2="81.540337"
       y2="208.92152"
       gradientUnits="userSpaceOnUse"
       gradientTransform="matrix(0.76953664,0,0,0.76953664,122.10003,257.81661)" />
    <linearGradient
       inkscape:collect="always"
       xlink:href="#linearGradient932"
       id="linearGradient934"
       x1="79.211006"
       y1="58.798935"
       x2="79.211006"
       y2="66.313828"
       gradientUnits="userSpaceOnUse"
       gradientTransform="matrix(0.76953664,0,0,0.76953664,147.6404,-69.10951)" />
    <filter
       height="1.073253"
       y="-0.036626481"
       width="1.098477"
       x="-0.049238477"
       id="filter1549"
       style="color-interpolation-filters:sRGB"
       inkscape:collect="always">
      <feGaussianBlur
         id="feGaussianBlur1551"
         stdDeviation="3.2548104"
         inkscape:collect="always" />
    </filter>
    <filter
       height="1.1585176"
       y="-0.079258802"
       width="1.1585176"
       x="-0.079258798"
       id="filter1717"
       style="color-interpolation-filters:sRGB"
       inkscape:collect="always">
      <feGaussianBlur
         id="feGaussianBlur1719"
         stdDeviation="5.6795256"
         inkscape:collect="always" />
    </filter>
    <filter
       height="1.71286"
       y="-0.35643"
       width="1.71286"
       x="-0.35643"
       id="filter1771"
       style="color-interpolation-filters:sRGB"
       inkscape:collect="always">
      <feGaussianBlur
         id="feGaussianBlur1773"
         stdDeviation="17.968001"
         inkscape:collect="always" />
    </filter>
  </defs>
  <sodipodi:namedview
     inkscape:snap-grids="false"
     inkscape:window-maximized="0"
     inkscape:window-y="215"
     inkscape:window-x="4249"
     inkscape:window-height="1266"
     inkscape:window-width="1958"
     showgrid="true"
     inkscape:document-rotation="0"
     inkscape:current-layer="layer1"
     inkscape:document-units="mm"
     inkscape:cy="425.19685"
     inkscape:cx="425.19685"
     inkscape:zoom="1.2159074"
     inkscape:pageshadow="2"
     inkscape:pageopacity="0.0"
     borderopacity="1.0"
     bordercolor="#666666"
     pagecolor="#ffffff"
     id="base"
     inkscape:snap-to-guides="false"
     inkscape:snap-others="false"
     inkscape:object-nodes="false"
     inkscape:snap-global="false">
    <inkscape:grid
       spacingy="2.6458333"
       spacingx="2.6458333"
       dotted="false"
       id="grid837"
       type="xygrid" />
  </sodipodi:namedview>
  <metadata
     id="metadata5">
    <rdf:RDF>
      <cc:Work
         rdf:about="">
        <dc:format>image/svg+xml</dc:format>
        <dc:type
           rdf:resource="http://purl.org/dc/dcmitype/StillImage" />
        <dc:title></dc:title>
      </cc:Work>
    </rdf:RDF>
  </metadata>
  <g
     id="layer1"
     inkscape:groupmode="layer"
     inkscape:label="Calque 1">
    <circle
       r="60.493229"
       cy="111.19439"
       cx="105.50709"
       id="path1721"
       style="mix-blend-mode:normal;fill:#ffffff;fill-opacity:0.80487806;fill-rule:nonzero;stroke:none;stroke-width:1.23831;stroke-miterlimit:4;stroke-dasharray:none;filter:url(#filter1771)" />
    <path
       d="M 39.158221,32.320619 98.689472,118.3102 39.158221,204.29977 h 52.916662 l 33.072917,-47.77175 33.07292,47.77175 h 52.91666 L 151.60614,118.3102 211.13738,32.320619 H 158.22072 L 125.1478,80.09238 92.074883,32.320619 Z"
       style="fill:#000000;fill-opacity:0.23;stroke:none;stroke-width:2;stroke-linecap:butt;stroke-linejoin:miter;stroke-miterlimit:4;stroke-dasharray:none;stroke-opacity:1;filter:url(#filter1717)"
       id="path1291" />
    <path
       id="path946"
       style="fill:#599a3e;fill-opacity:1;stroke:#000000;stroke-width:2;stroke-linecap:butt;stroke-linejoin:miter;stroke-miterlimit:4;stroke-dasharray:none;stroke-opacity:1"
       d="m 18.52083,25.4 59.531249,85.98958 -59.531249,85.98958 h 52.916666 l 33.072884,-47.77176 33.07292,47.77176 h 52.91666 L 130.96872,111.38958 190.49996,25.4 H 137.5833 L 104.51038,73.171761 71.437496,25.4 Z" />
    <path
       id="path981"
       style="fill:#000000;fill-opacity:0.68;stroke:none;stroke-width:1.53907;stroke-linecap:butt;stroke-linejoin:round;stroke-miterlimit:4;stroke-dasharray:none;stroke-opacity:1;filter:url(#filter1549)"
       d="m 187.51622,6.2261721 -25.85682,19.1786749 -46.71395,66.713756 8.33955,5.839436 8.33902,5.838921 46.71343,-66.713756 z M 48.318535,6.9744471 c -0.34134,2.31e-4 -0.6919,0.03075 -1.05265,0.09508 l 3.82923,10.4825629 c -0.95089,4.04456 -7.65821,6.670792 -10.42934,3.222543 l -3.31969,-9.244914 c -0.21786,-0.785553 -1.48587,-0.549964 -1.7291,0.399459 -2.14175,4.467382 -2.05176,11.236296 0.3359,14.67869 1.98512,2.870787 12.725,4.042169 17.39635,10.713559 l 31.53193,45.031877 c 4.60742,6.675802 2.6259,11.666807 6.16758,16.657893 2.329583,3.283053 7.937981,4.786353 11.911395,1.994203 3.97348,-2.792033 4.52774,-8.608362 2.22208,-11.933127 -2.64289,-3.81105 -9.828713,-5.929117 -13.629625,-11.390519 L 60.020665,32.649882 c -3.73799,-5.507167 -0.46921,-14.632025 -3.83904,-19.681486 -2.13986,-3.1369469 -4.56346,-5.9961829 -7.86309,-5.9939489 z m 49.07865,80.4178299 2.053091,1.458825 2.633434,0.197922 0.42064,2.482535 1.72134,2.002978 -1.45779,2.05259 -0.19844,2.633945 -2.48253,0.42013 -2.002968,1.722378 -2.052578,-1.458308 -2.633936,-0.19844 -0.42013,-2.483052 -1.721863,-2.00298 1.457793,-2.052071 0.19895,-2.633946 2.482539,-0.420648 z m 27.815855,34.035643 -11.67474,8.1747 46.71343,66.71427 -11.67474,8.1747 10.51047,15.01045 24.51788,-14.68179 c -1.33567,-9.00708 -0.33589,-14.67821 8.50336,-23.3531 1.65584,-1.64753 -0.30107,-4.38365 -2.33577,-3.33571 l -16.17835,8.84235 -1.66759,1.16789 z m -32.695642,0.69712 -21.021463,30.02142 -2.50321,10.6748 -4.5036,-0.66766 -4.67155,6.67091 6.67143,4.67155 -19.85305,28.35331 -7.50704,7.17166 -2.53989,5.6782 4.87205,3.41168 4.33927,-4.41885 4.17132,-9.50691 19.85305,-28.35331 6.67143,4.67155 4.67155,-6.67143 -2.16783,-4.00389 9.17464,-6.00325 21.021425,-30.02142 c -2.66785,-6.83921 -9.339337,-11.51054 -16.678532,-11.67836 z" />
    <g
       transform="translate(-5.2916669)"
       id="g1086">
      <rect
         transform="rotate(55)"
         style="fill:url(#linearGradient934);fill-opacity:1;stroke:#000000;stroke-width:1.53907;stroke-linejoin:round;stroke-miterlimit:4;stroke-dasharray:none"
         id="rect841"
         width="81.442627"
         height="14.25246"
         x="168.00105"
         y="-32.460331" />
      <path
         id="path944"
         d="m 121.95137,124.67131 47.88141,68.38174"
         style="fill:#ffffff;fill-opacity:1;stroke:#ffffff;stroke-width:3.11638;stroke-linecap:round;stroke-linejoin:miter;stroke-miterlimit:4;stroke-dasharray:none;stroke-opacity:0.619632" />
      <path
         style="fill:#4d4d4d;fill-opacity:1;stroke:#000000;stroke-width:1.53907;stroke-linecap:butt;stroke-linejoin:round;stroke-miterlimit:4;stroke-dasharray:none;stroke-opacity:1"
         d="m 187.51127,175.70328 -16.17846,8.84271 -13.34279,9.34271 -11.67492,8.17489 10.51055,15.01061 24.5177,-14.6819 c -1.33567,-9.00707 -0.33565,-14.67843 8.5036,-23.35332 1.65584,-1.64754 -0.30097,-4.38363 -2.33568,-3.3357 z"
         id="path843"
         sodipodi:nodetypes="cccccccc" />
    </g>
    <g
       id="g972"
       transform="matrix(-0.57357644,0.81915203,0.81915203,0.57357644,-158.92889,-229.96185)">
      <path
         style="fill:url(#linearGradient926);fill-opacity:1;stroke:#000000;stroke-width:1.53907;stroke-linecap:butt;stroke-linejoin:round;stroke-miterlimit:4;stroke-dasharray:none;stroke-opacity:1"
         d="m 183.182,420.70186 10.18033,-4.07213 v -12.2164 L 183.182,400.34121 Z"
         id="path855"
         sodipodi:nodetypes="ccccc" />
      <path
         style="fill:#cccccc;stroke:#000000;stroke-width:1.53907;stroke-linecap:butt;stroke-linejoin:miter;stroke-miterlimit:4;stroke-dasharray:none;stroke-opacity:1"
         d="m 203.54265,408.48547 v 4.07213 h 34.61312 l 10.18033,2.03607 6.10819,-1.02014 v -5.94769 l -6.10819,-1.17643 -10.18033,2.03606 z"
         id="path857"
         sodipodi:nodetypes="ccccccccc" />
      <path
         sodipodi:nodetypes="ccccc"
         id="path861"
         d="m 146.53282,400.34121 c -4.07214,6.1082 -4.07214,14.25246 0,20.36065 H 183.182 v -20.36065 z"
         style="fill:url(#linearGradient910);fill-opacity:1;stroke:#000000;stroke-width:1.53907;stroke-linecap:butt;stroke-linejoin:round;stroke-miterlimit:4;stroke-dasharray:none;stroke-opacity:1" />
      <path
         sodipodi:nodetypes="cccccccc"
         id="path863"
         d="m 193.36233,416.62974 2.03606,4.07213 h 8.14426 v -10.18033 -10.18032 h -8.14426 l -2.03606,4.07212 z"
         style="fill:url(#linearGradient918);fill-opacity:1;stroke:#000000;stroke-width:1.53907;stroke-linecap:butt;stroke-linejoin:round;stroke-miterlimit:4;stroke-dasharray:none;stroke-opacity:1" />
      <path
         style="fill:#ff2a2a;stroke:#000000;stroke-width:1.53907;stroke-linecap:butt;stroke-linejoin:round;stroke-miterlimit:4;stroke-dasharray:none;stroke-opacity:1"
         d="m 150.60495,404.41334 c -4.07213,0 -4.07213,4.07213 0,4.07213 H 183.182 v -4.07213 z"
         id="path865"
         sodipodi:nodetypes="ccccc" />
      <path
         sodipodi:nodetypes="ccccc"
         id="path869"
         d="m 150.60495,412.5576 c -4.07213,0 -4.07213,4.07213 0,4.07213 H 183.182 v -4.07213 z"
         style="fill:#ff2a2a;stroke:#000000;stroke-width:1.53907;stroke-linecap:butt;stroke-linejoin:round;stroke-miterlimit:4;stroke-dasharray:none;stroke-opacity:1" />
      <path
         sodipodi:nodetypes="ccccc"
         id="path871"
         d="m 250.38069,414.26211 4.0636,-0.68858 v -5.94769 l -4.09123,-0.73436 z"
         style="fill:#666666;stroke:#000000;stroke-width:1.53907;stroke-linecap:butt;stroke-linejoin:round;stroke-miterlimit:4;stroke-dasharray:none;stroke-opacity:1" />
      <path
         sodipodi:nodetypes="ccccc"
         id="path873"
         d="m 199.47053,404.41334 c -4.07214,0 -4.07214,4.07213 0,4.07213 h 4.07212 v -4.07213 z"
         style="fill:#ff2a2a;stroke:#000000;stroke-width:1.53907;stroke-linecap:butt;stroke-linejoin:round;stroke-miterlimit:4;stroke-dasharray:none;stroke-opacity:1" />
      <path
         style="fill:#ff2a2a;stroke:#000000;stroke-width:1.53907;stroke-linecap:butt;stroke-linejoin:round;stroke-miterlimit:4;stroke-dasharray:none;stroke-opacity:1"
         d="m 199.47053,412.55761 c -4.07214,0 -4.07214,4.07213 0,4.07213 h 4.07212 v -4.07213 z"
         id="path875"
         sodipodi:nodetypes="ccccc" />
    </g>
    <g
       transform="translate(-5.2916669)"
       id="g1078">
      <path
         style="fill:url(#linearGradient902);fill-opacity:1;stroke:#000000;stroke-width:1.53907;stroke-linecap:round;stroke-linejoin:round;stroke-miterlimit:4;stroke-dasharray:none;stroke-opacity:1"
         d="m 159.39734,22.97683 16.67847,11.678389 9.17834,-30.8569031 z"
         id="path847" />
      <path
         style="fill:#4d4d4d;stroke:#000000;stroke-width:1.53907;stroke-linecap:round;stroke-linejoin:round;stroke-miterlimit:4;stroke-dasharray:none;stroke-opacity:1"
         d="m 176.68287,10.191126 5.43188,3.730442 3.13941,-10.1232603 z"
         id="path849"
         sodipodi:nodetypes="cccc" />
      <path
         style="fill:#aa0000;stroke:#000000;stroke-width:1.53907;stroke-linecap:butt;stroke-linejoin:round;stroke-miterlimit:4;stroke-dasharray:none;stroke-opacity:1"
         d="m 121.02299,95.529919 8.33924,5.839201 46.71358,-66.713901 c -2.37178,-2.45984 -0.57291,-4.129519 -2.41786,-5.421368 -1.84494,-1.291843 -3.11103,0.885811 -5.92138,-0.417829 z"
         id="path851"
         sodipodi:nodetypes="ccczcc" />
      <path
         sodipodi:nodetypes="ccczcc"
         id="path853"
         d="m 112.68376,89.690727 8.33924,5.839198 46.71358,-66.713897 c -2.37179,-2.459847 -0.57292,-4.129525 -2.41786,-5.421368 -1.84495,-1.291849 -3.11104,0.885805 -5.92138,-0.41783 z"
         style="fill:#ff0000;stroke:#000000;stroke-width:1.53907;stroke-linecap:butt;stroke-linejoin:round;stroke-miterlimit:4;stroke-dasharray:none;stroke-opacity:1" />
      <path
         id="path940"
         d="M 115.51945,89.190712 159.89734,25.812517"
         style="fill:#ffffff;fill-opacity:1;stroke:#ffffff;stroke-width:1.79297;stroke-linecap:round;stroke-linejoin:miter;stroke-miterlimit:4;stroke-dasharray:none;stroke-opacity:0.619632" />
    </g>
    <g
       transform="translate(-5.2916669)"
       id="g1066">
      <path
         sodipodi:nodetypes="cscssscccccccccccccccccccccccccc"
         d="m 33.6909,24.179772 c 1.985121,2.870788 12.725231,4.042372 17.396587,10.713759 l 31.531665,45.031885 c 4.607427,6.675803 2.626184,11.666543 6.167864,16.657638 2.329574,3.283042 7.937692,4.786466 11.911114,1.994314 3.97348,-2.792029 4.52796,-8.608098 2.2223,-11.932862 C 100.27754,82.833455 93.091447,80.715462 89.290539,75.25406 L 57.758874,30.222176 C 54.020885,24.715008 57.289536,15.589655 53.919708,10.540195 51.558472,7.0787362 48.8518,3.9554621 45.003833,4.6417001 l 3.829504,10.4822749 c -0.950893,4.04456 -7.658218,6.670768 -10.429357,3.222519 L 35.084359,9.1018079 C 34.866494,8.3162546 33.598485,8.5519129 33.355254,9.5013358 31.213508,13.968717 31.30324,20.737378 33.6909,24.179772 Z m 57.444876,72.099036 -0.420512,-2.482902 -1.721822,-2.002807 1.458088,-2.052568 0.198826,-2.63353 2.482337,-0.420605 2.002799,-1.721816 2.052805,1.45841 2.633629,0.198269 0.420274,2.482566 1.72182,2.002807 -1.45808,2.052568 -0.19859,2.633852 -2.48257,0.420292 -2.002581,1.722126 -2.0528,-1.458401 z"
         style="fill:#b3b3b3;stroke:#000000;stroke-width:1.53907;stroke-linecap:butt;stroke-linejoin:round;stroke-miterlimit:4;stroke-dasharray:none;stroke-opacity:1"
         id="path877" />
      <path
         id="path936"
         d="M 87.122681,79.257581 54.42318,32.557854"
         style="fill:#ffffff;fill-opacity:1;stroke:#ffffff;stroke-width:2.57536;stroke-linecap:round;stroke-linejoin:miter;stroke-miterlimit:4;stroke-dasharray:none;stroke-opacity:0.619632" />
    </g>
  </g>
</svg>
